<svg xmlns="http://www.w3.org/2000/svg" fill="none" viewBox="0 0 460 460" opt="1"><g clip-path="url(#a)"><g filter="url(#b)" opacity=".4"><path fill="url(#c)" d="m205.692 412.477 25.507-14.878v-24.444l-25.507 14.879z"/><path fill="url(#d)" d="m154.679 412.478 25.506-14.879v-24.443l-25.506 14.878z"/><path fill="#2FA9FF" d="M78.16 240.523v24.444l25.506 14.879v-24.444zM78.16 216.038v24.443l25.506 14.879v-24.444z"/><path fill="#23CFCF" d="m154.679 387.992 25.506-14.879V348.67l-25.506 14.879z"/><path fill="url(#e)" d="m307.717 309.432 25.507-14.878V270.11l-25.507 14.879z"/><path fill="#2F83FF" d="m307.717 284.946 25.507-14.878v-24.444l-25.507 14.879z"/><path fill="url(#f)" fill-rule="evenodd" d="m307.717 333.833-25.507 14.879v-24.444l25.507-14.878zm0 24.487-25.506 14.878v-24.443l25.506-14.879z" clip-rule="evenodd"/><path fill="url(#g)" fill-rule="evenodd" d="m282.211 373.113-25.507 14.878v-24.443l25.507-14.879zm0 24.486-25.507 14.878v-24.443l25.507-14.879z" clip-rule="evenodd"/><path fill="url(#h)" fill-rule="evenodd" d="M78.16 270.111v24.443l25.506 14.879v-24.444zm25.632 87.925v-24.443l25.506 14.878v.272l25.38 14.805v24.444l-25.506-14.879v-.272zm25.38 15.12v24.443l25.506 14.879v-24.444zm51.012 0v24.443l25.506 14.879v-24.444zm-76.392-64.05v24.444l25.506 14.879v-24.444zm127.404 39.564v24.443l25.506 14.879v-24.444zm0 24.486v24.443l25.506 14.879v-24.444z" clip-rule="evenodd"/><path fill="#2F83FF" d="m307.717 279.845 25.507-14.879v-24.443l-25.507 14.879zM307.717 255.359l25.507-14.878v-24.444l-25.507 14.879z"/><path fill="url(#i)" fill-rule="evenodd" d="m180.186 299.655-25.507 14.879V290.09l25.507-14.878zm-25.507 39.365 25.507-14.879v-24.443l-25.507 14.878zm0 24.486 25.507-14.879v-24.443l-25.507 14.878z" clip-rule="evenodd"/><path fill="url(#j)" fill-rule="evenodd" d="M78.16 270.068v-24.443l25.506 14.878v-.085l25.506 14.879v-.085l25.506 14.878v24.444l-25.506-14.879v.043l25.506 14.878v24.444l-25.506-14.879v.043l25.506 14.878v24.444l-25.506-14.879v-24.401l-25.506-14.878v-24.402zm25.506 14.836v-.043l25.506 14.879v.043z" clip-rule="evenodd"/><path fill="url(#k)" fill-rule="evenodd" d="m231.199 299.655-25.506 14.878V290.09l25.506-14.879zm-25.506 39.364 25.506-14.878v-24.444l-25.506 14.879zm25.506 9.608-25.506 14.878v-24.443l25.506-14.879zm0 24.486-25.506 14.878v-24.443l25.506-14.879z" clip-rule="evenodd"/><path fill="url(#l)" fill-rule="evenodd" d="M180.185 299.655v-24.443l25.506 14.879v24.443zm0 .043v24.443l25.506 14.879v-24.443zm0 48.929v-24.443l25.506 14.879v24.443zm0 24.486V348.67l25.506 14.878v24.444z" clip-rule="evenodd"/><g filter="url(#m)"><path fill="url(#n)" fill-rule="evenodd" d="M103.666 201.159 78.16 216.038l25.36 14.793-25.36 14.794 25.506 14.878.073-.042 25.433 14.836.073-.043 25.433 14.837 25.434-14.837.072.043.073-.042 25.433 14.836 25.434-14.837.073.043.073-.042 25.433 14.836 25.506-14.879-25.36-14.794 25.007-14.587.104.061-24.883 14.515 25.506 14.879 25.506-14.879-.498-.29 24.884-14.516-25.039-14.606.208-.121.072.042 25.506-14.878-25.506-14.879-25.433 14.836-.072-.042-25.435 14.836-.073-.043-25.433 14.836-.073-.042-.073.043-25.434-14.837-25.433 14.836-.073-.042-.073.042-25.433-14.836-.073.043-25.433-14.836-.073.042z" clip-rule="evenodd"/></g><path fill="url(#o)" fill-rule="evenodd" d="m103.666 201.244 25.506-14.879 25.433 14.836.073-.042 25.433 14.836.073-.042.073.042 25.433-14.836 25.434 14.836.072-.042.073.042 25.434-14.836.073.043 25.433-14.837 25.506 14.879-25.506 14.879-.073-.043-25.433 14.836-.073-.042-25.434 14.836-25.433-14.836-.073.042-.073-.042-25.433 14.836-25.434-14.836-.072.042-25.433-14.836-.073.043z" clip-rule="evenodd"/><path fill="url(#p)" fill-rule="evenodd" d="m307.716 284.861-25.507 14.879v.042l25.507-14.878v24.443l-25.506 14.878v24.402l-25.506 14.878v-24.443l25.505-14.878v-.043l-25.506 14.878v-24.443l25.506-14.879v-.042l-25.506 14.878V290.09l25.506-14.879v.085l25.507-14.879z" clip-rule="evenodd"/><path fill="url(#q)" fill-rule="evenodd" d="M231.198 299.655v-24.444l25.506 14.879v24.444zm0 .042v24.444l25.506 14.879v-24.444zm0 24.486v24.444l25.506 14.879v-24.444z" clip-rule="evenodd"/><path fill="url(#r)" d="M136.611 195.399h-14.879v6.376c0 2.348 3.331 4.251 7.439 4.251s7.44-1.903 7.44-4.251z"/><path fill="url(#s)" d="M162.117 210.192h-14.879v6.377c0 2.348 3.331 4.251 7.439 4.251s7.44-1.903 7.44-4.251z"/><path fill="url(#t)" d="M213.13 210.192h-14.879v6.377c0 2.348 3.331 4.251 7.439 4.251s7.44-1.903 7.44-4.251z"/><path fill="url(#u)" d="M187.624 224.986h-14.879v6.376c0 2.348 3.33 4.252 7.439 4.252s7.439-1.904 7.439-4.252z"/><path fill="url(#v)" d="M289.648 195.399h-14.879v6.376c.001 2.348 3.331 4.251 7.44 4.251 4.108 0 7.439-1.903 7.439-4.251v-6.376"/><path fill="url(#w)" d="M264.142 210.192h-14.879v6.377c0 2.348 3.331 4.251 7.44 4.251 4.108 0 7.439-1.903 7.439-4.251v-6.377"/><path fill="url(#x)" d="M238.636 224.986h-14.879v6.376c0 2.348 3.331 4.252 7.439 4.252s7.44-1.904 7.44-4.252v-6.376"/><path fill="url(#y)" d="M213.13 239.78h-14.879v6.376c0 2.348 3.331 4.251 7.439 4.251s7.44-1.903 7.44-4.251z"/><path fill="url(#z)" d="M111.105 210.192H96.226v6.377c0 2.348 3.331 4.251 7.44 4.251 4.108 0 7.439-1.903 7.439-4.251v-6.377"/><path fill="url(#A)" d="M315.155 210.192h-14.879v6.377c0 2.348 3.331 4.251 7.44 4.251 4.108 0 7.439-1.903 7.439-4.251v-6.377"/><path fill="url(#B)" d="M136.611 224.986h-14.879v6.376c0 2.348 3.331 4.252 7.439 4.252s7.44-1.904 7.44-4.252z"/><path fill="url(#C)" d="M111.105 239.78H96.226v6.376c0 2.348 3.331 4.251 7.44 4.251 4.108 0 7.439-1.903 7.439-4.251v-6.376"/><path fill="url(#D)" d="M162.118 239.78h-14.879v6.376c0 2.348 3.331 4.251 7.439 4.251s7.439-1.903 7.44-4.251z"/><path fill="url(#E)" d="M136.611 254.573h-14.879v6.377c0 2.348 3.331 4.251 7.439 4.251s7.44-1.903 7.44-4.251z"/><path fill="url(#F)" d="M187.623 254.573h-14.878v6.377c0 2.348 3.33 4.251 7.439 4.251s7.439-1.903 7.439-4.251z"/><path fill="url(#G)" d="M162.118 269.367h-14.879v6.376c0 2.348 3.331 4.251 7.439 4.251s7.439-1.903 7.44-4.251z"/><path fill="url(#H)" d="M289.649 224.986H274.77v6.376c0 2.348 3.331 4.252 7.439 4.252s7.44-1.904 7.44-4.252v-6.376"/><path fill="url(#I)" d="M264.142 239.78h-14.879v6.376c0 2.348 3.331 4.251 7.44 4.251 4.108 0 7.439-1.903 7.439-4.251v-6.376"/><path fill="url(#J)" d="M238.636 254.573h-14.878v6.377c0 2.347 3.331 4.251 7.439 4.251s7.44-1.903 7.44-4.251l-.001-.032z"/><path fill="url(#K)" d="M213.13 269.367h-14.879v6.376c0 2.348 3.331 4.251 7.439 4.251s7.44-1.903 7.44-4.251z"/><path fill="url(#L)" d="M315.155 239.78h-14.879v6.376c0 2.348 3.331 4.251 7.44 4.251 4.108 0 7.439-1.903 7.439-4.251v-6.376"/><path fill="url(#M)" d="M289.649 254.573H274.77v6.377c0 2.347 3.331 4.251 7.439 4.251s7.44-1.903 7.44-4.251v-6.377"/><path fill="url(#N)" d="M264.142 269.367h-14.879v6.376c0 2.348 3.331 4.251 7.44 4.251 4.108 0 7.439-1.903 7.439-4.251v-6.376"/><path fill="#1884CF" d="M136.612 195.399h-14.879v6.3759999999999994c0 2.348 3.331 4.251 7.44 4.251 4.108 0 7.439-1.903 7.439-4.251zM162.118 210.192h-14.879v6.377c0 2.348 3.331 4.251 7.44 4.251 4.108 0 7.439-1.903 7.439-4.251zM213.131 210.192h-14.879v6.377c0 2.348 3.331 4.251 7.44 4.251 4.108 0 7.439-1.903 7.439-4.251zM187.625 224.986h-14.879v6.3759999999999994c0 2.348 3.331 4.251 7.439 4.251s7.44-1.903 7.44-4.251zM289.649 195.399h-14.878v6.376c0 2.348 3.33 4.251 7.439 4.251s7.439-1.903 7.439-4.251v-6.376M264.143 210.192h-14.879v6.377c0 2.348 3.331 4.251 7.44 4.251 4.108 0 7.439-1.903 7.439-4.251v-6.377000000000001M238.637 224.986h-14.879v6.376c0 2.348 3.331 4.251 7.44 4.251 4.108 0 7.439-1.903 7.439-4.251v-6.3759999999999994"/><g fill="#EFF8FF" fill-opacity=".6" filter="url(#O)"><path d="M136.611 195.398c0 2.348-3.331 4.252-7.44 4.252-4.108 0-7.439-1.904-7.439-4.252s3.331-4.251 7.439-4.251 7.44 1.904 7.44 4.251M162.117 210.192c0 2.348-3.331 4.251-7.44 4.251-4.108 0-7.439-1.903-7.439-4.251s3.331-4.251 7.439-4.251 7.44 1.903 7.44 4.251M213.13 210.192c0 2.348-3.331 4.251-7.44 4.251-4.108 0-7.439-1.903-7.439-4.251s3.331-4.251 7.439-4.251 7.44 1.903 7.44 4.251M187.623 224.986c0 2.348-3.33 4.251-7.439 4.251s-7.439-1.903-7.439-4.251 3.33-4.251 7.439-4.251 7.439 1.903 7.439 4.251M289.648 195.398c0 2.348-3.331 4.252-7.439 4.252s-7.44-1.904-7.44-4.252 3.331-4.251 7.44-4.251c4.108 0 7.439 1.904 7.439 4.251M264.142 210.192c0 2.348-3.331 4.251-7.439 4.251s-7.44-1.903-7.44-4.251 3.331-4.251 7.44-4.251c4.108 0 7.439 1.903 7.439 4.251M238.636 224.986c0 2.348-3.331 4.251-7.44 4.251-4.108 0-7.439-1.903-7.439-4.251s3.331-4.251 7.439-4.251 7.44 1.903 7.44 4.251M213.13 239.78c0 2.347-3.331 4.251-7.44 4.251-4.108 0-7.439-1.904-7.439-4.251s3.331-4.252 7.439-4.252 7.44 1.904 7.44 4.252M111.105 210.192c0 2.348-3.331 4.251-7.439 4.251s-7.44-1.903-7.44-4.251 3.331-4.251 7.44-4.251c4.108 0 7.439 1.903 7.439 4.251M315.155 210.192c0 2.348-3.331 4.251-7.439 4.251s-7.44-1.903-7.44-4.251 3.331-4.251 7.44-4.251c4.108 0 7.439 1.903 7.439 4.251M136.611 224.986c0 2.348-3.331 4.251-7.44 4.251-4.108 0-7.439-1.903-7.439-4.251s3.331-4.251 7.439-4.251 7.44 1.903 7.44 4.251M111.105 239.779c0 2.348-3.331 4.251-7.439 4.251s-7.44-1.903-7.44-4.251c0-2.347 3.331-4.251 7.44-4.251 4.108 0 7.439 1.904 7.439 4.251M162.118 239.779c0 2.348-3.331 4.251-7.44 4.251-4.108 0-7.439-1.903-7.439-4.251 0-2.347 3.331-4.251 7.439-4.251s7.44 1.904 7.44 4.251M136.611 254.573c0 2.348-3.331 4.251-7.44 4.251-4.108 0-7.439-1.903-7.439-4.251s3.331-4.251 7.439-4.251 7.44 1.903 7.44 4.251M187.623 254.573c0 2.348-3.33 4.251-7.439 4.251s-7.439-1.903-7.439-4.251 3.33-4.251 7.439-4.251 7.439 1.903 7.439 4.251M162.118 269.367c0 2.347-3.331 4.251-7.44 4.251-4.108 0-7.439-1.904-7.439-4.251s3.331-4.251 7.439-4.251 7.44 1.903 7.44 4.251M289.649 224.986c0 2.348-3.331 4.251-7.44 4.251-4.108 0-7.439-1.903-7.439-4.251s3.331-4.251 7.439-4.251 7.44 1.903 7.44 4.251M264.142 239.779c0 2.348-3.331 4.251-7.439 4.251s-7.44-1.903-7.44-4.251c0-2.347 3.331-4.251 7.44-4.251 4.108 0 7.439 1.904 7.439 4.251M238.636 254.573c0 2.348-3.33 4.251-7.439 4.251s-7.439-1.903-7.439-4.251 3.33-4.251 7.439-4.251 7.439 1.903 7.439 4.251M213.13 269.367c0 2.347-3.331 4.251-7.44 4.251-4.108 0-7.439-1.904-7.439-4.251s3.331-4.251 7.439-4.251 7.44 1.903 7.44 4.251M315.155 239.779c0 2.348-3.331 4.251-7.439 4.251s-7.44-1.903-7.44-4.251c0-2.347 3.331-4.251 7.44-4.251 4.108 0 7.439 1.904 7.439 4.251M289.649 254.573c0 2.348-3.331 4.251-7.44 4.251-4.108 0-7.439-1.903-7.439-4.251s3.331-4.251 7.439-4.251 7.44 1.903 7.44 4.251M264.142 269.367c0 2.347-3.331 4.251-7.439 4.251s-7.44-1.904-7.44-4.251 3.331-4.251 7.44-4.251c4.108 0 7.439 1.903 7.439 4.251"/></g><path fill="#79C2F7" d="M136.612 195.398c0 2.348-3.331 4.252-7.439 4.252s-7.44-1.904-7.44-4.252 3.331-4.251 7.44-4.251c4.108 0 7.439 1.904 7.439 4.251M162.118 210.192c0 2.348-3.331 4.251-7.439 4.251s-7.44-1.903-7.44-4.251 3.331-4.251 7.44-4.251c4.108 0 7.439 1.903 7.439 4.251M213.131 210.192c0 2.348-3.331 4.251-7.439 4.251s-7.44-1.903-7.44-4.251 3.331-4.251 7.44-4.251c4.108 0 7.439 1.903 7.439 4.251M187.625 224.986c0 2.348-3.331 4.251-7.44 4.251-4.108 0-7.439-1.903-7.439-4.251s3.331-4.251 7.439-4.251 7.44 1.903 7.44 4.251M289.649 195.398c0 2.348-3.33 4.252-7.439 4.252s-7.439-1.904-7.439-4.252 3.33-4.251 7.439-4.251 7.439 1.904 7.439 4.251M264.143 210.192c0 2.348-3.331 4.251-7.439 4.251s-7.44-1.903-7.44-4.251 3.331-4.251 7.44-4.251c4.108 0 7.439 1.903 7.439 4.251M238.637 224.986c0 2.348-3.331 4.251-7.44 4.251-4.108 0-7.439-1.903-7.439-4.251s3.331-4.251 7.439-4.251 7.44 1.903 7.44 4.251"/><path fill="url(#P)" d="M78.535 245.528v24.444l25.506 14.878v-24.443z"/><g filter="url(#Q)"><ellipse cx="201.337" cy="203.724" fill="#0029FF" rx="87.964" ry="40.063"/></g><path fill="#71C3FF" d="m256.704 125.235 25.507-14.878 25.506 14.878-25.506 14.879z"/><path fill="#2FA9FF" fill-rule="evenodd" d="M289.65 119.39h-14.878v6.377c0 2.347 3.331 4.251 7.439 4.251s7.44-1.904 7.44-4.251l-.001-.033z" clip-rule="evenodd"/><ellipse cx="282.21" cy="119.39" fill="#EFF8FF" rx="7.439" ry="4.251"/><path fill="url(#R)" fill-rule="evenodd" d="m256.704 154.864 25.506-14.878v-24.443l-25.507 14.878v24.402l-25.505 14.878v24.444l25.505-14.878v.042l-25.505 14.878v24.444l25.505-14.878v.084l25.507-14.879v.085l25.506-14.878v-24.444L282.21 164.6v-.043l25.506-14.878v-24.444l-25.506 14.879v-.085l-25.506 14.878zm0 24.529v-.043l25.506-14.878v.043z" clip-rule="evenodd"/><path fill="url(#S)" fill-rule="evenodd" d="M205.692 179.266v-24.443l25.506 14.879v24.443zm0 24.487v-24.444l25.506 14.879v24.443z" clip-rule="evenodd"/><path fill="#F88887" fill-rule="evenodd" d="M264.143 85.212h-14.878v6.376c0 2.348 3.33 4.252 7.439 4.252s7.439-1.904 7.439-4.252z" clip-rule="evenodd"/><ellipse cx="256.703" cy="85.212" fill="#FFEDEF" rx="7.439" ry="4.251"/><path fill="url(#T)" fill-rule="evenodd" d="m231.198 42-25.506 14.879 25.506 14.878 25.507-14.878zm25.506 34.179-25.506 14.878 25.506 14.879 25.506-14.879z" clip-rule="evenodd"/><g filter="url(#U)"><path fill="url(#V)" fill-rule="evenodd" d="m256.704 81.322-25.506 14.879V71.757l25.506-14.878zm0 24.486-25.506 14.879V96.243l25.506-14.878zm25.506 9.693-25.506 14.878v24.401l-25.506 14.879v-24.443l25.505-14.879v-.042l-25.505 14.878v-24.444l25.506-14.878v.084l25.506-14.878z" clip-rule="evenodd"/></g><path fill="url(#W)" fill-rule="evenodd" d="M205.692 81.322V56.88l25.506 14.878v24.444zm0 .043v24.443l25.506 14.879V96.243zm0 48.929v-24.443l25.506 14.878v24.444zm0 24.486v-24.443l25.506 14.878v24.444z" clip-rule="evenodd"/><path fill="#F88887" fill-rule="evenodd" d="M238.637 51.033h-14.878v6.377c0 2.348 3.331 4.251 7.439 4.251s7.439-1.903 7.439-4.251z" clip-rule="evenodd"/><ellipse cx="231.198" cy="51.033" fill="#FFEDEF" rx="7.439" ry="4.251"/><path fill="#6EFAA6" d="m103.667 125.235 25.506-14.878 25.506 14.878-25.506 14.879z"/><path fill="#35C16D" fill-rule="evenodd" d="M136.612 119.39h-14.878v6.377c0 2.347 3.331 4.251 7.439 4.251s7.439-1.904 7.439-4.251v-6.377" clip-rule="evenodd"/><ellipse cx="129.173" cy="119.39" fill="#E7FFF0" rx="7.439" ry="4.251"/><path fill="url(#X)" fill-rule="evenodd" d="m205.692 179.266-25.506 14.879v-24.443l25.506-14.879zm0 24.486-25.506 14.879v-24.443l25.506-14.879z" clip-rule="evenodd"/><g filter="url(#Y)"><path fill="url(#Z)" fill-rule="evenodd" d="M129.173 139.986v-24.443l25.507 14.878v24.402l25.506 14.878v24.444l-25.506-14.879v.043l25.506 14.878v24.444l-25.506-14.879v.085l-25.507-14.879v.085l-25.506-14.878v-24.444l25.506 14.879v-.043l-25.506-14.878v-24.444l25.506 14.879v-.085l25.507 14.878v-.042zm25.507 39.365v.043l-25.507-14.879v-.043z" clip-rule="evenodd"/></g><path fill="#FFEE92" d="M129.173 91.057 154.68 76.18l25.506 14.878-25.506 14.879z"/><path fill="#FFDE2E" fill-rule="evenodd" d="M162.118 85.212H147.24v6.376c0 2.348 3.33 4.251 7.439 4.251 4.108 0 7.439-1.903 7.439-4.25z" clip-rule="evenodd"/><ellipse cx="154.679" cy="85.212" fill="#FFF6DF" rx="7.439" ry="4.251"/><path fill="#FFEE92" d="M154.679 56.879 180.186 42l25.506 14.879-25.506 14.878z"/><path fill="url(#aa)" fill-rule="evenodd" d="m205.692 81.322-25.506 14.879V71.757l25.506-14.878zm-25.506 39.365 25.506-14.879V81.365l-25.506 14.878zm25.506 9.607-25.506 14.879v-24.444l25.506-14.878zm0 24.486-25.506 14.879v-24.443l25.506-14.879z" clip-rule="evenodd"/><g filter="url(#ab)"><path fill="url(#ac)" fill-rule="evenodd" d="M154.679 81.322V56.88l25.506 14.878v24.444zm0 .043v24.443l25.506 14.879V96.243zm-25.506 9.692v24.444l25.506 14.878v24.401l25.506 14.879v-24.444l-25.506-14.878v-.043l25.506 14.879v-24.444l-25.506-14.878v.085z" clip-rule="evenodd"/></g><path fill="#FFDE2E" fill-rule="evenodd" d="M187.624 51.033h-14.878v6.377c0 2.348 3.33 4.251 7.439 4.251s7.439-1.903 7.439-4.251z" clip-rule="evenodd"/><ellipse cx="180.185" cy="51.033" fill="#FFF6DF" rx="7.439" ry="4.251"/></g><path fill="url(#ad)" d="m229.652 410.038 25.506-14.879v-24.443l-25.506 14.878z"/><path fill="url(#ae)" d="m178.64 410.038 25.506-14.879v-24.443l-25.506 14.878z"/><path fill="#2FA9FF" d="M102.12 238.083v24.444l25.506 14.878v-24.443zM102.12 213.597v24.444l25.506 14.879v-24.444z"/><path fill="#23CFCF" d="m178.64 385.552 25.506-14.879V346.23l-25.506 14.879z"/><path fill="url(#af)" d="m331.677 306.993 25.506-14.879v-24.443l-25.506 14.878z"/><path fill="#2F83FF" d="m331.677 282.507 25.506-14.879v-24.443l-25.506 14.878z"/><path fill="url(#ag)" fill-rule="evenodd" d="m331.676 331.393-25.506 14.879v-24.444l25.506-14.878zm0 24.486-25.506 14.879v-24.443l25.506-14.879z" clip-rule="evenodd"/><path fill="url(#ah)" fill-rule="evenodd" d="m306.17 370.673-25.506 14.879v-24.444l25.506-14.879zm0 24.486-25.506 14.879v-24.444l25.506-14.878z" clip-rule="evenodd"/><path fill="url(#ai)" fill-rule="evenodd" d="M102.12 267.671v24.443l25.506 14.879V282.55zm25.633 87.926v-24.444l25.506 14.879v.272l25.38 14.805v24.443l-25.506-14.879v-.271zm25.38 15.119v24.443l25.506 14.879v-24.443zm51.011 0v24.443l25.507 14.879v-24.443zm-76.391-64.049v24.443l25.506 14.879v-24.444zm127.404 39.563v24.443l25.506 14.879v-24.443zm0 24.486v24.444l25.506 14.878v-24.443z" clip-rule="evenodd"/><path fill="#2F83FF" d="m331.677 277.405 25.506-14.878v-24.444l-25.506 14.879zM331.677 252.92l25.506-14.879v-24.444l-25.506 14.879z"/><path fill="url(#aj)" fill-rule="evenodd" d="m204.145 297.215-25.506 14.879V287.65l25.506-14.878zm-25.506 39.365 25.506-14.879v-24.443l-25.506 14.878zm0 24.486 25.506-14.879v-24.443l-25.506 14.878z" clip-rule="evenodd"/><path fill="url(#ak)" fill-rule="evenodd" d="M102.12 267.628v-24.443l25.506 14.878v24.444zm25.506 39.28v-24.444l25.507 14.879v-.043l-25.507-14.878v-24.444l25.507 14.879v-.085l25.506 14.879v24.443l-25.506-14.879v.043l25.506 14.878v24.444l-25.506-14.879v.043l25.506 14.878v24.444l-25.506-14.879v-24.401z" clip-rule="evenodd"/><path fill="url(#al)" fill-rule="evenodd" d="m255.158 297.215-25.506 14.879V287.65l25.506-14.878zm-25.506 39.365 25.506-14.879v-24.443l-25.506 14.878zm25.506 9.607-25.506 14.879v-24.444l25.506-14.878zm0 24.486-25.506 14.879v-24.444l25.506-14.879z" clip-rule="evenodd"/><path fill="url(#am)" fill-rule="evenodd" d="M204.145 297.215v-24.443l25.506 14.878v24.444zm0 .043v24.443l25.506 14.879v-24.444zm0 48.929v-24.443l25.506 14.878v24.444zm0 24.486V346.23l25.506 14.878v24.444z" clip-rule="evenodd"/><g filter="url(#an)"><path fill="url(#ao)" fill-rule="evenodd" d="m306.243 213.555 25.433-14.836 25.506 14.879-25.506 14.878-.072-.042-.208.121 25.039 14.606-24.884 14.516.498.29-25.506 14.879-25.506-14.879 24.883-14.515-.104-.061-25.007 14.587 25.36 14.794-25.506 14.879-25.433-14.836-.072.042-.074-.043-25.433 14.837-25.434-14.836-.072.042-.073-.043-25.433 14.837-25.434-14.837-.072.043-25.434-14.836-.073.042-25.506-14.878 25.361-14.794-25.361-14.793 25.506-14.879 25.434 14.836.073-.043 25.433 14.837.073-.043 25.433 14.836.073-.042.073.042 25.433-14.836 25.433 14.836.074-.042.072.042 25.433-14.836.074.043 25.434-14.837z" clip-rule="evenodd"/></g><path fill="url(#ap)" fill-rule="evenodd" d="m127.626 198.804 25.506-14.879 25.433 14.836.073-.042 25.433 14.836.073-.042.072.042 25.434-14.836 25.434 14.836.072-.042.073.042 25.434-14.836.073.042 25.433-14.836 25.506 14.879-25.506 14.879-.073-.043-25.433 14.836-.073-.042-25.434 14.836-25.433-14.836-.073.042-.073-.042-25.433 14.836-25.434-14.836-.072.042-25.433-14.836-.073.043z" clip-rule="evenodd"/><path fill="url(#aq)" fill-rule="evenodd" d="M331.676 282.421 306.17 297.3v.043l25.506-14.879v24.444l-25.506 14.878v24.401l-25.506 14.879v-24.444l25.506-14.878v-.043l-25.506 14.879v-24.444l25.506-14.878v-.043l-25.506 14.879v-24.443l25.506-14.879v.085l25.506-14.879z" clip-rule="evenodd"/><path fill="url(#ar)" fill-rule="evenodd" d="M255.158 297.215v-24.443l25.506 14.878v24.444zm0 .043v24.443l25.506 14.879v-24.444zm0 24.486v24.443l25.506 14.879v-24.444z" clip-rule="evenodd"/><path fill="url(#as)" d="M160.572 192.959h-14.879v6.376c0 2.348 3.331 4.251 7.44 4.251 4.108 0 7.439-1.903 7.439-4.251z"/><path fill="url(#at)" d="M186.078 207.752h-14.879v6.377c0 2.348 3.331 4.251 7.44 4.251 4.108 0 7.439-1.903 7.439-4.251z"/><path fill="url(#au)" d="M237.091 207.752h-14.879v6.377c0 2.348 3.331 4.251 7.44 4.251 4.108 0 7.439-1.903 7.439-4.251z"/><path fill="url(#av)" d="M211.585 222.546h-14.879v6.377c0 2.347 3.331 4.251 7.439 4.251s7.44-1.904 7.44-4.251z"/><path fill="url(#aw)" d="M313.609 192.959h-14.878v6.376c0 2.348 3.33 4.251 7.439 4.251s7.439-1.903 7.439-4.251v-6.376"/><path fill="url(#ax)" d="M288.103 207.752h-14.879v6.377c0 2.348 3.331 4.251 7.44 4.251 4.108 0 7.439-1.903 7.439-4.251v-6.377"/><path fill="url(#ay)" d="M262.597 222.546h-14.879v6.377c0 2.347 3.331 4.251 7.44 4.251 4.108 0 7.439-1.904 7.439-4.251v-6.377"/><path fill="url(#az)" d="M237.091 237.34h-14.879v6.376c0 2.348 3.331 4.251 7.44 4.251 4.108 0 7.439-1.903 7.439-4.251z"/><path fill="url(#aA)" d="M135.066 207.752h-14.878v6.377c0 2.348 3.33 4.251 7.439 4.251s7.439-1.903 7.439-4.251v-6.377"/><path fill="url(#aB)" d="M339.116 207.752h-14.879v6.377c0 2.348 3.331 4.251 7.44 4.251 4.108 0 7.439-1.903 7.439-4.251v-6.377"/><path fill="url(#aC)" d="M160.572 222.546h-14.879v6.377c0 2.347 3.331 4.251 7.44 4.251 4.108 0 7.439-1.904 7.439-4.251z"/><path fill="url(#aD)" d="M135.066 237.34h-14.878v6.376c0 2.348 3.33 4.251 7.439 4.251s7.439-1.903 7.439-4.251v-6.376"/><path fill="url(#aE)" d="M186.079 237.34H171.2v6.376c0 2.348 3.331 4.251 7.439 4.251s7.44-1.903 7.44-4.251z"/><path fill="url(#aF)" d="M160.572 252.133h-14.879v6.377c0 2.348 3.331 4.251 7.44 4.251 4.108 0 7.439-1.903 7.439-4.251z"/><path fill="url(#aG)" d="M211.585 252.133h-14.879v6.377c0 2.348 3.331 4.251 7.439 4.251s7.44-1.903 7.44-4.251z"/><path fill="url(#aH)" d="M186.079 266.927H171.2v6.376c0 2.348 3.331 4.251 7.439 4.251s7.44-1.903 7.44-4.251z"/><path fill="url(#aI)" d="M313.61 222.546h-14.879v6.377c0 2.347 3.331 4.251 7.439 4.251s7.44-1.904 7.44-4.251v-6.377"/><path fill="url(#aJ)" d="M288.103 237.34h-14.879v6.376c0 2.348 3.331 4.251 7.44 4.251 4.108 0 7.439-1.903 7.439-4.251v-6.376"/><path fill="url(#aK)" d="M262.598 252.133h-14.879v6.377c0 2.347 3.331 4.251 7.439 4.251s7.44-1.903 7.44-4.251v-6.377"/><path fill="url(#aL)" d="M237.091 266.927h-14.879v6.376c0 2.348 3.331 4.251 7.44 4.251 4.108 0 7.439-1.903 7.439-4.251z"/><path fill="url(#aM)" d="M339.116 237.34h-14.879v6.376c0 2.348 3.331 4.251 7.44 4.251 4.108 0 7.439-1.903 7.439-4.251v-6.376"/><path fill="url(#aN)" d="M313.61 252.133h-14.879v6.377c0 2.347 3.331 4.251 7.439 4.251s7.44-1.903 7.44-4.251v-6.377"/><path fill="url(#aO)" d="M288.103 266.927h-14.879v6.376c0 2.348 3.331 4.251 7.44 4.251 4.108 0 7.439-1.903 7.439-4.251v-6.376"/><path fill="#1884CF" d="M160.572 192.959h-14.878v6.3759999999999994c0 2.348 3.331 4.251 7.439 4.251s7.439-1.903 7.439-4.251zM186.078 207.752H171.2v6.377c0 2.348 3.33 4.251 7.439 4.251s7.439-1.903 7.439-4.251zM237.092 207.752h-14.879v6.377c0 2.348 3.33 4.251 7.439 4.251s7.439-1.903 7.439-4.251zM211.585 222.546h-14.878v6.35l-.001.027c0 2.347 3.331 4.251 7.44 4.251 4.108 0 7.439-1.904 7.439-4.251zM313.61 192.959h-14.879v6.376c0 2.348 3.331 4.251 7.439 4.251s7.44-1.903 7.44-4.251v-6.376M288.103 207.752h-14.878v6.377c0 2.348 3.331 4.251 7.439 4.251s7.44-1.903 7.44-4.251l-.001-.022zM262.597 222.546h-14.878v6.377c0 2.347 3.33 4.251 7.439 4.251s7.439-1.904 7.439-4.251v-6.377"/><g fill="#EFF8FF" fill-opacity=".6" filter="url(#aP)"><path d="M160.572 192.958c0 2.348-3.331 4.251-7.439 4.251s-7.44-1.903-7.44-4.251c0-2.347 3.331-4.251 7.44-4.251 4.108 0 7.439 1.904 7.439 4.251M186.078 207.752c0 2.348-3.331 4.251-7.439 4.251s-7.44-1.903-7.44-4.251 3.331-4.251 7.44-4.251c4.108 0 7.439 1.903 7.439 4.251M237.091 207.752c0 2.348-3.331 4.251-7.439 4.251s-7.44-1.903-7.44-4.251 3.331-4.251 7.44-4.251c4.108 0 7.439 1.903 7.439 4.251M211.585 222.546c0 2.347-3.331 4.251-7.44 4.251-4.108 0-7.439-1.904-7.439-4.251s3.331-4.251 7.439-4.251 7.44 1.903 7.44 4.251M313.609 192.958c0 2.348-3.33 4.251-7.439 4.251s-7.439-1.903-7.439-4.251c0-2.347 3.33-4.251 7.439-4.251s7.439 1.904 7.439 4.251M288.103 207.752c0 2.348-3.331 4.251-7.439 4.251s-7.44-1.903-7.44-4.251 3.331-4.251 7.44-4.251c4.108 0 7.439 1.903 7.439 4.251M262.597 222.546c0 2.347-3.331 4.251-7.44 4.251-4.108 0-7.439-1.904-7.439-4.251s3.331-4.251 7.439-4.251 7.44 1.903 7.44 4.251M237.091 237.339c0 2.348-3.331 4.251-7.439 4.251s-7.44-1.903-7.44-4.251c0-2.347 3.331-4.251 7.44-4.251 4.108 0 7.439 1.904 7.439 4.251M135.066 207.752c0 2.348-3.331 4.251-7.439 4.251s-7.439-1.903-7.439-4.251 3.33-4.251 7.439-4.251c4.108 0 7.439 1.903 7.439 4.251M339.116 207.752c0 2.348-3.331 4.251-7.439 4.251s-7.44-1.903-7.44-4.251 3.331-4.251 7.44-4.251c4.108 0 7.439 1.903 7.439 4.251M160.572 222.546c0 2.347-3.331 4.251-7.439 4.251s-7.44-1.904-7.44-4.251 3.331-4.251 7.44-4.251c4.108 0 7.439 1.903 7.439 4.251M135.066 237.339c0 2.348-3.331 4.251-7.439 4.251s-7.439-1.903-7.439-4.251 3.33-4.251 7.439-4.251c4.108 0 7.439 1.903 7.439 4.251M186.079 237.339c0 2.348-3.331 4.251-7.44 4.251-4.108 0-7.439-1.903-7.439-4.251s3.331-4.251 7.439-4.251 7.44 1.903 7.44 4.251M160.572 252.133c0 2.348-3.331 4.251-7.439 4.251s-7.44-1.903-7.44-4.251 3.331-4.251 7.44-4.251c4.108 0 7.439 1.903 7.439 4.251M211.585 252.133c0 2.348-3.331 4.251-7.44 4.251-4.108 0-7.439-1.903-7.439-4.251s3.331-4.251 7.439-4.251 7.44 1.903 7.44 4.251M186.079 266.926c0 2.348-3.331 4.251-7.44 4.251-4.108 0-7.439-1.903-7.439-4.251 0-2.347 3.331-4.251 7.439-4.251s7.44 1.904 7.44 4.251M313.61 222.546c0 2.347-3.331 4.251-7.44 4.251-4.108 0-7.439-1.904-7.439-4.251s3.331-4.251 7.439-4.251 7.44 1.903 7.44 4.251M288.103 237.339c0 2.348-3.331 4.251-7.439 4.251s-7.44-1.903-7.44-4.251 3.331-4.251 7.44-4.251c4.108 0 7.439 1.903 7.439 4.251M262.598 252.133c0 2.348-3.331 4.251-7.44 4.251-4.108 0-7.439-1.903-7.439-4.251s3.331-4.251 7.439-4.251 7.44 1.903 7.44 4.251M237.091 266.926c0 2.348-3.331 4.251-7.439 4.251s-7.44-1.903-7.44-4.251c0-2.347 3.331-4.251 7.44-4.251 4.108 0 7.439 1.904 7.439 4.251M339.116 237.339c0 2.348-3.331 4.251-7.439 4.251s-7.44-1.903-7.44-4.251 3.331-4.251 7.44-4.251c4.108 0 7.439 1.903 7.439 4.251M313.61 252.133c0 2.348-3.331 4.251-7.44 4.251-4.108 0-7.439-1.903-7.439-4.251s3.331-4.251 7.439-4.251 7.44 1.903 7.44 4.251M288.103 266.926c0 2.348-3.331 4.251-7.439 4.251s-7.44-1.903-7.44-4.251c0-2.347 3.331-4.251 7.44-4.251 4.108 0 7.439 1.904 7.439 4.251"/></g><path fill="#79C2F7" d="M160.572 192.958c0 2.348-3.33 4.251-7.439 4.251-4.108 0-7.439-1.903-7.439-4.251 0-2.347 3.331-4.251 7.439-4.251s7.439 1.904 7.439 4.251M186.078 207.752c0 2.348-3.33 4.251-7.439 4.251s-7.439-1.903-7.439-4.251 3.33-4.251 7.439-4.251 7.439 1.903 7.439 4.251M237.091 207.752c0 2.348-3.33 4.251-7.439 4.251s-7.439-1.903-7.439-4.251 3.33-4.251 7.439-4.251 7.439 1.903 7.439 4.251M211.585 222.546c0 2.347-3.331 4.251-7.439 4.251s-7.44-1.904-7.44-4.251 3.331-4.251 7.44-4.251c4.108 0 7.439 1.903 7.439 4.251M313.61 192.958c0 2.348-3.331 4.251-7.44 4.251-4.108 0-7.439-1.903-7.439-4.251 0-2.347 3.331-4.251 7.439-4.251s7.44 1.904 7.44 4.251M288.103 207.752c0 2.348-3.33 4.251-7.439 4.251-4.108 0-7.439-1.903-7.439-4.251s3.331-4.251 7.439-4.251 7.439 1.903 7.439 4.251M262.597 222.546c0 2.347-3.33 4.251-7.439 4.251s-7.439-1.904-7.439-4.251 3.33-4.251 7.439-4.251 7.439 1.903 7.439 4.251"/><path fill="url(#aQ)" d="M102.495 243.088v24.444l25.507 14.878v-24.443z"/><g filter="url(#aR)"><ellipse cx="225.26" cy="201.48" fill="#0029FF" rx="68.54" ry="31.28"/></g><path fill="#71C3FF" d="m280.664 122.795 25.506-14.878 25.507 14.878-25.507 14.879z"/><path fill="#2FA9FF" fill-rule="evenodd" d="M313.609 116.95H298.73v6.377c.001 2.348 3.331 4.251 7.44 4.251 4.108 0 7.439-1.903 7.439-4.251z" clip-rule="evenodd"/><ellipse cx="306.17" cy="116.95" fill="#EFF8FF" rx="7.439" ry="4.251"/><path fill="url(#aS)" fill-rule="evenodd" d="m280.664 152.425 25.506-14.879v-24.443l-25.507 14.879v24.401l-25.505 14.879v24.443l25.505-14.878v.042l-25.505 14.879v24.443l25.505-14.878v.084l25.507-14.878v.085l25.506-14.879v-24.443L306.17 162.16v-.042l25.506-14.879v-24.443l-25.506 14.878v-.085l-25.506 14.878zm0 24.528v-.042l25.506-14.878v.042z" clip-rule="evenodd"/><path fill="url(#aT)" fill-rule="evenodd" d="M229.651 176.827v-24.444l25.506 14.879v24.443zm0 24.486v-24.444l25.506 14.879v24.443z" clip-rule="evenodd"/><path fill="#F88887" fill-rule="evenodd" d="M288.102 82.772h-14.878v6.376c0 2.348 3.331 4.252 7.439 4.252s7.439-1.904 7.439-4.252v-6.376" clip-rule="evenodd"/><ellipse cx="280.663" cy="82.772" fill="#FFEDEF" rx="7.439" ry="4.251"/><path fill="url(#aU)" fill-rule="evenodd" d="M255.157 39.56 229.651 54.44l25.506 14.878 25.507-14.878zm25.506 34.179-25.506 14.878 25.506 14.879 25.506-14.879z" clip-rule="evenodd"/><g filter="url(#aV)"><path fill="url(#aW)" fill-rule="evenodd" d="m280.664 78.882-25.506 14.879V69.317l25.506-14.878zm0 24.486-25.506 14.879V93.803l25.506-14.878zm25.506 9.693-25.506 14.878v24.401l-25.506 14.879v-24.444l25.505-14.878v-.042l-25.505 14.878V118.29l25.506-14.879v.084l25.506-14.878z" clip-rule="evenodd"/></g><path fill="url(#aX)" fill-rule="evenodd" d="M229.651 78.882V54.44l25.506 14.878v24.444zm0 .043v24.443l25.506 14.879V93.803zm0 48.929v-24.443l25.506 14.879v24.443zm0 24.486v-24.443l25.506 14.878v24.444z" clip-rule="evenodd"/><path fill="#F88887" fill-rule="evenodd" d="M262.596 48.593h-14.878v6.377c0 2.348 3.331 4.25 7.439 4.25s7.439-1.902 7.439-4.25z" clip-rule="evenodd"/><ellipse cx="255.158" cy="48.594" fill="#FFEDEF" rx="7.439" ry="4.251"/><path fill="#6EFAA6" d="m127.626 122.795 25.506-14.878 25.506 14.878-25.506 14.879z"/><path fill="#35C16D" fill-rule="evenodd" d="M160.572 116.95h-14.878v6.377c0 2.348 3.33 4.251 7.439 4.251s7.439-1.903 7.439-4.251z" clip-rule="evenodd"/><ellipse cx="153.133" cy="116.95" fill="#E7FFF0" rx="7.439" ry="4.251"/><path fill="url(#aY)" fill-rule="evenodd" d="m229.651 176.827-25.506 14.878v-24.443l25.506-14.879zm.001 24.486-25.507 14.878v-24.443l25.507-14.879z" clip-rule="evenodd"/><g filter="url(#aZ)"><path fill="url(#ba)" fill-rule="evenodd" d="M153.132 137.546v-24.443l25.506 14.879v24.401l25.506 14.879v24.443l-25.506-14.879v.043l25.506 14.879v24.443l-25.506-14.879v.085l-25.506-14.878v.085l-25.507-14.879v-24.443l25.507 14.878v-.042l-25.507-14.879v-24.443l25.507 14.878v-.085l25.506 14.879v-.043zm25.506 39.365v.043l-25.506-14.879v-.042z" clip-rule="evenodd"/></g><path fill="#FFEE92" d="m153.132 88.617 25.506-14.878 25.507 14.878-25.507 14.879z"/><path fill="#FFDE2E" fill-rule="evenodd" d="M186.078 82.772h-14.879v6.377c0 2.347 3.331 4.25 7.44 4.25 4.108 0 7.439-1.903 7.439-4.25z" clip-rule="evenodd"/><ellipse cx="178.639" cy="82.772" fill="#FFF6DF" rx="7.439" ry="4.251"/><path fill="#FFEE92" d="m178.639 54.439 25.506-14.879 25.507 14.879-25.507 14.878z"/><path fill="url(#bb)" fill-rule="evenodd" d="m229.651 78.882-25.506 14.879V69.317l25.506-14.878zm-25.506 39.365 25.507-14.879V78.925l-25.507 14.878zm25.507 9.607-25.507 14.879V118.29l25.507-14.879zm0 24.486-25.507 14.879v-24.444l25.507-14.878z" clip-rule="evenodd"/><g filter="url(#bc)"><path fill="url(#bd)" fill-rule="evenodd" d="M178.639 78.882V54.44l25.506 14.878v24.444zm0 .043v24.443l25.506 14.879V93.803zm-25.507 9.692v24.444l25.507 14.878v24.401l25.506 14.879v-24.444l-25.506-14.878v-.043l25.506 14.879v-24.444l-25.506-14.878v.085z" clip-rule="evenodd"/></g><path fill="#FFDE2E" fill-rule="evenodd" d="M211.583 48.593h-14.878v6.377c0 2.348 3.33 4.25 7.439 4.25 4.108 0 7.439-1.902 7.439-4.25z" clip-rule="evenodd"/><ellipse cx="204.145" cy="48.594" fill="#FFF6DF" rx="7.439" ry="4.251"/></g><defs><linearGradient id="c" x1="214.816" x2="217.318" y1="385.73" y2="412.582" gradientUnits="userSpaceOnUse"><stop stop-color="#23CFCF"/><stop offset="1" stop-color="#29E9E9" stop-opacity="0"/></linearGradient><linearGradient id="d" x1="163.803" x2="166.305" y1="385.731" y2="412.583" gradientUnits="userSpaceOnUse"><stop stop-color="#23CFCF"/><stop offset="1" stop-color="#29E9E9" stop-opacity="0"/></linearGradient><linearGradient id="e" x1="316.841" x2="319.343" y1="282.685" y2="309.537" gradientUnits="userSpaceOnUse"><stop stop-color="#23CFCF"/><stop offset="1" stop-color="#29E9E9" stop-opacity="0"/></linearGradient><linearGradient id="f" x1="293.657" x2="299.649" y1="302.574" y2="372.798" gradientUnits="userSpaceOnUse"><stop stop-color="#23CFCF"/><stop offset="1" stop-color="#29E9E9" stop-opacity="0"/></linearGradient><linearGradient id="g" x1="265.828" x2="272.324" y1="369.075" y2="412.044" gradientUnits="userSpaceOnUse"><stop stop-color="#23CFCF"/><stop offset="1" stop-color="#29E9E9" stop-opacity="0"/></linearGradient><linearGradient id="h" x1="142.027" x2="146.741" y1="315.639" y2="413.475" gradientUnits="userSpaceOnUse"><stop stop-color="#23CFCF"/><stop offset="1" stop-color="#29E9E9" stop-opacity="0"/></linearGradient><linearGradient id="i" x1="164.177" x2="234.756" y1="297.403" y2="313.868" gradientUnits="userSpaceOnUse"><stop stop-color="#0067FF"/><stop offset="1" stop-color="#2F83FF" stop-opacity="0"/></linearGradient><linearGradient id="j" x1="176.139" x2="150.972" y1="279.651" y2="372.838" gradientUnits="userSpaceOnUse"><stop stop-color="#2F76FF"/><stop offset="1" stop-color="#9BBDFF" stop-opacity=".75"/></linearGradient><linearGradient id="k" x1="215.19" x2="271.013" y1="303.556" y2="395.764" gradientUnits="userSpaceOnUse"><stop stop-color="#0067FF"/><stop offset="1" stop-color="#2F83FF" stop-opacity="0"/></linearGradient><linearGradient id="l" x1="212.845" x2="166.526" y1="307.766" y2="367.518" gradientUnits="userSpaceOnUse"><stop stop-color="#2F76FF"/><stop offset="1" stop-color="#9BBDFF" stop-opacity=".75"/></linearGradient><linearGradient id="p" x1="275.698" x2="331.481" y1="286.326" y2="312.383" gradientUnits="userSpaceOnUse"><stop stop-color="#0067FF"/><stop offset="1" stop-color="#2F83FF" stop-opacity="0"/></linearGradient><linearGradient id="q" x1="263.858" x2="230.643" y1="300.698" y2="355.429" gradientUnits="userSpaceOnUse"><stop stop-color="#2F76FF"/><stop offset="1" stop-color="#9BBDFF" stop-opacity=".75"/></linearGradient><linearGradient id="r" x1="205.691" x2="207.868" y1="195.399" y2="319.993" gradientUnits="userSpaceOnUse"><stop stop-color="#2FA9FF"/><stop offset="1" stop-color="#2FA9FF" stop-opacity="0"/></linearGradient><linearGradient id="s" x1="205.691" x2="207.868" y1="195.399" y2="319.993" gradientUnits="userSpaceOnUse"><stop stop-color="#2FA9FF"/><stop offset="1" stop-color="#2FA9FF" stop-opacity="0"/></linearGradient><linearGradient id="t" x1="205.691" x2="207.868" y1="195.399" y2="319.993" gradientUnits="userSpaceOnUse"><stop stop-color="#2FA9FF"/><stop offset="1" stop-color="#2FA9FF" stop-opacity="0"/></linearGradient><linearGradient id="u" x1="205.691" x2="207.868" y1="195.399" y2="319.993" gradientUnits="userSpaceOnUse"><stop stop-color="#2FA9FF"/><stop offset="1" stop-color="#2FA9FF" stop-opacity="0"/></linearGradient><linearGradient id="v" x1="205.691" x2="207.868" y1="195.399" y2="319.993" gradientUnits="userSpaceOnUse"><stop stop-color="#2FA9FF"/><stop offset="1" stop-color="#2FA9FF" stop-opacity="0"/></linearGradient><linearGradient id="w" x1="205.691" x2="207.868" y1="195.399" y2="319.993" gradientUnits="userSpaceOnUse"><stop stop-color="#2FA9FF"/><stop offset="1" stop-color="#2FA9FF" stop-opacity="0"/></linearGradient><linearGradient id="x" x1="205.691" x2="207.868" y1="195.399" y2="319.993" gradientUnits="userSpaceOnUse"><stop stop-color="#2FA9FF"/><stop offset="1" stop-color="#2FA9FF" stop-opacity="0"/></linearGradient><linearGradient id="y" x1="205.691" x2="207.868" y1="195.399" y2="319.993" gradientUnits="userSpaceOnUse"><stop stop-color="#2FA9FF"/><stop offset="1" stop-color="#2FA9FF" stop-opacity="0"/></linearGradient><linearGradient id="z" x1="205.691" x2="207.868" y1="195.399" y2="319.993" gradientUnits="userSpaceOnUse"><stop stop-color="#2FA9FF"/><stop offset="1" stop-color="#2FA9FF" stop-opacity="0"/></linearGradient><linearGradient id="A" x1="205.691" x2="207.868" y1="195.399" y2="319.993" gradientUnits="userSpaceOnUse"><stop stop-color="#2FA9FF"/><stop offset="1" stop-color="#2FA9FF" stop-opacity="0"/></linearGradient><linearGradient id="B" x1="205.691" x2="207.868" y1="195.399" y2="319.993" gradientUnits="userSpaceOnUse"><stop stop-color="#2FA9FF"/><stop offset="1" stop-color="#2FA9FF" stop-opacity="0"/></linearGradient><linearGradient id="C" x1="205.691" x2="207.868" y1="195.399" y2="319.993" gradientUnits="userSpaceOnUse"><stop stop-color="#2FA9FF"/><stop offset="1" stop-color="#2FA9FF" stop-opacity="0"/></linearGradient><linearGradient id="D" x1="205.691" x2="207.868" y1="195.399" y2="319.993" gradientUnits="userSpaceOnUse"><stop stop-color="#2FA9FF"/><stop offset="1" stop-color="#2FA9FF" stop-opacity="0"/></linearGradient><linearGradient id="E" x1="205.691" x2="207.868" y1="195.399" y2="319.993" gradientUnits="userSpaceOnUse"><stop stop-color="#2FA9FF"/><stop offset="1" stop-color="#2FA9FF" stop-opacity="0"/></linearGradient><linearGradient id="F" x1="205.691" x2="207.868" y1="195.399" y2="319.993" gradientUnits="userSpaceOnUse"><stop stop-color="#2FA9FF"/><stop offset="1" stop-color="#2FA9FF" stop-opacity="0"/></linearGradient><linearGradient id="G" x1="205.691" x2="207.868" y1="195.399" y2="319.993" gradientUnits="userSpaceOnUse"><stop stop-color="#2FA9FF"/><stop offset="1" stop-color="#2FA9FF" stop-opacity="0"/></linearGradient><linearGradient id="H" x1="205.691" x2="207.868" y1="195.399" y2="319.993" gradientUnits="userSpaceOnUse"><stop stop-color="#2FA9FF"/><stop offset="1" stop-color="#2FA9FF" stop-opacity="0"/></linearGradient><linearGradient id="I" x1="205.691" x2="207.868" y1="195.399" y2="319.993" gradientUnits="userSpaceOnUse"><stop stop-color="#2FA9FF"/><stop offset="1" stop-color="#2FA9FF" stop-opacity="0"/></linearGradient><linearGradient id="J" x1="205.691" x2="207.868" y1="195.399" y2="319.993" gradientUnits="userSpaceOnUse"><stop stop-color="#2FA9FF"/><stop offset="1" stop-color="#2FA9FF" stop-opacity="0"/></linearGradient><linearGradient id="K" x1="205.691" x2="207.868" y1="195.399" y2="319.993" gradientUnits="userSpaceOnUse"><stop stop-color="#2FA9FF"/><stop offset="1" stop-color="#2FA9FF" stop-opacity="0"/></linearGradient><linearGradient id="L" x1="205.691" x2="207.868" y1="195.399" y2="319.993" gradientUnits="userSpaceOnUse"><stop stop-color="#2FA9FF"/><stop offset="1" stop-color="#2FA9FF" stop-opacity="0"/></linearGradient><linearGradient id="M" x1="205.691" x2="207.868" y1="195.399" y2="319.993" gradientUnits="userSpaceOnUse"><stop stop-color="#2FA9FF"/><stop offset="1" stop-color="#2FA9FF" stop-opacity="0"/></linearGradient><linearGradient id="N" x1="205.691" x2="207.868" y1="195.399" y2="319.993" gradientUnits="userSpaceOnUse"><stop stop-color="#2FA9FF"/><stop offset="1" stop-color="#2FA9FF" stop-opacity="0"/></linearGradient><linearGradient id="P" x1="88.032" x2="112.745" y1="255.411" y2="270.542" gradientUnits="userSpaceOnUse"><stop stop-color="#0067FF"/><stop offset="1" stop-color="#2F83FF" stop-opacity="0"/></linearGradient><linearGradient id="R" x1="259.69" x2="328.058" y1="141.452" y2="189.353" gradientUnits="userSpaceOnUse"><stop stop-color="#0067FF"/><stop offset="1" stop-color="#C8DEFF"/></linearGradient><linearGradient id="S" x1="238.352" x2="218.445" y1="173.241" y2="218.631" gradientUnits="userSpaceOnUse"><stop stop-color="#2F76FF"/><stop offset="1" stop-color="#A8C5FF"/></linearGradient><linearGradient id="T" x1="235.739" x2="304.979" y1="72.213" y2="98.341" gradientUnits="userSpaceOnUse"><stop offset=".068" stop-color="#FFB8B4"/><stop offset="1" stop-color="#FFB8B4" stop-opacity="0"/></linearGradient><linearGradient id="V" x1="234.868" x2="289.737" y1="92.244" y2="131.001" gradientUnits="userSpaceOnUse"><stop stop-color="#D24544"/><stop offset="1" stop-color="#FB9190" stop-opacity=".24"/></linearGradient><linearGradient id="W" x1="218.445" x2="203.079" y1="56.879" y2="136.226" gradientUnits="userSpaceOnUse"><stop stop-color="#F79998"/><stop offset="1" stop-color="#F88887"/></linearGradient><linearGradient id="X" x1="189.58" x2="166.936" y1="166.274" y2="261.641" gradientUnits="userSpaceOnUse"><stop stop-color="#1DAC56"/><stop offset="1" stop-color="#0E9F48" stop-opacity="0"/></linearGradient><linearGradient id="Z" x1="165.629" x2="58.505" y1="189.353" y2="156.693" gradientUnits="userSpaceOnUse"><stop stop-color="#20C375"/><stop offset="1" stop-color="#A4FFC8" stop-opacity=".37"/></linearGradient><linearGradient id="aa" x1="192.939" x2="192.939" y1="56.879" y2="169.659" gradientUnits="userSpaceOnUse"><stop stop-color="#DBA10E"/><stop offset="1" stop-color="#F9C594"/></linearGradient><linearGradient id="ac" x1="175.209" x2="108.147" y1="101.389" y2="98.341" gradientUnits="userSpaceOnUse"><stop stop-color="#FFDE2E"/><stop offset="1" stop-color="#fff" stop-opacity="0"/></linearGradient><linearGradient id="ad" x1="238.776" x2="241.278" y1="383.291" y2="410.143" gradientUnits="userSpaceOnUse"><stop stop-color="#23CFCF"/><stop offset="1" stop-color="#29E9E9" stop-opacity="0"/></linearGradient><linearGradient id="ae" x1="187.764" x2="190.265" y1="383.291" y2="410.143" gradientUnits="userSpaceOnUse"><stop stop-color="#23CFCF"/><stop offset="1" stop-color="#29E9E9" stop-opacity="0"/></linearGradient><linearGradient id="af" x1="340.801" x2="343.303" y1="280.246" y2="307.098" gradientUnits="userSpaceOnUse"><stop stop-color="#23CFCF"/><stop offset="1" stop-color="#29E9E9" stop-opacity="0"/></linearGradient><linearGradient id="ag" x1="317.616" x2="323.608" y1="300.134" y2="370.358" gradientUnits="userSpaceOnUse"><stop stop-color="#23CFCF"/><stop offset="1" stop-color="#29E9E9" stop-opacity="0"/></linearGradient><linearGradient id="ah" x1="289.788" x2="296.283" y1="366.635" y2="409.604" gradientUnits="userSpaceOnUse"><stop stop-color="#23CFCF"/><stop offset="1" stop-color="#29E9E9" stop-opacity="0"/></linearGradient><linearGradient id="ai" x1="165.988" x2="170.702" y1="313.199" y2="411.035" gradientUnits="userSpaceOnUse"><stop stop-color="#23CFCF"/><stop offset="1" stop-color="#29E9E9" stop-opacity="0"/></linearGradient><linearGradient id="aj" x1="188.136" x2="258.716" y1="294.963" y2="311.428" gradientUnits="userSpaceOnUse"><stop stop-color="#0067FF"/><stop offset="1" stop-color="#2F83FF" stop-opacity="0"/></linearGradient><linearGradient id="ak" x1="200.1" x2="174.932" y1="277.211" y2="370.398" gradientUnits="userSpaceOnUse"><stop stop-color="#2F76FF"/><stop offset="1" stop-color="#9BBDFF" stop-opacity=".75"/></linearGradient><linearGradient id="al" x1="239.149" x2="294.972" y1="301.117" y2="393.324" gradientUnits="userSpaceOnUse"><stop stop-color="#0067FF"/><stop offset="1" stop-color="#2F83FF" stop-opacity="0"/></linearGradient><linearGradient id="am" x1="236.805" x2="190.487" y1="305.326" y2="365.078" gradientUnits="userSpaceOnUse"><stop stop-color="#2F76FF"/><stop offset="1" stop-color="#9BBDFF" stop-opacity=".75"/></linearGradient><linearGradient id="aq" x1="299.658" x2="355.441" y1="283.887" y2="309.943" gradientUnits="userSpaceOnUse"><stop stop-color="#0067FF"/><stop offset="1" stop-color="#2F83FF" stop-opacity="0"/></linearGradient><linearGradient id="ar" x1="287.818" x2="254.603" y1="298.258" y2="352.989" gradientUnits="userSpaceOnUse"><stop stop-color="#2F76FF"/><stop offset="1" stop-color="#9BBDFF" stop-opacity=".75"/></linearGradient><linearGradient id="as" x1="229.652" x2="231.829" y1="192.959" y2="317.554" gradientUnits="userSpaceOnUse"><stop stop-color="#2FA9FF"/><stop offset="1" stop-color="#2FA9FF" stop-opacity="0"/></linearGradient><linearGradient id="at" x1="229.652" x2="231.829" y1="192.959" y2="317.554" gradientUnits="userSpaceOnUse"><stop stop-color="#2FA9FF"/><stop offset="1" stop-color="#2FA9FF" stop-opacity="0"/></linearGradient><linearGradient id="au" x1="229.652" x2="231.829" y1="192.959" y2="317.554" gradientUnits="userSpaceOnUse"><stop stop-color="#2FA9FF"/><stop offset="1" stop-color="#2FA9FF" stop-opacity="0"/></linearGradient><linearGradient id="av" x1="229.652" x2="231.829" y1="192.959" y2="317.554" gradientUnits="userSpaceOnUse"><stop stop-color="#2FA9FF"/><stop offset="1" stop-color="#2FA9FF" stop-opacity="0"/></linearGradient><linearGradient id="aw" x1="229.652" x2="231.829" y1="192.959" y2="317.554" gradientUnits="userSpaceOnUse"><stop stop-color="#2FA9FF"/><stop offset="1" stop-color="#2FA9FF" stop-opacity="0"/></linearGradient><linearGradient id="ax" x1="229.652" x2="231.829" y1="192.959" y2="317.554" gradientUnits="userSpaceOnUse"><stop stop-color="#2FA9FF"/><stop offset="1" stop-color="#2FA9FF" stop-opacity="0"/></linearGradient><linearGradient id="ay" x1="229.652" x2="231.829" y1="192.959" y2="317.554" gradientUnits="userSpaceOnUse"><stop stop-color="#2FA9FF"/><stop offset="1" stop-color="#2FA9FF" stop-opacity="0"/></linearGradient><linearGradient id="az" x1="229.652" x2="231.829" y1="192.959" y2="317.554" gradientUnits="userSpaceOnUse"><stop stop-color="#2FA9FF"/><stop offset="1" stop-color="#2FA9FF" stop-opacity="0"/></linearGradient><linearGradient id="aA" x1="229.652" x2="231.829" y1="192.959" y2="317.554" gradientUnits="userSpaceOnUse"><stop stop-color="#2FA9FF"/><stop offset="1" stop-color="#2FA9FF" stop-opacity="0"/></linearGradient><linearGradient id="aB" x1="229.652" x2="231.829" y1="192.959" y2="317.554" gradientUnits="userSpaceOnUse"><stop stop-color="#2FA9FF"/><stop offset="1" stop-color="#2FA9FF" stop-opacity="0"/></linearGradient><linearGradient id="aC" x1="229.652" x2="231.829" y1="192.959" y2="317.554" gradientUnits="userSpaceOnUse"><stop stop-color="#2FA9FF"/><stop offset="1" stop-color="#2FA9FF" stop-opacity="0"/></linearGradient><linearGradient id="aD" x1="229.652" x2="231.829" y1="192.959" y2="317.554" gradientUnits="userSpaceOnUse"><stop stop-color="#2FA9FF"/><stop offset="1" stop-color="#2FA9FF" stop-opacity="0"/></linearGradient><linearGradient id="aE" x1="229.652" x2="231.829" y1="192.959" y2="317.554" gradientUnits="userSpaceOnUse"><stop stop-color="#2FA9FF"/><stop offset="1" stop-color="#2FA9FF" stop-opacity="0"/></linearGradient><linearGradient id="aF" x1="229.652" x2="231.829" y1="192.959" y2="317.554" gradientUnits="userSpaceOnUse"><stop stop-color="#2FA9FF"/><stop offset="1" stop-color="#2FA9FF" stop-opacity="0"/></linearGradient><linearGradient id="aG" x1="229.652" x2="231.829" y1="192.959" y2="317.554" gradientUnits="userSpaceOnUse"><stop stop-color="#2FA9FF"/><stop offset="1" stop-color="#2FA9FF" stop-opacity="0"/></linearGradient><linearGradient id="aH" x1="229.652" x2="231.829" y1="192.959" y2="317.554" gradientUnits="userSpaceOnUse"><stop stop-color="#2FA9FF"/><stop offset="1" stop-color="#2FA9FF" stop-opacity="0"/></linearGradient><linearGradient id="aI" x1="229.652" x2="231.829" y1="192.959" y2="317.554" gradientUnits="userSpaceOnUse"><stop stop-color="#2FA9FF"/><stop offset="1" stop-color="#2FA9FF" stop-opacity="0"/></linearGradient><linearGradient id="aJ" x1="229.652" x2="231.829" y1="192.959" y2="317.554" gradientUnits="userSpaceOnUse"><stop stop-color="#2FA9FF"/><stop offset="1" stop-color="#2FA9FF" stop-opacity="0"/></linearGradient><linearGradient id="aK" x1="229.652" x2="231.829" y1="192.959" y2="317.554" gradientUnits="userSpaceOnUse"><stop stop-color="#2FA9FF"/><stop offset="1" stop-color="#2FA9FF" stop-opacity="0"/></linearGradient><linearGradient id="aL" x1="229.652" x2="231.829" y1="192.959" y2="317.554" gradientUnits="userSpaceOnUse"><stop stop-color="#2FA9FF"/><stop offset="1" stop-color="#2FA9FF" stop-opacity="0"/></linearGradient><linearGradient id="aM" x1="229.652" x2="231.829" y1="192.959" y2="317.554" gradientUnits="userSpaceOnUse"><stop stop-color="#2FA9FF"/><stop offset="1" stop-color="#2FA9FF" stop-opacity="0"/></linearGradient><linearGradient id="aN" x1="229.652" x2="231.829" y1="192.959" y2="317.554" gradientUnits="userSpaceOnUse"><stop stop-color="#2FA9FF"/><stop offset="1" stop-color="#2FA9FF" stop-opacity="0"/></linearGradient><linearGradient id="aO" x1="229.652" x2="231.829" y1="192.959" y2="317.554" gradientUnits="userSpaceOnUse"><stop stop-color="#2FA9FF"/><stop offset="1" stop-color="#2FA9FF" stop-opacity="0"/></linearGradient><linearGradient id="aQ" x1="111.993" x2="136.705" y1="252.971" y2="268.102" gradientUnits="userSpaceOnUse"><stop stop-color="#0067FF"/><stop offset="1" stop-color="#2F83FF" stop-opacity="0"/></linearGradient><linearGradient id="aS" x1="283.65" x2="352.018" y1="139.012" y2="186.913" gradientUnits="userSpaceOnUse"><stop stop-color="#0067FF"/><stop offset="1" stop-color="#C8DEFF"/></linearGradient><linearGradient id="aT" x1="262.311" x2="242.404" y1="170.801" y2="216.191" gradientUnits="userSpaceOnUse"><stop stop-color="#2F76FF"/><stop offset="1" stop-color="#A8C5FF"/></linearGradient><linearGradient id="aU" x1="259.698" x2="328.938" y1="69.773" y2="95.901" gradientUnits="userSpaceOnUse"><stop offset=".068" stop-color="#FFB8B4"/><stop offset="1" stop-color="#FFB8B4" stop-opacity="0"/></linearGradient><linearGradient id="aW" x1="258.828" x2="313.697" y1="89.804" y2="128.561" gradientUnits="userSpaceOnUse"><stop stop-color="#D24544"/><stop offset="1" stop-color="#FB9190" stop-opacity=".24"/></linearGradient><linearGradient id="aX" x1="242.404" x2="227.038" y1="54.439" y2="133.786" gradientUnits="userSpaceOnUse"><stop stop-color="#F79998"/><stop offset="1" stop-color="#F88887"/></linearGradient><linearGradient id="aY" x1="213.539" x2="190.895" y1="163.834" y2="259.201" gradientUnits="userSpaceOnUse"><stop stop-color="#1DAC56"/><stop offset="1" stop-color="#0E9F48" stop-opacity="0"/></linearGradient><linearGradient id="ba" x1="189.588" x2="82.463" y1="186.913" y2="154.254" gradientUnits="userSpaceOnUse"><stop stop-color="#20C375"/><stop offset="1" stop-color="#A4FFC8" stop-opacity=".37"/></linearGradient><linearGradient id="bb" x1="216.898" x2="216.898" y1="54.439" y2="167.219" gradientUnits="userSpaceOnUse"><stop stop-color="#DBA10E"/><stop offset="1" stop-color="#F9C594"/></linearGradient><linearGradient id="bd" x1="199.168" x2="132.107" y1="98.949" y2="95.901" gradientUnits="userSpaceOnUse"><stop stop-color="#FFDE2E"/><stop offset="1" stop-color="#fff" stop-opacity="0"/></linearGradient><filter id="b" width="341.064" height="456.478" x="35.159" y="-1" color-interpolation-filters="sRGB" filterUnits="userSpaceOnUse"><feFlood flood-opacity="0" result="BackgroundImageFix"/><feBlend in="SourceGraphic" in2="BackgroundImageFix" result="shape"/><feGaussianBlur result="effect1_foregroundBlur_3948_358973" stdDeviation="21.5"/></filter><filter id="m" width="303.063" height="136.932" x="54.159" y="177.159" color-interpolation-filters="sRGB" filterUnits="userSpaceOnUse"><feFlood flood-opacity="0" result="BackgroundImageFix"/><feGaussianBlur in="BackgroundImageFix" stdDeviation="12"/><feComposite in2="SourceAlpha" operator="in" result="effect1_backgroundBlur_3948_358973"/><feBlend in="SourceGraphic" in2="effect1_backgroundBlur_3948_358973" result="shape"/></filter><filter id="O" width="226.928" height="90.47" x="92.226" y="187.147" color-interpolation-filters="sRGB" filterUnits="userSpaceOnUse"><feFlood flood-opacity="0" result="BackgroundImageFix"/><feGaussianBlur in="BackgroundImageFix" stdDeviation="2"/><feComposite in2="SourceAlpha" operator="in" result="effect1_backgroundBlur_3948_358973"/><feBlend in="SourceGraphic" in2="effect1_backgroundBlur_3948_358973" result="shape"/></filter><filter id="Q" width="303.929" height="208.126" x="49.373" y="99.661" color-interpolation-filters="sRGB" filterUnits="userSpaceOnUse"><feFlood flood-opacity="0" result="BackgroundImageFix"/><feBlend in="SourceGraphic" in2="BackgroundImageFix" result="shape"/><feGaussianBlur result="effect1_foregroundBlur_3948_358973" stdDeviation="32"/></filter><filter id="U" width="159.012" height="220.78" x="177.198" y="2.879" color-interpolation-filters="sRGB" filterUnits="userSpaceOnUse"><feFlood flood-opacity="0" result="BackgroundImageFix"/><feGaussianBlur in="BackgroundImageFix" stdDeviation="27"/><feComposite in2="SourceAlpha" operator="in" result="effect1_backgroundBlur_3948_358973"/><feBlend in="SourceGraphic" in2="effect1_backgroundBlur_3948_358973" result="shape"/></filter><filter id="Y" width="84.519" height="111.088" x="99.667" y="111.543" color-interpolation-filters="sRGB" filterUnits="userSpaceOnUse"><feFlood flood-opacity="0" result="BackgroundImageFix"/><feGaussianBlur in="BackgroundImageFix" stdDeviation="2"/><feComposite in2="SourceAlpha" operator="in" result="effect1_backgroundBlur_3948_358973"/><feBlend in="SourceGraphic" in2="effect1_backgroundBlur_3948_358973" result="shape"/></filter><filter id="ab" width="119.012" height="180.78" x="95.173" y="22.879" color-interpolation-filters="sRGB" filterUnits="userSpaceOnUse"><feFlood flood-opacity="0" result="BackgroundImageFix"/><feGaussianBlur in="BackgroundImageFix" stdDeviation="17"/><feComposite in2="SourceAlpha" operator="in" result="effect1_backgroundBlur_3948_358973"/><feBlend in="SourceGraphic" in2="effect1_backgroundBlur_3948_358973" result="shape"/></filter><filter id="an" width="303.062" height="136.932" x="78.12" y="174.719" color-interpolation-filters="sRGB" filterUnits="userSpaceOnUse"><feFlood flood-opacity="0" result="BackgroundImageFix"/><feGaussianBlur in="BackgroundImageFix" stdDeviation="12"/><feComposite in2="SourceAlpha" operator="in" result="effect1_backgroundBlur_3948_358973"/><feBlend in="SourceGraphic" in2="effect1_backgroundBlur_3948_358973" result="shape"/></filter><filter id="aP" width="226.928" height="90.47" x="116.188" y="184.707" color-interpolation-filters="sRGB" filterUnits="userSpaceOnUse"><feFlood flood-opacity="0" result="BackgroundImageFix"/><feGaussianBlur in="BackgroundImageFix" stdDeviation="2"/><feComposite in2="SourceAlpha" operator="in" result="effect1_backgroundBlur_3948_358973"/><feBlend in="SourceGraphic" in2="effect1_backgroundBlur_3948_358973" result="shape"/></filter><filter id="aR" width="265.08" height="190.56" x="92.72" y="106.2" color-interpolation-filters="sRGB" filterUnits="userSpaceOnUse"><feFlood flood-opacity="0" result="BackgroundImageFix"/><feBlend in="SourceGraphic" in2="BackgroundImageFix" result="shape"/><feGaussianBlur result="effect1_foregroundBlur_3948_358973" stdDeviation="32"/></filter><filter id="aV" width="159.012" height="220.78" x="201.158" y=".439" color-interpolation-filters="sRGB" filterUnits="userSpaceOnUse"><feFlood flood-opacity="0" result="BackgroundImageFix"/><feGaussianBlur in="BackgroundImageFix" stdDeviation="27"/><feComposite in2="SourceAlpha" operator="in" result="effect1_backgroundBlur_3948_358973"/><feBlend in="SourceGraphic" in2="effect1_backgroundBlur_3948_358973" result="shape"/></filter><filter id="aZ" width="84.519" height="111.088" x="123.625" y="109.103" color-interpolation-filters="sRGB" filterUnits="userSpaceOnUse"><feFlood flood-opacity="0" result="BackgroundImageFix"/><feGaussianBlur in="BackgroundImageFix" stdDeviation="2"/><feComposite in2="SourceAlpha" operator="in" result="effect1_backgroundBlur_3948_358973"/><feBlend in="SourceGraphic" in2="effect1_backgroundBlur_3948_358973" result="shape"/></filter><filter id="bc" width="119.012" height="180.78" x="119.132" y="20.439" color-interpolation-filters="sRGB" filterUnits="userSpaceOnUse"><feFlood flood-opacity="0" result="BackgroundImageFix"/><feGaussianBlur in="BackgroundImageFix" stdDeviation="17"/><feComposite in2="SourceAlpha" operator="in" result="effect1_backgroundBlur_3948_358973"/><feBlend in="SourceGraphic" in2="effect1_backgroundBlur_3948_358973" result="shape"/></filter><radialGradient id="n" cx="0" cy="0" r="1" gradientTransform="matrix(0 97.4484 -279.489 0 205.691 245.625)" gradientUnits="userSpaceOnUse"><stop stop-color="#71C3FF"/><stop offset="1" stop-color="#71C3FF" stop-opacity="0"/></radialGradient><radialGradient id="o" cx="0" cy="0" r="1" gradientTransform="rotate(89.999 -5.175 210.866)scale(49.0869 168.78)" gradientUnits="userSpaceOnUse"><stop stop-color="#5BA7DF"/><stop offset="1" stop-color="#83CAFE"/></radialGradient><radialGradient id="ao" cx="0" cy="0" r="1" gradientTransform="matrix(0 97.4483 -279.489 0 229.651 243.185)" gradientUnits="userSpaceOnUse"><stop stop-color="#71C3FF"/><stop offset="1" stop-color="#71C3FF" stop-opacity="0"/></radialGradient><radialGradient id="ap" cx="0" cy="0" r="1" gradientTransform="rotate(89.999 8.025 221.625)scale(49.0871 168.78)" gradientUnits="userSpaceOnUse"><stop stop-color="#5BA7DF"/><stop offset="1" stop-color="#83CAFE"/></radialGradient><clipPath id="a"><rect width="460" height="460" fill="#fff" rx="20"/></clipPath></defs></svg>