<svg xmlns="http://www.w3.org/2000/svg" fill="none" viewBox="0 0 460 460" opt="1"><g clip-path="url(#a)"><g filter="url(#b)" opacity=".6"><path fill="url(#c)" d="m355.231 205.186-103.278 62.089 112.888 63.97c27.093-54.563 4.814-106.774-9.61-126.059"/><path fill="url(#d)" fill-opacity=".5" d="m355.231 205.186-103.278 62.089 112.888 63.97c27.093-54.563 4.814-106.774-9.61-126.059"/><path fill="url(#e)" d="m355.231 205.186-103.278 62.089 112.888 63.97c27.093-54.563 4.814-106.774-9.61-126.059"/><path fill="url(#f)" d="M214.323 394.744c32.769 10.662 108.75 12.512 150.518-63.499z"/><path fill="url(#g)" fill-opacity=".5" d="M214.323 394.744c32.769 10.662 108.75 12.512 150.518-63.499z"/><path fill="url(#h)" d="M214.323 394.744c32.769 10.662 108.75 12.512 150.518-63.499z"/><path fill="url(#i)" d="M134.628 319.485c-18.746-49.388.83-96.112 13.373-111.947l51.741 94.073 14.581 93.133c-15.992-5.644-60.949-25.87-79.695-75.259"/><path fill="url(#j)" d="M134.628 319.485c-18.746-49.388.83-96.112 13.373-111.947l51.741 94.073 14.581 93.133c-15.992-5.644-60.949-25.87-79.695-75.259"/><path fill="url(#k)" d="M134.628 319.485c-18.746-49.388.83-96.112 13.373-111.947l51.741 94.073 14.581 93.133c-15.992-5.644-60.949-25.87-79.695-75.259"/><path fill="url(#l)" d="m199.742 301.611 52.211-34.337-103.952-59.736z"/><path fill="url(#m)" d="m199.742 301.611 52.211-34.337-103.952-59.736z"/><path fill="url(#n)" d="m251.953 267.274-52.211 34.337 14.581 93.133z"/><path fill="url(#o)" fill-opacity=".8" d="m251.953 267.274-52.211 34.337 14.581 93.133z"/><path fill="url(#p)" d="m251.953 267.274-37.63 127.47 150.518-63.499z"/><path fill="url(#q)" fill-opacity=".2" d="m251.953 267.274-37.63 127.47 150.518-63.499z"/><path fill="url(#r)" fill-opacity=".98" d="M215.777 105.938 163.566 185.9l51.271-28.222z"/><path fill="url(#s)" fill-opacity=".6" d="m276.926 88.064-62.089 69.614.941-51.741z"/><path fill="url(#t)" d="m276.926 88.064-62.089 69.614.941-51.741z"/><path fill="url(#u)" d="m276.926 88.064-62.089 69.614.941-51.741z"/><path fill="url(#v)" d="m252.466 50.434-36.689 55.504 61.148-17.874z"/><path fill="url(#w)" d="m214.297 157.467-50.799 27.752 87.959 50.799 39.981-22.577z"/><path fill="url(#x)" d="m214.297 157.467-50.799 27.752 87.959 50.799 39.981-22.577z"/><path fill="url(#y)" fill-opacity=".9" d="m276.926 88.064-62.089 69.614 77.14 55.974z"/><path fill="url(#z)" d="m276.926 88.064-62.089 69.614 77.14 55.974z"/><path fill="url(#A)" fill-opacity=".6" d="m276.926 88.064-62.089 69.614 77.14 55.974z"/><path fill="url(#B)" fill-opacity=".9" d="m276.926 88.064 15.052 125.588 48.918-27.752z"/><path fill="url(#C)" d="m276.926 88.064 15.052 125.588 48.918-27.752z"/><path fill="url(#D)" d="M164.254 193.324a6.97 6.97 0 0 0 4.353-1.529c3.765 1.049 9.57 3.74 13.783 5.825l53.897 31.123c3.67 2.666 6.79 6.601 8.774 9.45.865 2.944 3.607 4.991 6.683 4.991 3.841 0 6.962-3.127 6.962-6.961 0-.348-.026-.702-.076-1.049.72-.916 1.731-1.965 2.924-3.045l15.237-8.61c5.325-2.198 9.002-2.975 10.474-3.222a6.9 6.9 0 0 0 3.986 1.251c3.828 0 6.942-3.101 6.961-6.923 3.777-3.891 11.364-9.16 17.062-12.899l8.888-5.048c6.38-2.981 10.985-3.885 12.786-4.144a7 7 0 0 0 3.215.784c3.841 0 6.961-3.127 6.961-6.962s-3.127-6.967-6.961-6.967q-.57.001-1.131.088c-1.409-.922-3.518-3.158-6.102-6.456l-44.2-67.591c-3.525-6.172-5.755-10.626-6.633-13.234a6.94 6.94 0 0 0 1.049-3.683c0-3.898-3.234-7.069-7.138-6.962-3.298-3.903-7.082-7.643-9.078-9.557l-4.921-7.58c-1.32-3.216-2.583-6.829-3.55-9.665a6.9 6.9 0 0 0 1.175-3.873c0-3.84-3.127-6.961-6.961-6.961s-6.961 3.127-6.961 6.961c0 .86.151 1.693.454 2.483-1.674 4.877-6.993 14.927-9.197 19.027l-14.422 21.818c-2.975 3.064-5.653 4.713-7.125 5.225a8 8 0 0 0-.379-.013c-3.841 0-6.962 3.127-6.962 6.961 0 1.485.461 2.9 1.333 4.094-.385 2.204-2.141 6.14-5.205 11.673l-30.568 46.822c-6.481 8.793-9.633 10.499-10.284 10.416l-.341-.044-.038.158c-3.266.607-5.691 3.5-5.691 6.848 0 3.84 3.127 6.961 6.961 6.961zm122.12-13.897c1.194 13.183 2.546 28.129 1.2 28.666-1.693-.36-5.445-2.432-11.143-6.134l-45.312-32.88c-4.668-3.986-7.883-7.169-9.311-9.229a7.2 7.2 0 0 0 .215-1.718c0-.941-.183-1.851-.543-2.71 1.238-3.424 4.377-8.067 6.79-11.351l38.401-43.057c5.035-4.914 6.601-5.837 7.082-5.982.069.025.145.05.214.076 1.163 1.244 3.159 9.45 5.231 21.522l6.203 51.748c.322 3.746.651 7.391.967 10.865l.018.171zm-18.326 47.08-.019-.032c-.417.215-.884.487-1.383.803-5.464 3.019-9.261 3.253-11.093 3.108a6.9 6.9 0 0 0-3.809-1.137c-2.04 0-3.954.878-5.281 2.425a29 29 0 0 1-3.285-.922l-64.028-36.98c-4.883-3.505-7.707-6.298-7.941-7.833 0-.094-.012-.183-.019-.24q-.001-.113.026-.208c.189-.84 1.326-2.502 5.647-5.628l24.32-13.392c5.168-2.142 8.187-2.932 9.223-3.172a6.92 6.92 0 0 0 4.656 1.788 6.97 6.97 0 0 0 4.181-1.396c2.767 1.516 6.943 4.157 12.407 7.858l43.796 31.775c5.792 5.293 8.856 9.343 8.856 11.711 0 .588-.777 2.104-5.938 5.635l-10.303 5.818zm1.201-138.398c-1.498 1.187-3.835 2.438-6.911 3.72l-21.491 6.28c-6.354 1.446-17.264 3.865-20.214 4.124a7 7 0 0 0-.606-.707 5 5 0 0 1 .227-.739l20.606-31.175c8.44-10.606 11.08-11.75 11.825-11.75 1.554 0 4.631 3.033 8.434 8.295l8.711 13.398c.695 1.586 1.13 3 1.288 4.207a6.96 6.96 0 0 0-1.876 4.347zm-47.34 19.506c1.706-1.478 5.584-3.373 11.213-5.476l30.542-8.933c5.9-1.175 6.475-.594 6.513-.511-.095.55-1.055 2.463-6.487 9.102l-29.886 33.512c-5.009 4.7-8.736 8.37-11.497 11.093-2.565 2.526-4.257 4.194-5.129 4.845-.114.088-.158.069-.177.063-.152-.07-.916-.695-1.333-6.279l.278-15.262c.758-5.616 2.009-13.31 3.708-18.136a6.98 6.98 0 0 0 2.262-4.011zm-7.947 37.883c-.638 3.373-1.503 5.565-1.831 6.324a6.97 6.97 0 0 0-3.702 8.458c-.411.322-.859.651-1.308.979l-35.438 19.362c-2.388.802-2.817.429-2.881.347-.012-.019-.221-.43.834-2.716l27.17-41.61c12.88-18.237 15.552-20.044 16.089-20.107.758 1.232 1.251 6.209 1.358 13.682l-.278 15.288zm119.574 43c-.612.701-1.478 1.497-2.564 2.375l-20.493 11.63c-8.306 4.308-13.448 6.291-15.704 6.083a7 7 0 0 0-.972-.474c-1.58-2.344-3.595-16.923-5.926-33.783l-.486-3.538-8.875-74.072c.126-1.53.398-1.706.398-1.706.233.076 1.036.613 3.512 3.866l48.754 74.559c1.876 4.176 2.748 7.511 3.114 9.21a6.98 6.98 0 0 0-.745 5.862z"/><path fill="url(#E)" d="M377.963 264.434c-1.983-18.654-7.713-33.663-12.153-42.924a659 659 0 0 1-3.847-11.408c.454-.941.694-1.99.694-3.039 0-3.84-3.126-6.961-6.961-6.961-3.834 0-6.961 3.127-6.961 6.961 0 .108 0 .221.006.329-1.598 1.478-4.131 3.443-7.53 5.83l-67.869 40.802c-9.337 4.655-15.256 6.74-17.751 7.157a6.964 6.964 0 0 0-7.719.65c-3.961-1.004-10.133-3.783-14.624-5.944l-66.12-37.99c-6.342-4.517-10.789-9.065-11.459-10.499-.309-3.569-3.335-6.355-6.936-6.355-3.84 0-6.961 3.127-6.961 6.968a6.9 6.9 0 0 0 1.226 3.948c-.171 1.08-.468 2.312-.879 3.683-5.811 10.107-10.486 22.747-13.151 35.59-3.405 16.405-5.294 41.698 5.085 69.031 7.353 19.368 19.45 36.266 35.956 50.22 13.948 11.788 28.123 18.996 37.655 22.988a7 7 0 0 0-.044.808c0 3.841 3.127 6.962 6.961 6.962a6.96 6.96 0 0 0 5.995-3.418c9.596 2.394 20.069 3.595 30.663 3.595 10.019 0 20.151-1.074 29.74-3.222 26.98-6.045 49.816-19.924 67.857-41.231 8.938-9.033 13.19-13.72 15.477-16.247l.056-.063a95 95 0 0 1 1.599-1.738 6.95 6.95 0 0 0 5.148-6.727 6.93 6.93 0 0 0-1.346-4.119c.171-1.971.683-4.895 1.51-8.686 6.437-17.561 8.68-36.051 6.671-54.938zm-20.751 67.168c-.164.569-2.009 2.59-15.596 9.072l-109.549 46.221c-9.457 3.114-11.895 2.546-12.514 1.933-.411-.411-.929-2.053.227-8.383l27.201-92.145c4.378-12.243 6.961-14.365 8.105-14.542.145-.025.322-.038.518-.038 1.806 0 5.894 1.061 15.085 5.489l50.017 28.345-.012.025c20.953 11.787 36.992 22.343 36.512 24.023zm-123.496 56.436 114.608-48.356c6.538-1.99 9.987-2.35 11.087-2.407q.456.425.979.764c-15.622 25.433-36.582 43.335-62.311 53.215-19.494 7.491-42.014 10.132-63.378 7.447-11.421-2.255-11.75-3.796-11.75-3.96 0-.228.518-1.637 10.758-6.696zm108.929-70.011-72.929-41.325c-8.32-5.622-10.259-8.389-10.423-9.716-.044-.354.038-.638.253-.878 1.794-1.996 8.761-6.829 19.601-13.607l53.726-32.298c4.542-2.35 13.007-6.412 18.894-7.391a6.988 6.988 0 0 0 5.805.947c3.273 2.584 6.791 9.015 9.179 13.98 7.037 16.74 16.891 50.523 3.765 88.734-2.022 4.144-4.403 7.221-5.723 8.762a6.95 6.95 0 0 0-4.321 1.03c-3.468-1.308-9.469-4.081-17.827-8.238m-101.273-44.206-27.713 18.225c-3.721 2.072-6.607 3.36-8.591 3.84a6.9 6.9 0 0 0-5.451-1.768c-1.776-1.712-9.773-13.746-17.764-26.74l-20.183-36.695c-6.841-13.209-7.668-16.178-7.517-16.74 1.182-.626 3.904.865 7.05 2.596.891.486 1.832 1.004 2.786 1.503l73.611 42.305c6.659 4.801 7.65 6.987 7.65 7.865s-.682 2.64-3.878 5.615zm-45.956 32.103a6.9 6.9 0 0 0 2.268 1.535c1.408 2.186 3.183 8.433 5.015 17.624l6.898 44.074c1.081 9.532 1.39 16.247.904 19.456a7.1 7.1 0 0 0-1.908 2.078c-2.236-.233-6.848-1.971-13.038-4.908-19.981-10.777-46.594-31.004-59.929-66.139-10.228-26.948-8.37-51.9-5.01-68.084 1.826-8.78 4.504-17.245 7.96-25.129 4.542-8.42 7.346-10.732 8.9-11.181.228-.063.442-.101.645-.101.315 0 .606.076.884.234 1.289.72 5.325 6.538 11.067 15.95l22.647 41.174c6.847 13.417 10.865 22.053 11.635 25.009a6.95 6.95 0 0 0 1.049 8.408zm8.382 15.173c-.442-6.62-.379-11.484.19-14.106a6.966 6.966 0 0 0 3.354-6.279c2.097-2.122 7.157-6.462 12.4-10.631l21.383-14.068c4.631-2.482 6.147-2.23 6.633-1.863.133.107.682 1.08-1.162 9.481l-26.651 90.282c-3.835 11.478-5.079 13.152-5.395 13.373-.07-.063-.259-.29-.543-1.017l-10.202-65.172z"/><path fill="url(#F)" d="M377.963 264.434c-1.983-18.654-7.713-33.663-12.153-42.924a659 659 0 0 1-3.847-11.408c.454-.941.694-1.99.694-3.039 0-3.84-3.126-6.961-6.961-6.961-3.834 0-6.961 3.127-6.961 6.961 0 .108 0 .221.006.329-1.598 1.478-4.131 3.443-7.53 5.83l-67.869 40.802c-9.337 4.655-15.256 6.74-17.751 7.157a6.964 6.964 0 0 0-7.719.65c-3.961-1.004-10.133-3.783-14.624-5.944l-66.12-37.99c-6.342-4.517-10.789-9.065-11.459-10.499-.309-3.569-3.335-6.355-6.936-6.355-3.84 0-6.961 3.127-6.961 6.968a6.9 6.9 0 0 0 1.226 3.948c-.171 1.08-.468 2.312-.879 3.683-5.811 10.107-10.486 22.747-13.151 35.59-3.405 16.405-5.294 41.698 5.085 69.031 7.353 19.368 19.45 36.266 35.956 50.22 13.948 11.788 28.123 18.996 37.655 22.988a7 7 0 0 0-.044.808c0 3.841 3.127 6.962 6.961 6.962a6.96 6.96 0 0 0 5.995-3.418c9.596 2.394 20.069 3.595 30.663 3.595 10.019 0 20.151-1.074 29.74-3.222 26.98-6.045 49.816-19.924 67.857-41.231 8.938-9.033 13.19-13.72 15.477-16.247l.056-.063a95 95 0 0 1 1.599-1.738 6.95 6.95 0 0 0 5.148-6.727 6.93 6.93 0 0 0-1.346-4.119c.171-1.971.683-4.895 1.51-8.686 6.437-17.561 8.68-36.051 6.671-54.938zm-20.751 67.168c-.164.569-2.009 2.59-15.596 9.072l-109.549 46.221c-9.457 3.114-11.895 2.546-12.514 1.933-.411-.411-.929-2.053.227-8.383l27.201-92.145c4.378-12.243 6.961-14.365 8.105-14.542.145-.025.322-.038.518-.038 1.806 0 5.894 1.061 15.085 5.489l50.017 28.345-.012.025c20.953 11.787 36.992 22.343 36.512 24.023zm-123.496 56.436 114.608-48.356c6.538-1.99 9.987-2.35 11.087-2.407q.456.425.979.764c-15.622 25.433-36.582 43.335-62.311 53.215-19.494 7.491-42.014 10.132-63.378 7.447-11.421-2.255-11.75-3.796-11.75-3.96 0-.228.518-1.637 10.758-6.696zm108.929-70.011-72.929-41.325c-8.32-5.622-10.259-8.389-10.423-9.716-.044-.354.038-.638.253-.878 1.794-1.996 8.761-6.829 19.601-13.607l53.726-32.298c4.542-2.35 13.007-6.412 18.894-7.391a6.988 6.988 0 0 0 5.805.947c3.273 2.584 6.791 9.015 9.179 13.98 7.037 16.74 16.891 50.523 3.765 88.734-2.022 4.144-4.403 7.221-5.723 8.762a6.95 6.95 0 0 0-4.321 1.03c-3.468-1.308-9.469-4.081-17.827-8.238m-101.273-44.206-27.713 18.225c-3.721 2.072-6.607 3.36-8.591 3.84a6.9 6.9 0 0 0-5.451-1.768c-1.776-1.712-9.773-13.746-17.764-26.74l-20.183-36.695c-6.841-13.209-7.668-16.178-7.517-16.74 1.182-.626 3.904.865 7.05 2.596.891.486 1.832 1.004 2.786 1.503l73.611 42.305c6.659 4.801 7.65 6.987 7.65 7.865s-.682 2.64-3.878 5.615zm-45.956 32.103a6.9 6.9 0 0 0 2.268 1.535c1.408 2.186 3.183 8.433 5.015 17.624l6.898 44.074c1.081 9.532 1.39 16.247.904 19.456a7.1 7.1 0 0 0-1.908 2.078c-2.236-.233-6.848-1.971-13.038-4.908-19.981-10.777-46.594-31.004-59.929-66.139-10.228-26.948-8.37-51.9-5.01-68.084 1.826-8.78 4.504-17.245 7.96-25.129 4.542-8.42 7.346-10.732 8.9-11.181.228-.063.442-.101.645-.101.315 0 .606.076.884.234 1.289.72 5.325 6.538 11.067 15.95l22.647 41.174c6.847 13.417 10.865 22.053 11.635 25.009a6.95 6.95 0 0 0 1.049 8.408zm8.382 15.173c-.442-6.62-.379-11.484.19-14.106a6.966 6.966 0 0 0 3.354-6.279c2.097-2.122 7.157-6.462 12.4-10.631l21.383-14.068c4.631-2.482 6.147-2.23 6.633-1.863.133.107.682 1.08-1.162 9.481l-26.651 90.282c-3.835 11.478-5.079 13.152-5.395 13.373-.07-.063-.259-.29-.543-1.017l-10.202-65.172z"/></g><path fill="url(#G)" d="m333.499 205.186-103.278 62.089 112.888 63.97c27.094-54.563 4.814-106.774-9.61-126.059"/><path fill="url(#H)" fill-opacity=".5" d="m333.499 205.186-103.278 62.089 112.888 63.97c27.094-54.563 4.814-106.774-9.61-126.059"/><path fill="url(#I)" d="m333.499 205.186-103.278 62.089 112.888 63.97c27.094-54.563 4.814-106.774-9.61-126.059"/><path fill="url(#J)" d="M192.591 394.744c32.769 10.662 108.75 12.512 150.518-63.499z"/><path fill="url(#K)" fill-opacity=".5" d="M192.591 394.744c32.769 10.662 108.75 12.512 150.518-63.499z"/><path fill="url(#L)" d="M192.591 394.744c32.769 10.662 108.75 12.512 150.518-63.499z"/><path fill="url(#M)" d="M112.896 319.485c-18.746-49.388.83-96.112 13.373-111.947l51.741 94.073 14.581 93.133c-15.992-5.644-60.949-25.87-79.695-75.259"/><path fill="url(#N)" d="M112.896 319.485c-18.746-49.388.83-96.112 13.373-111.947l51.741 94.073 14.581 93.133c-15.992-5.644-60.949-25.87-79.695-75.259"/><path fill="url(#O)" d="M112.896 319.485c-18.746-49.388.83-96.112 13.373-111.947l51.741 94.073 14.581 93.133c-15.992-5.644-60.949-25.87-79.695-75.259"/><path fill="url(#P)" d="m178.01 301.611 52.211-34.337-103.951-59.736z"/><path fill="url(#Q)" d="m178.01 301.611 52.211-34.337-103.951-59.736z"/><path fill="url(#R)" d="m230.221 267.274-52.211 34.337 14.581 93.133z"/><path fill="url(#S)" fill-opacity=".8" d="m230.221 267.274-52.211 34.337 14.581 93.133z"/><path fill="url(#T)" d="m230.221 267.274-37.63 127.47 150.518-63.499z"/><path fill="url(#U)" fill-opacity=".2" d="m230.221 267.274-37.63 127.47 150.518-63.499z"/><path fill="url(#V)" fill-opacity=".98" d="M194.045 105.938 141.834 185.9l51.271-28.222z"/><path fill="url(#W)" fill-opacity=".6" d="m255.194 88.064-62.089 69.614.941-51.741z"/><path fill="url(#X)" d="m255.194 88.064-62.089 69.614.941-51.741z"/><path fill="url(#Y)" d="m255.194 88.064-62.089 69.614.941-51.741z"/><path fill="url(#Z)" d="m230.734 50.434-36.689 55.504 61.148-17.874z"/><path fill="url(#aa)" d="m192.565 157.467-50.799 27.752 87.959 50.799 39.981-22.577z"/><path fill="url(#ab)" d="m192.565 157.467-50.799 27.752 87.959 50.799 39.981-22.577z"/><path fill="url(#ac)" fill-opacity=".9" d="m255.194 88.064-62.089 69.614 77.14 55.974z"/><path fill="url(#ad)" fill-opacity=".7" d="m255.194 88.064-62.089 69.614 77.14 55.974z"/><path fill="url(#ae)" fill-opacity=".6" d="m255.194 88.064-62.089 69.614 77.14 55.974z"/><path fill="url(#af)" fill-opacity=".9" d="m255.194 88.064 15.052 125.588 48.918-27.752z"/><path fill="url(#ag)" fill-opacity=".7" d="m255.194 88.064 15.052 125.588 48.918-27.752z"/><g filter="url(#ah)"><path fill="url(#ai)" fill-opacity=".7" d="M142.522 193.324a6.97 6.97 0 0 0 4.353-1.529c3.765 1.049 9.57 3.74 13.783 5.825l53.897 31.123c3.67 2.666 6.79 6.601 8.774 9.45.865 2.944 3.607 4.991 6.683 4.991 3.841 0 6.962-3.127 6.962-6.961 0-.348-.026-.702-.076-1.049.72-.916 1.731-1.965 2.925-3.045l15.236-8.61c5.325-2.198 9.002-2.975 10.474-3.222a6.9 6.9 0 0 0 3.986 1.251c3.828 0 6.942-3.101 6.961-6.923 3.777-3.891 11.364-9.16 17.062-12.899l8.888-5.048c6.38-2.981 10.985-3.885 12.786-4.144a7 7 0 0 0 3.215.784c3.841 0 6.961-3.127 6.961-6.962s-3.127-6.967-6.961-6.967q-.57.001-1.131.088c-1.408-.922-3.518-3.158-6.102-6.456l-44.2-67.591c-3.525-6.172-5.755-10.626-6.633-13.234a6.94 6.94 0 0 0 1.049-3.683c0-3.898-3.234-7.069-7.138-6.962-3.298-3.903-7.082-7.643-9.078-9.557l-4.921-7.58c-1.32-3.216-2.583-6.829-3.55-9.665a6.9 6.9 0 0 0 1.175-3.873c0-3.84-3.127-6.961-6.961-6.961s-6.961 3.127-6.961 6.961c0 .86.151 1.693.454 2.483-1.674 4.877-6.992 14.927-9.197 19.027l-14.422 21.818c-2.975 3.064-5.653 4.713-7.125 5.225a8 8 0 0 0-.379-.013c-3.841 0-6.962 3.127-6.962 6.961 0 1.485.462 2.9 1.333 4.094-.385 2.204-2.141 6.14-5.205 11.673l-30.568 46.822c-6.481 8.793-9.633 10.499-10.284 10.416l-.341-.044-.038.158c-3.266.607-5.691 3.5-5.691 6.848 0 3.84 3.127 6.961 6.961 6.961zm122.12-13.897c1.194 13.183 2.546 28.129 1.2 28.666-1.693-.36-5.445-2.432-11.143-6.134l-45.312-32.88c-4.668-3.986-7.883-7.169-9.311-9.229a7.2 7.2 0 0 0 .215-1.718c0-.941-.183-1.851-.543-2.71 1.238-3.424 4.377-8.067 6.79-11.351l38.401-43.057c5.035-4.914 6.602-5.837 7.082-5.982.069.025.145.05.214.076 1.163 1.244 3.159 9.45 5.231 21.522l6.203 51.748c.322 3.746.651 7.391.967 10.865l.019.171zm-18.326 47.08-.019-.032c-.416.215-.884.487-1.383.803-5.464 3.019-9.261 3.253-11.093 3.108a6.9 6.9 0 0 0-3.809-1.137c-2.04 0-3.954.878-5.281 2.425a29 29 0 0 1-3.284-.922l-64.029-36.98c-4.883-3.505-7.707-6.298-7.941-7.833 0-.094-.012-.183-.019-.24q-.001-.113.026-.208c.189-.84 1.326-2.502 5.647-5.628l24.32-13.392c5.168-2.142 8.187-2.932 9.223-3.172a6.92 6.92 0 0 0 4.656 1.788 6.97 6.97 0 0 0 4.182-1.396c2.766 1.516 6.942 4.157 12.406 7.858l43.796 31.775c5.792 5.293 8.856 9.343 8.856 11.711 0 .588-.777 2.104-5.938 5.635l-10.303 5.818zm1.201-138.398c-1.497 1.187-3.835 2.438-6.911 3.72l-21.49 6.28c-6.355 1.446-17.265 3.865-20.215 4.124a7 7 0 0 0-.606-.707 5 5 0 0 1 .227-.739l20.606-31.175c8.44-10.606 11.08-11.75 11.826-11.75 1.554 0 4.63 3.033 8.433 8.295l8.711 13.398c.695 1.586 1.131 3 1.288 4.207a6.96 6.96 0 0 0-1.876 4.347zm-47.34 19.506c1.706-1.478 5.584-3.373 11.213-5.476l30.542-8.933c5.9-1.175 6.475-.594 6.513-.511-.095.55-1.055 2.463-6.487 9.102l-29.886 33.512c-5.009 4.7-8.736 8.37-11.497 11.093-2.564 2.526-4.257 4.194-5.129 4.845-.114.088-.158.069-.177.063-.152-.07-.916-.695-1.333-6.279l.278-15.262c.758-5.616 2.009-13.31 3.708-18.136a6.98 6.98 0 0 0 2.262-4.011zm-7.946 37.883c-.638 3.373-1.504 5.565-1.832 6.324a6.97 6.97 0 0 0-3.702 8.458c-.411.322-.859.651-1.308.979l-35.438 19.362c-2.388.802-2.817.429-2.88.347-.013-.019-.222-.43.833-2.716l27.17-41.61c12.88-18.237 15.552-20.044 16.089-20.107.758 1.232 1.251 6.209 1.358 13.682l-.278 15.288zm119.573 43c-.612.701-1.478 1.497-2.564 2.375l-20.493 11.63c-8.306 4.308-13.448 6.291-15.703 6.083a7.4 7.4 0 0 0-.973-.474c-1.58-2.344-3.595-16.923-5.926-33.783l-.486-3.538-8.875-74.072c.126-1.53.398-1.706.398-1.706.233.076 1.036.613 3.512 3.866l48.754 74.559c1.876 4.176 2.748 7.511 3.114 9.21a6.98 6.98 0 0 0-.745 5.862z"/></g><g filter="url(#aj)"><path fill="url(#ak)" fill-opacity=".7" d="M356.232 264.434c-1.984-18.654-7.713-33.663-12.154-42.924a659 659 0 0 1-3.847-11.408 7 7 0 0 0 .695-3.039c0-3.84-3.127-6.961-6.962-6.961s-6.961 3.127-6.961 6.961c0 .108 0 .221.006.329-1.598 1.478-4.131 3.443-7.53 5.83l-67.869 40.802c-9.337 4.655-15.256 6.74-17.751 7.157a6.964 6.964 0 0 0-7.719.65c-3.961-1.004-10.133-3.783-14.624-5.944l-66.12-37.99c-6.342-4.517-10.789-9.065-11.459-10.499-.309-3.569-3.335-6.355-6.936-6.355-3.84 0-6.961 3.127-6.961 6.968a6.9 6.9 0 0 0 1.226 3.948c-.171 1.08-.468 2.312-.878 3.683-5.812 10.107-10.487 22.747-13.152 35.59-3.405 16.405-5.294 41.698 5.085 69.031 7.353 19.368 19.45 36.266 35.956 50.22 13.948 11.788 28.123 18.996 37.655 22.988a7 7 0 0 0-.044.808c0 3.841 3.127 6.962 6.961 6.962a6.96 6.96 0 0 0 5.995-3.418c9.596 2.394 20.069 3.595 30.663 3.595 10.019 0 20.151-1.074 29.74-3.222 26.98-6.045 49.816-19.924 67.857-41.231 8.939-9.033 13.19-13.72 15.477-16.247l.056-.063a95 95 0 0 1 1.599-1.738 6.95 6.95 0 0 0 5.148-6.727 6.92 6.92 0 0 0-1.346-4.119c.171-1.971.683-4.895 1.51-8.686 6.437-17.561 8.68-36.051 6.671-54.938zm-20.752 67.168c-.164.569-2.008 2.59-15.596 9.072l-109.549 46.221c-9.457 3.114-11.895 2.546-12.514 1.933-.411-.411-.929-2.053.227-8.383l27.201-92.145c4.378-12.243 6.962-14.365 8.105-14.542.145-.025.322-.038.518-.038 1.807 0 5.894 1.061 15.085 5.489l50.018 28.345-.013.025c20.953 11.787 36.992 22.343 36.512 24.023zm-123.496 56.436 114.608-48.356c6.538-1.99 9.987-2.35 11.087-2.407q.456.425.979.764c-15.622 25.433-36.582 43.335-62.311 53.215-19.494 7.491-42.014 10.132-63.378 7.447-11.421-2.255-11.75-3.796-11.75-3.96 0-.228.518-1.637 10.758-6.696zm108.929-70.011-72.929-41.325c-8.319-5.622-10.259-8.389-10.423-9.716-.044-.354.038-.638.253-.878 1.794-1.996 8.761-6.829 19.601-13.607l53.726-32.298c4.542-2.35 13.007-6.412 18.894-7.391a6.988 6.988 0 0 0 5.805.947c3.273 2.584 6.791 9.015 9.179 13.98 7.037 16.74 16.892 50.523 3.765 88.734-2.022 4.144-4.403 7.221-5.723 8.762a6.95 6.95 0 0 0-4.321 1.03c-3.468-1.308-9.469-4.081-17.827-8.238M219.64 273.821l-27.713 18.225c-3.72 2.072-6.607 3.36-8.591 3.84a6.9 6.9 0 0 0-5.451-1.768c-1.775-1.712-9.773-13.746-17.764-26.74l-20.182-36.695c-6.842-13.209-7.669-16.178-7.518-16.74 1.182-.626 3.904.865 7.05 2.596.891.486 1.832 1.004 2.786 1.503l73.612 42.305c6.658 4.801 7.649 6.987 7.649 7.865s-.682 2.64-3.878 5.615zm-45.956 32.103a6.9 6.9 0 0 0 2.268 1.535c1.408 2.186 3.183 8.433 5.015 17.624l6.898 44.074c1.081 9.532 1.39 16.247.904 19.456a7.1 7.1 0 0 0-1.908 2.078c-2.236-.233-6.848-1.971-13.038-4.908-19.981-10.777-46.594-31.004-59.929-66.139-10.227-26.948-8.37-51.9-5.01-68.084 1.826-8.78 4.504-17.245 7.96-25.129 4.542-8.42 7.346-10.732 8.9-11.181.228-.063.443-.101.645-.101.316 0 .606.076.884.234 1.289.72 5.325 6.538 11.067 15.95l22.647 41.174c6.847 13.417 10.865 22.053 11.636 25.009a6.95 6.95 0 0 0 1.048 8.408zm8.382 15.173c-.442-6.62-.379-11.484.19-14.106a6.966 6.966 0 0 0 3.354-6.279c2.097-2.122 7.157-6.462 12.4-10.631l21.383-14.068c4.631-2.482 6.147-2.23 6.633-1.863.133.107.682 1.08-1.162 9.481l-26.651 90.282c-3.835 11.478-5.079 13.152-5.395 13.373-.07-.063-.259-.29-.543-1.017l-10.202-65.172z"/><path fill="url(#al)" d="M356.232 264.434c-1.984-18.654-7.713-33.663-12.154-42.924a659 659 0 0 1-3.847-11.408 7 7 0 0 0 .695-3.039c0-3.84-3.127-6.961-6.962-6.961s-6.961 3.127-6.961 6.961c0 .108 0 .221.006.329-1.598 1.478-4.131 3.443-7.53 5.83l-67.869 40.802c-9.337 4.655-15.256 6.74-17.751 7.157a6.964 6.964 0 0 0-7.719.65c-3.961-1.004-10.133-3.783-14.624-5.944l-66.12-37.99c-6.342-4.517-10.789-9.065-11.459-10.499-.309-3.569-3.335-6.355-6.936-6.355-3.84 0-6.961 3.127-6.961 6.968a6.9 6.9 0 0 0 1.226 3.948c-.171 1.08-.468 2.312-.878 3.683-5.812 10.107-10.487 22.747-13.152 35.59-3.405 16.405-5.294 41.698 5.085 69.031 7.353 19.368 19.45 36.266 35.956 50.22 13.948 11.788 28.123 18.996 37.655 22.988a7 7 0 0 0-.044.808c0 3.841 3.127 6.962 6.961 6.962a6.96 6.96 0 0 0 5.995-3.418c9.596 2.394 20.069 3.595 30.663 3.595 10.019 0 20.151-1.074 29.74-3.222 26.98-6.045 49.816-19.924 67.857-41.231 8.939-9.033 13.19-13.72 15.477-16.247l.056-.063a95 95 0 0 1 1.599-1.738 6.95 6.95 0 0 0 5.148-6.727 6.92 6.92 0 0 0-1.346-4.119c.171-1.971.683-4.895 1.51-8.686 6.437-17.561 8.68-36.051 6.671-54.938zm-20.752 67.168c-.164.569-2.008 2.59-15.596 9.072l-109.549 46.221c-9.457 3.114-11.895 2.546-12.514 1.933-.411-.411-.929-2.053.227-8.383l27.201-92.145c4.378-12.243 6.962-14.365 8.105-14.542.145-.025.322-.038.518-.038 1.807 0 5.894 1.061 15.085 5.489l50.018 28.345-.013.025c20.953 11.787 36.992 22.343 36.512 24.023zm-123.496 56.436 114.608-48.356c6.538-1.99 9.987-2.35 11.087-2.407q.456.425.979.764c-15.622 25.433-36.582 43.335-62.311 53.215-19.494 7.491-42.014 10.132-63.378 7.447-11.421-2.255-11.75-3.796-11.75-3.96 0-.228.518-1.637 10.758-6.696zm108.929-70.011-72.929-41.325c-8.319-5.622-10.259-8.389-10.423-9.716-.044-.354.038-.638.253-.878 1.794-1.996 8.761-6.829 19.601-13.607l53.726-32.298c4.542-2.35 13.007-6.412 18.894-7.391a6.988 6.988 0 0 0 5.805.947c3.273 2.584 6.791 9.015 9.179 13.98 7.037 16.74 16.892 50.523 3.765 88.734-2.022 4.144-4.403 7.221-5.723 8.762a6.95 6.95 0 0 0-4.321 1.03c-3.468-1.308-9.469-4.081-17.827-8.238M219.64 273.821l-27.713 18.225c-3.72 2.072-6.607 3.36-8.591 3.84a6.9 6.9 0 0 0-5.451-1.768c-1.775-1.712-9.773-13.746-17.764-26.74l-20.182-36.695c-6.842-13.209-7.669-16.178-7.518-16.74 1.182-.626 3.904.865 7.05 2.596.891.486 1.832 1.004 2.786 1.503l73.612 42.305c6.658 4.801 7.649 6.987 7.649 7.865s-.682 2.64-3.878 5.615zm-45.956 32.103a6.9 6.9 0 0 0 2.268 1.535c1.408 2.186 3.183 8.433 5.015 17.624l6.898 44.074c1.081 9.532 1.39 16.247.904 19.456a7.1 7.1 0 0 0-1.908 2.078c-2.236-.233-6.848-1.971-13.038-4.908-19.981-10.777-46.594-31.004-59.929-66.139-10.227-26.948-8.37-51.9-5.01-68.084 1.826-8.78 4.504-17.245 7.96-25.129 4.542-8.42 7.346-10.732 8.9-11.181.228-.063.443-.101.645-.101.316 0 .606.076.884.234 1.289.72 5.325 6.538 11.067 15.95l22.647 41.174c6.847 13.417 10.865 22.053 11.636 25.009a6.95 6.95 0 0 0 1.048 8.408zm8.382 15.173c-.442-6.62-.379-11.484.19-14.106a6.966 6.966 0 0 0 3.354-6.279c2.097-2.122 7.157-6.462 12.4-10.631l21.383-14.068c4.631-2.482 6.147-2.23 6.633-1.863.133.107.682 1.08-1.162 9.481l-26.651 90.282c-3.835 11.478-5.079 13.152-5.395 13.373-.07-.063-.259-.29-.543-1.017l-10.202-65.172z"/></g></g><defs><radialGradient id="c" cx="0" cy="0" r="1" gradientTransform="rotate(-133.877 264.975 77.013)scale(136.709 193.72)" gradientUnits="userSpaceOnUse"><stop stop-color="#8AFBED" stop-opacity=".7"/><stop offset=".671" stop-color="#00A3FF" stop-opacity=".457"/><stop offset="1" stop-color="#06F"/></radialGradient><radialGradient id="e" cx="0" cy="0" r="1" gradientTransform="matrix(-.23617 91.9872 -91.69 -.2354 369.573 186.737)" gradientUnits="userSpaceOnUse"><stop stop-color="#2A6BFF"/><stop offset="1" stop-color="#2A6BFF" stop-opacity="0"/></radialGradient><radialGradient id="f" cx="0" cy="0" r="1" gradientTransform="matrix(-112.33918 -45.88824 45.80315 -112.1309 345.457 387.161)" gradientUnits="userSpaceOnUse"><stop stop-color="#8AFBED" stop-opacity=".6"/><stop offset=".582" stop-color="#00A3FF" stop-opacity=".457"/><stop offset="1" stop-color="#198CF6" stop-opacity=".19"/></radialGradient><radialGradient id="h" cx="0" cy="0" r="1" gradientTransform="matrix(-.28296 50.2555 -109.83326 -.61842 355.222 321.165)" gradientUnits="userSpaceOnUse"><stop stop-color="#2A6BFF"/><stop offset="1" stop-color="#2A6BFF" stop-opacity="0"/></radialGradient><radialGradient id="i" cx="0" cy="0" r="1" gradientTransform="rotate(-119.642 206.07 120.724)scale(223.045 261.23)" gradientUnits="userSpaceOnUse"><stop stop-color="#8AFBED" stop-opacity="0"/><stop offset=".671" stop-color="#00A3FF" stop-opacity=".457"/><stop offset="1" stop-color="#198CF6"/></radialGradient><radialGradient id="k" cx="0" cy="0" r="1" gradientTransform="matrix(-.16428 136.6079 -63.81095 -.07673 208.735 180.139)" gradientUnits="userSpaceOnUse"><stop stop-color="#2A6BFF"/><stop offset="1" stop-color="#2A6BFF" stop-opacity="0"/></radialGradient><radialGradient id="m" cx="0" cy="0" r="1" gradientTransform="matrix(56.66458 61.0467 -67.45684 62.61459 188.45 201.37)" gradientUnits="userSpaceOnUse"><stop stop-color="#2A6BFF"/><stop offset="1" stop-color="#2A6BFF" stop-opacity="0"/></radialGradient><radialGradient id="n" cx="0" cy="0" r="1" gradientTransform="rotate(-137.021 208.331 134.593)scale(94.978 102.64)" gradientUnits="userSpaceOnUse"><stop stop-color="#8AFBED" stop-opacity="0"/><stop offset=".449" stop-color="#00A3FF" stop-opacity=".15"/><stop offset="1" stop-color="#198CF6"/></radialGradient><radialGradient id="p" cx="0" cy="0" r="1" gradientTransform="rotate(-142.264 235.083 123.992)scale(125.406 176.342)" gradientUnits="userSpaceOnUse"><stop stop-color="#8AFBED" stop-opacity=".3"/><stop offset=".591" stop-color="#00A3FF" stop-opacity=".657"/><stop offset="1" stop-color="#06F"/></radialGradient><radialGradient id="q" cx="0" cy="0" r="1" gradientTransform="rotate(61.144 -63.964 252.23)scale(159.035 383.374)" gradientUnits="userSpaceOnUse"><stop stop-color="#2A6BFF"/><stop offset="1" stop-color="#2A6BFF" stop-opacity="0"/></radialGradient><radialGradient id="r" cx="0" cy="0" r="1" gradientTransform="matrix(54.32593 2.21094 -5.65214 138.88103 163.497 157.151)" gradientUnits="userSpaceOnUse"><stop stop-color="#0085FF"/><stop offset="1" stop-color="#0085FF" stop-opacity="0"/></radialGradient><radialGradient id="s" cx="0" cy="0" r="1" gradientTransform="matrix(-21.91165 114.79958 -86.50644 -16.51138 283.898 90.54)" gradientUnits="userSpaceOnUse"><stop stop-color="#FFBFAB"/><stop offset=".365" stop-color="#FF67A8" stop-opacity=".87"/><stop offset=".724" stop-color="#6BAFFF" stop-opacity="0"/></radialGradient><radialGradient id="t" cx="0" cy="0" r="1" gradientTransform="rotate(-147.305 159.991 32.78)scale(50.1028 70.2857)" gradientUnits="userSpaceOnUse"><stop stop-color="#2238FF"/><stop offset="1" stop-color="#0047FF" stop-opacity="0"/></radialGradient><radialGradient id="v" cx="0" cy="0" r="1" gradientTransform="rotate(-170.92 151.452 18.733)scale(140.097 128.037)" gradientUnits="userSpaceOnUse"><stop stop-color="#FFBFAB"/><stop offset=".281" stop-color="#FF67A8" stop-opacity=".87"/><stop offset=".724" stop-color="#6BAFFF" stop-opacity="0"/></radialGradient><radialGradient id="w" cx="0" cy="0" r="1" gradientTransform="matrix(107.07305 88.75369 -90.91773 109.68376 163.498 153.361)" gradientUnits="userSpaceOnUse"><stop stop-color="#3448FB"/><stop offset="1" stop-color="#0085FF" stop-opacity="0"/></radialGradient><radialGradient id="y" cx="0" cy="0" r="1" gradientTransform="matrix(-27.22425 207.10432 -109.50099 -14.3941 300.64 92.531)" gradientUnits="userSpaceOnUse"><stop stop-color="#FFBFAB"/><stop offset=".365" stop-color="#FF67A8" stop-opacity=".87"/><stop offset=".724" stop-color="#6BAFFF" stop-opacity="0"/></radialGradient><radialGradient id="z" cx="0" cy="0" r="1" gradientTransform="matrix(-52.38653 -48.82389 75.1487 -80.63226 291.977 194.009)" gradientUnits="userSpaceOnUse"><stop stop-color="#2238FF"/><stop offset="1" stop-color="#0047FF" stop-opacity="0"/></radialGradient><radialGradient id="B" cx="0" cy="0" r="1" gradientTransform="matrix(36.29751 244.187 -107.63634 15.99975 289.205 55.448)" gradientUnits="userSpaceOnUse"><stop stop-color="#FFBFAB"/><stop offset=".365" stop-color="#FF67A8" stop-opacity=".87"/><stop offset=".724" stop-color="#6BAFFF" stop-opacity="0"/></radialGradient><radialGradient id="C" cx="0" cy="0" r="1" gradientTransform="matrix(-49.90376 -73.277 112.29991 -76.4795 323.317 197.264)" gradientUnits="userSpaceOnUse"><stop stop-color="#2238FF"/><stop offset="1" stop-color="#0047FF" stop-opacity="0"/></radialGradient><radialGradient id="D" cx="0" cy="0" r="1" gradientTransform="rotate(117.51 114.837 123.075)scale(172.315 161.302)" gradientUnits="userSpaceOnUse"><stop offset=".238" stop-color="#E13793"/><stop offset=".51" stop-color="#4E38DA"/><stop offset="1" stop-color="#0E34FF"/></radialGradient><radialGradient id="G" cx="0" cy="0" r="1" gradientTransform="rotate(-133.877 254.109 81.639)scale(136.709 193.72)" gradientUnits="userSpaceOnUse"><stop stop-color="#8AFBED" stop-opacity=".7"/><stop offset=".671" stop-color="#00A3FF" stop-opacity=".457"/><stop offset="1" stop-color="#06F"/></radialGradient><radialGradient id="I" cx="0" cy="0" r="1" gradientTransform="matrix(-.23617 91.9872 -91.69 -.2354 347.841 186.737)" gradientUnits="userSpaceOnUse"><stop stop-color="#2A6BFF"/><stop offset="1" stop-color="#2A6BFF" stop-opacity="0"/></radialGradient><radialGradient id="J" cx="0" cy="0" r="1" gradientTransform="matrix(-112.33918 -45.88824 45.80315 -112.1309 323.725 387.161)" gradientUnits="userSpaceOnUse"><stop stop-color="#8AFBED" stop-opacity=".6"/><stop offset=".582" stop-color="#00A3FF" stop-opacity=".457"/><stop offset="1" stop-color="#198CF6" stop-opacity=".19"/></radialGradient><radialGradient id="L" cx="0" cy="0" r="1" gradientTransform="matrix(-.28296 50.2555 -109.83326 -.61842 333.49 321.165)" gradientUnits="userSpaceOnUse"><stop stop-color="#2A6BFF"/><stop offset="1" stop-color="#2A6BFF" stop-opacity="0"/></radialGradient><radialGradient id="M" cx="0" cy="0" r="1" gradientTransform="rotate(-119.642 195.204 127.043)scale(223.045 261.23)" gradientUnits="userSpaceOnUse"><stop stop-color="#8AFBED" stop-opacity="0"/><stop offset=".671" stop-color="#00A3FF" stop-opacity=".457"/><stop offset="1" stop-color="#198CF6"/></radialGradient><radialGradient id="O" cx="0" cy="0" r="1" gradientTransform="matrix(-.16428 136.6079 -63.81095 -.07673 187.003 180.139)" gradientUnits="userSpaceOnUse"><stop stop-color="#2A6BFF"/><stop offset="1" stop-color="#2A6BFF" stop-opacity="0"/></radialGradient><radialGradient id="Q" cx="0" cy="0" r="1" gradientTransform="matrix(56.66458 61.0467 -67.45684 62.61459 166.718 201.37)" gradientUnits="userSpaceOnUse"><stop stop-color="#2A6BFF"/><stop offset="1" stop-color="#2A6BFF" stop-opacity="0"/></radialGradient><radialGradient id="R" cx="0" cy="0" r="1" gradientTransform="rotate(-137.021 197.465 138.87)scale(94.978 102.64)" gradientUnits="userSpaceOnUse"><stop stop-color="#8AFBED" stop-opacity="0"/><stop offset=".449" stop-color="#00A3FF" stop-opacity=".15"/><stop offset="1" stop-color="#198CF6"/></radialGradient><radialGradient id="T" cx="0" cy="0" r="1" gradientTransform="rotate(-142.264 224.217 127.706)scale(125.406 176.342)" gradientUnits="userSpaceOnUse"><stop stop-color="#8AFBED" stop-opacity=".3"/><stop offset=".591" stop-color="#00A3FF" stop-opacity=".657"/><stop offset="1" stop-color="#06F"/></radialGradient><radialGradient id="U" cx="0" cy="0" r="1" gradientTransform="rotate(61.144 -74.83 233.836)scale(159.035 383.374)" gradientUnits="userSpaceOnUse"><stop stop-color="#2A6BFF"/><stop offset="1" stop-color="#2A6BFF" stop-opacity="0"/></radialGradient><radialGradient id="V" cx="0" cy="0" r="1" gradientTransform="matrix(54.32593 2.21094 -5.65214 138.88103 141.765 157.151)" gradientUnits="userSpaceOnUse"><stop stop-color="#0085FF"/><stop offset="1" stop-color="#0085FF" stop-opacity="0"/></radialGradient><radialGradient id="W" cx="0" cy="0" r="1" gradientTransform="rotate(100.806 93.636 153.7)scale(116.872 88.0682)" gradientUnits="userSpaceOnUse"><stop stop-color="#FFBFAB"/><stop offset=".365" stop-color="#FF67A8" stop-opacity=".87"/><stop offset=".724" stop-color="#6BAFFF" stop-opacity="0"/></radialGradient><radialGradient id="X" cx="0" cy="0" r="1" gradientTransform="rotate(-147.305 149.125 35.968)scale(50.1028 70.2857)" gradientUnits="userSpaceOnUse"><stop stop-color="#2238FF"/><stop offset="1" stop-color="#0047FF" stop-opacity="0"/></radialGradient><radialGradient id="Z" cx="0" cy="0" r="1" gradientTransform="rotate(-170.92 140.586 19.596)scale(140.097 128.037)" gradientUnits="userSpaceOnUse"><stop stop-color="#FFBFAB"/><stop offset=".281" stop-color="#FF67A8" stop-opacity=".87"/><stop offset=".724" stop-color="#6BAFFF" stop-opacity="0"/></radialGradient><radialGradient id="aa" cx="0" cy="0" r="1" gradientTransform="matrix(107.07305 88.75369 -90.91773 109.68376 141.766 153.361)" gradientUnits="userSpaceOnUse"><stop stop-color="#3448FB"/><stop offset="1" stop-color="#0085FF" stop-opacity="0"/></radialGradient><radialGradient id="ac" cx="0" cy="0" r="1" gradientTransform="matrix(-27.22425 207.10432 -109.50099 -14.3941 278.908 92.531)" gradientUnits="userSpaceOnUse"><stop stop-color="#FFBFAB"/><stop offset=".365" stop-color="#FF67A8" stop-opacity=".87"/><stop offset=".724" stop-color="#6BAFFF" stop-opacity="0"/></radialGradient><radialGradient id="ad" cx="0" cy="0" r="1" gradientTransform="matrix(-52.38653 -48.82389 75.1487 -80.63226 270.245 194.009)" gradientUnits="userSpaceOnUse"><stop stop-color="#2238FF"/><stop offset="1" stop-color="#0047FF" stop-opacity="0"/></radialGradient><radialGradient id="af" cx="0" cy="0" r="1" gradientTransform="matrix(36.29751 244.187 -107.63634 15.99975 267.473 55.448)" gradientUnits="userSpaceOnUse"><stop stop-color="#FFBFAB"/><stop offset=".365" stop-color="#FF67A8" stop-opacity=".87"/><stop offset=".724" stop-color="#6BAFFF" stop-opacity="0"/></radialGradient><radialGradient id="ag" cx="0" cy="0" r="1" gradientTransform="matrix(-49.90376 -73.277 112.29991 -76.4795 301.585 197.264)" gradientUnits="userSpaceOnUse"><stop stop-color="#2238FF"/><stop offset="1" stop-color="#0047FF" stop-opacity="0"/></radialGradient><radialGradient id="ai" cx="0" cy="0" r="1" gradientTransform="rotate(117.51 103.971 116.483)scale(172.315 161.302)" gradientUnits="userSpaceOnUse"><stop offset=".238" stop-color="#FF1175" stop-opacity=".84"/><stop offset=".51" stop-color="#4E38DA"/><stop offset="1" stop-color="#0E34FF"/></radialGradient><linearGradient id="d" x1="232.764" x2="401.551" y1="82.809" y2="113.87" gradientUnits="userSpaceOnUse"><stop stop-color="#2A26FF"/><stop offset="1" stop-color="#00A3FF" stop-opacity="0"/></linearGradient><linearGradient id="g" x1="191.337" x2="371.106" y1="264.386" y2="336.923" gradientUnits="userSpaceOnUse"><stop stop-color="#35C2FF"/><stop offset="1" stop-color="#00A3FF" stop-opacity="0"/></linearGradient><linearGradient id="j" x1="113.524" x2="234.071" y1="25.799" y2="36.195" gradientUnits="userSpaceOnUse"><stop stop-color="#35C2FF"/><stop offset="1" stop-color="#00A3FF" stop-opacity="0"/></linearGradient><linearGradient id="l" x1="102.539" x2="285.435" y1="203.265" y2="122.558" gradientUnits="userSpaceOnUse"><stop stop-color="#1BBBFF"/><stop offset="1" stop-color="#00A3FF" stop-opacity="0"/></linearGradient><linearGradient id="o" x1="199.504" x2="247.046" y1="287.281" y2="371.413" gradientUnits="userSpaceOnUse"><stop stop-color="#35C2FF"/><stop offset="1" stop-color="#00A3FF" stop-opacity="0"/></linearGradient><linearGradient id="u" x1="214.509" x2="245.036" y1="149.266" y2="111.355" gradientUnits="userSpaceOnUse"><stop stop-color="#7572FF"/><stop offset=".504" stop-color="#5FC1FE" stop-opacity=".496"/><stop offset="1" stop-color="#29EDFE" stop-opacity="0"/></linearGradient><linearGradient id="x" x1="237.406" x2="196.346" y1="255.696" y2="196.632" gradientUnits="userSpaceOnUse"><stop stop-color="#5FC5FF"/><stop offset="1" stop-color="#00A2FF" stop-opacity="0"/></linearGradient><linearGradient id="A" x1="214.429" x2="259.925" y1="198.476" y2="171.702" gradientUnits="userSpaceOnUse"><stop stop-color="#29EDFE"/><stop offset="1" stop-color="#29EDFE" stop-opacity="0"/></linearGradient><linearGradient id="E" x1="288.115" x2="252.41" y1="211.927" y2="401.407" gradientUnits="userSpaceOnUse"><stop stop-color="#000AFF"/><stop offset=".947" stop-color="#057EFF"/><stop offset="1" stop-color="#0085FF"/></linearGradient><linearGradient id="F" x1="57.273" x2="259.195" y1="182.999" y2="320.018" gradientUnits="userSpaceOnUse"><stop stop-color="#5CA5FF"/><stop offset="1" stop-color="#3D94FF" stop-opacity="0"/></linearGradient><linearGradient id="H" x1="211.032" x2="379.819" y1="82.809" y2="113.87" gradientUnits="userSpaceOnUse"><stop stop-color="#2A26FF"/><stop offset="1" stop-color="#00A3FF" stop-opacity="0"/></linearGradient><linearGradient id="K" x1="169.605" x2="349.374" y1="264.386" y2="336.923" gradientUnits="userSpaceOnUse"><stop stop-color="#35C2FF"/><stop offset="1" stop-color="#00A3FF" stop-opacity="0"/></linearGradient><linearGradient id="N" x1="91.792" x2="212.339" y1="25.799" y2="36.195" gradientUnits="userSpaceOnUse"><stop stop-color="#35C2FF"/><stop offset="1" stop-color="#00A3FF" stop-opacity=".3"/></linearGradient><linearGradient id="P" x1="80.807" x2="263.703" y1="203.265" y2="122.558" gradientUnits="userSpaceOnUse"><stop stop-color="#1BBBFF"/><stop offset="1" stop-color="#00A3FF" stop-opacity="0"/></linearGradient><linearGradient id="S" x1="177.772" x2="225.314" y1="287.281" y2="371.413" gradientUnits="userSpaceOnUse"><stop stop-color="#35C2FF"/><stop offset="1" stop-color="#00A3FF" stop-opacity="0"/></linearGradient><linearGradient id="Y" x1="192.777" x2="223.304" y1="149.266" y2="111.355" gradientUnits="userSpaceOnUse"><stop stop-color="#7572FF"/><stop offset=".504" stop-color="#5FC1FE" stop-opacity=".496"/><stop offset="1" stop-color="#29EDFE" stop-opacity="0"/></linearGradient><linearGradient id="ab" x1="215.674" x2="174.614" y1="255.696" y2="196.632" gradientUnits="userSpaceOnUse"><stop stop-color="#5FC5FF"/><stop offset="1" stop-color="#00A2FF" stop-opacity="0"/></linearGradient><linearGradient id="ae" x1="192.697" x2="238.193" y1="198.476" y2="171.702" gradientUnits="userSpaceOnUse"><stop stop-color="#29EDFE"/><stop offset="1" stop-color="#29EDFE" stop-opacity="0"/></linearGradient><linearGradient id="ak" x1="266.383" x2="230.678" y1="211.927" y2="401.407" gradientUnits="userSpaceOnUse"><stop stop-color="#000AFF"/><stop offset=".947" stop-color="#057EFF"/><stop offset="1" stop-color="#0085FF"/></linearGradient><linearGradient id="al" x1="35.541" x2="237.464" y1="182.999" y2="320.018" gradientUnits="userSpaceOnUse"><stop stop-color="#5CA5FF"/><stop offset="1" stop-color="#3D94FF" stop-opacity="0"/></linearGradient><filter id="b" width="392.394" height="497.502" x="56.27" y="-26.085" color-interpolation-filters="sRGB" filterUnits="userSpaceOnUse"><feFlood flood-opacity="0" result="BackgroundImageFix"/><feBlend in="SourceGraphic" in2="BackgroundImageFix" result="shape"/><feGaussianBlur result="effect1_foregroundBlur_9180_135185" stdDeviation="35"/></filter><filter id="ah" width="277.837" height="287.269" x="91.555" y="-.085" color-interpolation-filters="sRGB" filterUnits="userSpaceOnUse"><feFlood flood-opacity="0" result="BackgroundImageFix"/><feGaussianBlur in="BackgroundImageFix" stdDeviation="22"/><feComposite in2="SourceAlpha" operator="in" result="effect1_backgroundBlur_9180_135185"/><feBlend in="SourceGraphic" in2="effect1_backgroundBlur_9180_135185" result="shape"/></filter><filter id="aj" width="320.394" height="269.315" x="70.538" y="166.102" color-interpolation-filters="sRGB" filterUnits="userSpaceOnUse"><feFlood flood-opacity="0" result="BackgroundImageFix"/><feGaussianBlur in="BackgroundImageFix" stdDeviation="17"/><feComposite in2="SourceAlpha" operator="in" result="effect1_backgroundBlur_9180_135185"/><feBlend in="SourceGraphic" in2="effect1_backgroundBlur_9180_135185" result="shape"/></filter><clipPath id="a"><rect width="460" height="460" fill="#fff" rx="20"/></clipPath></defs></svg>