<svg width="1053" height="580" viewBox="0 0 1053 580" fill="none" xmlns="http://www.w3.org/2000/svg">
<g filter="url(#filter0_f_11562_342988)">
<g clip-path="url(#clip0_11562_342988)" filter="url(#filter1_b_11562_342988)">
<path opacity="0.9" d="M888.493 365.199L888.434 375.519C888.728 378.758 887.289 382.12 884.118 383.996L784.585 442.993C771.263 450.878 754.674 450.761 741.491 442.679L642.805 382.259C640.263 380.698 638.862 378.167 638.606 375.54H638.563V345.751C638.601 348.655 640.024 351.559 642.859 353.28L741.976 413.007C755.239 421.01 771.812 421.01 785.07 413.007L884.187 353.28C887.028 351.559 888.461 348.655 888.482 345.751V365.22V365.199H888.493Z" fill="url(#paint0_linear_11562_342988)" fill-opacity="0.8"/>
<path fill-rule="evenodd" clip-rule="evenodd" d="M785.081 278.394L884.198 338.121H884.193C889.927 341.579 889.927 349.922 884.193 353.38L785.076 413.107C771.817 421.094 755.245 421.094 741.981 413.107V413.086L642.864 353.38C637.13 349.922 637.13 341.579 642.864 338.121L741.986 278.394C755.245 270.407 771.817 270.407 785.081 278.394ZM765.716 309.115L768.988 313.01L769.622 313.58C765.561 313.91 757.994 315.439 751.807 317.688C745.642 319.931 739.865 323.282 737.078 328.104C733.577 334.167 735.677 339.325 740.968 343.252C746.281 347.194 754.818 349.901 764.096 350.972C773.81 352.096 782.097 351.334 787.708 350.269C791.619 346.374 797.737 345.825 800.679 346.123C801.654 345.82 803.204 345.234 804.984 344.349C807.398 343.15 810.137 341.451 812.327 339.256C814.502 337.076 815.669 334.674 816.122 332.521C816.5 330.741 816.383 329.175 815.999 328.093L815.972 328.077L815.956 328.088V328.077L814.587 327.337C814.587 327.337 815.376 326.09 815.802 324.801C798.179 313.074 775.068 309.456 765.716 309.115ZM706.278 338.355C695.529 356.977 712.837 375.39 745.157 379.12H745.152C769.281 381.906 794.492 375.364 811.843 364.713C796.725 365.091 782.091 359.625 786.45 351.878C780.525 352.847 772.489 353.391 763.307 352.331C753.63 351.217 744.645 348.388 738.997 344.195C733.332 339.986 731.03 334.396 734.814 327.843C737.856 322.574 744.171 318.935 750.752 316.542C754.546 315.173 759.342 314.017 763.137 313.308C739.023 313.431 714.782 323.623 706.278 338.355ZM803.295 352.149C808.373 352.213 817.555 350.146 822.426 342.761V342.767C825.81 337.636 823.23 333.379 818.743 329.958C818.765 330.747 818.685 331.599 818.498 332.489C818.008 334.791 816.761 337.407 814.358 339.81C811.97 342.197 808.997 344.04 806.386 345.34C805.336 345.857 804.329 346.299 803.423 346.656C804.601 347.056 805.144 347.546 805.379 347.828C805.864 348.409 806.94 350.093 803.295 352.149ZM804.547 325.553C802.069 326.523 800.06 326.896 799.49 326.992L799.485 326.986C789.786 324.37 787.969 320.518 787.969 320.518C797.913 321.626 806.007 324.141 811.107 327.402C811.107 327.402 807.979 326.272 804.547 325.553Z" fill="url(#paint1_linear_11562_342988)"/>
</g>
<g clip-path="url(#clip1_11562_342988)" filter="url(#filter2_b_11562_342988)">
<path opacity="0.9" d="M746.694 219.86L746.622 232.375C746.978 236.304 745.231 240.381 741.382 242.655L620.544 314.198C604.37 323.76 584.23 323.618 568.224 313.817L448.414 240.549C445.328 238.655 443.627 235.586 443.316 232.401H443.265V196.277C443.31 199.799 445.037 203.32 448.479 205.407L568.813 277.835C584.916 287.54 605.036 287.54 621.132 277.835L741.466 205.407C744.914 203.32 746.655 199.799 746.681 196.277V219.886V219.86H746.694Z" fill="url(#paint2_linear_11562_342988)"/>
<path d="M741.479 187.025L621.145 114.597C605.042 104.911 584.922 104.911 568.826 114.597L448.486 187.025C441.524 191.218 441.524 201.336 448.486 205.53L568.819 277.932V277.958C584.922 287.643 605.042 287.643 621.139 277.958L741.473 205.53C748.434 201.336 748.434 191.218 741.473 187.025H741.479ZM658.662 199.979L537.804 237.88C533.36 239.276 529.704 236.355 533.133 234.146L581.545 203.042L531.755 197.318C527.996 196.885 527.874 193.867 531.574 192.711L652.904 154.7C657.129 153.376 660.59 156.167 657.297 158.248L607.294 189.894L658.5 195.831C661.878 196.226 661.975 198.926 658.656 199.967L658.662 199.979Z" fill="url(#paint3_linear_11562_342988)"/>
</g>
<g clip-path="url(#clip2_11562_342988)">
<path opacity="0.9" d="M559.756 291.221L559.663 307.519C560.127 312.635 557.851 317.944 552.837 320.906L395.429 414.073C374.36 426.525 348.126 426.34 327.276 413.576L171.208 318.163C167.188 315.697 164.972 311.701 164.567 307.553H164.5V260.51C164.559 265.096 166.809 269.682 171.293 272.399L328.043 366.719C349.019 379.357 375.228 379.357 396.196 366.719L552.947 272.399C557.438 269.682 559.705 265.096 559.739 260.51V291.255V291.221H559.756Z" fill="url(#paint4_linear_11562_342988)"/>
<path fill-rule="evenodd" clip-rule="evenodd" d="M396.213 154.141L552.964 248.461H552.955C562.023 253.922 562.023 267.098 552.955 272.559L396.204 366.879C375.237 379.491 349.028 379.491 328.052 366.879V366.845L171.301 272.559C162.233 267.098 162.233 253.922 171.301 248.461L328.06 154.141C349.028 141.529 375.237 141.529 396.213 154.141ZM343.347 303.816C374.394 304.153 400.797 291.953 406.815 274.494L406.798 274.502L407.337 272.954L346.246 263.043L328.911 227.746L326.24 228.058C296.069 231.591 275.068 246.896 275.751 264.852C276.147 275.42 283.909 285.062 296.145 292.113C308.382 299.164 325.077 303.623 343.347 303.816ZM410.085 265.145L357.438 256.606L342.505 226.181L426.939 216.278L410.085 265.145ZM402.146 257.784L365.596 251.861L355.239 230.751L413.835 223.876L402.146 257.784Z" fill="url(#paint5_linear_11562_342988)"/>
</g>
</g>
<g clip-path="url(#clip3_11562_342988)" filter="url(#filter3_b_11562_342988)">
<path opacity="0.9" d="M888.493 389.817L888.434 400.137C888.728 403.376 887.289 406.738 884.118 408.614L784.585 467.611C771.263 475.496 754.674 475.379 741.491 467.296L642.805 406.877C640.263 405.316 638.862 402.785 638.606 400.158H638.563V370.369C638.601 373.273 640.024 376.177 642.859 377.898L741.976 437.625C755.239 445.627 771.812 445.627 785.07 437.625L884.187 377.898C887.028 376.177 888.461 373.273 888.482 370.369V389.838V389.817H888.493Z" fill="url(#paint6_linear_11562_342988)" fill-opacity="0.8"/>
<path fill-rule="evenodd" clip-rule="evenodd" d="M785.081 303.012L884.198 362.739H884.193C889.927 366.197 889.927 374.54 884.193 377.998L785.076 437.725C771.817 445.712 755.245 445.712 741.981 437.725V437.704L642.864 377.998C637.13 374.54 637.13 366.197 642.864 362.739L741.986 303.012C755.245 295.025 771.817 295.025 785.081 303.012ZM765.716 333.733L768.988 337.628L769.622 338.198C765.561 338.528 757.994 340.057 751.807 342.306C745.642 344.549 739.865 347.9 737.078 352.722C733.577 358.785 735.677 363.943 740.968 367.87C746.281 371.812 754.818 374.519 764.096 375.59C773.81 376.714 782.097 375.952 787.708 374.887C791.619 370.992 797.737 370.443 800.679 370.741C801.654 370.438 803.204 369.852 804.984 368.967C807.398 367.768 810.137 366.069 812.327 363.874C814.502 361.694 815.669 359.291 816.122 357.139C816.5 355.359 816.383 353.793 815.999 352.711L815.972 352.695L815.956 352.706V352.695L814.587 351.955C814.587 351.955 815.376 350.708 815.802 349.419C798.179 337.692 775.068 334.074 765.716 333.733ZM706.278 362.973C695.529 381.594 712.837 400.008 745.157 403.738H745.152C769.281 406.524 794.492 399.981 811.843 389.331C796.725 389.709 782.091 384.243 786.45 376.496C780.525 377.465 772.489 378.009 763.307 376.948C753.63 375.835 744.645 373.006 738.997 368.813C733.332 364.603 731.03 359.014 734.814 352.461C737.856 347.192 744.171 343.553 750.752 341.16C754.546 339.791 759.342 338.635 763.137 337.926C739.023 338.049 714.782 348.241 706.278 362.973ZM803.295 376.767C808.373 376.831 817.555 374.764 822.426 367.379V367.385C825.81 362.254 823.23 357.997 818.743 354.576C818.765 355.365 818.685 356.217 818.498 357.107C818.008 359.409 816.761 362.025 814.358 364.428C811.97 366.815 808.997 368.658 806.386 369.958C805.336 370.475 804.329 370.917 803.423 371.274C804.601 371.674 805.144 372.164 805.379 372.446C805.864 373.027 806.94 374.711 803.295 376.767ZM804.547 350.171C802.069 351.141 800.06 351.514 799.49 351.61L799.485 351.604C789.786 348.988 787.969 345.136 787.969 345.136C797.913 346.244 806.007 348.759 811.107 352.02C811.107 352.02 807.979 350.89 804.547 350.171Z" fill="url(#paint7_linear_11562_342988)"/>
</g>
<g clip-path="url(#clip4_11562_342988)" filter="url(#filter4_b_11562_342988)">
<path opacity="0.9" d="M746.694 244.478L746.622 256.993C746.978 260.922 745.231 264.998 741.382 267.273L620.544 338.816C604.37 348.378 584.23 348.236 568.224 338.435L448.414 265.166C445.328 263.273 443.627 260.204 443.316 257.019H443.265V220.895C443.31 224.417 445.037 227.938 448.479 230.025L568.813 302.453C584.916 312.158 605.036 312.158 621.132 302.453L741.466 230.025C744.914 227.938 746.655 224.417 746.681 220.895V244.504V244.478H746.694Z" fill="url(#paint8_linear_11562_342988)"/>
<path d="M741.479 211.643L621.145 139.215C605.042 129.529 584.922 129.529 568.826 139.215L448.486 211.643C441.524 215.836 441.524 225.954 448.486 230.147L568.819 302.55V302.576C584.922 312.261 605.042 312.261 621.139 302.576L741.473 230.147C748.434 225.954 748.434 215.836 741.473 211.643H741.479ZM658.662 224.597L537.804 262.498C533.36 263.894 529.704 260.973 533.133 258.763L581.545 227.66L531.755 221.935C527.996 221.503 527.874 218.485 531.574 217.329L652.904 179.318C657.129 177.994 660.59 180.785 657.297 182.865L607.294 214.512L658.5 220.449C661.878 220.844 661.975 223.544 658.656 224.584L658.662 224.597Z" fill="url(#paint9_linear_11562_342988)"/>
</g>
<g clip-path="url(#clip5_11562_342988)">
<path opacity="0.9" d="M559.756 315.839L559.663 332.137C560.127 337.253 557.851 342.562 552.837 345.523L395.429 438.691C374.36 451.143 348.126 450.958 327.276 438.194L171.208 342.781C167.188 340.315 164.972 336.319 164.567 332.171H164.5V285.128C164.559 289.714 166.809 294.3 171.293 297.017L328.043 391.337C349.019 403.975 375.228 403.975 396.196 391.337L552.947 297.017C557.438 294.3 559.705 289.714 559.739 285.128V315.873V315.839H559.756Z" fill="url(#paint10_linear_11562_342988)"/>
<path fill-rule="evenodd" clip-rule="evenodd" d="M396.213 178.759L552.964 273.079H552.955C562.023 278.54 562.023 291.716 552.955 297.177L396.204 391.497C375.237 404.109 349.028 404.109 328.052 391.497V391.463L171.301 297.177C162.233 291.716 162.233 278.54 171.301 273.079L328.06 178.759C349.028 166.147 375.237 166.147 396.213 178.759ZM343.347 328.434C374.394 328.771 400.797 316.571 406.815 299.112L406.798 299.12L407.337 297.572L346.246 287.661L328.911 252.364L326.24 252.676C296.069 256.209 275.068 271.514 275.751 289.47C276.147 300.037 283.909 309.68 296.145 316.731C308.382 323.781 325.077 328.241 343.347 328.434ZM410.085 289.763L357.438 281.224L342.505 250.799L426.939 240.896L410.085 289.763ZM402.146 282.402L365.596 276.479L355.239 255.369L413.835 248.494L402.146 282.402Z" fill="url(#paint11_linear_11562_342988)"/>
</g>
<defs>
<filter id="filter0_f_11562_342988" x="90.5" y="33.3345" width="871.998" height="489.487" filterUnits="userSpaceOnUse" color-interpolation-filters="sRGB">
<feFlood flood-opacity="0" result="BackgroundImageFix"/>
<feBlend mode="normal" in="SourceGraphic" in2="BackgroundImageFix" result="shape"/>
<feGaussianBlur stdDeviation="37" result="effect1_foregroundBlur_11562_342988"/>
</filter>
<filter id="filter1_b_11562_342988" x="611.563" y="245.406" width="303.935" height="230.416" filterUnits="userSpaceOnUse" color-interpolation-filters="sRGB">
<feFlood flood-opacity="0" result="BackgroundImageFix"/>
<feGaussianBlur in="BackgroundImageFix" stdDeviation="13.5"/>
<feComposite in2="SourceAlpha" operator="in" result="effect1_backgroundBlur_11562_342988"/>
<feBlend mode="normal" in="SourceGraphic" in2="effect1_backgroundBlur_11562_342988" result="shape"/>
</filter>
<filter id="filter2_b_11562_342988" x="419.265" y="83.3345" width="351.436" height="281.89" filterUnits="userSpaceOnUse" color-interpolation-filters="sRGB">
<feFlood flood-opacity="0" result="BackgroundImageFix"/>
<feGaussianBlur in="BackgroundImageFix" stdDeviation="12"/>
<feComposite in2="SourceAlpha" operator="in" result="effect1_backgroundBlur_11562_342988"/>
<feBlend mode="normal" in="SourceGraphic" in2="effect1_backgroundBlur_11562_342988" result="shape"/>
</filter>
<filter id="filter3_b_11562_342988" x="611.563" y="270.024" width="303.935" height="230.416" filterUnits="userSpaceOnUse" color-interpolation-filters="sRGB">
<feFlood flood-opacity="0" result="BackgroundImageFix"/>
<feGaussianBlur in="BackgroundImageFix" stdDeviation="13.5"/>
<feComposite in2="SourceAlpha" operator="in" result="effect1_backgroundBlur_11562_342988"/>
<feBlend mode="normal" in="SourceGraphic" in2="effect1_backgroundBlur_11562_342988" result="shape"/>
</filter>
<filter id="filter4_b_11562_342988" x="419.265" y="107.952" width="351.436" height="281.89" filterUnits="userSpaceOnUse" color-interpolation-filters="sRGB">
<feFlood flood-opacity="0" result="BackgroundImageFix"/>
<feGaussianBlur in="BackgroundImageFix" stdDeviation="12"/>
<feComposite in2="SourceAlpha" operator="in" result="effect1_backgroundBlur_11562_342988"/>
<feBlend mode="normal" in="SourceGraphic" in2="effect1_backgroundBlur_11562_342988" result="shape"/>
</filter>
<linearGradient id="paint0_linear_11562_342988" x1="755.442" y1="355.971" x2="857.099" y2="436.408" gradientUnits="userSpaceOnUse">
<stop stop-color="#3E63F1"/>
<stop offset="1" stop-color="#3E63F1" stop-opacity="0"/>
</linearGradient>
<linearGradient id="paint1_linear_11562_342988" x1="693.077" y1="305.205" x2="879.964" y2="386.105" gradientUnits="userSpaceOnUse">
<stop stop-color="#3E63F1" stop-opacity="0.6"/>
<stop offset="1" stop-color="#3E63F1" stop-opacity="0"/>
</linearGradient>
<linearGradient id="paint2_linear_11562_342988" x1="812.04" y1="201.759" x2="529.899" y2="258.742" gradientUnits="userSpaceOnUse">
<stop stop-color="#FFCF73" stop-opacity="0.6"/>
<stop offset="1" stop-color="#FF9D73" stop-opacity="0"/>
</linearGradient>
<linearGradient id="paint3_linear_11562_342988" x1="707.746" y1="154.108" x2="513.449" y2="235.857" gradientUnits="userSpaceOnUse">
<stop stop-color="#FFC773" stop-opacity="0.9"/>
<stop offset="1" stop-color="#FFB673" stop-opacity="0"/>
</linearGradient>
<linearGradient id="paint4_linear_11562_342988" x1="349.339" y1="276.648" x2="509.928" y2="403.899" gradientUnits="userSpaceOnUse">
<stop stop-color="#00A3FF" stop-opacity="0.6"/>
<stop offset="1" stop-color="#00A3FF" stop-opacity="0"/>
</linearGradient>
<linearGradient id="paint5_linear_11562_342988" x1="120.399" y1="325.869" x2="581.498" y2="200.792" gradientUnits="userSpaceOnUse">
<stop stop-color="#00A3FF" stop-opacity="0.4"/>
<stop offset="1" stop-color="#00A3FF" stop-opacity="0"/>
</linearGradient>
<linearGradient id="paint6_linear_11562_342988" x1="755.442" y1="380.588" x2="857.099" y2="461.026" gradientUnits="userSpaceOnUse">
<stop stop-color="#3E63F1"/>
<stop offset="1" stop-color="#3E63F1" stop-opacity="0"/>
</linearGradient>
<linearGradient id="paint7_linear_11562_342988" x1="693.077" y1="329.823" x2="879.964" y2="410.723" gradientUnits="userSpaceOnUse">
<stop stop-color="#3E63F1" stop-opacity="0.6"/>
<stop offset="1" stop-color="#3E63F1" stop-opacity="0"/>
</linearGradient>
<linearGradient id="paint8_linear_11562_342988" x1="812.04" y1="226.377" x2="529.899" y2="283.36" gradientUnits="userSpaceOnUse">
<stop stop-color="#FFCF73" stop-opacity="0.6"/>
<stop offset="1" stop-color="#FF9D73" stop-opacity="0"/>
</linearGradient>
<linearGradient id="paint9_linear_11562_342988" x1="707.746" y1="178.726" x2="513.449" y2="260.475" gradientUnits="userSpaceOnUse">
<stop stop-color="#FFC773" stop-opacity="0.9"/>
<stop offset="1" stop-color="#FFB673" stop-opacity="0"/>
</linearGradient>
<linearGradient id="paint10_linear_11562_342988" x1="349.339" y1="301.266" x2="509.928" y2="428.517" gradientUnits="userSpaceOnUse">
<stop stop-color="#00A3FF" stop-opacity="0.6"/>
<stop offset="1" stop-color="#00A3FF" stop-opacity="0"/>
</linearGradient>
<linearGradient id="paint11_linear_11562_342988" x1="120.399" y1="350.487" x2="581.498" y2="225.41" gradientUnits="userSpaceOnUse">
<stop stop-color="#00A3FF" stop-opacity="0.4"/>
<stop offset="1" stop-color="#00A3FF" stop-opacity="0"/>
</linearGradient>
<clipPath id="clip0_11562_342988">
<rect width="249.935" height="176.416" fill="white" transform="translate(638.563 272.406)"/>
</clipPath>
<clipPath id="clip1_11562_342988">
<rect width="303.435" height="233.89" fill="white" transform="translate(443.265 107.334)"/>
</clipPath>
<clipPath id="clip2_11562_342988">
<rect width="395.264" height="278.593" fill="white" transform="translate(164.5 144.685)"/>
</clipPath>
<clipPath id="clip3_11562_342988">
<rect width="249.935" height="176.416" fill="white" transform="translate(638.563 297.024)"/>
</clipPath>
<clipPath id="clip4_11562_342988">
<rect width="303.435" height="233.89" fill="white" transform="translate(443.265 131.952)"/>
</clipPath>
<clipPath id="clip5_11562_342988">
<rect width="395.264" height="278.593" fill="white" transform="translate(164.5 169.302)"/>
</clipPath>
</defs>
</svg>
