<svg xmlns="http://www.w3.org/2000/svg" fill="none" viewBox="0 0 460 460" opt="1"><g filter="url(#a)" opacity=".5"><circle cx="214.36" cy="277.84" r="122.36" fill="url(#b)" fill-opacity=".8"/><path fill="url(#c)" d="m127.88 190.558 86.103 49.218V58.88z"/><path fill="url(#d)" d="m127.88 190.558 86.103 49.218V58.88z"/><path fill="url(#e)" d="m299.941 190.558-85.959 49.218V58.88z"/><path fill="url(#f)" d="m299.941 190.558-85.959 49.218V58.88z"/><path fill="url(#g)" fill-opacity=".6" d="m299.941 190.558-85.959 49.218V58.88z"/><path fill="url(#h)" fill-rule="evenodd" d="M336.72 279.477c0 67.182-54.782 121.643-122.36 121.643S92 346.659 92 279.477c0-10.838 1.426-21.346 4.101-31.347 16.88-4.519 30.687 2.186 47.753 10.475 22.072 10.72 49.136 30.067 95.806 25.215 37.536-5.152 71.208-56.794 76.728-71.514-.276-.238.276.233 0 0 12.848 19.247 20.332 42.341 20.332 67.171" clip-rule="evenodd"/><path fill="url(#i)" fill-rule="evenodd" d="M336.72 279.477c0 67.182-54.782 121.643-122.36 121.643S92 346.659 92 279.477c0-10.838 1.426-21.346 4.101-31.347 16.88-4.519 30.687 2.186 47.753 10.475 22.072 10.72 49.136 30.067 95.806 25.215 37.536-5.152 71.208-56.794 76.728-71.514-.276-.238.276.233 0 0 12.848 19.247 20.332 42.341 20.332 67.171" clip-rule="evenodd"/><path fill="url(#j)" fill-rule="evenodd" d="M336.72 279.123c0 67.182-54.782 121.643-122.36 121.643S92 346.305 92 279.123c0-23.726 6.833-45.867 18.65-64.581.971-1.537 2.521-2.617 4.317-2.896 18.413-2.865 51.523 2.805 94.793 46.414 47.742 39.954 103.849 18.114 126.668 12.596q.291 4.197.292 8.467" clip-rule="evenodd"/><path fill="url(#k)" fill-rule="evenodd" d="M336.72 279.123c0 67.182-54.782 121.643-122.36 121.643S92 346.305 92 279.123c0-23.726 6.833-45.867 18.65-64.581.971-1.537 2.521-2.617 4.317-2.896 18.413-2.865 51.523 2.805 94.793 46.414 47.742 39.954 103.849 18.114 126.668 12.596q.291 4.197.292 8.467" clip-rule="evenodd"/></g><circle cx="230" cy="277.84" r="122.36" fill="url(#l)" fill-opacity=".8"/><path fill="url(#m)" d="m143.52 190.558 86.102 49.218V58.88z"/><path fill="url(#n)" d="m143.52 190.558 86.102 49.218V58.88z"/><path fill="url(#o)" d="m315.581 190.558-85.959 49.218V58.88z"/><path fill="url(#p)" d="m315.581 190.558-85.959 49.218V58.88z"/><path fill="url(#q)" fill-opacity=".6" d="m315.581 190.558-85.959 49.218V58.88z"/><path fill="url(#r)" fill-rule="evenodd" d="M352.36 279.477c0 67.182-54.783 121.643-122.36 121.643-67.578 0-122.36-54.461-122.36-121.643 0-10.838 1.426-21.346 4.101-31.347 16.879-4.519 44.613-2.498 61.679 5.79 25.3 12.287 48.3 34.509 81.88 29.9 37.536-5.152 71.208-56.794 76.728-71.514-.276-.238.276.233 0 0 12.848 19.247 20.332 42.341 20.332 67.171" clip-rule="evenodd"/><path fill="url(#s)" fill-rule="evenodd" d="M352.36 279.477c0 67.182-54.783 121.643-122.36 121.643-67.578 0-122.36-54.461-122.36-121.643 0-10.838 1.426-21.346 4.101-31.347 16.879-4.519 44.613-2.498 61.679 5.79 25.3 12.287 48.3 34.509 81.88 29.9 37.536-5.152 71.208-56.794 76.728-71.514-.276-.238.276.233 0 0 12.848 19.247 20.332 42.341 20.332 67.171" clip-rule="evenodd"/><path fill="url(#t)" fill-rule="evenodd" d="M352.36 279.123c0 67.182-54.783 121.643-122.36 121.643-67.578 0-122.36-54.461-122.36-121.643 0-23.726 6.833-45.867 18.65-64.581.97-1.537 2.52-2.617 4.316-2.896 18.413-2.865 51.524 2.805 94.794 46.414 47.742 39.954 103.849 18.114 126.668 12.596q.29 4.197.292 8.467" clip-rule="evenodd"/><path fill="url(#u)" fill-rule="evenodd" d="M352.36 279.123c0 67.182-54.783 121.643-122.36 121.643-67.578 0-122.36-54.461-122.36-121.643 0-23.726 6.833-45.867 18.65-64.581.97-1.537 2.52-2.617 4.316-2.896 18.413-2.865 51.524 2.805 94.794 46.414 47.742 39.954 103.849 18.114 126.668 12.596q.29 4.197.292 8.467" clip-rule="evenodd"/><defs><radialGradient id="b" cx="0" cy="0" r="1" gradientTransform="rotate(-107.262 254.02 30.386)scale(85.2602 118.767)" gradientUnits="userSpaceOnUse"><stop stop-color="#00F0FF"/><stop offset="1" stop-color="#35C2FF" stop-opacity="0"/></radialGradient><radialGradient id="c" cx="0" cy="0" r="1" gradientTransform="matrix(-39.44808 66.20366 -166.16247 -99.00948 213.788 149.076)" gradientUnits="userSpaceOnUse"><stop stop-color="#00A3FF"/><stop offset=".944" stop-color="#00A3FF" stop-opacity=".29"/></radialGradient><radialGradient id="d" cx="0" cy="0" r="1" gradientTransform="rotate(78.816 39.498 146.783)scale(123.227 227.963)" gradientUnits="userSpaceOnUse"><stop stop-color="#FF7272"/><stop offset=".18" stop-color="#FF72A7"/><stop offset="1" stop-color="#7A51FF" stop-opacity="0"/></radialGradient><radialGradient id="e" cx="0" cy="0" r="1" gradientTransform="rotate(84.193 66.018 145.739)scale(299.849 123.491)" gradientUnits="userSpaceOnUse"><stop stop-color="#FFBFAB"/><stop offset=".365" stop-color="#FF67A8" stop-opacity=".87"/><stop offset=".724" stop-color="#6BAFFF" stop-opacity="0"/></radialGradient><radialGradient id="f" cx="0" cy="0" r="1" gradientTransform="rotate(-50.305 332.187 -122.116)scale(91.3969 138.614)" gradientUnits="userSpaceOnUse"><stop stop-color="#2238FF"/><stop offset="1" stop-color="#0047FF" stop-opacity="0"/></radialGradient><radialGradient id="h" cx="0" cy="0" r="1" gradientTransform="rotate(-151.508 182.705 149.718)scale(177.429 213.603)" gradientUnits="userSpaceOnUse"><stop stop-color="#8AFBED" stop-opacity="0"/><stop offset=".671" stop-color="#00A3FF" stop-opacity=".457"/><stop offset="1" stop-color="#198CF6"/></radialGradient><radialGradient id="i" cx="0" cy="0" r="1" gradientTransform="rotate(-34.222 646.569 19.922)scale(137.411 313.29)" gradientUnits="userSpaceOnUse"><stop stop-color="#654BFF"/><stop offset="1" stop-color="#00A3FF" stop-opacity="0"/></radialGradient><radialGradient id="j" cx="0" cy="0" r="1" gradientTransform="matrix(-224.94017 28.35274 -34.8569 -276.54188 271.86 366.789)" gradientUnits="userSpaceOnUse"><stop stop-color="#8AAAFB" stop-opacity=".24"/><stop offset=".671" stop-color="#00D1FF" stop-opacity=".457"/><stop offset="1" stop-color="#0083FB"/></radialGradient><radialGradient id="k" cx="0" cy="0" r="1" gradientTransform="rotate(113.651 76.713 165.384)scale(137.598 318.089)" gradientUnits="userSpaceOnUse"><stop stop-color="#654BFF"/><stop offset="1" stop-color="#00A3FF" stop-opacity="0"/></radialGradient><radialGradient id="l" cx="0" cy="0" r="1" gradientTransform="rotate(-107.262 261.84 24.627)scale(85.2602 118.767)" gradientUnits="userSpaceOnUse"><stop stop-color="#00F0FF"/><stop offset="1" stop-color="#35C2FF" stop-opacity="0"/></radialGradient><radialGradient id="m" cx="0" cy="0" r="1" gradientTransform="matrix(-39.44808 66.20366 -166.16247 -99.00948 229.427 149.076)" gradientUnits="userSpaceOnUse"><stop stop-color="#00A3FF"/><stop offset=".944" stop-color="#00A3FF" stop-opacity=".29"/></radialGradient><radialGradient id="n" cx="0" cy="0" r="1" gradientTransform="rotate(78.816 47.318 156.3)scale(123.227 227.963)" gradientUnits="userSpaceOnUse"><stop stop-color="#FF7272"/><stop offset=".18" stop-color="#FF72A7"/><stop offset="1" stop-color="#7A51FF" stop-opacity="0"/></radialGradient><radialGradient id="o" cx="0" cy="0" r="1" gradientTransform="rotate(84.193 73.838 154.394)scale(299.849 123.491)" gradientUnits="userSpaceOnUse"><stop stop-color="#FFBFAB"/><stop offset=".365" stop-color="#FF67A8" stop-opacity=".87"/><stop offset=".724" stop-color="#6BAFFF" stop-opacity="0"/></radialGradient><radialGradient id="p" cx="0" cy="0" r="1" gradientTransform="rotate(-50.305 340.007 -138.77)scale(91.3969 138.614)" gradientUnits="userSpaceOnUse"><stop stop-color="#227AFF"/><stop offset="1" stop-color="#0047FF" stop-opacity="0"/></radialGradient><radialGradient id="r" cx="0" cy="0" r="1" gradientTransform="rotate(-151.508 190.525 147.733)scale(177.429 213.603)" gradientUnits="userSpaceOnUse"><stop stop-color="#8AFBED" stop-opacity="0"/><stop offset=".671" stop-color="#00A3FF" stop-opacity=".457"/><stop offset="1" stop-color="#198CF6"/></radialGradient><radialGradient id="s" cx="0" cy="0" r="1" gradientTransform="rotate(-9.353 2000.773 -583.581)scale(118.88 129.629)" gradientUnits="userSpaceOnUse"><stop stop-color="#4B5DFF"/><stop offset="1" stop-color="#00A3FF" stop-opacity="0"/></radialGradient><radialGradient id="t" cx="0" cy="0" r="1" gradientTransform="matrix(-224.94017 28.35274 -34.8569 -276.54188 287.5 366.789)" gradientUnits="userSpaceOnUse"><stop stop-color="#8AAAFB" stop-opacity=".24"/><stop offset=".671" stop-color="#00D1FF" stop-opacity=".457"/><stop offset="1" stop-color="#0083FB"/></radialGradient><radialGradient id="u" cx="0" cy="0" r="1" gradientTransform="rotate(37.016 -229.554 202.15)scale(180.321 416.852)" gradientUnits="userSpaceOnUse"><stop stop-color="#654BFF"/><stop offset="1" stop-color="#00A3FF" stop-opacity="0"/></radialGradient><linearGradient id="g" x1="300.396" x2="243.859" y1="217.918" y2="192.177" gradientUnits="userSpaceOnUse"><stop stop-color="#29EDFE"/><stop offset="1" stop-color="#29EDFE" stop-opacity="0"/></linearGradient><linearGradient id="q" x1="316.035" x2="259.499" y1="217.918" y2="192.177" gradientUnits="userSpaceOnUse"><stop stop-color="#29EDFE"/><stop offset="1" stop-color="#29EDFE" stop-opacity="0"/></linearGradient><filter id="a" width="352.72" height="450.24" x="38" y="4.88" color-interpolation-filters="sRGB" filterUnits="userSpaceOnUse"><feFlood flood-opacity="0" result="BackgroundImageFix"/><feBlend in="SourceGraphic" in2="BackgroundImageFix" result="shape"/><feGaussianBlur result="effect1_foregroundBlur_4054_245508" stdDeviation="27"/></filter></defs></svg>