<svg xmlns="http://www.w3.org/2000/svg" fill="none" viewBox="0 0 460 460" opt="1"><g filter="url(#a)"><path fill="url(#b)" d="m230.099 175.684-95.712 50.472 95.498 54.605 95.587-54.624z"/><path fill="url(#c)" fill-opacity=".5" d="m230.099 175.684-95.712 50.472 95.498 54.605 95.587-54.624z"/><path fill="url(#d)" d="m230.099 175.684-95.712 50.472 95.498 54.605 95.587-54.624z"/><path fill="url(#e)" d="m230.099 175.684-95.712 50.472 95.498 54.605 95.587-54.624z"/><path fill="url(#f)" d="m229.868 280.715-95.553-54.581-2.609 4.003c-29.43 45.147-22.857 104.273 15.802 142.152 45.494 44.575 119.253 44.575 164.745 0 38.66-37.879 45.233-97.005 15.803-142.152l-2.61-4.003z"/><path fill="url(#g)" fill-opacity=".5" d="m229.868 280.715-95.553-54.581-2.609 4.003c-29.43 45.147-22.857 104.273 15.802 142.152 45.494 44.575 119.253 44.575 164.745 0 38.66-37.879 45.233-97.005 15.803-142.152l-2.61-4.003z"/><path fill="url(#h)" d="m229.868 280.715-95.553-54.581-2.609 4.003c-29.43 45.147-22.857 104.273 15.802 142.152 45.494 44.575 119.253 44.575 164.745 0 38.66-37.879 45.233-97.005 15.803-142.152l-2.61-4.003z"/><path fill="url(#i)" d="m229.868 280.715-95.553-54.581-2.609 4.003c-29.43 45.147-22.857 104.273 15.802 142.152 45.494 44.575 119.253 44.575 164.745 0 38.66-37.879 45.233-97.005 15.803-142.152l-2.61-4.003z"/><path fill="url(#j)" fill-rule="evenodd" d="M318.396 139.03c-1.478 8.91-9.9 14.935-18.81 13.457-8.911-1.479-14.935-9.9-13.458-18.81 1.478-8.911 9.9-14.935 18.811-13.457s14.935 9.899 13.457 18.81m-.568 61.082c4.178.694 8.212-2.155 8.023-6.385a36.686 36.686 0 0 0-66.606-19.535c-2.444 3.459-.587 8.034 3.303 9.708l25.8 11.096c.568.245 1.164.42 1.774.52z" clip-rule="evenodd"/><path fill="url(#k)" fill-rule="evenodd" d="M141.434 139.03c1.479 8.91 9.9 14.935 18.81 13.457 8.911-1.479 14.936-9.9 13.458-18.81-1.478-8.911-9.899-14.935-18.81-13.457s-14.936 9.899-13.458 18.81m.568 61.082c-4.178.693-8.212-2.155-8.023-6.385a36.683 36.683 0 0 1 66.581-19.569c2.449 3.455.598 8.034-3.291 9.711l-25.783 11.124c-.57.246-1.17.422-1.783.524z" clip-rule="evenodd"/><g fill-rule="evenodd" clip-rule="evenodd" filter="url(#l)"><path fill="url(#m)" d="M262.922 117.527c0 18.171-14.731 32.902-32.902 32.902-18.172 0-32.903-14.731-32.903-32.902 0-18.172 14.731-32.903 32.903-32.903s32.902 14.731 32.902 32.903m37.813 83.31c3.907 6.64.865 14.899-5.868 18.645l-64.969 36.144-64.97-36.144c-6.732-3.746-9.774-12.005-5.867-18.645 31.369-53.32 110.305-53.32 141.674 0"/><path fill="url(#n)" d="M262.922 117.527c0 18.171-14.731 32.902-32.902 32.902-18.172 0-32.903-14.731-32.903-32.902 0-18.172 14.731-32.903 32.903-32.903s32.902 14.731 32.902 32.903m37.813 83.31c3.907 6.64.865 14.899-5.868 18.645l-64.969 36.144-64.97-36.144c-6.732-3.746-9.774-12.005-5.867-18.645 31.369-53.32 110.305-53.32 141.674 0"/><path fill="url(#o)" d="M262.922 117.527c0 18.171-14.731 32.902-32.902 32.902-18.172 0-32.903-14.731-32.903-32.902 0-18.172 14.731-32.903 32.903-32.903s32.902 14.731 32.902 32.903m37.813 83.31c3.907 6.64.865 14.899-5.868 18.645l-64.969 36.144-64.97-36.144c-6.732-3.746-9.774-12.005-5.867-18.645 31.369-53.32 110.305-53.32 141.674 0"/></g></g><path fill="url(#p)" d="M230.212 144.419 134.5 194.891l95.498 54.605 95.587-54.623z"/><path fill="url(#q)" fill-opacity=".5" d="M230.212 144.419 134.5 194.891l95.498 54.605 95.587-54.623z"/><path fill="url(#r)" d="M230.212 144.419 134.5 194.891l95.498 54.605 95.587-54.623z"/><path fill="url(#s)" d="M230.212 144.419 134.5 194.891l95.498 54.605 95.587-54.623z"/><path fill="url(#t)" d="m229.982 249.45-95.553-54.58-2.61 4.003c-29.43 45.147-22.857 104.272 15.802 142.151 45.494 44.575 119.253 44.575 164.745 0 38.66-37.879 45.234-97.004 15.803-142.151l-2.61-4.004z"/><path fill="url(#u)" fill-opacity=".5" d="m229.982 249.45-95.553-54.58-2.61 4.003c-29.43 45.147-22.857 104.272 15.802 142.151 45.494 44.575 119.253 44.575 164.745 0 38.66-37.879 45.234-97.004 15.803-142.151l-2.61-4.004z"/><path fill="url(#v)" d="m229.982 249.45-95.553-54.58-2.61 4.003c-29.43 45.147-22.857 104.272 15.802 142.151 45.494 44.575 119.253 44.575 164.745 0 38.66-37.879 45.234-97.004 15.803-142.151l-2.61-4.004z"/><path fill="url(#w)" d="m229.982 249.45-95.553-54.58-2.61 4.003c-29.43 45.147-22.857 104.272 15.802 142.151 45.494 44.575 119.253 44.575 164.745 0 38.66-37.879 45.234-97.004 15.803-142.151l-2.61-4.004z"/><path fill="url(#x)" fill-rule="evenodd" d="M318.509 107.767c-1.477 8.91-9.899 14.935-18.81 13.457-8.91-1.479-14.935-9.9-13.457-18.81s9.9-14.935 18.81-13.457c8.911 1.478 14.935 9.899 13.457 18.81m-.567 61.082c4.177.693 8.211-2.155 8.022-6.386a36.685 36.685 0 0 0-66.605-19.535c-2.445 3.459-.588 8.035 3.303 9.709l25.799 11.095a7.6 7.6 0 0 0 1.774.521z" clip-rule="evenodd"/><path fill="url(#y)" fill-rule="evenodd" d="M141.548 107.765c1.479 8.911 9.9 14.936 18.81 13.458 8.911-1.479 14.936-9.9 13.458-18.811s-9.899-14.935-18.81-13.457-14.936 9.9-13.458 18.81m.568 61.083c-4.178.693-8.212-2.155-8.023-6.385a36.683 36.683 0 0 1 66.581-19.569c2.449 3.455.598 8.034-3.291 9.711L171.6 163.729c-.57.246-1.17.422-1.783.524z" clip-rule="evenodd"/><g fill-rule="evenodd" clip-rule="evenodd" filter="url(#z)"><path fill="url(#A)" d="M263.035 86.263c0 18.171-14.731 32.902-32.902 32.902-18.172 0-32.902-14.731-32.902-32.902 0-18.172 14.73-32.903 32.902-32.903 18.171 0 32.902 14.731 32.902 32.903m37.813 83.31c3.907 6.64.865 14.899-5.867 18.645l-64.97 36.144-64.97-36.144c-6.732-3.746-9.774-12.005-5.867-18.645 31.369-53.32 110.306-53.32 141.674 0"/><path fill="url(#B)" d="M263.035 86.263c0 18.171-14.731 32.902-32.902 32.902-18.172 0-32.902-14.731-32.902-32.902 0-18.172 14.73-32.903 32.902-32.903 18.171 0 32.902 14.731 32.902 32.903m37.813 83.31c3.907 6.64.865 14.899-5.867 18.645l-64.97 36.144-64.97-36.144c-6.732-3.746-9.774-12.005-5.867-18.645 31.369-53.32 110.306-53.32 141.674 0"/></g><defs><radialGradient id="b" cx="0" cy="0" r="1" gradientTransform="rotate(-142.359 194.91 79.228)scale(182.132 237.356)" gradientUnits="userSpaceOnUse"><stop stop-color="#8AFBED" stop-opacity="0"/><stop offset=".848" stop-color="#00A3FF" stop-opacity=".32"/><stop offset="1" stop-color="#198CF6"/></radialGradient><radialGradient id="c" cx="0" cy="0" r="1" gradientTransform="matrix(78.6774 78.2332 -67.50056 67.88382 206.359 167.602)" gradientUnits="userSpaceOnUse"><stop stop-color="#00B2FF"/><stop offset="1" stop-color="#00A3FF" stop-opacity="0"/></radialGradient><radialGradient id="d" cx="0" cy="0" r="1" gradientTransform="rotate(22.057 -373.37 444.027)scale(98.0125 100.842)" gradientUnits="userSpaceOnUse"><stop stop-color="#3B52FC"/><stop offset="1" stop-color="#0085FF" stop-opacity="0"/></radialGradient><radialGradient id="e" cx="0" cy="0" r="1" gradientTransform="matrix(-49.98317 96.907 -157.56743 -81.2709 292 184.082)" gradientUnits="userSpaceOnUse"><stop stop-color="#2A6BFF"/><stop offset="1" stop-color="#2A6BFF" stop-opacity="0"/></radialGradient><radialGradient id="f" cx="0" cy="0" r="1" gradientTransform="matrix(-175.84733 -190.10406 255.37412 -236.2225 316.371 371.943)" gradientUnits="userSpaceOnUse"><stop stop-color="#8AFBED" stop-opacity="0"/><stop offset=".848" stop-color="#00A3FF" stop-opacity=".32"/><stop offset="1" stop-color="#198CF6"/></radialGradient><radialGradient id="g" cx="0" cy="0" r="1" gradientTransform="matrix(95.93119 133.70811 -109.28734 78.41008 201.142 212.321)" gradientUnits="userSpaceOnUse"><stop stop-color="#00B2FF"/><stop offset="1" stop-color="#00A3FF" stop-opacity="0"/></radialGradient><radialGradient id="h" cx="0" cy="0" r="1" gradientTransform="matrix(110.7596 62.90435 -79.85519 140.60597 119.518 221.043)" gradientUnits="userSpaceOnUse"><stop stop-color="#3B52FC"/><stop offset="1" stop-color="#0085FF" stop-opacity="0"/></radialGradient><radialGradient id="i" cx="0" cy="0" r="1" gradientTransform="rotate(110.202 68.902 226.82)scale(176.48 228.268)" gradientUnits="userSpaceOnUse"><stop stop-color="#2A6BFF"/><stop offset="1" stop-color="#2A6BFF" stop-opacity="0"/></radialGradient><radialGradient id="j" cx="0" cy="0" r="1" gradientTransform="rotate(123.275 121.685 154.165)scale(97.0267 164.04)" gradientUnits="userSpaceOnUse"><stop stop-color="#06F"/><stop offset=".944" stop-color="#00A3FF" stop-opacity="0"/></radialGradient><radialGradient id="k" cx="0" cy="0" r="1" gradientTransform="matrix(-23.19715 109.00302 -184.26658 -39.21413 163.127 109.129)" gradientUnits="userSpaceOnUse"><stop stop-color="#06F"/><stop offset=".944" stop-color="#00A3FF" stop-opacity="0"/></radialGradient><radialGradient id="m" cx="0" cy="0" r="1" gradientTransform="matrix(-111.53676 228.14837 -164.1409 -80.2449 280.158 130.676)" gradientUnits="userSpaceOnUse"><stop stop-color="#FFBFAB"/><stop offset=".365" stop-color="#FF67A8" stop-opacity=".87"/><stop offset=".936" stop-color="#6BAFFF" stop-opacity="0"/></radialGradient><radialGradient id="n" cx="0" cy="0" r="1" gradientTransform="rotate(-146 186.22 68.204)scale(118.883 170.08)" gradientUnits="userSpaceOnUse"><stop stop-color="#2238FF"/><stop offset="1" stop-color="#0047FF" stop-opacity="0"/></radialGradient><radialGradient id="p" cx="0" cy="0" r="1" gradientTransform="rotate(-142.359 189.638 63.576)scale(182.132 237.356)" gradientUnits="userSpaceOnUse"><stop stop-color="#8AFBED" stop-opacity="0"/><stop offset=".848" stop-color="#00A3FF" stop-opacity=".32"/><stop offset="1" stop-color="#198CF6"/></radialGradient><radialGradient id="q" cx="0" cy="0" r="1" gradientTransform="matrix(78.6774 78.2332 -67.50056 67.88382 206.473 136.338)" gradientUnits="userSpaceOnUse"><stop stop-color="#00B2FF"/><stop offset="1" stop-color="#00A3FF" stop-opacity="0"/></radialGradient><radialGradient id="r" cx="0" cy="0" r="1" gradientTransform="rotate(22.057 -293.106 428.685)scale(98.0125 100.842)" gradientUnits="userSpaceOnUse"><stop stop-color="#3B52FC"/><stop offset="1" stop-color="#0085FF" stop-opacity="0"/></radialGradient><radialGradient id="s" cx="0" cy="0" r="1" gradientTransform="matrix(-49.98317 96.907 -157.56743 -81.2709 292.113 152.817)" gradientUnits="userSpaceOnUse"><stop stop-color="#2A6BFF"/><stop offset="1" stop-color="#2A6BFF" stop-opacity="0"/></radialGradient><radialGradient id="t" cx="0" cy="0" r="1" gradientTransform="matrix(-175.84733 -190.10406 255.37412 -236.2225 316.484 340.678)" gradientUnits="userSpaceOnUse"><stop stop-color="#8AFBED" stop-opacity="0"/><stop offset=".848" stop-color="#00A3FF" stop-opacity=".32"/><stop offset="1" stop-color="#198CF6"/></radialGradient><radialGradient id="u" cx="0" cy="0" r="1" gradientTransform="matrix(95.93119 133.70811 -109.28734 78.41008 201.255 181.057)" gradientUnits="userSpaceOnUse"><stop stop-color="#00B2FF"/><stop offset="1" stop-color="#00A3FF" stop-opacity="0"/></radialGradient><radialGradient id="v" cx="0" cy="0" r="1" gradientTransform="matrix(110.7596 62.90435 -79.85519 140.60597 119.631 189.779)" gradientUnits="userSpaceOnUse"><stop stop-color="#3B52FC"/><stop offset="1" stop-color="#0085FF" stop-opacity="0"/></radialGradient><radialGradient id="w" cx="0" cy="0" r="1" gradientTransform="rotate(110.202 79.863 211.228)scale(176.48 228.268)" gradientUnits="userSpaceOnUse"><stop stop-color="#2A6BFF"/><stop offset="1" stop-color="#2A6BFF" stop-opacity="0"/></radialGradient><radialGradient id="x" cx="0" cy="0" r="1" gradientTransform="matrix(-53.23415 81.11836 -137.14429 -90.00132 317.451 105.75)" gradientUnits="userSpaceOnUse"><stop stop-color="#06F"/><stop offset=".944" stop-color="#00A3FF" stop-opacity="0"/></radialGradient><radialGradient id="y" cx="0" cy="0" r="1" gradientTransform="matrix(-23.19735 109.004 -184.26658 -39.21413 163.241 77.864)" gradientUnits="userSpaceOnUse"><stop stop-color="#06F"/><stop offset=".944" stop-color="#00A3FF" stop-opacity="0"/></radialGradient><radialGradient id="A" cx="0" cy="0" r="1" gradientTransform="matrix(-111.53676 228.14837 -164.1409 -80.2449 280.272 99.412)" gradientUnits="userSpaceOnUse"><stop stop-color="#FFBFAB"/><stop offset=".365" stop-color="#FF67A8" stop-opacity=".87"/><stop offset=".936" stop-color="#6BAFFF" stop-opacity="0"/></radialGradient><radialGradient id="B" cx="0" cy="0" r="1" gradientTransform="rotate(-146 181.496 52.554)scale(118.883 170.08)" gradientUnits="userSpaceOnUse"><stop stop-color="#2238FF"/><stop offset="1" stop-color="#0047FF" stop-opacity="0"/></radialGradient><filter id="a" width="306.989" height="395.096" x="76.386" y="47.624" color-interpolation-filters="sRGB" filterUnits="userSpaceOnUse"><feFlood flood-opacity="0" result="BackgroundImageFix"/><feBlend in="SourceGraphic" in2="BackgroundImageFix" result="shape"/><feGaussianBlur result="effect1_foregroundBlur_3945_145099" stdDeviation="18.5"/></filter><filter id="l" width="193.13" height="219.001" x="133.333" y="60.624" color-interpolation-filters="sRGB" filterUnits="userSpaceOnUse"><feFlood flood-opacity="0" result="BackgroundImageFix"/><feGaussianBlur in="BackgroundImageFix" stdDeviation="12"/><feComposite in2="SourceAlpha" operator="in" result="effect1_backgroundBlur_3945_145099"/><feBlend in="SourceGraphic" in2="effect1_backgroundBlur_3945_145099" result="shape"/></filter><filter id="z" width="193.13" height="219.001" x="133.446" y="29.36" color-interpolation-filters="sRGB" filterUnits="userSpaceOnUse"><feFlood flood-opacity="0" result="BackgroundImageFix"/><feGaussianBlur in="BackgroundImageFix" stdDeviation="12"/><feComposite in2="SourceAlpha" operator="in" result="effect1_backgroundBlur_3945_145099"/><feBlend in="SourceGraphic" in2="effect1_backgroundBlur_3945_145099" result="shape"/></filter><linearGradient id="o" x1="156.566" x2="225.936" y1="234.963" y2="178.553" gradientUnits="userSpaceOnUse"><stop stop-color="#29EDFE"/><stop offset="1" stop-color="#29EDFE" stop-opacity="0"/></linearGradient></defs></svg>