<svg xmlns="http://www.w3.org/2000/svg" fill="none" viewBox="0 0 460 460" opt="1"><g clip-path="url(#a)"><g filter="url(#b)" opacity=".5"><circle cx="197.8" cy="268.64" r="122.36" fill="url(#c)" fill-opacity=".8"/><path fill="url(#d)" d="M197.895 391.297c67.526 0 122.266-54.419 122.266-121.548 0-25.761-8.061-49.65-21.813-69.311l-101.272 60.608L95.804 202.84c-12.752 19.19-20.175 42.188-20.175 66.909 0 67.129 54.74 121.548 122.266 121.548"/><path fill="url(#e)" d="m111.32 181.358 86.103 49.219V49.68z"/><path fill="url(#f)" d="m283.383 181.358-85.96 49.219V49.68z"/><path fill="url(#g)" fill-opacity=".6" d="m283.383 181.358-85.96 49.219V49.68z"/><path fill="url(#h)" d="M194.131 259.165 109.94 211.14l70.475 70.687z"/><path fill="url(#i)" d="M194.131 259.165 190.9 295.78l-10.485-13.953z"/><path fill="url(#j)" d="M139.96 293.908 110.4 211.6l70.015 70.226z"/><path fill="url(#k)" d="m139.959 293.909 50.481 1.411-10.026-13.493z"/><g opacity=".5"><path fill="url(#l)" d="m157.308 324.393 27.845 56.271 13.069-56.352z"/><path fill="url(#m)" d="m157.308 324.392 49.45-36.166-8.536 36.086z"/><path fill="url(#n)" d="m213.329 334.178-28.241 46.765 13.134-56.631z"/><path fill="url(#o)" d="m212.601 335.786-5.461-48.893-8.918 37.419z"/></g><path fill="url(#p)" d="m277.514 294.214.934-80.552-33.964 79.46z"/><path fill="url(#q)" d="m277.514 294.214-54.216 48.472 21.186-49.564z"/><path fill="url(#r)" d="m206.645 256.478 71.971-43.209-34.132 79.853z"/><path fill="url(#s)" d="m206.645 256.478 16.317 86.995 21.521-50.351z"/></g><circle cx="230" cy="277.84" r="122.36" fill="url(#t)" fill-opacity=".8"/><path fill="url(#u)" d="M230.094 400.497c67.526 0 122.266-54.419 122.266-121.549 0-25.76-8.061-49.65-21.813-69.31l-101.272 60.608-101.271-58.206c-12.752 19.19-20.176 42.187-20.176 66.908 0 67.13 54.74 121.549 122.266 121.549"/><path fill="url(#v)" d="m143.52 190.558 86.102 49.218V58.88z"/><path fill="url(#w)" d="m315.581 190.558-85.959 49.218V58.88z"/><path fill="url(#x)" fill-opacity=".6" d="m315.581 190.558-85.959 49.218V58.88z"/><path fill="url(#y)" d="m226.33 268.365-84.19-48.025 70.474 70.687z"/><path fill="url(#z)" d="m226.33 268.365-3.231 36.615-10.485-13.953z"/><path fill="url(#A)" d="M172.159 303.108 142.6 220.8l70.014 70.226z"/><path fill="url(#B)" d="m172.158 303.108 50.481 1.412-10.026-13.494z"/><g opacity=".5"><path fill="url(#C)" d="m189.507 333.593 27.846 56.271 13.068-56.352z"/><path fill="url(#D)" d="m189.508 333.592 49.45-36.166-8.537 36.085z"/><path fill="url(#E)" d="m245.528 343.378-28.24 46.765 13.133-56.632z"/><path fill="url(#F)" d="m244.8 344.986-5.461-48.894-8.918 37.419z"/></g><path fill="url(#G)" d="m309.714 303.413.933-80.551-33.964 79.46z"/><path fill="url(#H)" d="m309.713 303.414-54.216 48.472 21.186-49.564z"/><path fill="url(#I)" d="m238.844 265.678 71.971-43.209-34.132 79.853z"/><path fill="url(#J)" d="m238.844 265.678 16.317 86.994 21.522-50.35z"/></g><defs><radialGradient id="c" cx="0" cy="0" r="1" gradientTransform="matrix(-34.49967 -112.24052 156.34986 -48.05768 190.44 298.08)" gradientUnits="userSpaceOnUse"><stop stop-color="#00F0FF"/><stop offset="1" stop-color="#35C2FF" stop-opacity="0"/></radialGradient><radialGradient id="d" cx="0" cy="0" r="1" gradientTransform="matrix(-76.8192 122.36064 -163.64664 -102.73895 205.621 268.64)" gradientUnits="userSpaceOnUse"><stop stop-color="#8AFBED" stop-opacity="0"/><stop offset=".728" stop-color="#00A3FF" stop-opacity=".457"/><stop offset="1" stop-color="#198CF6"/></radialGradient><radialGradient id="e" cx="0" cy="0" r="1" gradientTransform="matrix(-39.44808 66.20366 -166.16247 -99.00948 197.228 139.876)" gradientUnits="userSpaceOnUse"><stop stop-color="#00A3FF"/><stop offset=".944" stop-color="#00A3FF" stop-opacity=".29"/></radialGradient><radialGradient id="f" cx="0" cy="0" r="1" gradientTransform="rotate(-50.305 314.111 -109.084)scale(91.3969 138.614)" gradientUnits="userSpaceOnUse"><stop stop-color="#227AFF"/><stop offset="1" stop-color="#0047FF" stop-opacity="0"/></radialGradient><radialGradient id="h" cx="0" cy="0" r="1" gradientTransform="rotate(46.264 -196.04 285.967)scale(76.5665 64.8576)" gradientUnits="userSpaceOnUse"><stop stop-color="#2A6BFF"/><stop offset="1" stop-color="#2A6BFF" stop-opacity="0"/></radialGradient><radialGradient id="i" cx="0" cy="0" r="1" gradientTransform="matrix(11.4107 86.82631 -85.30608 11.21092 189.888 231.714)" gradientUnits="userSpaceOnUse"><stop stop-color="#3B52FC"/><stop offset="1" stop-color="#3B52FC" stop-opacity="0"/></radialGradient><radialGradient id="j" cx="0" cy="0" r="1" gradientTransform="rotate(27.53 -456.138 364.39)scale(60.4487 79.9724)" gradientUnits="userSpaceOnUse"><stop stop-color="#2A6BFF"/><stop offset="1" stop-color="#2A6BFF" stop-opacity="0"/></radialGradient><radialGradient id="k" cx="0" cy="0" r="1" gradientTransform="rotate(10.739 -1545.693 719.796)scale(105.162 162.372)" gradientUnits="userSpaceOnUse"><stop stop-color="#2A6BFF"/><stop offset="1" stop-color="#2A6BFF" stop-opacity="0"/></radialGradient><radialGradient id="l" cx="0" cy="0" r="1" gradientTransform="rotate(-83.114 302.366 83.832)scale(63.9457 54.1668)" gradientUnits="userSpaceOnUse"><stop stop-color="#2A6BFF"/><stop offset="1" stop-color="#2A6BFF" stop-opacity="0"/></radialGradient><radialGradient id="m" cx="0" cy="0" r="1" gradientTransform="matrix(50.00617 -53.37181 52.43723 49.13052 160.852 344.749)" gradientUnits="userSpaceOnUse"><stop stop-color="#3B52FC"/><stop offset="1" stop-color="#3B52FC" stop-opacity="0"/></radialGradient><radialGradient id="n" cx="0" cy="0" r="1" gradientTransform="rotate(-101.848 261.116 104.204)scale(50.4847 66.7902)" gradientUnits="userSpaceOnUse"><stop stop-color="#2A6BFF"/><stop offset="1" stop-color="#2A6BFF" stop-opacity="0"/></radialGradient><radialGradient id="o" cx="0" cy="0" r="1" gradientTransform="matrix(-42.09479 -77.08241 119.0173 -64.99547 249.225 361.715)" gradientUnits="userSpaceOnUse"><stop stop-color="#2A6BFF"/><stop offset="1" stop-color="#2A6BFF" stop-opacity="0"/></radialGradient><radialGradient id="p" cx="0" cy="0" r="1" gradientTransform="rotate(106.973 57.059 215.712)scale(95.5233 80.9154)" gradientUnits="userSpaceOnUse"><stop stop-color="#2A6BFF"/><stop offset="1" stop-color="#2A6BFF" stop-opacity="0"/></radialGradient><radialGradient id="q" cx="0" cy="0" r="1" gradientTransform="rotate(143.222 107.044 187.084)scale(109.255 107.342)" gradientUnits="userSpaceOnUse"><stop stop-color="#3B52FC"/><stop offset="1" stop-color="#3B52FC" stop-opacity="0"/></radialGradient><radialGradient id="r" cx="0" cy="0" r="1" gradientTransform="matrix(2.31714 75.3795 -99.7254 3.06553 237.998 205.726)" gradientUnits="userSpaceOnUse"><stop stop-color="#2A6BFF"/><stop offset="1" stop-color="#2A6BFF" stop-opacity="0"/></radialGradient><radialGradient id="s" cx="0" cy="0" r="1" gradientTransform="rotate(71.448 -66.631 237.005)scale(131.198 202.574)" gradientUnits="userSpaceOnUse"><stop stop-color="#2A6BFF"/><stop offset="1" stop-color="#2A6BFF" stop-opacity="0"/></radialGradient><radialGradient id="t" cx="0" cy="0" r="1" gradientTransform="matrix(-34.49967 -112.24052 156.34986 -48.05768 222.64 307.28)" gradientUnits="userSpaceOnUse"><stop stop-color="#00F0FF"/><stop offset="1" stop-color="#35C2FF" stop-opacity="0"/></radialGradient><radialGradient id="u" cx="0" cy="0" r="1" gradientTransform="matrix(-76.8192 122.36064 -163.64664 -102.73895 237.82 277.84)" gradientUnits="userSpaceOnUse"><stop stop-color="#8AFBED" stop-opacity="0"/><stop offset=".728" stop-color="#00A3FF" stop-opacity=".457"/><stop offset="1" stop-color="#198CF6"/></radialGradient><radialGradient id="v" cx="0" cy="0" r="1" gradientTransform="matrix(-39.44808 66.20366 -166.16247 -99.00948 229.427 149.076)" gradientUnits="userSpaceOnUse"><stop stop-color="#00A3FF"/><stop offset=".944" stop-color="#00A3FF" stop-opacity=".29"/></radialGradient><radialGradient id="w" cx="0" cy="0" r="1" gradientTransform="rotate(-50.305 340.007 -138.77)scale(91.3969 138.614)" gradientUnits="userSpaceOnUse"><stop stop-color="#227AFF"/><stop offset="1" stop-color="#0047FF" stop-opacity="0"/></radialGradient><radialGradient id="y" cx="0" cy="0" r="1" gradientTransform="rotate(46.264 -190.708 328.253)scale(76.5665 64.8576)" gradientUnits="userSpaceOnUse"><stop stop-color="#2A6BFF"/><stop offset="1" stop-color="#2A6BFF" stop-opacity="0"/></radialGradient><radialGradient id="z" cx="0" cy="0" r="1" gradientTransform="rotate(82.513 -26.28 247.049)scale(87.5728 86.0396)" gradientUnits="userSpaceOnUse"><stop stop-color="#3B52FC"/><stop offset="1" stop-color="#3B52FC" stop-opacity="0"/></radialGradient><radialGradient id="A" cx="0" cy="0" r="1" gradientTransform="matrix(53.60412 27.94022 -36.96428 70.91704 148.977 261.293)" gradientUnits="userSpaceOnUse"><stop stop-color="#2A6BFF"/><stop offset="1" stop-color="#2A6BFF" stop-opacity="0"/></radialGradient><radialGradient id="B" cx="0" cy="0" r="1" gradientTransform="rotate(10.739 -1578.535 895.692)scale(105.162 162.372)" gradientUnits="userSpaceOnUse"><stop stop-color="#2A6BFF"/><stop offset="1" stop-color="#2A6BFF" stop-opacity="0"/></radialGradient><radialGradient id="C" cx="0" cy="0" r="1" gradientTransform="rotate(-83.114 323.654 70.27)scale(63.9457 54.1668)" gradientUnits="userSpaceOnUse"><stop stop-color="#2A6BFF"/><stop offset="1" stop-color="#2A6BFF" stop-opacity="0"/></radialGradient><radialGradient id="D" cx="0" cy="0" r="1" gradientTransform="matrix(50.00617 -53.37181 52.43723 49.13052 193.051 353.948)" gradientUnits="userSpaceOnUse"><stop stop-color="#3B52FC"/><stop offset="1" stop-color="#3B52FC" stop-opacity="0"/></radialGradient><radialGradient id="E" cx="0" cy="0" r="1" gradientTransform="rotate(-101.848 280.95 95.732)scale(50.4847 66.7902)" gradientUnits="userSpaceOnUse"><stop stop-color="#2A6BFF"/><stop offset="1" stop-color="#2A6BFF" stop-opacity="0"/></radialGradient><radialGradient id="F" cx="0" cy="0" r="1" gradientTransform="matrix(-42.09479 -77.08241 119.0173 -64.99547 281.424 370.915)" gradientUnits="userSpaceOnUse"><stop stop-color="#2A6BFF"/><stop offset="1" stop-color="#2A6BFF" stop-opacity="0"/></radialGradient><radialGradient id="G" cx="0" cy="0" r="1" gradientTransform="rotate(106.973 69.753 232.23)scale(95.5233 80.9155)" gradientUnits="userSpaceOnUse"><stop stop-color="#2A6BFF"/><stop offset="1" stop-color="#2A6BFF" stop-opacity="0"/></radialGradient><radialGradient id="H" cx="0" cy="0" r="1" gradientTransform="rotate(143.222 121.615 197.036)scale(109.255 107.342)" gradientUnits="userSpaceOnUse"><stop stop-color="#3B52FC"/><stop offset="1" stop-color="#3B52FC" stop-opacity="0"/></radialGradient><radialGradient id="I" cx="0" cy="0" r="1" gradientTransform="matrix(2.31714 75.3795 -99.7254 3.06553 270.198 214.926)" gradientUnits="userSpaceOnUse"><stop stop-color="#2A6BFF"/><stop offset="1" stop-color="#2A6BFF" stop-opacity="0"/></radialGradient><radialGradient id="J" cx="0" cy="0" r="1" gradientTransform="rotate(71.448 -56.927 263.991)scale(131.198 202.574)" gradientUnits="userSpaceOnUse"><stop stop-color="#2A6BFF"/><stop offset="1" stop-color="#2A6BFF" stop-opacity="0"/></radialGradient><linearGradient id="g" x1="266.341" x2="127.881" y1="36.8" y2="157.32" gradientUnits="userSpaceOnUse"><stop stop-color="#29EDFE"/><stop offset="1" stop-color="#29EDFE" stop-opacity="0"/></linearGradient><linearGradient id="x" x1="298.539" x2="160.079" y1="46" y2="166.52" gradientUnits="userSpaceOnUse"><stop stop-color="#29EDFE"/><stop offset="1" stop-color="#29EDFE" stop-opacity="0"/></linearGradient><clipPath id="a"><rect width="460" height="460" fill="#fff" rx="20"/></clipPath><filter id="b" width="352.721" height="449.617" x="21.44" y="-4.32" color-interpolation-filters="sRGB" filterUnits="userSpaceOnUse"><feFlood flood-opacity="0" result="BackgroundImageFix"/><feBlend in="SourceGraphic" in2="BackgroundImageFix" result="shape"/><feGaussianBlur result="effect1_foregroundBlur_4054_101836" stdDeviation="27"/></filter></defs></svg>