<svg xmlns="http://www.w3.org/2000/svg" fill="none" viewBox="0 0 558 761" opt="1"><g filter="url(#a)" opacity=".6"><path fill="url(#b)" fill-rule="evenodd" d="M261 40.5c0-9.113 7.387-16.5 16.5-16.5S294 31.387 294 40.5v1c0 9.665 7.835 17.5 17.5 17.5H380c11.046 0 20 8.954 20 20v18H155V79c0-11.046 8.954-20 20-20h68.5c9.665 0 17.5-7.835 17.5-17.5zm25 1.5a9 9 0 0 1-9 9 9 9 0 0 1-9-9 9 9 0 0 1 9-9 9 9 0 0 1 9 9" clip-rule="evenodd"/></g><g filter="url(#c)"><path fill="url(#d)" fill-rule="evenodd" d="M74 99c-16.568 0-30 13.431-30 30v558c0 16.569 13.432 30 30 30h410c16.569 0 30-13.431 30-30V129c0-16.569-13.431-30-30-30zm4 18c-8.284 0-15 6.716-15 15v552c0 8.284 6.716 15 15 15h402c8.284 0 15-6.716 15-15V132c0-8.284-6.716-15-15-15z" clip-rule="evenodd"/></g><rect width="432" height="582" x="53" y="97" fill="url(#e)" rx="15"/><path fill="url(#f)" fill-rule="evenodd" d="M64 79c-16.568 0-30 13.432-30 30v558c0 16.569 13.432 30 30 30h410c16.569 0 30-13.431 30-30V109c0-16.568-13.431-30-30-30zm4 18c-8.284 0-15 6.716-15 15v552c0 8.284 6.716 15 15 15h402c8.284 0 15-6.716 15-15V112c0-8.284-6.716-15-15-15z" clip-rule="evenodd"/><g filter="url(#g)"><path fill="url(#h)" fill-rule="evenodd" d="M254 40.5c0-9.113 7.387-16.5 16.5-16.5S287 31.387 287 40.5v1c0 9.665 7.835 17.5 17.5 17.5H373c11.046 0 20 8.954 20 20v18H148V79c0-11.046 8.954-20 20-20h68.5c9.665 0 17.5-7.835 17.5-17.5zm25 1.5a9 9 0 0 1-9 9 9 9 0 0 1-9-9 9 9 0 0 1 9-9 9 9 0 0 1 9 9" clip-rule="evenodd"/></g><g filter="url(#i)"><path fill="url(#j)" d="M298.508 312.953 192.27 361.27l106.238 62.765 106.196-62.765z"/><path fill="url(#k)" d="M298.508 312.953 192.27 361.27l106.238 62.765 106.196-62.765z"/><path fill="url(#l)" d="m192.27 361.27 106.238 62.765V185z"/><path fill="url(#m)" d="m192.27 361.27 106.238 62.765V185z"/><path fill="url(#n)" d="m192.27 361.27 106.238 62.765V185z"/><path fill="url(#o)" d="m192.27 381.4 106.238 149.669v-86.904z"/><path fill="url(#p)" d="m192.27 381.4 106.238 149.669v-86.904z"/><path fill="url(#q)" d="M298.473 444.16v86.903l106.279-149.669z"/><path fill="url(#r)" d="M298.473 444.16v86.903l106.279-149.669z"/><path fill="url(#s)" d="M298.473 185v239.036l106.196-62.766z"/><path fill="url(#t)" d="M298.473 185v239.036l106.196-62.766z"/><path fill="url(#u)" d="M298.473 185v239.036l106.196-62.766z"/></g><path fill="url(#v)" d="m268.295 329.885-106.238 48.316 106.238 62.766 106.196-62.766z"/><path fill="url(#w)" d="m268.295 329.885-106.238 48.316 106.238 62.766 106.196-62.766z"/><path fill="url(#x)" d="m162.057 378.201 106.238 62.766V201.931z"/><path fill="url(#y)" d="m162.057 378.201 106.238 62.766V201.931z"/><path fill="url(#z)" d="m162.057 378.201 106.238 62.766V201.931z"/><path fill="url(#A)" d="M162.057 398.331 268.295 548v-86.903z"/><path fill="url(#B)" d="M162.057 398.331 268.295 548v-86.903z"/><path fill="url(#C)" d="M268.26 461.092v86.903l106.28-149.669z"/><path fill="url(#D)" d="M268.26 461.092v86.903l106.28-149.669z"/><path fill="url(#E)" d="M268.26 201.931v239.036l106.196-62.766z"/><path fill="url(#F)" d="M268.26 201.931v239.036l106.196-62.766z"/><path fill="url(#G)" d="M268.26 201.931v239.036l106.196-62.766z"/><defs><radialGradient id="e" cx="0" cy="0" r="1" gradientTransform="rotate(80.785 -83.431 284.745)scale(362.174 268.83)" gradientUnits="userSpaceOnUse"><stop stop-color="#fff"/><stop offset="1" stop-color="#fff" stop-opacity="0"/></radialGradient><radialGradient id="j" cx="0" cy="0" r="1" gradientTransform="matrix(106.32162 -63.61932 165.92617 277.29844 192.675 410.163)" gradientUnits="userSpaceOnUse"><stop stop-color="#4D5CFF"/><stop offset=".944" stop-color="#8AAAFB" stop-opacity=".29"/></radialGradient><radialGradient id="k" cx="0" cy="0" r="1" gradientTransform="matrix(201.75293 11.00781 -3.01223 55.20859 161.042 360.874)" gradientUnits="userSpaceOnUse"><stop stop-color="#354BFF"/><stop offset="1" stop-color="#354BFF" stop-opacity="0"/></radialGradient><radialGradient id="l" cx="0" cy="0" r="1" gradientTransform="matrix(-120.7655 53.0903 -139.74275 -317.87545 298.267 304.185)" gradientUnits="userSpaceOnUse"><stop stop-color="#4D5CFF"/><stop offset=".944" stop-color="#8AAAFB" stop-opacity=".29"/></radialGradient><radialGradient id="m" cx="0" cy="0" r="1" gradientTransform="rotate(104.299 60.691 212.899)scale(148.339 258.535)" gradientUnits="userSpaceOnUse"><stop stop-color="#33F3FF"/><stop offset="1" stop-color="#8D6BFF" stop-opacity="0"/></radialGradient><radialGradient id="n" cx="0" cy="0" r="1" gradientTransform="matrix(-85.82472 -39.0059 43.36908 -95.42503 298.267 383.28)" gradientUnits="userSpaceOnUse"><stop stop-color="#354BFF"/><stop offset="1" stop-color="#354BFF" stop-opacity="0"/></radialGradient><radialGradient id="o" cx="0" cy="0" r="1" gradientTransform="rotate(-58.189 556.624 83.247)scale(100.87 267.46)" gradientUnits="userSpaceOnUse"><stop stop-color="#4D5CFF"/><stop offset=".944" stop-color="#8AAAFB" stop-opacity=".29"/></radialGradient><radialGradient id="p" cx="0" cy="0" r="1" gradientTransform="rotate(136.91 63.528 261.858)scale(104.572 103.192)" gradientUnits="userSpaceOnUse"><stop stop-color="#354BFF"/><stop offset="1" stop-color="#354BFF" stop-opacity="0"/></radialGradient><radialGradient id="q" cx="0" cy="0" r="1" gradientTransform="matrix(53.19185 -85.71816 227.32422 141.06456 298.676 512.372)" gradientUnits="userSpaceOnUse"><stop stop-color="#4D5CFF"/><stop offset=".944" stop-color="#8AAAFB" stop-opacity=".29"/></radialGradient><radialGradient id="r" cx="0" cy="0" r="1" gradientTransform="rotate(8.359 -2909.843 2158.242)scale(102.02 73.8151)" gradientUnits="userSpaceOnUse"><stop stop-color="#354BFF"/><stop offset="1" stop-color="#354BFF" stop-opacity="0"/></radialGradient><radialGradient id="s" cx="0" cy="0" r="1" gradientTransform="rotate(171.538 193.684 184.32)scale(130.088 348.167)" gradientUnits="userSpaceOnUse"><stop stop-color="#4D5CFF"/><stop offset=".944" stop-color="#8AAAFB" stop-opacity="0"/></radialGradient><radialGradient id="t" cx="0" cy="0" r="1" gradientTransform="rotate(63.476 2.18 282.689)scale(310.992 162.132)" gradientUnits="userSpaceOnUse"><stop stop-color="#ABE6FF"/><stop offset=".365" stop-color="#86F0FF" stop-opacity=".87"/><stop offset="1" stop-color="#8D6BFF" stop-opacity="0"/></radialGradient><radialGradient id="u" cx="0" cy="0" r="1" gradientTransform="matrix(89.76398 -95.33086 118.13977 111.24095 291.718 424.139)" gradientUnits="userSpaceOnUse"><stop stop-color="#4658FF"/><stop offset="1" stop-color="#4685FF" stop-opacity="0"/></radialGradient><radialGradient id="v" cx="0" cy="0" r="1" gradientTransform="matrix(106.32162 -63.61932 165.92617 277.29844 162.462 427.095)" gradientUnits="userSpaceOnUse"><stop stop-color="#4D5CFF"/><stop offset=".944" stop-color="#8AAAFB" stop-opacity=".29"/></radialGradient><radialGradient id="w" cx="0" cy="0" r="1" gradientTransform="matrix(201.75293 11.00781 -3.01223 55.20859 130.829 377.806)" gradientUnits="userSpaceOnUse"><stop stop-color="#354BFF"/><stop offset="1" stop-color="#354BFF" stop-opacity="0"/></radialGradient><radialGradient id="x" cx="0" cy="0" r="1" gradientTransform="matrix(-120.7655 53.0903 -139.74275 -317.87545 268.054 321.116)" gradientUnits="userSpaceOnUse"><stop stop-color="#4D5CFF"/><stop offset=".944" stop-color="#8AAAFB" stop-opacity=".29"/></radialGradient><radialGradient id="y" cx="0" cy="0" r="1" gradientTransform="rotate(104.299 39.006 209.625)scale(148.339 258.535)" gradientUnits="userSpaceOnUse"><stop stop-color="#33F3FF"/><stop offset="1" stop-color="#8D6BFF" stop-opacity="0"/></radialGradient><radialGradient id="z" cx="0" cy="0" r="1" gradientTransform="matrix(-85.82472 -39.0059 43.36908 -95.42503 268.054 400.211)" gradientUnits="userSpaceOnUse"><stop stop-color="#354BFF"/><stop offset="1" stop-color="#354BFF" stop-opacity="0"/></radialGradient><radialGradient id="A" cx="0" cy="0" r="1" gradientTransform="rotate(-58.189 556.73 118.86)scale(100.87 267.46)" gradientUnits="userSpaceOnUse"><stop stop-color="#4D5CFF"/><stop offset=".944" stop-color="#8AAAFB" stop-opacity=".29"/></radialGradient><radialGradient id="B" cx="0" cy="0" r="1" gradientTransform="rotate(136.91 45.08 264.36)scale(104.572 103.192)" gradientUnits="userSpaceOnUse"><stop stop-color="#354BFF"/><stop offset="1" stop-color="#354BFF" stop-opacity="0"/></radialGradient><radialGradient id="C" cx="0" cy="0" r="1" gradientTransform="matrix(53.19185 -85.71816 227.32422 141.06456 268.463 529.304)" gradientUnits="userSpaceOnUse"><stop stop-color="#4D5CFF"/><stop offset=".944" stop-color="#8AAAFB" stop-opacity=".29"/></radialGradient><radialGradient id="D" cx="0" cy="0" r="1" gradientTransform="rotate(8.359 -3040.798 1959.99)scale(102.02 73.8151)" gradientUnits="userSpaceOnUse"><stop stop-color="#354BFF"/><stop offset="1" stop-color="#354BFF" stop-opacity="0"/></radialGradient><radialGradient id="E" cx="0" cy="0" r="1" gradientTransform="rotate(171.538 177.951 191.67)scale(130.088 348.167)" gradientUnits="userSpaceOnUse"><stop stop-color="#4D5CFF"/><stop offset=".944" stop-color="#8AAAFB" stop-opacity="0"/></radialGradient><radialGradient id="F" cx="0" cy="0" r="1" gradientTransform="rotate(63.476 -26.614 266.733)scale(310.992 162.132)" gradientUnits="userSpaceOnUse"><stop stop-color="#ABE6FF"/><stop offset=".365" stop-color="#86F0FF" stop-opacity=".87"/><stop offset="1" stop-color="#8D6BFF" stop-opacity="0"/></radialGradient><radialGradient id="G" cx="0" cy="0" r="1" gradientTransform="matrix(89.76398 -95.33086 118.13977 111.24095 261.505 441.07)" gradientUnits="userSpaceOnUse"><stop stop-color="#4658FF"/><stop offset="1" stop-color="#4685FF" stop-opacity="0"/></radialGradient><linearGradient id="b" x1="224.59" x2="236.067" y1="26.953" y2="138.264" gradientUnits="userSpaceOnUse"><stop stop-color="#C3B9FF"/><stop offset="1" stop-color="#91BDFF" stop-opacity="0"/></linearGradient><linearGradient id="d" x1="177.5" x2="536.5" y1="124" y2="913" gradientUnits="userSpaceOnUse"><stop stop-color="#D4CEF8"/><stop offset="1" stop-color="#91BDFF" stop-opacity="0"/></linearGradient><linearGradient id="f" x1="167.5" x2="526.5" y1="104" y2="893" gradientUnits="userSpaceOnUse"><stop stop-color="#CEDCF8"/><stop offset="1" stop-color="#91BDFF" stop-opacity="0"/></linearGradient><linearGradient id="h" x1="217.59" x2="229.067" y1="26.953" y2="138.264" gradientUnits="userSpaceOnUse"><stop stop-color="#CEDCF8"/><stop offset="1" stop-color="#91BDFF" stop-opacity="0"/></linearGradient><filter id="a" width="293" height="121" x="131" y="0" color-interpolation-filters="sRGB" filterUnits="userSpaceOnUse"><feFlood flood-opacity="0" result="BackgroundImageFix"/><feBlend in="SourceGraphic" in2="BackgroundImageFix" result="shape"/><feGaussianBlur result="effect1_foregroundBlur_2197_36881" stdDeviation="12"/></filter><filter id="c" width="558" height="706" x="0" y="55" color-interpolation-filters="sRGB" filterUnits="userSpaceOnUse"><feFlood flood-opacity="0" result="BackgroundImageFix"/><feBlend in="SourceGraphic" in2="BackgroundImageFix" result="shape"/><feGaussianBlur result="effect1_foregroundBlur_2197_36881" stdDeviation="22"/></filter><filter id="g" width="285" height="113" x="128" y="4" color-interpolation-filters="sRGB" filterUnits="userSpaceOnUse"><feFlood flood-opacity="0" result="BackgroundImageFix"/><feGaussianBlur in="BackgroundImageFix" stdDeviation="10"/><feComposite in2="SourceAlpha" operator="in" result="effect1_backgroundBlur_2197_36881"/><feBlend in="SourceGraphic" in2="effect1_backgroundBlur_2197_36881" result="shape"/></filter><filter id="i" width="420.482" height="554.069" x="88.269" y="81" color-interpolation-filters="sRGB" filterUnits="userSpaceOnUse"><feFlood flood-opacity="0" result="BackgroundImageFix"/><feBlend in="SourceGraphic" in2="BackgroundImageFix" result="shape"/><feGaussianBlur result="effect1_foregroundBlur_2197_36881" stdDeviation="52"/></filter></defs></svg>