<svg width="36" height="36" viewBox="0 0 36 36" fill="none" xmlns="http://www.w3.org/2000/svg">
<g clip-path="url(#clip0_16680_89784)">
<g opacity="0.7" filter="url(#filter0_f_16680_89784)">
<path opacity="0.6" d="M24.1405 16.1406L24.3156 16.4093C26.2912 19.44 25.85 23.409 23.2548 25.9518C21.7281 27.4478 19.7271 28.1958 17.7261 28.196C17.7261 28.196 17.7261 28.196 24.1405 16.1406Z" fill="#00A3FF"/>
<path opacity="0.2" d="M17.7253 19.8046L24.1396 16.1406C17.7253 28.196 17.7253 28.196 17.7253 28.196C17.7253 25.5704 17.7253 22.5619 17.7253 19.8046Z" fill="#00A3FF"/>
<path d="M11.3048 16.1406L11.1297 16.4093C9.15407 19.44 9.59529 23.409 12.1905 25.9518C13.7172 27.4478 15.7182 28.1958 17.7192 28.196C17.7192 28.196 17.7192 28.196 11.3048 16.1406Z" fill="#00A3FF"/>
<path opacity="0.6" d="M17.7176 19.8046L11.3032 16.1406C17.7176 28.196 17.7176 28.196 17.7176 28.196C17.7176 25.5704 17.7176 22.5619 17.7176 19.8046Z" fill="#00A3FF"/>
<path opacity="0.2" d="M17.7275 11.6196V17.9389L23.2528 14.7813L17.7275 11.6196Z" fill="#00A3FF"/>
<path opacity="0.6" d="M17.7261 11.6196L12.1968 14.7813L17.7261 17.9389V11.6196Z" fill="#00A3FF"/>
<path d="M17.7261 6.30469L12.1968 14.7829L17.7261 11.6123V6.30469Z" fill="#00A3FF"/>
<path opacity="0.6" d="M17.7275 11.6116L23.257 14.7822L17.7275 6.2998V11.6116Z" fill="#00A3FF"/>
</g>
<path opacity="0.6" d="M24.6454 15.9624L24.8267 16.2385C26.8724 19.3527 26.4155 23.4312 23.7283 26.0441C22.1475 27.5813 20.0756 28.35 18.0036 28.3502C18.0036 28.3502 18.0036 28.3502 24.6454 15.9624Z" fill="#00A3FF"/>
<path opacity="0.2" d="M18.0028 19.7274L24.6445 15.9624C18.0028 28.3502 18.0028 28.3502 18.0028 28.3502C18.0028 25.6523 18.0028 22.5607 18.0028 19.7274Z" fill="#00A3FF"/>
<path d="M11.3546 15.9624L11.1733 16.2385C9.12764 19.3527 9.5845 23.4312 12.2717 26.0441C13.8525 27.5813 15.9244 28.35 17.9964 28.3502C17.9964 28.3502 17.9964 28.3502 11.3546 15.9624Z" fill="#00A3FF"/>
<path opacity="0.6" d="M17.9943 19.7274L11.3525 15.9624C17.9943 28.3502 17.9943 28.3502 17.9943 28.3502C17.9943 25.6523 17.9943 22.5607 17.9943 19.7274Z" fill="#00A3FF"/>
<path opacity="0.2" d="M18.0054 11.3164V17.8099L23.7265 14.5653L18.0054 11.3164Z" fill="#00A3FF"/>
<path opacity="0.6" d="M18.0036 11.3164L12.2783 14.5652L18.0036 17.8099V11.3164Z" fill="#00A3FF"/>
<path d="M18.0036 5.85547L12.2783 14.5674L18.0036 11.3095V5.85547Z" fill="#00A3FF"/>
<path opacity="0.6" d="M18.0054 11.3084L23.7309 14.5664L18.0054 5.8501V11.3084Z" fill="#00A3FF"/>
</g>
<rect x="0.5" y="0.5" width="35" height="35" rx="17.5" stroke="black" stroke-opacity="0.1"/>
<defs>
<filter id="filter0_f_16680_89784" x="-8.1001" y="-11.7002" width="51.6455" height="57.896" filterUnits="userSpaceOnUse" color-interpolation-filters="sRGB">
<feFlood flood-opacity="0" result="BackgroundImageFix"/>
<feBlend mode="normal" in="SourceGraphic" in2="BackgroundImageFix" result="shape"/>
<feGaussianBlur stdDeviation="9" result="effect1_foregroundBlur_16680_89784"/>
</filter>
<clipPath id="clip0_16680_89784">
<rect width="36" height="36" rx="18" fill="white"/>
</clipPath>
</defs>
</svg>
