<svg viewBox="0 0 849 534" fill="none" xmlns="http://www.w3.org/2000/svg">
<g filter="url(#filter0_f_11562_343433)">
<path d="M378.114 111.64C378.4 111.63 378.685 111.608 378.971 111.608C379.521 111.587 380.06 111.577 380.599 111.577C380.864 111.577 381.128 111.577 381.393 111.577C382.069 111.577 382.736 111.598 383.402 111.63C383.518 111.63 383.635 111.63 383.751 111.64C384.533 111.682 385.305 111.746 386.077 111.82C386.3 111.841 386.522 111.873 386.733 111.894C387.283 111.957 387.833 112.021 388.372 112.105C388.637 112.148 388.901 112.19 389.176 112.232C389.684 112.317 390.191 112.402 390.699 112.507C390.953 112.56 391.207 112.603 391.46 112.655C392.032 112.772 392.603 112.909 393.174 113.047C393.343 113.089 393.512 113.121 393.671 113.163C394.411 113.353 395.141 113.565 395.86 113.787C396.05 113.84 396.23 113.914 396.42 113.967C396.96 114.147 397.499 114.326 398.028 114.517C398.271 114.601 398.514 114.696 398.747 114.781C399.234 114.971 399.731 115.162 400.207 115.363C400.429 115.458 400.651 115.543 400.873 115.648C401.486 115.913 402.089 116.188 402.681 116.484C402.755 116.526 402.84 116.558 402.914 116.59C403.485 116.875 404.056 117.161 404.617 117.467C404.638 117.478 404.659 117.488 404.68 117.499L372.382 99.9329C371.8 99.6157 371.219 99.309 370.616 99.0234C370.605 99.0234 370.595 99.0128 370.584 99.0023C370.521 98.9705 370.447 98.9388 370.383 98.9071C369.78 98.6215 369.178 98.336 368.575 98.0716C368.353 97.9764 368.131 97.8813 367.909 97.7861C367.422 97.5851 366.936 97.3842 366.449 97.2044C366.206 97.1092 365.973 97.0246 365.73 96.94C365.201 96.7497 364.662 96.5699 364.123 96.3901C363.932 96.3266 363.752 96.2632 363.562 96.2103C362.843 95.9882 362.113 95.7767 361.373 95.5863C361.341 95.5863 361.309 95.5652 361.278 95.5652C361.14 95.5335 361.003 95.5017 360.865 95.47C360.305 95.3325 359.734 95.195 359.163 95.0787C358.909 95.0258 358.655 94.9729 358.401 94.9306C357.893 94.8355 357.396 94.7403 356.889 94.6557C356.624 94.6134 356.36 94.5711 356.085 94.5288C355.546 94.4548 354.996 94.3807 354.446 94.3173C354.224 94.2961 354.002 94.2644 353.78 94.2432C353.008 94.1692 352.236 94.1058 351.464 94.0635C351.347 94.0635 351.22 94.0635 351.104 94.0529C350.438 94.0212 349.771 94 349.105 94C348.841 94 348.576 94 348.312 94C347.773 94 347.223 94.0106 346.683 94.0317C346.398 94.0317 346.112 94.0529 345.827 94.0635C345.266 94.0952 344.706 94.1269 344.145 94.1798C343.891 94.2009 343.638 94.2221 343.384 94.2432C342.569 94.3173 341.755 94.4124 340.93 94.5288L153.477 120.873C152.568 121 151.658 121.158 150.759 121.327C150.495 121.38 150.241 121.433 149.977 121.486C149.289 121.624 148.613 121.772 147.936 121.941C147.692 122.004 147.449 122.057 147.206 122.121C146.318 122.343 145.44 122.586 144.573 122.85C144.456 122.882 144.34 122.924 144.224 122.967C143.462 123.199 142.711 123.453 141.96 123.717C141.707 123.813 141.442 123.908 141.188 124.003C140.522 124.246 139.866 124.511 139.211 124.775C138.999 124.86 138.788 124.944 138.587 125.029C137.804 125.357 137.032 125.695 136.271 126.055C136.218 126.076 136.165 126.108 136.112 126.129C135.816 126.266 135.53 126.425 135.234 126.562C134.653 126.848 134.071 127.133 133.5 127.44C133.162 127.62 132.823 127.81 132.485 127.99C131.966 128.276 131.448 128.561 130.93 128.868C130.581 129.069 130.232 129.291 129.883 129.502C129.397 129.798 128.9 130.105 128.413 130.422C128.064 130.645 127.715 130.877 127.377 131.11C127.144 131.269 126.911 131.406 126.689 131.565C126.383 131.776 126.086 131.998 125.79 132.21C125.589 132.358 125.378 132.506 125.177 132.654C124.437 133.193 123.696 133.754 122.977 134.325C122.882 134.399 122.787 134.483 122.692 134.557C122.057 135.065 121.433 135.583 120.82 136.112C120.608 136.292 120.407 136.472 120.196 136.651C119.984 136.831 119.773 137.011 119.572 137.191C119.413 137.328 119.265 137.487 119.107 137.635C118.377 138.301 117.668 138.978 116.97 139.676C116.748 139.898 116.515 140.12 116.293 140.342C115.405 141.252 114.527 142.183 113.681 143.134C113.639 143.177 113.597 143.219 113.554 143.261C113.427 143.409 113.301 143.568 113.174 143.716C112.497 144.499 111.83 145.292 111.185 146.106C110.942 146.413 110.699 146.709 110.466 147.016C109.832 147.83 109.218 148.655 108.626 149.501C108.51 149.67 108.372 149.829 108.256 149.998C108.224 150.051 108.192 150.104 108.15 150.157C107.378 151.256 106.648 152.377 105.94 153.52C105.76 153.805 105.601 154.08 105.432 154.366C104.861 155.307 104.311 156.259 103.782 157.221C103.677 157.411 103.56 157.591 103.465 157.782C103.391 157.93 103.317 158.067 103.243 158.215C103.074 158.543 102.905 158.871 102.735 159.199C102.45 159.759 102.164 160.33 101.889 160.891C101.72 161.24 101.562 161.589 101.392 161.938C101.128 162.509 100.874 163.091 100.62 163.672C100.472 164.011 100.324 164.349 100.187 164.698C99.9223 165.343 99.6685 165.999 99.4147 166.644C99.309 166.929 99.1926 167.204 99.0869 167.49C99.0657 167.553 99.034 167.627 99.0128 167.691C98.8436 168.156 98.685 168.632 98.5264 169.108C98.3677 169.573 98.1985 170.049 98.0399 170.515C97.8601 171.054 97.712 171.614 97.5428 172.154C97.4053 172.63 97.2573 173.095 97.1198 173.571C96.9612 174.131 96.8343 174.692 96.6862 175.263C96.5699 175.739 96.443 176.204 96.3266 176.68C96.1892 177.262 96.0834 177.844 95.9565 178.425C95.8613 178.891 95.7556 179.356 95.6709 179.821C95.5546 180.424 95.47 181.027 95.3748 181.63C95.3008 182.084 95.2162 182.539 95.1527 182.994C95.0681 183.628 95.0047 184.263 94.9307 184.897C94.8778 185.331 94.8249 185.765 94.7826 186.209C94.7191 186.928 94.6768 187.647 94.624 188.366C94.6028 188.726 94.5605 189.085 94.5499 189.445C94.4971 190.524 94.4653 191.613 94.4653 192.702L94.423 217.544L94.2115 331.867L94 415.034C94 416.662 94.7509 417.815 95.8084 418.386L128.106 435.963C127.049 435.392 126.287 434.239 126.298 432.61L126.457 349.486L126.668 235.163L126.71 210.321C126.71 209.232 126.742 208.143 126.795 207.064C126.816 206.704 126.848 206.345 126.869 205.985C126.911 205.266 126.954 204.547 127.028 203.828C127.07 203.394 127.133 202.961 127.176 202.516C127.25 201.882 127.313 201.247 127.398 200.613C127.461 200.158 127.546 199.703 127.62 199.249C127.715 198.646 127.81 198.032 127.916 197.43C128.001 196.964 128.106 196.499 128.202 196.034C128.318 195.452 128.434 194.86 128.572 194.278C128.677 193.802 128.804 193.337 128.931 192.861C129.069 192.3 129.206 191.729 129.365 191.169C129.492 190.693 129.65 190.228 129.788 189.752C129.957 189.202 130.105 188.652 130.285 188.102C130.433 187.626 130.602 187.161 130.771 186.695C130.962 186.156 131.142 185.606 131.343 185.067C131.448 184.781 131.565 184.506 131.67 184.231C131.924 183.576 132.178 182.93 132.442 182.275C132.58 181.936 132.738 181.598 132.876 181.249C133.13 180.667 133.384 180.086 133.648 179.514C133.807 179.165 133.976 178.816 134.145 178.467C134.42 177.896 134.706 177.336 134.991 176.765C135.16 176.437 135.33 176.109 135.499 175.781C135.679 175.443 135.858 175.126 136.049 174.787C136.577 173.825 137.127 172.873 137.698 171.932C137.868 171.646 138.037 171.361 138.217 171.086C138.925 169.944 139.666 168.823 140.427 167.723C140.586 167.501 140.744 167.289 140.903 167.067C141.506 166.232 142.119 165.396 142.743 164.592C142.986 164.286 143.219 163.979 143.462 163.683C144.107 162.868 144.774 162.075 145.45 161.293C145.62 161.102 145.778 160.901 145.947 160.711C146.793 159.759 147.661 158.829 148.56 157.919C148.782 157.686 149.014 157.475 149.236 157.253C149.934 156.555 150.654 155.878 151.373 155.212C151.732 154.884 152.092 154.545 152.462 154.228C152.674 154.048 152.874 153.869 153.086 153.689C153.699 153.16 154.323 152.642 154.958 152.134C155.053 152.06 155.148 151.976 155.243 151.902C155.963 151.33 156.703 150.77 157.443 150.231C157.644 150.083 157.856 149.934 158.057 149.786C158.585 149.416 159.114 149.046 159.643 148.687C159.992 148.454 160.33 148.221 160.679 147.999C161.166 147.682 161.652 147.386 162.139 147.079C162.488 146.868 162.837 146.656 163.186 146.445C163.704 146.138 164.222 145.852 164.74 145.567C165.079 145.376 165.407 145.197 165.745 145.017C166.316 144.71 166.898 144.425 167.479 144.139C167.776 143.991 168.061 143.843 168.357 143.705C169.172 143.314 170.007 142.955 170.832 142.595C171.043 142.51 171.255 142.426 171.456 142.341C172.112 142.077 172.767 141.812 173.433 141.569C173.687 141.474 173.952 141.379 174.206 141.284C174.956 141.019 175.707 140.765 176.469 140.533C176.585 140.501 176.701 140.459 176.818 140.416C177.685 140.152 178.573 139.909 179.451 139.687C179.694 139.623 179.937 139.57 180.181 139.507C180.858 139.348 181.534 139.19 182.222 139.052C182.486 138.999 182.74 138.946 183.004 138.894C183.903 138.724 184.813 138.566 185.722 138.439L373.175 112.095C374 111.979 374.814 111.883 375.629 111.809C375.883 111.788 376.136 111.767 376.39 111.746C376.951 111.704 377.522 111.661 378.082 111.63L378.114 111.64Z" fill="url(#paint0_linear_11562_343433)"/>
<path d="M373.201 112.102L185.749 138.446C153.197 143.025 126.768 175.196 126.705 210.318L126.663 235.16L126.451 349.483L126.292 432.607C126.292 435.24 128.27 436.626 130.301 436.34C131.443 436.181 132.596 435.494 133.42 434.193C143.901 417.685 168.235 391.912 220.712 382.521L372.747 361.158C405.288 356.589 431.716 324.408 431.78 289.286L432.002 167.423C432.065 132.302 405.743 107.533 373.201 112.113V112.102ZM296.126 288.8L219.485 299.576C213.055 300.475 207.852 295.589 207.862 288.641C207.873 281.703 213.108 275.337 219.538 274.427L296.179 263.651C302.62 262.741 307.823 267.648 307.812 274.586C307.802 281.534 302.567 287.89 296.137 288.8H296.126ZM361.833 227.461L219.58 247.449C213.15 248.348 207.947 243.462 207.957 236.514C207.968 229.576 213.203 223.21 219.633 222.3L361.886 202.312C368.326 201.403 373.529 206.31 373.519 213.247C373.508 220.196 368.273 226.551 361.843 227.461H361.833Z" fill="url(#paint1_linear_11562_343433)"/>
<path d="M748.405 439.281L716.107 421.705C715.906 421.599 715.716 421.472 715.547 421.324C715.367 421.165 715.198 420.985 715.039 420.785C713.4 418.659 711.422 416.385 709.042 414.111C715.695 415.92 721.416 418.257 726.334 420.88L726.884 421.176C729.348 422.519 731.6 423.925 733.663 425.374C734.075 425.66 734.477 425.956 734.879 426.252C736.423 427.384 737.851 428.536 739.172 429.689C739.564 430.038 739.955 430.387 740.336 430.726C743.17 433.327 745.476 435.929 747.337 438.361C747.527 438.604 747.739 438.816 747.971 438.985C748.056 439.059 748.141 439.123 748.225 439.165C748.278 439.207 748.342 439.25 748.405 439.281Z" fill="url(#paint2_linear_11562_343433)"/>
<path d="M449.679 252.106C449.7 251.757 449.732 251.398 449.753 251.049C449.795 250.319 449.837 249.589 449.911 248.87C449.954 248.447 450.007 248.024 450.059 247.601C450.134 246.956 450.197 246.3 450.292 245.655C450.356 245.2 450.44 244.746 450.514 244.291C450.609 243.688 450.705 243.075 450.81 242.472C450.895 242.007 451.001 241.541 451.096 241.065C451.212 240.484 451.329 239.902 451.466 239.32C451.572 238.855 451.699 238.39 451.815 237.924C451.963 237.353 452.09 236.782 452.249 236.222C452.376 235.746 452.524 235.28 452.672 234.815C452.841 234.265 452.989 233.715 453.169 233.165C453.317 232.689 453.486 232.224 453.655 231.759C453.846 231.219 454.025 230.669 454.226 230.13C454.332 229.845 454.448 229.57 454.554 229.295C454.808 228.639 455.062 227.983 455.326 227.338C455.464 227 455.622 226.661 455.76 226.312C456.014 225.731 456.267 225.149 456.532 224.578C456.69 224.229 456.86 223.88 457.029 223.531C457.304 222.96 457.589 222.399 457.875 221.828C458.044 221.5 458.213 221.173 458.383 220.845C458.562 220.517 458.742 220.189 458.922 219.851C459.451 218.888 460.001 217.936 460.572 216.995C460.741 216.71 460.91 216.424 461.09 216.139C461.798 214.996 462.539 213.875 463.3 212.776C463.459 212.553 463.617 212.342 463.776 212.12C464.379 211.284 464.992 210.449 465.616 209.635C465.859 209.328 466.092 209.021 466.335 208.725C466.981 207.911 467.647 207.118 468.324 206.335C468.493 206.145 468.651 205.944 468.821 205.753C469.667 204.802 470.534 203.871 471.433 202.961C471.655 202.729 471.888 202.517 472.11 202.285C472.808 201.587 473.527 200.91 474.246 200.243C474.606 199.916 474.965 199.577 475.335 199.26C475.547 199.08 475.748 198.89 475.959 198.71C476.573 198.181 477.207 197.663 477.831 197.145C477.926 197.071 478.021 196.986 478.106 196.912C478.825 196.341 479.565 195.781 480.306 195.241C480.507 195.093 480.718 194.945 480.919 194.797C481.448 194.416 481.977 194.057 482.506 193.697C482.855 193.464 483.193 193.232 483.542 193.01C484.028 192.692 484.515 192.396 485.001 192.09C485.35 191.878 485.699 191.667 486.048 191.455C486.556 191.159 487.074 190.863 487.592 190.577C487.931 190.387 488.259 190.197 488.608 190.017C489.179 189.71 489.76 189.425 490.342 189.139C490.638 188.991 490.924 188.843 491.23 188.705C492.045 188.314 492.87 187.955 493.705 187.595C493.917 187.51 494.128 187.426 494.329 187.341C494.985 187.077 495.64 186.812 496.307 186.569C496.561 186.474 496.825 186.379 497.079 186.284C497.83 186.019 498.58 185.765 499.342 185.533C499.458 185.501 499.575 185.459 499.691 185.416C500.558 185.152 501.446 184.909 502.324 184.687C502.567 184.623 502.811 184.57 503.054 184.507C503.731 184.348 504.408 184.19 505.095 184.052C505.359 183.999 505.613 183.946 505.878 183.894C506.777 183.724 507.686 183.566 508.596 183.439L696.048 157.095C696.873 156.979 697.688 156.883 698.502 156.809C698.756 156.788 699.01 156.767 699.263 156.746C699.824 156.704 700.384 156.661 700.945 156.63C701.23 156.619 701.516 156.598 701.802 156.598C702.352 156.577 702.891 156.566 703.43 156.566C703.695 156.566 703.959 156.566 704.213 156.566C704.879 156.566 705.556 156.587 706.212 156.619C706.328 156.619 706.455 156.619 706.571 156.63C707.354 156.672 708.126 156.735 708.887 156.809C709.109 156.83 709.331 156.862 709.553 156.883C710.103 156.947 710.653 157.01 711.193 157.095C711.457 157.137 711.721 157.179 711.986 157.222C712.494 157.306 713.001 157.391 713.509 157.497C713.763 157.55 714.016 157.592 714.27 157.645C714.841 157.761 715.412 157.899 715.983 158.036C716.153 158.078 716.311 158.11 716.481 158.152C717.221 158.343 717.951 158.554 718.67 158.776C718.86 158.829 719.04 158.903 719.22 158.956C719.759 159.136 720.298 159.316 720.827 159.506C721.07 159.591 721.303 159.686 721.546 159.771C722.043 159.961 722.53 160.151 723.016 160.352C723.238 160.447 723.46 160.532 723.683 160.627C724.296 160.892 724.899 161.177 725.501 161.463C725.576 161.494 725.65 161.537 725.734 161.568C726.305 161.854 726.876 162.139 727.437 162.446C727.458 162.457 727.479 162.467 727.5 162.478L695.202 144.912C694.621 144.595 694.039 144.288 693.436 144.002C693.426 144.002 693.415 143.992 693.405 143.981C693.341 143.949 693.278 143.918 693.214 143.897C692.611 143.6 692.009 143.325 691.395 143.061C691.173 142.966 690.951 142.871 690.729 142.786C690.242 142.585 689.756 142.384 689.259 142.204C689.016 142.109 688.783 142.025 688.54 141.94C688.011 141.75 687.472 141.57 686.932 141.39C686.742 141.327 686.562 141.263 686.372 141.21C685.653 140.988 684.923 140.777 684.183 140.586C684.151 140.586 684.119 140.565 684.098 140.565C683.961 140.533 683.823 140.502 683.686 140.47C683.125 140.333 682.554 140.195 681.983 140.079C681.729 140.026 681.475 139.973 681.211 139.931C680.703 139.835 680.206 139.74 679.698 139.656C679.434 139.613 679.17 139.571 678.895 139.529C678.355 139.444 677.805 139.381 677.256 139.317C677.033 139.296 676.811 139.264 676.589 139.243C675.817 139.169 675.045 139.106 674.273 139.063C674.157 139.063 674.03 139.063 673.914 139.053C673.247 139.021 672.581 139 671.915 139C671.65 139 671.386 139 671.122 139C670.582 139 670.032 139.011 669.493 139.032C669.208 139.032 668.922 139.053 668.636 139.074C668.076 139.106 667.515 139.137 666.955 139.19C666.701 139.212 666.447 139.233 666.183 139.254C665.369 139.328 664.554 139.423 663.729 139.539L476.276 165.883C475.367 166.01 474.457 166.169 473.559 166.338C473.294 166.391 473.04 166.444 472.776 166.497C472.089 166.634 471.412 166.782 470.735 166.951C470.492 167.015 470.248 167.068 470.005 167.131C469.117 167.353 468.239 167.596 467.372 167.861C467.255 167.893 467.139 167.935 467.023 167.977C466.261 168.21 465.511 168.464 464.76 168.728C464.506 168.823 464.241 168.918 463.988 169.014C463.321 169.257 462.666 169.521 462.01 169.786C461.798 169.87 461.587 169.955 461.386 170.039C460.603 170.367 459.831 170.706 459.07 171.065C459.017 171.086 458.964 171.118 458.911 171.139C458.615 171.277 458.33 171.435 458.034 171.573C457.452 171.858 456.87 172.144 456.299 172.451C455.961 172.63 455.622 172.821 455.294 173.001C454.776 173.286 454.258 173.582 453.74 173.878C453.391 174.079 453.042 174.301 452.693 174.513C452.206 174.809 451.709 175.116 451.223 175.433C450.874 175.655 450.525 175.888 450.186 176.12C449.954 176.279 449.721 176.417 449.499 176.575C449.192 176.787 448.907 176.998 448.6 177.22C448.389 177.368 448.188 177.516 447.976 177.664C447.236 178.204 446.496 178.764 445.776 179.335C445.681 179.409 445.586 179.483 445.501 179.568C444.867 180.076 444.243 180.594 443.619 181.133C443.407 181.313 443.207 181.493 442.995 181.673C442.783 181.852 442.572 182.032 442.371 182.223C442.212 182.371 442.064 182.519 441.906 182.667C441.176 183.333 440.467 184.01 439.769 184.708C439.547 184.93 439.315 185.152 439.082 185.385C438.194 186.294 437.326 187.214 436.47 188.177C436.428 188.219 436.385 188.261 436.354 188.304C436.227 188.452 436.1 188.61 435.973 188.758C435.296 189.541 434.63 190.334 433.974 191.148C433.731 191.455 433.488 191.751 433.255 192.058C432.62 192.872 432.007 193.697 431.404 194.543C431.288 194.712 431.161 194.871 431.034 195.04C431.002 195.093 430.971 195.146 430.928 195.199C430.156 196.299 429.426 197.42 428.718 198.562C428.538 198.847 428.379 199.133 428.2 199.419C427.629 200.36 427.079 201.312 426.55 202.274C426.444 202.464 426.328 202.644 426.233 202.834C426.159 202.972 426.085 203.12 426.011 203.268C425.841 203.596 425.672 203.924 425.503 204.252C425.217 204.812 424.932 205.383 424.657 205.944C424.488 206.293 424.329 206.642 424.16 206.991C423.895 207.562 423.642 208.143 423.388 208.725C423.24 209.063 423.092 209.402 422.944 209.751C422.679 210.396 422.415 211.052 422.172 211.697C422.066 211.982 421.95 212.257 421.844 212.532C421.823 212.596 421.791 212.67 421.77 212.733C421.601 213.199 421.442 213.685 421.283 214.15C421.125 214.616 420.955 215.081 420.797 215.557C420.617 216.107 420.458 216.657 420.3 217.207C420.162 217.672 420.014 218.148 419.877 218.613C419.718 219.174 419.581 219.745 419.443 220.316C419.327 220.781 419.2 221.247 419.094 221.712C418.957 222.294 418.851 222.875 418.724 223.457C418.629 223.922 418.523 224.388 418.438 224.863C418.322 225.466 418.237 226.069 418.142 226.672C418.068 227.127 417.984 227.581 417.92 228.036C417.836 228.681 417.762 229.326 417.688 229.971C417.635 230.395 417.582 230.818 417.539 231.241C417.476 231.96 417.434 232.689 417.381 233.419C417.36 233.768 417.328 234.128 417.307 234.477C417.254 235.555 417.222 236.645 417.222 237.734L417 359.597C416.968 375.852 422.595 389.896 431.88 399.827C435.507 403.718 439.706 406.976 444.338 409.493L476.636 427.069C460.17 418.112 449.266 399.784 449.309 377.163L449.531 255.3C449.531 254.211 449.562 253.122 449.615 252.043L449.679 252.106Z" fill="url(#paint3_linear_11562_343433)"/>
<path d="M727.554 162.551L727.279 162.403C727.226 162.371 727.184 162.35 727.131 162.329L727.025 162.265C727.025 162.265 726.994 162.244 726.972 162.234C726.581 162.033 726.19 161.832 725.799 161.641C725.714 161.599 725.64 161.567 725.566 161.536C724.963 161.24 724.36 160.965 723.747 160.69C723.525 160.594 723.303 160.51 723.081 160.415C722.594 160.214 722.108 160.013 721.611 159.833C721.378 159.738 721.135 159.653 720.891 159.558C720.363 159.368 719.823 159.188 719.284 159.008C719.094 158.955 718.914 158.892 718.723 158.828C718.48 158.754 718.226 158.68 717.973 158.606C717.676 158.522 717.391 158.426 717.084 158.352C716.904 158.3 716.725 158.247 716.534 158.204C716.365 158.162 716.207 158.13 716.037 158.088C715.466 157.94 714.906 157.813 714.324 157.686C714.07 157.633 713.816 157.591 713.563 157.538C713.055 157.443 712.547 157.348 712.04 157.263C711.775 157.221 711.511 157.179 711.246 157.147C710.697 157.062 710.157 156.999 709.607 156.935C709.438 156.914 709.258 156.882 709.089 156.872C708.878 156.851 708.656 156.83 708.433 156.808C707.831 156.745 707.228 156.703 706.614 156.671H706.583C706.329 156.66 706.064 156.639 705.811 156.639H705.715C705.229 156.618 704.743 156.607 704.256 156.607H703.463C702.924 156.607 702.384 156.618 701.834 156.639L700.978 156.671C700.861 156.681 700.745 156.681 700.629 156.692C700.184 156.724 699.74 156.755 699.296 156.787C699.042 156.808 698.788 156.83 698.524 156.851C697.71 156.935 696.895 157.02 696.081 157.136L508.628 183.48C507.708 183.607 506.809 183.766 505.9 183.945C505.646 183.988 505.381 184.041 505.117 184.093L504.102 184.316C503.753 184.39 503.414 184.474 503.087 184.548C502.843 184.612 502.59 184.665 502.346 184.728C501.468 184.95 500.591 185.193 499.713 185.458C499.597 185.5 499.48 185.532 499.364 185.574C498.602 185.807 497.852 186.061 497.101 186.325C496.836 186.42 496.583 186.515 496.318 186.61C495.662 186.854 494.996 187.108 494.341 187.382C494.129 187.467 493.928 187.552 493.717 187.636C492.881 187.985 492.056 188.355 491.242 188.747C490.946 188.884 490.65 189.032 490.354 189.18C489.772 189.466 489.19 189.751 488.619 190.058C488.281 190.238 487.953 190.428 487.614 190.608C487.096 190.894 486.578 191.19 486.06 191.486C485.711 191.697 485.362 191.909 485.013 192.12C484.526 192.416 484.04 192.723 483.553 193.04C483.204 193.263 482.855 193.495 482.517 193.728C481.978 194.087 481.449 194.447 480.92 194.828C480.719 194.976 480.518 195.124 480.307 195.272C479.566 195.811 478.826 196.372 478.107 196.943C478.012 197.017 477.917 197.101 477.821 197.176C477.303 197.588 476.785 198.011 476.288 198.445C476.172 198.54 476.055 198.635 475.95 198.73C475.738 198.91 475.526 199.1 475.326 199.28C474.955 199.608 474.596 199.936 474.236 200.264C473.507 200.93 472.798 201.607 472.1 202.305C471.867 202.527 471.635 202.749 471.413 202.982C470.968 203.426 470.524 203.891 470.101 204.356C469.72 204.758 469.34 205.171 468.98 205.583C468.748 205.837 468.525 206.091 468.303 206.355C467.626 207.127 466.96 207.931 466.315 208.735C466.072 209.041 465.829 209.348 465.596 209.655C464.961 210.469 464.348 211.294 463.745 212.129C463.597 212.352 463.428 212.563 463.28 212.785C462.952 213.25 462.635 213.716 462.328 214.181C461.895 214.826 461.482 215.482 461.07 216.148C460.89 216.434 460.721 216.719 460.551 217.005C460.266 217.47 459.991 217.935 459.716 218.411C459.441 218.887 459.166 219.374 458.902 219.85C458.722 220.188 458.531 220.505 458.362 220.844C458.182 221.172 458.024 221.499 457.855 221.827C457.558 222.398 457.284 222.959 457.009 223.53C456.839 223.879 456.681 224.228 456.512 224.577C456.247 225.148 455.993 225.73 455.739 226.311L455.295 227.327C455.031 227.982 454.777 228.627 454.523 229.283C454.418 229.569 454.301 229.844 454.195 230.119C454.09 230.394 454.005 230.658 453.91 230.933C453.741 231.398 453.571 231.864 453.423 232.329C453.328 232.604 453.233 232.879 453.148 233.154C452.969 233.704 452.81 234.254 452.651 234.804C452.503 235.279 452.355 235.745 452.228 236.221C452.07 236.781 451.932 237.352 451.795 237.923C451.678 238.389 451.552 238.854 451.435 239.319C451.308 239.901 451.192 240.483 451.076 241.064C450.98 241.54 450.875 242.006 450.79 242.471C450.727 242.767 450.684 243.074 450.631 243.38C450.536 243.909 450.452 244.438 450.378 244.967C450.346 245.199 450.304 245.432 450.272 245.654C450.219 246.003 450.177 246.363 450.134 246.712C450.071 247.209 450.008 247.716 449.965 248.224C449.944 248.425 449.912 248.615 449.902 248.816C449.881 249.059 449.859 249.303 449.838 249.546C449.796 250.043 449.764 250.551 449.733 251.048C449.722 251.164 449.722 251.28 449.711 251.397C449.68 251.767 449.659 252.126 449.648 252.497C449.606 253.448 449.584 254.411 449.584 255.363L449.352 377.225C449.352 378.78 449.394 380.314 449.5 381.826C449.532 382.418 449.584 383 449.637 383.581C449.69 384.184 449.754 384.787 449.828 385.379C450.134 387.96 450.589 390.466 451.192 392.888C451.287 393.29 451.393 393.692 451.499 394.083C452.017 396.061 452.641 397.985 453.36 399.836C453.487 400.196 453.624 400.555 453.772 400.915C453.942 401.327 454.111 401.74 454.291 402.152C454.407 402.438 454.534 402.723 454.671 403.009C455.042 403.844 455.433 404.669 455.845 405.473C455.993 405.748 456.141 406.023 456.289 406.298C457.58 408.73 459.039 411.025 460.657 413.172C460.869 413.458 461.091 413.754 461.323 414.039C461.323 414.06 461.345 414.082 461.366 414.103C461.588 414.388 461.82 414.674 462.053 414.959C463.597 416.842 465.258 418.608 467.034 420.226C467.309 420.49 467.595 420.734 467.88 420.977C468.007 421.104 468.145 421.22 468.282 421.326C468.536 421.558 468.811 421.781 469.075 421.992C469.71 422.521 470.366 423.028 471.032 423.526C471.307 423.726 471.592 423.938 471.878 424.128C471.91 424.16 471.941 424.181 471.973 424.192C472.237 424.382 472.512 424.562 472.777 424.742C473.263 425.08 473.75 425.397 474.247 425.694C474.86 426.074 475.474 426.444 476.108 426.793C485.33 431.986 496.329 434.196 508.163 432.536L660.198 411.173C680.376 409.111 696.388 410.644 709.036 414.092C715.688 415.901 721.41 418.238 726.327 420.86L726.877 421.157C729.341 422.5 731.594 423.906 733.656 425.355C734.069 425.641 734.471 425.937 734.872 426.233C736.417 427.365 737.844 428.517 739.166 429.67C739.557 430.019 739.949 430.368 740.329 430.706C743.164 433.308 745.469 435.91 747.331 438.342C747.521 438.585 747.732 438.797 747.965 438.966C748.05 439.04 748.134 439.093 748.219 439.146C748.896 439.579 749.678 439.717 750.45 439.611C752.481 439.326 754.469 437.369 754.469 434.736L754.628 351.611L754.839 237.289L754.882 212.447C754.934 189.825 744.02 171.498 727.554 162.551ZM538.303 327.044C526.956 328.641 517.776 320.011 517.797 307.765C517.818 295.518 527.04 284.297 538.377 282.701C549.725 281.104 558.894 289.744 558.873 301.99C558.852 314.237 549.64 325.447 538.293 327.044H538.303ZM605.448 317.611C594.1 319.208 584.921 310.578 584.942 298.331C584.963 286.085 594.185 274.864 605.522 273.267C616.87 271.67 626.039 280.31 626.018 292.557C625.996 304.804 616.785 316.014 605.437 317.611H605.448ZM672.593 308.177C661.245 309.774 652.076 301.144 652.097 288.898C652.118 276.651 661.33 265.431 672.677 263.834C684.025 262.237 693.204 270.877 693.183 283.124C693.162 295.37 683.94 306.58 672.603 308.177H672.593Z" fill="url(#paint4_linear_11562_343433)" fill-opacity="0.7"/>
</g>
<path d="M422.114 74.6401C422.4 74.6296 422.685 74.6084 422.971 74.6084C423.521 74.5873 424.06 74.5767 424.599 74.5767C424.864 74.5767 425.128 74.5767 425.393 74.5767C426.069 74.5767 426.736 74.5978 427.402 74.6296C427.518 74.6296 427.635 74.6296 427.751 74.6401C428.533 74.6824 429.305 74.7459 430.077 74.8199C430.3 74.8411 430.522 74.8728 430.733 74.8939C431.283 74.9574 431.833 75.0209 432.372 75.1055C432.637 75.1478 432.901 75.1901 433.176 75.2324C433.684 75.317 434.191 75.4016 434.699 75.5073C434.953 75.5602 435.207 75.6025 435.46 75.6554C436.032 75.7717 436.603 75.9092 437.174 76.0467C437.343 76.089 437.512 76.1207 437.671 76.163C438.411 76.3534 439.141 76.5649 439.86 76.787C440.05 76.8399 440.23 76.9139 440.42 76.9668C440.96 77.1465 441.499 77.3263 442.028 77.5167C442.271 77.6013 442.514 77.6965 442.747 77.7811C443.234 77.9715 443.731 78.1618 444.207 78.3628C444.429 78.4579 444.651 78.5425 444.873 78.6483C445.486 78.9127 446.089 79.1876 446.681 79.4838C446.755 79.5261 446.84 79.5578 446.914 79.5895C447.485 79.8751 448.056 80.1606 448.617 80.4673C448.638 80.4779 448.659 80.4885 448.68 80.499L416.382 62.9329C415.8 62.6157 415.219 62.309 414.616 62.0234C414.605 62.0234 414.595 62.0128 414.584 62.0023C414.521 61.9705 414.447 61.9388 414.383 61.9071C413.78 61.6215 413.178 61.336 412.575 61.0716C412.353 60.9764 412.131 60.8813 411.909 60.7861C411.422 60.5851 410.936 60.3842 410.449 60.2044C410.206 60.1092 409.973 60.0246 409.73 59.94C409.201 59.7497 408.662 59.5699 408.123 59.3901C407.932 59.3266 407.752 59.2632 407.562 59.2103C406.843 58.9882 406.113 58.7767 405.373 58.5863C405.341 58.5863 405.309 58.5652 405.278 58.5652C405.14 58.5335 405.003 58.5017 404.865 58.47C404.305 58.3325 403.734 58.195 403.163 58.0787C402.909 58.0258 402.655 57.9729 402.401 57.9306C401.893 57.8355 401.396 57.7403 400.889 57.6557C400.624 57.6134 400.36 57.5711 400.085 57.5288C399.546 57.4548 398.996 57.3807 398.446 57.3173C398.224 57.2961 398.002 57.2644 397.78 57.2432C397.008 57.1692 396.236 57.1058 395.464 57.0635C395.347 57.0635 395.22 57.0635 395.104 57.0529C394.438 57.0212 393.771 57 393.105 57C392.841 57 392.576 57 392.312 57C391.773 57 391.223 57.0106 390.683 57.0317C390.398 57.0317 390.112 57.0529 389.827 57.0635C389.266 57.0952 388.706 57.1269 388.145 57.1798C387.891 57.2009 387.638 57.2221 387.384 57.2432C386.569 57.3173 385.755 57.4124 384.93 57.5288L197.477 83.8726C196.568 83.9995 195.658 84.1582 194.759 84.3274C194.495 84.3803 194.241 84.4332 193.977 84.486C193.289 84.6235 192.613 84.7716 191.936 84.9408C191.692 85.0042 191.449 85.0571 191.206 85.1206C190.318 85.3427 189.44 85.5859 188.573 85.8503C188.456 85.882 188.34 85.9243 188.224 85.9666C187.462 86.1993 186.711 86.4531 185.96 86.7175C185.707 86.8127 185.442 86.9079 185.188 87.003C184.522 87.2463 183.866 87.5107 183.211 87.775C182.999 87.8597 182.788 87.9443 182.587 88.0289C181.804 88.3567 181.032 88.6951 180.271 89.0547C180.218 89.0758 180.165 89.1076 180.112 89.1287C179.816 89.2662 179.53 89.4248 179.234 89.5623C178.653 89.8479 178.071 90.1334 177.5 90.4401C177.162 90.6199 176.823 90.8103 176.485 90.99C175.966 91.2756 175.448 91.5611 174.93 91.8678C174.581 92.0687 174.232 92.2908 173.883 92.5023C173.397 92.7985 172.9 93.1052 172.413 93.4224C172.064 93.6445 171.715 93.8772 171.377 94.1099C171.144 94.2685 170.911 94.406 170.689 94.5646C170.383 94.7761 170.086 94.9982 169.79 95.2097C169.589 95.3578 169.378 95.5058 169.177 95.6539C168.437 96.1933 167.696 96.7537 166.977 97.3248C166.882 97.3989 166.787 97.4835 166.692 97.5575C166.057 98.0651 165.433 98.5833 164.82 99.1121C164.608 99.2919 164.407 99.4717 164.196 99.6515C163.984 99.8313 163.773 100.011 163.572 100.191C163.413 100.328 163.265 100.487 163.107 100.635C162.377 101.301 161.668 101.978 160.97 102.676C160.748 102.898 160.515 103.12 160.293 103.342C159.405 104.252 158.527 105.183 157.681 106.134C157.639 106.177 157.597 106.219 157.554 106.261C157.427 106.409 157.301 106.568 157.174 106.716C156.497 107.499 155.83 108.292 155.185 109.106C154.942 109.413 154.699 109.709 154.466 110.016C153.832 110.83 153.218 111.655 152.626 112.501C152.51 112.67 152.372 112.829 152.256 112.998C152.224 113.051 152.192 113.104 152.15 113.157C151.378 114.256 150.648 115.377 149.94 116.52C149.76 116.805 149.601 117.08 149.432 117.366C148.861 118.307 148.311 119.259 147.782 120.221C147.677 120.411 147.56 120.591 147.465 120.782C147.391 120.93 147.317 121.067 147.243 121.215C147.074 121.543 146.905 121.871 146.735 122.199C146.45 122.759 146.164 123.33 145.889 123.891C145.72 124.24 145.562 124.589 145.392 124.938C145.128 125.509 144.874 126.091 144.62 126.672C144.472 127.011 144.324 127.349 144.187 127.698C143.922 128.343 143.669 128.999 143.415 129.644C143.309 129.929 143.193 130.204 143.087 130.49C143.066 130.553 143.034 130.627 143.013 130.691C142.844 131.156 142.685 131.632 142.526 132.108C142.368 132.573 142.199 133.049 142.04 133.515C141.86 134.054 141.712 134.614 141.543 135.154C141.405 135.63 141.257 136.095 141.12 136.571C140.961 137.131 140.834 137.692 140.686 138.263C140.57 138.739 140.443 139.204 140.327 139.68C140.189 140.262 140.083 140.844 139.956 141.425C139.861 141.891 139.756 142.356 139.671 142.821C139.555 143.424 139.47 144.027 139.375 144.63C139.301 145.084 139.216 145.539 139.153 145.994C139.068 146.628 139.005 147.263 138.931 147.897C138.878 148.331 138.825 148.765 138.783 149.209C138.719 149.928 138.677 150.647 138.624 151.366C138.603 151.726 138.561 152.085 138.55 152.445C138.497 153.524 138.465 154.613 138.465 155.702L138.423 180.544L138.212 294.867L138 378.034C138 379.662 138.751 380.815 139.808 381.386L172.106 398.963C171.049 398.392 170.287 397.239 170.298 395.61L170.457 312.486L170.668 198.163L170.71 173.321C170.71 172.232 170.742 171.143 170.795 170.064C170.816 169.704 170.848 169.345 170.869 168.985C170.911 168.266 170.954 167.547 171.028 166.828C171.07 166.394 171.133 165.961 171.176 165.516C171.25 164.882 171.313 164.247 171.398 163.613C171.461 163.158 171.546 162.703 171.62 162.249C171.715 161.646 171.81 161.032 171.916 160.43C172.001 159.964 172.106 159.499 172.202 159.034C172.318 158.452 172.434 157.86 172.572 157.278C172.677 156.802 172.804 156.337 172.931 155.861C173.069 155.3 173.206 154.729 173.365 154.169C173.492 153.693 173.65 153.228 173.788 152.752C173.957 152.202 174.105 151.652 174.285 151.102C174.433 150.626 174.602 150.161 174.771 149.695C174.962 149.156 175.142 148.606 175.343 148.067C175.448 147.781 175.565 147.506 175.67 147.231C175.924 146.576 176.178 145.93 176.442 145.275C176.58 144.936 176.738 144.598 176.876 144.249C177.13 143.667 177.384 143.086 177.648 142.514C177.807 142.165 177.976 141.816 178.145 141.467C178.42 140.896 178.706 140.336 178.991 139.765C179.16 139.437 179.33 139.109 179.499 138.781C179.679 138.443 179.858 138.126 180.049 137.787C180.577 136.825 181.127 135.873 181.698 134.932C181.868 134.646 182.037 134.361 182.217 134.086C182.925 132.944 183.666 131.823 184.427 130.723C184.586 130.501 184.744 130.289 184.903 130.067C185.506 129.232 186.119 128.396 186.743 127.592C186.986 127.286 187.219 126.979 187.462 126.683C188.107 125.868 188.774 125.075 189.45 124.293C189.62 124.102 189.778 123.901 189.947 123.711C190.793 122.759 191.661 121.829 192.56 120.919C192.782 120.686 193.014 120.475 193.236 120.253C193.934 119.555 194.654 118.878 195.373 118.212C195.732 117.884 196.092 117.545 196.462 117.228C196.674 117.048 196.874 116.869 197.086 116.689C197.699 116.16 198.323 115.642 198.958 115.134C199.053 115.06 199.148 114.976 199.243 114.902C199.963 114.33 200.703 113.77 201.443 113.231C201.644 113.083 201.856 112.934 202.057 112.786C202.585 112.416 203.114 112.046 203.643 111.687C203.992 111.454 204.33 111.221 204.679 110.999C205.166 110.682 205.652 110.386 206.139 110.079C206.488 109.868 206.837 109.656 207.186 109.445C207.704 109.138 208.222 108.852 208.74 108.567C209.079 108.376 209.407 108.197 209.745 108.017C210.316 107.71 210.898 107.425 211.479 107.139C211.776 106.991 212.061 106.843 212.357 106.705C213.172 106.314 214.007 105.955 214.832 105.595C215.043 105.51 215.255 105.426 215.456 105.341C216.112 105.077 216.767 104.812 217.433 104.569C217.687 104.474 217.952 104.379 218.206 104.284C218.956 104.019 219.707 103.765 220.469 103.533C220.585 103.501 220.701 103.459 220.818 103.416C221.685 103.152 222.573 102.909 223.451 102.687C223.694 102.623 223.937 102.57 224.181 102.507C224.858 102.348 225.534 102.19 226.222 102.052C226.486 101.999 226.74 101.946 227.004 101.894C227.903 101.724 228.813 101.566 229.722 101.439L417.175 75.0949C418 74.9786 418.814 74.8834 419.629 74.8093C419.883 74.7882 420.136 74.767 420.39 74.7459C420.951 74.7036 421.522 74.6613 422.082 74.6296L422.114 74.6401Z" fill="url(#paint5_linear_11562_343433)"/>
<path d="M417.201 75.1021L229.749 101.446C197.197 106.025 170.768 138.196 170.705 173.318L170.663 198.16L170.451 312.483L170.292 395.607C170.292 398.24 172.27 399.626 174.301 399.34C175.443 399.181 176.596 398.494 177.42 397.193C187.901 380.685 212.235 354.912 264.712 345.521L416.747 324.158C449.288 319.589 475.716 287.408 475.78 252.286L476.002 130.423C476.065 95.3015 449.743 70.5334 417.201 75.1127V75.1021ZM340.126 251.8L263.485 262.576C257.055 263.475 251.852 258.589 251.862 251.641C251.873 244.703 257.108 238.337 263.538 237.427L340.179 226.651C346.62 225.741 351.823 230.648 351.812 237.586C351.802 244.534 346.567 250.89 340.137 251.8H340.126ZM405.833 190.461L263.58 210.449C257.15 211.348 251.947 206.462 251.957 199.514C251.968 192.576 257.203 186.21 263.633 185.3L405.886 165.312C412.326 164.403 417.529 169.31 417.519 176.247C417.508 183.196 412.273 189.551 405.843 190.461H405.833Z" fill="url(#paint6_linear_11562_343433)"/>
<path d="M741.405 424.281L709.107 406.705C708.906 406.599 708.716 406.472 708.547 406.324C708.367 406.165 708.198 405.985 708.039 405.785C706.4 403.659 704.422 401.385 702.042 399.111C708.695 400.92 714.416 403.257 719.334 405.88L719.884 406.176C722.348 407.519 724.6 408.925 726.663 410.374C727.075 410.66 727.477 410.956 727.879 411.252C729.423 412.384 730.851 413.536 732.172 414.689C732.564 415.038 732.955 415.387 733.336 415.726C736.17 418.327 738.476 420.929 740.337 423.361C740.527 423.604 740.739 423.816 740.971 423.985C741.056 424.059 741.141 424.123 741.225 424.165C741.278 424.207 741.342 424.25 741.405 424.281Z" fill="url(#paint7_linear_11562_343433)"/>
<path d="M442.679 237.106C442.7 236.757 442.732 236.398 442.753 236.049C442.795 235.319 442.837 234.589 442.911 233.87C442.954 233.447 443.007 233.024 443.059 232.601C443.134 231.956 443.197 231.3 443.292 230.655C443.356 230.2 443.44 229.746 443.514 229.291C443.609 228.688 443.705 228.075 443.81 227.472C443.895 227.007 444.001 226.541 444.096 226.065C444.212 225.484 444.329 224.902 444.466 224.32C444.572 223.855 444.699 223.39 444.815 222.924C444.963 222.353 445.09 221.782 445.249 221.222C445.376 220.746 445.524 220.28 445.672 219.815C445.841 219.265 445.989 218.715 446.169 218.165C446.317 217.689 446.486 217.224 446.655 216.759C446.846 216.219 447.025 215.669 447.226 215.13C447.332 214.845 447.448 214.57 447.554 214.295C447.808 213.639 448.062 212.983 448.326 212.338C448.464 212 448.622 211.661 448.76 211.312C449.014 210.731 449.267 210.149 449.532 209.578C449.69 209.229 449.86 208.88 450.029 208.531C450.304 207.96 450.589 207.399 450.875 206.828C451.044 206.5 451.213 206.173 451.383 205.845C451.562 205.517 451.742 205.189 451.922 204.851C452.451 203.888 453.001 202.936 453.572 201.995C453.741 201.71 453.91 201.424 454.09 201.139C454.798 199.996 455.539 198.875 456.3 197.776C456.459 197.553 456.617 197.342 456.776 197.12C457.379 196.284 457.992 195.449 458.616 194.635C458.859 194.328 459.092 194.021 459.335 193.725C459.981 192.911 460.647 192.118 461.324 191.335C461.493 191.145 461.651 190.944 461.821 190.753C462.667 189.802 463.534 188.871 464.433 187.961C464.655 187.729 464.888 187.517 465.11 187.285C465.808 186.587 466.527 185.91 467.246 185.243C467.606 184.916 467.965 184.577 468.335 184.26C468.547 184.08 468.748 183.89 468.959 183.71C469.573 183.181 470.207 182.663 470.831 182.145C470.926 182.071 471.021 181.986 471.106 181.912C471.825 181.341 472.565 180.781 473.306 180.241C473.507 180.093 473.718 179.945 473.919 179.797C474.448 179.416 474.977 179.057 475.506 178.697C475.855 178.464 476.193 178.232 476.542 178.01C477.028 177.692 477.515 177.396 478.001 177.09C478.35 176.878 478.699 176.667 479.048 176.455C479.556 176.159 480.074 175.863 480.592 175.577C480.931 175.387 481.259 175.197 481.608 175.017C482.179 174.71 482.76 174.425 483.342 174.139C483.638 173.991 483.924 173.843 484.23 173.705C485.045 173.314 485.87 172.955 486.705 172.595C486.917 172.51 487.128 172.426 487.329 172.341C487.985 172.077 488.64 171.812 489.307 171.569C489.561 171.474 489.825 171.379 490.079 171.284C490.83 171.019 491.58 170.765 492.342 170.533C492.458 170.501 492.575 170.459 492.691 170.416C493.558 170.152 494.446 169.909 495.324 169.687C495.567 169.623 495.811 169.57 496.054 169.507C496.731 169.348 497.408 169.19 498.095 169.052C498.359 168.999 498.613 168.946 498.878 168.894C499.777 168.724 500.686 168.566 501.596 168.439L689.048 142.095C689.873 141.979 690.688 141.883 691.502 141.809C691.756 141.788 692.01 141.767 692.263 141.746C692.824 141.704 693.384 141.661 693.945 141.63C694.23 141.619 694.516 141.598 694.802 141.598C695.352 141.577 695.891 141.566 696.43 141.566C696.695 141.566 696.959 141.566 697.213 141.566C697.879 141.566 698.556 141.587 699.212 141.619C699.328 141.619 699.455 141.619 699.571 141.63C700.354 141.672 701.126 141.735 701.887 141.809C702.109 141.83 702.331 141.862 702.553 141.883C703.103 141.947 703.653 142.01 704.193 142.095C704.457 142.137 704.721 142.179 704.986 142.222C705.494 142.306 706.001 142.391 706.509 142.497C706.763 142.55 707.016 142.592 707.27 142.645C707.841 142.761 708.412 142.899 708.983 143.036C709.153 143.078 709.311 143.11 709.481 143.152C710.221 143.343 710.951 143.554 711.67 143.776C711.86 143.829 712.04 143.903 712.22 143.956C712.759 144.136 713.298 144.316 713.827 144.506C714.07 144.591 714.303 144.686 714.546 144.771C715.043 144.961 715.53 145.151 716.016 145.352C716.238 145.447 716.46 145.532 716.683 145.627C717.296 145.892 717.899 146.177 718.501 146.463C718.576 146.494 718.65 146.537 718.734 146.568C719.305 146.854 719.876 147.139 720.437 147.446C720.458 147.457 720.479 147.467 720.5 147.478L688.202 129.912C687.621 129.595 687.039 129.288 686.436 129.002C686.426 129.002 686.415 128.992 686.405 128.981C686.341 128.949 686.278 128.918 686.214 128.897C685.611 128.6 685.009 128.325 684.395 128.061C684.173 127.966 683.951 127.871 683.729 127.786C683.242 127.585 682.756 127.384 682.259 127.204C682.016 127.109 681.783 127.025 681.54 126.94C681.011 126.75 680.472 126.57 679.932 126.39C679.742 126.327 679.562 126.263 679.372 126.21C678.653 125.988 677.923 125.777 677.183 125.586C677.151 125.586 677.119 125.565 677.098 125.565C676.961 125.533 676.823 125.502 676.686 125.47C676.125 125.333 675.554 125.195 674.983 125.079C674.729 125.026 674.475 124.973 674.211 124.931C673.703 124.835 673.206 124.74 672.698 124.656C672.434 124.613 672.17 124.571 671.895 124.529C671.355 124.444 670.805 124.381 670.256 124.317C670.033 124.296 669.811 124.264 669.589 124.243C668.817 124.169 668.045 124.106 667.273 124.063C667.157 124.063 667.03 124.063 666.914 124.053C666.247 124.021 665.581 124 664.915 124C664.65 124 664.386 124 664.122 124C663.582 124 663.032 124.011 662.493 124.032C662.208 124.032 661.922 124.053 661.636 124.074C661.076 124.106 660.515 124.137 659.955 124.19C659.701 124.212 659.447 124.233 659.183 124.254C658.369 124.328 657.554 124.423 656.729 124.539L469.276 150.883C468.367 151.01 467.457 151.169 466.559 151.338C466.294 151.391 466.04 151.444 465.776 151.497C465.089 151.634 464.412 151.782 463.735 151.951C463.492 152.015 463.248 152.068 463.005 152.131C462.117 152.353 461.239 152.596 460.372 152.861C460.255 152.893 460.139 152.935 460.023 152.977C459.261 153.21 458.511 153.464 457.76 153.728C457.506 153.823 457.241 153.918 456.988 154.014C456.321 154.257 455.666 154.521 455.01 154.786C454.798 154.87 454.587 154.955 454.386 155.039C453.603 155.367 452.831 155.706 452.07 156.065C452.017 156.086 451.964 156.118 451.911 156.139C451.615 156.277 451.33 156.435 451.034 156.573C450.452 156.858 449.87 157.144 449.299 157.451C448.961 157.63 448.622 157.821 448.294 158.001C447.776 158.286 447.258 158.582 446.74 158.878C446.391 159.079 446.042 159.301 445.693 159.513C445.206 159.809 444.709 160.116 444.223 160.433C443.874 160.655 443.525 160.888 443.186 161.12C442.954 161.279 442.721 161.417 442.499 161.575C442.192 161.787 441.907 161.998 441.6 162.22C441.389 162.368 441.188 162.516 440.976 162.664C440.236 163.204 439.496 163.764 438.776 164.335C438.681 164.409 438.586 164.483 438.501 164.568C437.867 165.076 437.243 165.594 436.619 166.133C436.407 166.313 436.207 166.493 435.995 166.673C435.783 166.852 435.572 167.032 435.371 167.223C435.212 167.371 435.064 167.519 434.906 167.667C434.176 168.333 433.467 169.01 432.769 169.708C432.547 169.93 432.315 170.152 432.082 170.385C431.194 171.294 430.326 172.214 429.47 173.177C429.428 173.219 429.385 173.261 429.354 173.304C429.227 173.452 429.1 173.61 428.973 173.758C428.296 174.541 427.63 175.334 426.974 176.148C426.731 176.455 426.488 176.751 426.255 177.058C425.62 177.872 425.007 178.697 424.404 179.543C424.288 179.712 424.161 179.871 424.034 180.04C424.002 180.093 423.971 180.146 423.928 180.199C423.156 181.299 422.426 182.42 421.718 183.562C421.538 183.847 421.379 184.133 421.2 184.419C420.629 185.36 420.079 186.312 419.55 187.274C419.444 187.464 419.328 187.644 419.233 187.834C419.159 187.972 419.085 188.12 419.011 188.268C418.841 188.596 418.672 188.924 418.503 189.252C418.217 189.812 417.932 190.383 417.657 190.944C417.488 191.293 417.329 191.642 417.16 191.991C416.895 192.562 416.642 193.143 416.388 193.725C416.24 194.063 416.092 194.402 415.944 194.751C415.679 195.396 415.415 196.052 415.172 196.697C415.066 196.982 414.95 197.257 414.844 197.532C414.823 197.596 414.791 197.67 414.77 197.733C414.601 198.199 414.442 198.685 414.283 199.15C414.125 199.616 413.955 200.081 413.797 200.557C413.617 201.107 413.458 201.657 413.3 202.207C413.162 202.672 413.014 203.148 412.877 203.613C412.718 204.174 412.581 204.745 412.443 205.316C412.327 205.781 412.2 206.247 412.094 206.712C411.957 207.294 411.851 207.875 411.724 208.457C411.629 208.922 411.523 209.388 411.438 209.863C411.322 210.466 411.237 211.069 411.142 211.672C411.068 212.127 410.984 212.581 410.92 213.036C410.836 213.681 410.762 214.326 410.688 214.971C410.635 215.395 410.582 215.818 410.539 216.241C410.476 216.96 410.434 217.689 410.381 218.419C410.36 218.768 410.328 219.128 410.307 219.477C410.254 220.555 410.222 221.645 410.222 222.734L410 344.597C409.968 360.852 415.595 374.896 424.88 384.827C428.507 388.718 432.706 391.976 437.338 394.493L469.636 412.069C453.17 403.112 442.266 384.784 442.309 362.163L442.531 240.3C442.531 239.211 442.562 238.122 442.615 237.043L442.679 237.106Z" fill="url(#paint8_linear_11562_343433)"/>
<path d="M720.554 147.551L720.279 147.403C720.226 147.371 720.184 147.35 720.131 147.329L720.025 147.265C720.025 147.265 719.994 147.244 719.972 147.234C719.581 147.033 719.19 146.832 718.799 146.641C718.714 146.599 718.64 146.567 718.566 146.536C717.963 146.24 717.36 145.965 716.747 145.69C716.525 145.594 716.303 145.51 716.081 145.415C715.594 145.214 715.108 145.013 714.611 144.833C714.378 144.738 714.135 144.653 713.891 144.558C713.363 144.368 712.823 144.188 712.284 144.008C712.094 143.955 711.914 143.892 711.723 143.828C711.48 143.754 711.226 143.68 710.973 143.606C710.676 143.522 710.391 143.426 710.084 143.352C709.904 143.3 709.725 143.247 709.534 143.204C709.365 143.162 709.207 143.13 709.037 143.088C708.466 142.94 707.906 142.813 707.324 142.686C707.07 142.633 706.816 142.591 706.563 142.538C706.055 142.443 705.547 142.348 705.04 142.263C704.775 142.221 704.511 142.179 704.246 142.147C703.697 142.062 703.157 141.999 702.607 141.935C702.438 141.914 702.258 141.882 702.089 141.872C701.878 141.851 701.656 141.83 701.433 141.808C700.831 141.745 700.228 141.703 699.614 141.671H699.583C699.329 141.66 699.064 141.639 698.811 141.639H698.715C698.229 141.618 697.743 141.607 697.256 141.607H696.463C695.924 141.607 695.384 141.618 694.834 141.639L693.978 141.671C693.861 141.681 693.745 141.681 693.629 141.692C693.184 141.724 692.74 141.755 692.296 141.787C692.042 141.808 691.788 141.83 691.524 141.851C690.71 141.935 689.895 142.02 689.081 142.136L501.628 168.48C500.708 168.607 499.809 168.766 498.9 168.945C498.646 168.988 498.381 169.041 498.117 169.093L497.102 169.316C496.753 169.39 496.414 169.474 496.087 169.548C495.843 169.612 495.59 169.665 495.346 169.728C494.468 169.95 493.591 170.193 492.713 170.458C492.597 170.5 492.48 170.532 492.364 170.574C491.602 170.807 490.852 171.061 490.101 171.325C489.836 171.42 489.583 171.515 489.318 171.61C488.662 171.854 487.996 172.108 487.341 172.382C487.129 172.467 486.928 172.552 486.717 172.636C485.881 172.985 485.056 173.355 484.242 173.747C483.946 173.884 483.65 174.032 483.354 174.18C482.772 174.466 482.19 174.751 481.619 175.058C481.281 175.238 480.953 175.428 480.614 175.608C480.096 175.894 479.578 176.19 479.06 176.486C478.711 176.697 478.362 176.909 478.013 177.12C477.526 177.416 477.04 177.723 476.553 178.04C476.204 178.263 475.855 178.495 475.517 178.728C474.978 179.087 474.449 179.447 473.92 179.828C473.719 179.976 473.518 180.124 473.307 180.272C472.566 180.811 471.826 181.372 471.107 181.943C471.012 182.017 470.917 182.101 470.821 182.176C470.303 182.588 469.785 183.011 469.288 183.445C469.172 183.54 469.055 183.635 468.95 183.73C468.738 183.91 468.526 184.1 468.326 184.28C467.955 184.608 467.596 184.936 467.236 185.264C466.507 185.93 465.798 186.607 465.1 187.305C464.867 187.527 464.635 187.749 464.413 187.982C463.968 188.426 463.524 188.891 463.101 189.356C462.72 189.758 462.34 190.171 461.98 190.583C461.748 190.837 461.525 191.091 461.303 191.355C460.626 192.127 459.96 192.931 459.315 193.735C459.072 194.041 458.829 194.348 458.596 194.655C457.961 195.469 457.348 196.294 456.745 197.129C456.597 197.352 456.428 197.563 456.28 197.785C455.952 198.25 455.635 198.716 455.328 199.181C454.895 199.826 454.482 200.482 454.07 201.148C453.89 201.434 453.721 201.719 453.551 202.005C453.266 202.47 452.991 202.935 452.716 203.411C452.441 203.887 452.166 204.374 451.902 204.85C451.722 205.188 451.531 205.505 451.362 205.844C451.182 206.172 451.024 206.499 450.855 206.827C450.558 207.398 450.284 207.959 450.009 208.53C449.839 208.879 449.681 209.228 449.512 209.577C449.247 210.148 448.993 210.73 448.739 211.311L448.295 212.327C448.031 212.982 447.777 213.627 447.523 214.283C447.418 214.569 447.301 214.844 447.195 215.119C447.09 215.394 447.005 215.658 446.91 215.933C446.741 216.398 446.571 216.864 446.423 217.329C446.328 217.604 446.233 217.879 446.148 218.154C445.969 218.704 445.81 219.254 445.651 219.804C445.503 220.279 445.355 220.745 445.228 221.221C445.07 221.781 444.932 222.352 444.795 222.923C444.678 223.389 444.552 223.854 444.435 224.319C444.308 224.901 444.192 225.483 444.076 226.064C443.98 226.54 443.875 227.006 443.79 227.471C443.727 227.767 443.684 228.074 443.631 228.38C443.536 228.909 443.452 229.438 443.378 229.967C443.346 230.199 443.304 230.432 443.272 230.654C443.219 231.003 443.177 231.363 443.134 231.712C443.071 232.209 443.008 232.716 442.965 233.224C442.944 233.425 442.912 233.615 442.902 233.816C442.881 234.059 442.859 234.303 442.838 234.546C442.796 235.043 442.764 235.551 442.733 236.048C442.722 236.164 442.722 236.28 442.711 236.397C442.68 236.767 442.659 237.126 442.648 237.497C442.606 238.448 442.584 239.411 442.584 240.363L442.352 362.225C442.352 363.78 442.394 365.314 442.5 366.826C442.532 367.418 442.584 368 442.637 368.581C442.69 369.184 442.754 369.787 442.828 370.379C443.134 372.96 443.589 375.466 444.192 377.888C444.287 378.29 444.393 378.692 444.499 379.083C445.017 381.061 445.641 382.985 446.36 384.836C446.487 385.196 446.624 385.555 446.772 385.915C446.942 386.327 447.111 386.74 447.291 387.152C447.407 387.438 447.534 387.723 447.671 388.009C448.042 388.844 448.433 389.669 448.845 390.473C448.993 390.748 449.141 391.023 449.289 391.298C450.58 393.73 452.039 396.025 453.657 398.172C453.869 398.458 454.091 398.754 454.323 399.039C454.323 399.06 454.345 399.082 454.366 399.103C454.588 399.388 454.82 399.674 455.053 399.959C456.597 401.842 458.258 403.608 460.034 405.226C460.309 405.49 460.595 405.734 460.88 405.977C461.007 406.104 461.145 406.22 461.282 406.326C461.536 406.558 461.811 406.781 462.075 406.992C462.71 407.521 463.366 408.028 464.032 408.526C464.307 408.726 464.592 408.938 464.878 409.128C464.91 409.16 464.941 409.181 464.973 409.192C465.237 409.382 465.512 409.562 465.777 409.742C466.263 410.08 466.75 410.397 467.247 410.694C467.86 411.074 468.474 411.444 469.108 411.793C478.33 416.986 489.329 419.196 501.163 417.536L653.198 396.173C673.376 394.111 689.388 395.644 702.036 399.092C708.688 400.901 714.41 403.238 719.327 405.86L719.877 406.157C722.341 407.5 724.594 408.906 726.656 410.355C727.069 410.641 727.471 410.937 727.872 411.233C729.417 412.365 730.844 413.517 732.166 414.67C732.557 415.019 732.949 415.368 733.329 415.706C736.164 418.308 738.469 420.91 740.331 423.342C740.521 423.585 740.732 423.797 740.965 423.966C741.05 424.04 741.134 424.093 741.219 424.146C741.896 424.579 742.678 424.717 743.45 424.611C745.481 424.326 747.469 422.369 747.469 419.736L747.628 336.611L747.839 222.289L747.882 197.447C747.934 174.825 737.02 156.498 720.554 147.551ZM531.303 312.044C519.956 313.641 510.776 305.011 510.797 292.765C510.818 280.518 520.04 269.297 531.377 267.701C542.725 266.104 551.894 274.744 551.873 286.99C551.852 299.237 542.64 310.447 531.293 312.044H531.303ZM598.448 302.611C587.1 304.208 577.921 295.578 577.942 283.331C577.963 271.085 587.185 259.864 598.522 258.267C609.87 256.67 619.039 265.31 619.018 277.557C618.996 289.804 609.785 301.014 598.437 302.611H598.448ZM665.593 293.177C654.245 294.774 645.076 286.144 645.097 273.898C645.118 261.651 654.33 250.431 665.677 248.834C677.025 247.237 686.204 255.877 686.183 268.124C686.162 280.37 676.94 291.58 665.603 293.177H665.593Z" fill="url(#paint9_linear_11562_343433)" fill-opacity="0.7"/>
<defs>
<filter id="filter0_f_11562_343433" x="0" y="0" width="848.882" height="533.645" filterUnits="userSpaceOnUse" color-interpolation-filters="sRGB">
<feFlood flood-opacity="0" result="BackgroundImageFix"/>
<feBlend mode="normal" in="SourceGraphic" in2="BackgroundImageFix" result="shape"/>
<feGaussianBlur stdDeviation="47" result="effect1_foregroundBlur_11562_343433"/>
</filter>
<linearGradient id="paint0_linear_11562_343433" x1="363.5" y1="88" x2="-48.6418" y2="268.053" gradientUnits="userSpaceOnUse">
<stop stop-color="#7F88DA" stop-opacity="0"/>
<stop offset="0.413416" stop-color="#343CFF" stop-opacity="0.481615"/>
<stop offset="1" stop-color="#758AF7" stop-opacity="0.78"/>
</linearGradient>
<linearGradient id="paint1_linear_11562_343433" x1="376.5" y1="290" x2="109.703" y2="303.959" gradientUnits="userSpaceOnUse">
<stop stop-color="#5C76FF" stop-opacity="0"/>
<stop offset="1" stop-color="#6371ED" stop-opacity="0.64"/>
</linearGradient>
<linearGradient id="paint2_linear_11562_343433" x1="771.122" y1="439.051" x2="723.921" y2="343.176" gradientUnits="userSpaceOnUse">
<stop stop-color="#FD9A9A" stop-opacity="0.3"/>
<stop offset="0.791679" stop-color="#FF9898"/>
</linearGradient>
<linearGradient id="paint3_linear_11562_343433" x1="360.491" y1="249.94" x2="823.23" y2="373.469" gradientUnits="userSpaceOnUse">
<stop stop-color="#FFB5B5" stop-opacity="0.3"/>
<stop offset="1" stop-color="#FF6069"/>
</linearGradient>
<linearGradient id="paint4_linear_11562_343433" x1="458.441" y1="387.379" x2="802.635" y2="248.706" gradientUnits="userSpaceOnUse">
<stop stop-color="#FF8989" stop-opacity="0.3"/>
<stop offset="0.885954" stop-color="#FD5A5A"/>
</linearGradient>
<linearGradient id="paint5_linear_11562_343433" x1="521.5" y1="40" x2="3.73833" y2="195.298" gradientUnits="userSpaceOnUse">
<stop stop-color="#7F88DA" stop-opacity="0"/>
<stop offset="0.380166" stop-color="#343CFF" stop-opacity="0.481615"/>
<stop offset="1" stop-color="#758AF7" stop-opacity="0.68"/>
</linearGradient>
<linearGradient id="paint6_linear_11562_343433" x1="430" y1="270.5" x2="180.332" y2="89.7903" gradientUnits="userSpaceOnUse">
<stop stop-color="#5C76FF" stop-opacity="0"/>
<stop offset="1" stop-color="#6371ED" stop-opacity="0.64"/>
</linearGradient>
<linearGradient id="paint7_linear_11562_343433" x1="764.122" y1="424.051" x2="716.921" y2="328.176" gradientUnits="userSpaceOnUse">
<stop stop-color="#FD9A9A" stop-opacity="0.3"/>
<stop offset="0.791679" stop-color="#FF9898"/>
</linearGradient>
<linearGradient id="paint8_linear_11562_343433" x1="353.491" y1="234.94" x2="816.23" y2="358.469" gradientUnits="userSpaceOnUse">
<stop stop-color="#FFB5B5" stop-opacity="0.3"/>
<stop offset="1" stop-color="#FF6069"/>
</linearGradient>
<linearGradient id="paint9_linear_11562_343433" x1="451.441" y1="372.379" x2="795.635" y2="233.706" gradientUnits="userSpaceOnUse">
<stop stop-color="#FF8989" stop-opacity="0.3"/>
<stop offset="0.885954" stop-color="#FD5A5A"/>
</linearGradient>
</defs>
</svg>
