<svg width="471" height="145" viewBox="0 0 471 145" fill="none" xmlns="http://www.w3.org/2000/svg">
<path d="M116.431 6.14453C135.668 -0.556557 154.899 -1.38384 170.435 2.68457C185.73 6.6898 197.422 15.4313 202.054 27.9619L202.269 28.5615C206.746 41.4132 203.05 55.7751 193.403 68.6172C183.907 81.2574 168.66 92.4045 149.837 99.1416L148.937 99.459C129.701 106.16 110.471 106.987 94.9342 102.919C79.639 98.9137 67.9471 90.1722 63.3151 77.6416L63.0992 77.042C58.6224 64.1903 62.3193 49.8285 71.9664 36.9863C81.462 24.3461 96.7096 13.199 115.533 6.46191L116.431 6.14453Z" stroke="black" stroke-width="0.430117"/>
<path d="M142.21 47.207L132.766 32.3814L123.322 47.207L132.766 52.7287L142.21 47.207ZM132.766 36.2201L139.322 46.5035L132.766 50.3309L126.21 46.5035L132.766 36.2201Z" fill="black"/>
<path d="M144.013 50.055L143.715 49.5822L132.754 55.9875L121.799 49.5822L121.502 50.055C118.125 55.3515 118.878 62.2859 123.311 66.7324C128.53 71.9614 136.985 71.9614 142.204 66.7324C146.637 62.2859 147.389 55.3515 144.013 50.055Z" fill="black"/>
<path d="M246.757 70.3599H222.903V22.9337H212.443V80.148H246.757V70.3599Z" fill="black"/>
<path d="M264.522 24.6506H254.061V80.1482H264.522V24.6506Z" fill="black"/>
<path d="M311.067 29.6263C307.965 27.0596 304.185 25.5005 299.718 24.9658C298.46 24.8082 297.156 24.7238 295.797 24.6956C294.437 24.6675 293.538 24.6562 293.106 24.6562H275.179V80.1539H293.106C293.538 80.1539 294.437 80.1426 295.797 80.1145C297.156 80.0863 298.465 79.9963 299.718 79.8443C304.179 79.304 307.96 77.7505 311.067 75.1839C314.168 72.6172 316.527 69.3527 318.145 65.3958C319.758 61.4389 320.567 57.1106 320.567 52.4107C320.567 47.7108 319.758 43.3825 318.145 39.4256C316.533 35.4687 314.173 32.2042 311.067 29.6375V29.6263ZM308.398 60.1106C307.668 62.604 306.538 64.7316 305.016 66.5046C303.488 68.2776 301.522 69.409 299.111 69.8986C298.162 70.0788 297.1 70.1857 295.92 70.2251C294.741 70.2645 293.808 70.2814 293.111 70.2814H285.802V34.5175H293.111C293.802 34.5175 294.741 34.5288 295.92 34.5569C297.1 34.5794 298.162 34.6976 299.111 34.9002C301.443 35.3618 303.381 36.4537 304.92 38.1761C306.46 39.8984 307.606 42.0035 308.364 44.4969C309.123 46.9904 309.499 49.6246 309.499 52.3994C309.499 55.1743 309.134 57.6171 308.404 60.1049L308.398 60.1106Z" fill="black"/>
<path d="M467.416 37.27C465.247 32.9304 462.163 29.5532 458.152 27.1386C454.264 24.7971 449.64 23.6207 444.32 23.5476H354.949C354.78 23.5476 354.628 23.5194 354.46 23.5194C348.926 23.5194 344.151 24.7239 340.14 27.1386C336.128 29.5532 333.038 32.9304 330.875 37.27C328.707 41.6096 327.623 46.6528 327.623 52.4052C327.623 58.1576 328.707 63.2008 330.875 67.5404C333.038 71.88 336.128 75.2572 340.14 77.6718C344.151 80.0865 348.926 81.291 354.46 81.291C354.628 81.291 354.78 81.2628 354.949 81.2628V81.3022H444.32V81.2628C449.646 81.1897 454.264 80.0077 458.152 77.6718C462.163 75.2572 465.247 71.88 467.416 67.5404C469.579 63.2008 470.663 58.1576 470.663 52.4052C470.663 46.6528 469.579 41.6096 467.416 37.27ZM457.843 62.4972C456.68 65.3734 454.927 67.5911 452.595 69.1614C450.376 70.653 447.607 71.3847 444.32 71.4129V71.4354H354.949V71.4129C354.78 71.4129 354.628 71.4354 354.46 71.4354C350.949 71.3847 348.027 70.5742 345.696 69.0095C343.364 67.4447 341.617 65.2496 340.449 62.424C339.28 59.5985 338.701 56.2608 338.701 52.4108C338.701 48.5609 339.28 45.195 340.449 42.3188C341.612 39.4426 343.364 37.225 345.696 35.6546C348.027 34.0899 350.949 33.33 354.46 33.3807C354.628 33.3807 354.78 33.4088 354.949 33.4144H444.32C447.607 33.5326 450.376 34.315 452.595 35.8066C454.927 37.3713 456.674 39.5664 457.843 42.392C459.011 45.2175 459.595 48.5553 459.595 52.4052C459.595 56.2551 459.011 59.621 457.843 62.4972Z" fill="black"/>
<path d="M18.8179 99.3473C21.1662 97.7825 24.0932 97.0002 27.6101 97.0002C31.4584 97.0002 34.5989 97.9289 37.0315 99.7919C39.4697 101.655 41.2 104.267 42.2225 107.633L52.7619 104.706C50.9922 99.3079 47.9473 95.0302 43.627 91.8726C39.3068 88.7149 33.964 87.1333 27.6045 87.1333C22.0651 87.1333 17.2898 88.3434 13.2729 90.7581C9.26165 93.1728 6.17175 96.5499 4.00319 100.895C1.83464 105.235 0.750366 110.284 0.750366 116.042C0.750366 121.8 1.83464 126.843 4.00319 131.188C6.16613 135.528 9.26165 138.91 13.2729 141.325C17.2842 143.74 22.0651 144.95 27.6045 144.95C33.964 144.95 39.3012 143.368 43.627 140.211C47.9473 137.053 50.9922 132.775 52.7619 127.378L42.2225 124.451C41.1944 127.788 39.4641 130.4 37.0315 132.274C34.5989 134.149 31.4528 135.089 27.6101 135.089C24.0988 135.089 21.1662 134.306 18.8179 132.736C16.4752 131.171 14.7111 128.959 13.5313 126.105C12.3516 123.257 11.7617 119.903 11.7617 116.047C11.7617 112.192 12.3516 108.843 13.5313 105.989C14.7111 103.141 16.4752 100.929 18.8179 99.3585V99.3473Z" fill="black"/>
<path d="M247.055 125.284L222.976 88.2872H212.358V143.779H222.976V106.783L247.055 143.779H257.673V88.2872H247.055V125.284Z" fill="black"/>
<path d="M303.139 125.284L279.061 88.2872H268.443V143.779H279.061V106.783L303.139 143.779H313.758V88.2872H303.139V125.284Z" fill="black"/>
<path d="M324.527 143.779H360.685V133.991H334.988V119.734H356.067V109.946H334.988V98.0753H360.685V88.2872H324.527V143.779Z" fill="black"/>
<path d="M382.977 99.3473C385.325 97.7825 388.252 97.0002 391.769 97.0002C395.617 97.0002 398.758 97.9289 401.19 99.7919C403.629 101.655 405.359 104.267 406.381 107.633L416.921 104.706C415.151 99.3079 412.106 95.0302 407.786 91.8726C403.466 88.7149 398.123 87.1333 391.763 87.1333C386.224 87.1333 381.449 88.3434 377.432 90.7581C373.42 93.1728 370.331 96.5499 368.162 100.895C365.993 105.235 364.909 110.284 364.909 116.042C364.909 121.8 365.993 126.843 368.162 131.188C370.325 135.528 373.42 138.91 377.432 141.325C381.443 143.74 386.224 144.95 391.763 144.95C398.123 144.95 403.46 143.368 407.786 140.211C412.106 137.053 415.151 132.775 416.921 127.378L406.381 124.451C405.353 127.788 403.623 130.4 401.19 132.274C398.752 134.149 395.612 135.089 391.769 135.089C388.258 135.089 385.325 134.306 382.977 132.736C380.634 131.171 378.87 128.959 377.69 126.105C376.51 123.257 375.92 119.903 375.92 116.047C375.92 112.192 376.51 108.843 377.69 105.989C378.87 103.141 380.634 100.929 382.977 99.3585V99.3473Z" fill="black"/>
<path d="M420.77 98.0753H438.23V143.779H448.697V98.0753H466.157V88.2872H420.77V98.0753Z" fill="black"/>
<path d="M188.352 90.786C184.464 88.4445 179.841 87.2681 174.52 87.195H85.4356C85.2671 87.195 85.1154 87.1668 84.9469 87.1668C79.4131 87.1668 74.6378 88.3713 70.6322 90.786C66.6209 93.2006 63.531 96.5778 61.3681 100.917C59.1995 105.257 58.1152 110.3 58.1152 116.053C58.1152 121.805 59.1995 126.848 61.3681 131.188C63.531 135.527 66.6209 138.905 70.6322 141.319C74.6434 143.734 79.4187 144.938 84.9469 144.938C85.1154 144.938 85.2671 144.91 85.4356 144.91V144.95H174.52V144.91C179.846 144.837 184.464 143.655 188.352 141.319C192.363 138.905 195.447 135.527 197.616 131.188C199.779 126.848 200.863 121.805 200.863 116.053C200.863 110.3 199.779 105.257 197.616 100.917C195.447 96.5778 192.363 93.2006 188.352 90.786ZM188.043 126.139C186.88 129.015 185.127 131.233 182.796 132.803C180.577 134.295 177.807 135.026 174.52 135.055V135.077H85.4356V135.055C85.2671 135.055 85.1154 135.077 84.9469 135.077C81.4356 135.026 78.5142 134.216 76.1828 132.651C73.8513 131.086 72.1041 128.891 70.9355 126.066C69.767 123.24 69.1883 119.903 69.1883 116.053C69.1883 112.203 69.767 108.837 70.9355 105.961C72.0985 103.084 73.8513 100.867 76.1828 99.2964C78.5142 97.7316 81.4356 96.9718 84.9469 97.0224C85.1154 97.0224 85.2671 97.0506 85.4356 97.0562H174.52C177.807 97.1744 180.577 97.9568 182.796 99.4483C185.127 101.013 186.874 103.208 188.043 106.034C189.212 108.859 189.796 112.197 189.796 116.047C189.796 119.897 189.212 123.263 188.043 126.139Z" fill="black"/>
</svg>
