<svg xmlns="http://www.w3.org/2000/svg" xmlns:xlink="http://www.w3.org/1999/xlink" width="152" height="130" viewBox="0 0 152 130" fill="none">
	<path d="M144.749 26.1395C127.779 -2.63421 83.2399 -8.56145 45.2675 12.9006C7.29512 34.3627 -9.73103 75.0868 7.23853 103.861C24.2081 132.634 68.7474 138.561 106.72 117.099C144.692 95.6373 161.718 54.9132 144.749 26.1395Z" fill="#F0F0EE"/>
	<path d="M144.749 26.1395C127.779 -2.63421 83.2399 -8.56145 45.2675 12.9006C7.29512 34.3627 -9.73103 75.0868 7.23853 103.861C24.2081 132.634 68.7474 138.561 106.72 117.099C144.692 95.6373 161.718 54.9132 144.749 26.1395Z" fill="url(#pattern0_2160_8882)"/>
	<path d="M45.4272 13.1836C64.3567 2.48462 84.9141 -1.38183 102.841 1.00391C120.489 3.35241 135.568 11.7544 144.069 25.6396L144.468 26.3047C152.891 40.5855 152.889 57.8496 146.038 74.2363C139.293 90.3679 125.915 105.633 107.443 116.312L106.56 116.816C87.6306 127.515 67.0732 131.382 49.146 128.996C31.4987 126.648 16.4197 118.246 7.91846 104.36L7.51807 103.695C-0.904063 89.4145 -0.901286 72.1503 5.94971 55.7637C12.6941 39.6323 26.0713 24.3668 44.5435 13.6885L45.4272 13.1836Z" stroke="black" stroke-opacity="0.1" stroke-width="0.65"/>
</svg>
