<svg width="56" height="56" viewBox="0 0 56 56" fill="none" xmlns="http://www.w3.org/2000/svg">
	<g id="aragon" clip-path="url(#clip0_2160_1641)">
		<g id="Group" opacity="0.4" filter="url(#filter0_f_2160_1641)">
			<path id="Vector" d="M27.2851 37.8C27.2851 37.8 36.1881 37.8 38.3964 37.212C39.6398 36.8788 40.575 35.9184 40.9032 34.7326C41.51 32.557 41.51 27.9804 41.51 27.9804C41.51 27.9804 41.51 23.4332 40.9032 21.2772C40.575 20.062 39.6398 19.1212 38.3964 18.7978C36.1881 18.2 27.2851 18.2 27.2851 18.2C27.2851 18.2 18.4019 18.2 16.2035 18.7978C14.98 19.1212 14.025 20.062 13.6769 21.2772C13.09 23.4332 13.09 27.9804 13.09 27.9804C13.09 27.9804 13.09 32.557 13.6769 34.7326C14.025 35.9184 14.98 36.8788 16.2035 37.212C18.4019 37.8 27.2851 37.8 27.2851 37.8Z" fill="#FF0033"/>
			<path id="Vector_2" d="M31.7102 28L24.3602 23.835V32.165L31.7102 28Z" fill="white"/>
		</g>
		<g id="Group_2">
			<path id="Vector_3" d="M27.2808 40.5999C27.2808 40.5999 38.7275 40.5999 41.5668 39.8439C43.1655 39.4155 44.3677 38.1807 44.7897 36.6561C45.5699 33.8589 45.5699 27.9747 45.5699 27.9747C45.5699 27.9747 45.5699 22.1283 44.7897 19.3563C44.3677 17.7939 43.1655 16.5843 41.5668 16.1685C38.7275 15.3999 27.2808 15.3999 27.2808 15.3999C27.2808 15.3999 15.8596 15.3999 13.0331 16.1685C11.4599 16.5843 10.2321 17.7939 9.7845 19.3563C9.02991 22.1283 9.02991 27.9747 9.02991 27.9747C9.02991 27.9747 9.02991 33.8589 9.7845 36.6561C10.2321 38.1807 11.4599 39.4155 13.0331 39.8439C15.8596 40.5999 27.2808 40.5999 27.2808 40.5999Z" fill="#FF0033"/>
			<path id="Vector_4" d="M32.97 28L23.52 22.645V33.355L32.97 28Z" fill="white"/>
		</g>
	</g>
	<defs>
		<filter id="filter0_f_2160_1641" x="-2.15448" y="2.95551" width="58.9089" height="50.089" filterUnits="userSpaceOnUse" color-interpolation-filters="sRGB">
			<feFlood flood-opacity="0" result="BackgroundImageFix"/>
			<feBlend mode="normal" in="SourceGraphic" in2="BackgroundImageFix" result="shape"/>
			<feGaussianBlur stdDeviation="7.62222" result="effect1_foregroundBlur_2160_1641"/>
		</filter>
		<clipPath id="clip0_2160_1641">
			<rect width="56" height="56" fill="white"/>
		</clipPath>
	</defs>
</svg>
