<svg xmlns="http://www.w3.org/2000/svg" fill="none" viewBox="0 0 560 728" opt="1"><g filter="url(#a)" opacity=".4"><path fill="url(#b)" d="m279.873 633.946 37.174-21.685v-35.625l-37.174 21.685z"/><path fill="url(#c)" d="m205.523 633.947 37.174-21.685v-35.624l-37.174 21.684z"/><path fill="#2FA9FF" d="M94.001 383.335v35.624l37.174 21.685v-35.625zM94.001 347.648v35.625l37.174 21.685v-35.625z"/><path fill="#23CFCF" d="m205.523 598.261 37.174-21.685v-35.625l-37.174 21.685z"/><path fill="url(#d)" d="m428.567 483.764 37.173-21.684v-35.625l-37.173 21.685z"/><path fill="#2F83FF" d="m428.567 448.078 37.173-21.685v-35.625l-37.173 21.685z"/><path fill="url(#e)" fill-rule="evenodd" d="m428.567 519.327-37.174 21.684v-35.624l37.174-21.685zm0 35.687-37.174 21.685v-35.625l37.174-21.685z" clip-rule="evenodd"/><path fill="url(#f)" fill-rule="evenodd" d="m391.394 576.574-37.174 21.685v-35.625l37.174-21.685zm0 35.687-37.174 21.684v-35.624l37.174-21.685z" clip-rule="evenodd"/><path fill="url(#g)" fill-rule="evenodd" d="M94 426.456v35.625l37.174 21.685v-35.625zm37.358 128.146v-35.625l37.173 21.685v.397l36.988 21.576v35.625l-37.173-21.685v-.397zm36.988 22.036v35.624l37.173 21.685v-35.625zm74.346 0v35.624l37.174 21.685v-35.625zM131.358 483.29v35.625l37.173 21.684v-35.624zm185.683 57.661v35.624l37.173 21.685v-35.625zm0 35.686v35.625l37.173 21.685v-35.625z" clip-rule="evenodd"/><path fill="#2F83FF" d="m428.567 440.643 37.173-21.685v-35.625l-37.173 21.685zM428.567 404.956l37.173-21.685v-35.624l-37.173 21.684z"/><path fill="url(#h)" fill-rule="evenodd" d="M242.696 469.515 205.523 491.2v-35.625l37.173-21.684zm-37.173 57.372 37.173-21.685v-35.625l-37.173 21.685zm0 35.686 37.173-21.684v-35.625l-37.173 21.685z" clip-rule="evenodd"/><path fill="url(#i)" fill-rule="evenodd" d="M94 426.394v-35.625l37.174 21.685v35.625zm37.174 57.247v-35.624l37.172 21.683v-.062l-37.172-21.684V412.33l37.172 21.683v-.122l37.173 21.684V491.2l-37.171-21.683v.062l37.171 21.683v35.625l-37.171-21.684v.062l37.171 21.684v35.624l-37.173-21.684v-35.564z" clip-rule="evenodd"/><path fill="url(#j)" fill-rule="evenodd" d="m317.047 469.514-37.174 21.685v-35.625l37.174-21.684zm-37.174 57.372 37.174-21.685v-35.625l-37.174 21.685zm37.174 14.002-37.174 21.684v-35.625l37.174-21.684zm0 35.686-37.174 21.685v-35.625l37.174-21.685z" clip-rule="evenodd"/><path fill="url(#k)" fill-rule="evenodd" d="M242.695 469.516v-35.625l37.174 21.684V491.2zm0 .062v35.624l37.174 21.685v-35.625zm0 71.311v-35.625l37.174 21.685v35.625zm0 35.686v-35.624l37.174 21.684v35.625z" clip-rule="evenodd"/><g filter="url(#l)"><path fill="url(#m)" fill-rule="evenodd" d="M131.174 325.964 94 347.648l36.961 21.561L94 390.77l37.174 21.684.106-.062 37.068 21.623.106-.062 37.068 21.623 37.066-21.622.105.061.107-.062 37.067 21.623 37.069-21.624.107.063.106-.062 37.067 21.623 37.174-21.685-36.961-21.561 36.446-21.26.152.089-36.265 21.155 37.173 21.685 37.174-21.685-.726-.423 36.266-21.155-36.494-21.288.304-.177.106.062 37.174-21.685-37.174-21.684-37.067 21.622-.107-.062-37.068 21.623-.107-.062-37.067 21.623-.106-.062-.107.062-37.069-21.623-37.067 21.623-.107-.062-.105.061-37.066-21.622-.107.062-37.067-21.623-.107.062z" clip-rule="evenodd"/></g><path fill="url(#n)" fill-rule="evenodd" d="m131.175 326.088 37.174-21.685 37.067 21.623.106-.062 37.068 21.622.106-.062.106.062 37.068-21.622 37.067 21.622.107-.062.105.062 37.066-21.622.107.062 37.067-21.623 37.174 21.685-37.174 21.684-.106-.062-37.068 21.623-.105-.061-37.066 21.622-37.068-21.623-.106.062-.107-.062-37.067 21.623-37.068-21.623-.106.062-37.067-21.622-.106.061z" clip-rule="evenodd"/><path fill="url(#o)" fill-rule="evenodd" d="m428.568 447.953-37.173 21.685v-35.625l37.173-21.685zm-37.173 57.371 37.173-21.684v-35.625L391.395 469.7zm-37.174 21.561 37.173-21.684v-35.625l-37.173 21.685zm0-35.686 37.173-21.685V433.89l-37.173 21.684zm37.173 49.689-37.174 21.684v-35.624l37.174-21.685z" clip-rule="evenodd"/><path fill="url(#p)" fill-rule="evenodd" d="M317.044 469.514V433.89l37.173 21.684v35.625zm0 .062v35.625l37.173 21.685v-35.625zm0 35.687v35.625l37.173 21.684v-35.624z" clip-rule="evenodd"/><path fill="url(#q)" d="M179.19 317.569h-21.684v9.293c0 3.422 4.854 6.196 10.842 6.196s10.842-2.774 10.842-6.196z"/><path fill="url(#r)" d="M216.363 339.129h-21.684v9.294c0 3.421 4.854 6.195 10.842 6.195s10.842-2.774 10.842-6.195z"/><path fill="url(#s)" d="M290.712 339.129h-21.685v9.294c0 3.421 4.854 6.195 10.842 6.195s10.842-2.774 10.842-6.195z"/><path fill="url(#t)" d="M253.538 360.69h-21.685v9.293c0 3.422 4.854 6.196 10.842 6.196s10.843-2.774 10.843-6.196z"/><path fill="url(#u)" d="M402.232 317.569h-21.685v9.293c0 3.422 4.855 6.196 10.843 6.196s10.842-2.774 10.842-6.196v-9.293"/><path fill="url(#v)" d="M365.058 339.129h-21.684v9.294c0 3.421 4.854 6.195 10.842 6.195s10.842-2.774 10.842-6.195v-9.294"/><path fill="url(#w)" d="M327.884 360.69H306.2v9.293c0 3.422 4.854 6.196 10.842 6.196s10.843-2.774 10.843-6.196l-.001-.041z"/><path fill="url(#x)" d="M290.712 382.251h-21.685v9.293c0 3.422 4.854 6.196 10.842 6.196s10.842-2.774 10.842-6.196z"/><path fill="url(#y)" d="M142.017 339.129h-21.684v9.294c0 3.422 4.854 6.195 10.842 6.195s10.842-2.773 10.842-6.195v-9.294"/><path fill="url(#z)" d="M439.406 339.129h-21.684v9.294c0 3.422 4.854 6.195 10.842 6.195s10.842-2.773 10.842-6.195v-9.294"/><path fill="url(#A)" d="M179.19 360.69h-21.684v9.293c0 3.422 4.854 6.196 10.842 6.196s10.842-2.774 10.842-6.196z"/><path fill="url(#B)" d="M142.017 382.251h-21.684v9.293c0 3.422 4.854 6.196 10.842 6.196s10.842-2.774 10.842-6.196v-9.293"/><path fill="url(#C)" d="M216.365 382.251H194.68v9.293c0 3.422 4.854 6.196 10.842 6.196s10.842-2.774 10.843-6.196z"/><path fill="url(#D)" d="M179.19 403.811h-21.684v9.294c0 3.422 4.854 6.195 10.842 6.195s10.842-2.773 10.842-6.195z"/><path fill="url(#E)" d="M253.538 403.811h-21.685v9.294c0 3.422 4.854 6.195 10.842 6.195s10.843-2.773 10.843-6.195z"/><path fill="url(#F)" d="M216.365 425.372H194.68v9.293c0 3.422 4.854 6.196 10.842 6.196s10.842-2.774 10.843-6.196z"/><path fill="url(#G)" d="M402.233 360.69h-21.685v9.293c0 3.422 4.854 6.196 10.842 6.196s10.843-2.774 10.843-6.196v-9.293"/><path fill="url(#H)" d="M365.058 382.251h-21.684v9.293c0 3.422 4.854 6.196 10.842 6.196s10.842-2.774 10.842-6.196v-9.293"/><path fill="url(#I)" d="M327.886 403.811h-21.685v9.294c0 3.421 4.855 6.195 10.843 6.195s10.842-2.773 10.842-6.195v-9.294"/><path fill="url(#J)" d="M290.712 425.372h-21.685v9.293c0 3.422 4.854 6.196 10.842 6.196s10.842-2.774 10.842-6.196z"/><path fill="url(#K)" d="M439.406 382.251h-21.684v9.293c0 3.422 4.854 6.196 10.842 6.196s10.842-2.774 10.842-6.196v-9.293"/><path fill="url(#L)" d="M402.233 403.811h-21.685v9.294c0 3.421 4.854 6.195 10.842 6.195s10.843-2.773 10.843-6.195v-9.294"/><path fill="url(#M)" d="M365.058 425.372h-21.684v9.293c0 3.422 4.854 6.196 10.842 6.196s10.842-2.774 10.842-6.196v-9.293"/><path fill="#1884CF" d="M179.191 317.569h-21.684v9.293c0 3.422 4.854 6.196 10.842 6.196s10.842-2.774 10.842-6.196zM216.364 339.129H194.68v9.294c0 3.421 4.854 6.195 10.842 6.195s10.842-2.774 10.842-6.195zM290.713 339.129h-21.685v9.293999999999999c0 3.421 4.854 6.195 10.842 6.195s10.842-2.774 10.842-6.195zM253.539 360.69h-21.685v9.293000000000001c0 3.422 4.854 6.196 10.842 6.196s10.843-2.774 10.843-6.196zM402.233 317.569h-21.685v9.293c0 3.422 4.855 6.196 10.843 6.196s10.842-2.774 10.842-6.196v-9.293M365.059 339.129h-21.684v9.294c0 3.421 4.854 6.195 10.842 6.195s10.842-2.774 10.842-6.195v-9.294M327.885 360.69h-21.684v9.293c0 3.422 4.854 6.196 10.842 6.196s10.843-2.774 10.843-6.196l-.001-.041z"/><g fill="#EFF8FF" fill-opacity=".6" filter="url(#N)"><path d="M179.19 317.568c0 3.422-4.854 6.196-10.842 6.196s-10.842-2.774-10.842-6.196 4.854-6.196 10.842-6.196 10.842 2.774 10.842 6.196M216.363 339.129c0 3.422-4.854 6.195-10.842 6.195s-10.842-2.773-10.842-6.195 4.854-6.196 10.842-6.196 10.842 2.774 10.842 6.196M290.711 339.129c0 3.422-4.854 6.195-10.842 6.195s-10.842-2.773-10.842-6.195 4.854-6.196 10.842-6.196 10.842 2.774 10.842 6.196M253.538 360.69c0 3.421-4.855 6.195-10.843 6.195s-10.842-2.774-10.842-6.195 4.854-6.196 10.842-6.196 10.843 2.774 10.843 6.196M402.232 317.568c0 3.422-4.854 6.196-10.842 6.196s-10.843-2.774-10.843-6.196 4.855-6.196 10.843-6.196 10.842 2.774 10.842 6.196M365.058 339.129c0 3.422-4.854 6.195-10.842 6.195s-10.842-2.773-10.842-6.195 4.854-6.196 10.842-6.196 10.842 2.774 10.842 6.196M327.884 360.69c0 3.421-4.854 6.195-10.842 6.195s-10.842-2.774-10.842-6.195 4.854-6.196 10.842-6.196 10.842 2.774 10.842 6.196M290.711 382.25c0 3.422-4.854 6.196-10.842 6.196s-10.842-2.774-10.842-6.196 4.854-6.195 10.842-6.195 10.842 2.774 10.842 6.195M142.017 339.129c0 3.422-4.854 6.195-10.842 6.195s-10.842-2.773-10.842-6.195 4.854-6.196 10.842-6.196 10.842 2.774 10.842 6.196M439.406 339.129c0 3.422-4.854 6.195-10.842 6.195s-10.842-2.773-10.842-6.195 4.854-6.196 10.842-6.196 10.842 2.774 10.842 6.196M179.19 360.69c0 3.421-4.854 6.195-10.842 6.195s-10.842-2.774-10.842-6.195 4.854-6.196 10.842-6.196 10.842 2.774 10.842 6.196M142.017 382.25c0 3.422-4.854 6.196-10.842 6.196s-10.842-2.774-10.842-6.196 4.854-6.195 10.842-6.195 10.842 2.774 10.842 6.195M216.365 382.25c0 3.422-4.855 6.196-10.843 6.196s-10.842-2.774-10.842-6.196 4.854-6.195 10.842-6.195 10.843 2.774 10.843 6.195M179.19 403.811c0 3.422-4.854 6.195-10.842 6.195s-10.842-2.773-10.842-6.195 4.854-6.196 10.842-6.196 10.842 2.774 10.842 6.196M253.538 403.811c0 3.422-4.855 6.195-10.843 6.195s-10.842-2.773-10.842-6.195 4.854-6.196 10.842-6.196 10.843 2.774 10.843 6.196M216.365 425.372c0 3.421-4.855 6.195-10.843 6.195s-10.842-2.774-10.842-6.195 4.854-6.196 10.842-6.196 10.843 2.774 10.843 6.196M402.233 360.69c0 3.421-4.855 6.195-10.843 6.195s-10.842-2.774-10.842-6.195 4.854-6.196 10.842-6.196 10.843 2.774 10.843 6.196M365.058 382.25c0 3.422-4.854 6.196-10.842 6.196s-10.842-2.774-10.842-6.196 4.854-6.195 10.842-6.195 10.842 2.774 10.842 6.195M327.886 403.811c0 3.422-4.855 6.195-10.843 6.195s-10.842-2.773-10.842-6.195 4.854-6.196 10.842-6.196 10.843 2.774 10.843 6.196M290.711 425.372c0 3.421-4.854 6.195-10.842 6.195s-10.842-2.774-10.842-6.195 4.854-6.196 10.842-6.196 10.842 2.774 10.842 6.196M439.406 382.25c0 3.422-4.854 6.196-10.842 6.196s-10.842-2.774-10.842-6.196 4.854-6.195 10.842-6.195 10.842 2.774 10.842 6.195M402.233 403.811c0 3.422-4.855 6.195-10.843 6.195s-10.842-2.773-10.842-6.195 4.854-6.196 10.842-6.196 10.843 2.774 10.843 6.196M365.058 425.372c0 3.421-4.854 6.195-10.842 6.195s-10.842-2.774-10.842-6.195 4.854-6.196 10.842-6.196 10.842 2.774 10.842 6.196"/></g><path fill="#79C2F7" d="M179.191 317.568c0 3.422-4.854 6.196-10.842 6.196s-10.842-2.774-10.842-6.196 4.854-6.196 10.842-6.196 10.842 2.774 10.842 6.196M216.364 339.129c0 3.422-4.854 6.195-10.842 6.195s-10.842-2.773-10.842-6.195 4.854-6.196 10.842-6.196 10.842 2.774 10.842 6.196M290.712 339.129c0 3.422-4.854 6.195-10.842 6.195s-10.842-2.773-10.842-6.195 4.854-6.196 10.842-6.196 10.842 2.774 10.842 6.196M253.539 360.69c0 3.421-4.855 6.195-10.843 6.195s-10.842-2.774-10.842-6.195 4.854-6.196 10.842-6.196 10.843 2.774 10.843 6.196M402.233 317.568c0 3.422-4.854 6.196-10.842 6.196s-10.843-2.774-10.843-6.196 4.855-6.196 10.843-6.196 10.842 2.774 10.842 6.196M365.059 339.129c0 3.422-4.854 6.195-10.842 6.195s-10.842-2.773-10.842-6.195 4.854-6.196 10.842-6.196 10.842 2.774 10.842 6.196M327.885 360.69c0 3.421-4.854 6.195-10.842 6.195s-10.842-2.774-10.842-6.195 4.854-6.196 10.842-6.196 10.842 2.774 10.842 6.196"/><path fill="url(#O)" d="M94.548 390.629v35.625l37.174 21.685v-35.625z"/><g filter="url(#P)"><ellipse cx="273.525" cy="329.702" fill="#0029FF" rx="128.202" ry="58.389"/></g><path fill="#71C3FF" d="m354.22 215.31 37.173-21.684 37.174 21.684-37.174 21.685z"/><path fill="#2FA9FF" fill-rule="evenodd" d="M402.235 206.791h-21.684v9.294c0 3.421 4.854 6.195 10.842 6.195s10.842-2.774 10.842-6.195v-9.294" clip-rule="evenodd"/><ellipse cx="391.391" cy="206.791" fill="#EFF8FF" rx="10.842" ry="6.196"/><path fill="url(#Q)" fill-rule="evenodd" d="m354.218 258.492 37.172-21.683v-35.625l-37.174 21.685v35.564l-37.171 21.684v35.624l37.171-21.683v.062l-37.171 21.683v35.625l37.171-21.683v.122l37.174-21.684v-35.625l-37.172 21.683v-.062l37.172-21.683v-35.625l-37.172 21.684zm37.172 14.128 37.174-21.685V215.31l-37.174 21.685zm0 35.687 37.174-21.685v-35.625l-37.174 21.685z" clip-rule="evenodd"/><path fill="url(#R)" fill-rule="evenodd" d="M279.872 294.057v-35.625l37.173 21.685v35.624zm0 35.687v-35.625l37.173 21.684v35.625z" clip-rule="evenodd"/><path fill="#F88887" fill-rule="evenodd" d="M365.058 156.979h-21.684v9.293c0 3.422 4.854 6.196 10.842 6.196s10.842-2.774 10.842-6.196v-9.293" clip-rule="evenodd"/><ellipse cx="354.217" cy="156.979" fill="#FFEDEF" rx="10.842" ry="6.196"/><path fill="url(#S)" fill-rule="evenodd" d="m317.045 94-37.173 21.685 37.173 21.684 37.174-21.684zm37.172 49.813-37.174 21.685 37.174 21.685 37.174-21.685z" clip-rule="evenodd"/><g filter="url(#T)"><path fill="url(#U)" fill-rule="evenodd" d="m354.218 151.309-37.173 21.685v-35.625l37.173-21.684zm0 35.687-37.173 21.685v-35.625l37.173-21.685zm37.172 14.126-37.172 21.684v35.564l-37.173 21.684V244.43l37.171-21.684v-.062l-37.171 21.684v-35.625l37.173-21.685v.123l37.172-21.683z" clip-rule="evenodd"/></g><path fill="url(#V)" fill-rule="evenodd" d="M279.872 151.31v-35.625l37.173 21.684v35.625zm0 .061v35.625l37.173 21.685v-35.625zm0 71.312v-35.625l37.173 21.685v35.625zm0 35.687v-35.625l37.173 21.684v35.625z" clip-rule="evenodd"/><path fill="#F88887" fill-rule="evenodd" d="M327.888 107.166h-21.684v9.293c0 3.422 4.854 6.195 10.842 6.195s10.842-2.773 10.842-6.195z" clip-rule="evenodd"/><ellipse cx="317.043" cy="107.166" fill="#FFEDEF" rx="10.842" ry="6.196"/><path fill="#6EFAA6" d="m131.177 215.31 37.174-21.684 37.173 21.684-37.173 21.685z"/><path fill="#35C16D" fill-rule="evenodd" d="M179.19 206.791h-21.684v9.294c0 3.421 4.854 6.195 10.842 6.195s10.842-2.774 10.842-6.195v-9.294" clip-rule="evenodd"/><ellipse cx="168.352" cy="206.791" fill="#E7FFF0" rx="10.842" ry="6.196"/><path fill="url(#W)" fill-rule="evenodd" d="m279.87 294.057-37.174 21.684v-35.624l37.174-21.685zm0 35.687-37.174 21.684v-35.624l37.174-21.685z" clip-rule="evenodd"/><g filter="url(#X)"><path fill="url(#Y)" fill-rule="evenodd" d="M168.351 236.808v-35.624l37.173 21.684v35.625zm-37.174-21.498v35.625l37.173 21.684v-35.625zm0 35.687v35.624l37.173 21.685v-35.625zm37.174 57.185v-35.625l37.173 21.685v35.625zm0-71.311v35.624l37.173 21.685v-35.625zm37.174 57.247v35.625l37.173 21.685v-35.625zm0-.062v-35.624l37.173 21.684v35.625z" clip-rule="evenodd"/></g><path fill="#FFEE92" d="m168.351 165.498 37.174-21.685 37.173 21.685-37.173 21.684z"/><path fill="#FFDE2E" fill-rule="evenodd" d="M216.366 156.979h-21.685v9.293c0 3.422 4.854 6.196 10.842 6.196s10.843-2.774 10.843-6.196z" clip-rule="evenodd"/><ellipse cx="205.524" cy="156.979" fill="#FFF6DF" rx="10.842" ry="6.196"/><path fill="#FFEE92" d="M205.525 115.685 242.699 94l37.173 21.685-37.173 21.684z"/><path fill="url(#Z)" fill-rule="evenodd" d="m279.87 151.309-37.174 21.685v-35.625l37.174-21.684zm-37.174 57.372 37.174-21.684v-35.625l-37.174 21.684zm37.174 14.002-37.174 21.685v-35.625l37.174-21.685zm0 35.687-37.174 21.684V244.43l37.174-21.685z" clip-rule="evenodd"/><g filter="url(#aa)"><path fill="url(#ab)" fill-rule="evenodd" d="M205.523 151.309v-35.624l37.174 21.684v35.625zm0 .063v35.624l37.174 21.685v-35.625zm-37.174 14.125v35.625l37.174 21.685v-35.625zm37.174 57.248v35.625l37.174 21.684v-35.625zm0-.062v-35.625l37.174 21.685v35.624z" clip-rule="evenodd"/></g><path fill="#FFDE2E" fill-rule="evenodd" d="M253.54 107.166h-21.685v9.293c.001 3.422 4.855 6.195 10.843 6.195s10.842-2.773 10.842-6.195v-9.293" clip-rule="evenodd"/><ellipse cx="242.698" cy="107.166" fill="#FFF6DF" rx="10.842" ry="6.196"/></g><path fill="url(#ac)" d="m369.514 655.302 38.097-22.223v-36.51l-38.097 22.224z"/><path fill="url(#ad)" d="m293.321 655.302 38.097-22.223v-36.51l-38.097 22.224z"/><path fill="#2FA9FF" d="M179.029 398.465v36.51l38.097 22.223v-36.509zM179.029 361.892v36.51l38.097 22.223v-36.509z"/><path fill="#23CFCF" d="m293.321 618.729 38.097-22.223v-36.509l-38.097 22.223z"/><path fill="url(#ae)" d="M521.903 501.391 560 479.167v-36.509l-38.097 22.223z"/><path fill="#2F83FF" d="M521.903 464.818 560 442.594v-36.509l-38.097 22.223z"/><path fill="url(#af)" fill-rule="evenodd" d="m521.9 537.836-38.097 22.223V523.55l38.097-22.223zm0 36.573-38.097 22.224v-36.51L521.9 537.9z" clip-rule="evenodd"/><path fill="url(#ag)" fill-rule="evenodd" d="m483.804 596.505-38.097 22.224v-36.51l38.097-22.223zm0 36.574-38.097 22.223v-36.51l38.097-22.223z" clip-rule="evenodd"/><path fill="url(#ah)" fill-rule="evenodd" d="M179.029 442.658v36.51l38.097 22.223v-36.51zm38.285 131.329v-36.51l38.097 22.223v.407l37.908 22.113v36.509l-38.096-22.223v-.406zm37.909 22.583v36.509l38.096 22.223v-36.509zm76.193 0v36.509l38.097 22.223v-36.509zm-114.102-95.666v36.509l38.097 22.224v-36.51zm190.295 59.092v36.51l38.097 22.223V582.22zm0 36.574v36.509l38.097 22.223v-36.509z" clip-rule="evenodd"/><path fill="#2F83FF" d="M521.903 457.198 560 434.975v-36.51l-38.097 22.224zM521.903 420.625 560 398.402v-36.51l-38.097 22.224z"/><path fill="url(#ai)" fill-rule="evenodd" d="m331.418 486.787-38.097 22.223v-36.509l38.097-22.224zm-38.097 58.796 38.097-22.223v-36.51l-38.097 22.223zm0 36.573 38.097-22.223v-36.51l-38.097 22.223z" clip-rule="evenodd"/><path fill="url(#aj)" fill-rule="evenodd" d="M179.029 442.594v-36.509l38.096 22.223v-.127l38.097 22.223v36.51l-38.096-22.223v.064l38.096 22.223v36.509l-38.097-22.223v-36.447zm76.194 117.339v-36.509l38.096 22.223v36.509zm0-73.083v36.51l38.096 22.223v-36.509zm0-.063v-36.509l38.096 22.223v36.509z" clip-rule="evenodd"/><path fill="url(#ak)" fill-rule="evenodd" d="m407.612 486.787-38.097 22.223v-36.509l38.097-22.224zm-38.097 58.796 38.097-22.223v-36.51l-38.097 22.223zm38.097 14.35-38.097 22.223v-36.509l38.097-22.224zm0 36.573-38.097 22.223v-36.51l38.097-22.223z" clip-rule="evenodd"/><path fill="url(#al)" fill-rule="evenodd" d="M331.415 486.787v-36.51l38.097 22.224v36.509zm0 .063v36.51l38.097 22.223v-36.51zm0 73.083v-36.51l38.097 22.224v36.509zm0 36.573v-36.51l38.097 22.223v36.51z" clip-rule="evenodd"/><g filter="url(#am)"><path fill="url(#an)" fill-rule="evenodd" d="m483.914 361.829 37.987-22.159 38.097 22.223-38.097 22.223-.109-.063-.31.181 37.399 21.816-37.167 21.681.744.434-38.097 22.223-38.097-22.223 37.167-21.681-.156-.091-37.351 21.788 37.879 22.097-38.097 22.223-37.988-22.16-.109.063-.108-.063-37.988 22.16-37.987-22.159-.108.062-.11-.063-37.989 22.16-37.988-22.16-.109.063-37.988-22.159-.108.063-38.097-22.223 37.879-22.096-37.879-22.096 38.097-22.223 37.987 22.159.109-.063 37.988 22.16.109-.064 37.989 22.16.11-.064.108.063 37.987-22.159 37.987 22.159.109-.063.109.064 37.988-22.16.11.064 37.989-22.16z" clip-rule="evenodd"/></g><path fill="url(#ao)" fill-rule="evenodd" d="m217.124 339.796 38.097-22.223 37.988 22.16.109-.064 37.987 22.16.108-.063.109.064 37.989-22.161 37.989 22.16.108-.063.109.063 37.988-22.16.108.064 37.988-22.16 38.097 22.223-38.097 22.224-.109-.064-37.987 22.16-.109-.063-37.988 22.159-37.988-22.16-.109.064-.109-.064-37.989 22.16-37.988-22.159-.107.063-37.988-22.16-.109.064z" clip-rule="evenodd"/><path fill="url(#ap)" fill-rule="evenodd" d="m483.803 486.913 38.096-22.223v-36.509l-38.096 22.222v-.126L445.706 472.5v36.51l38.096-22.223v.063l-38.096 22.223v36.51l38.096-22.223v.064l-38.096 22.222v36.51l38.097-22.223v-36.447l38.096-22.222v-36.51l-38.096 22.223z" clip-rule="evenodd"/><path fill="url(#aq)" fill-rule="evenodd" d="M407.612 486.787v-36.51l38.097 22.224v36.509zm0 .063v36.51l38.097 22.223v-36.51zm0 36.573v36.51l38.097 22.223v-36.51z" clip-rule="evenodd"/><path fill="url(#ar)" d="M266.335 331.066h-22.223v9.512l-.001.012c0 3.507 4.975 6.349 11.112 6.349s11.112-2.842 11.112-6.349z"/><path fill="url(#as)" d="M304.431 353.162h-22.223v9.524c0 3.507 4.975 6.35 11.111 6.35s11.112-2.843 11.112-6.35z"/><path fill="url(#at)" d="M380.626 353.162h-22.223v9.477l-.001.047c0 3.507 4.975 6.35 11.112 6.35s11.112-2.843 11.112-6.35z"/><path fill="url(#au)" d="M342.529 375.258h-22.223v9.485l-.001.039c0 3.507 4.975 6.35 11.112 6.35s11.112-2.843 11.112-6.35z"/><path fill="url(#av)" d="M494.916 331.066h-22.223v9.524c0 3.507 4.975 6.349 11.111 6.349s11.112-2.842 11.112-6.349v-9.524"/><path fill="url(#aw)" d="M456.819 353.162h-22.223v9.524c0 3.507 4.975 6.35 11.112 6.35 6.136 0 11.111-2.843 11.111-6.35v-9.524"/><path fill="url(#ax)" d="M418.722 375.258h-22.223v9.524c0 3.507 4.975 6.35 11.112 6.35 6.136 0 11.111-2.843 11.111-6.35v-9.524"/><path fill="url(#ay)" d="M380.626 397.355h-22.223v9.477l-.001.047c0 3.507 4.975 6.349 11.112 6.349s11.112-2.842 11.112-6.349z"/><path fill="url(#az)" d="M228.238 353.162h-22.223v9.524c0 3.507 4.975 6.35 11.112 6.35s11.111-2.843 11.111-6.35v-9.524"/><path fill="url(#aA)" d="M533.014 353.162H510.79v9.524c0 3.507 4.975 6.35 11.112 6.35s11.112-2.843 11.112-6.35v-9.524"/><path fill="url(#aB)" d="M266.335 375.258h-22.223v9.513l-.001.011c0 3.507 4.975 6.35 11.112 6.35s11.112-2.843 11.112-6.35z"/><path fill="url(#aC)" d="M228.238 397.354h-22.223v9.525c0 3.506 4.975 6.349 11.112 6.349s11.111-2.843 11.111-6.349v-9.525"/><path fill="url(#aD)" d="M304.432 397.354h-22.223v9.525c0 3.506 4.975 6.349 11.112 6.349 6.136 0 11.111-2.843 11.111-6.349z"/><path fill="url(#aE)" d="M266.335 419.451h-22.223v9.512l-.001.012c0 3.507 4.975 6.349 11.112 6.349s11.112-2.842 11.112-6.349z"/><path fill="url(#aF)" d="M342.529 419.451h-22.223v9.491l-.001.033c0 3.507 4.975 6.349 11.112 6.349s11.112-2.842 11.112-6.349z"/><path fill="url(#aG)" d="M304.432 441.547h-22.223v9.524c0 3.507 4.975 6.349 11.112 6.349 6.136 0 11.111-2.842 11.111-6.349z"/><path fill="url(#aH)" d="M494.917 375.258h-22.224v9.524c0 3.507 4.975 6.35 11.112 6.35s11.112-2.843 11.112-6.35v-9.524"/><path fill="url(#aI)" d="M456.819 397.354h-22.223v9.525c0 3.506 4.975 6.349 11.112 6.349 6.136 0 11.111-2.843 11.111-6.349v-9.525"/><path fill="url(#aJ)" d="M418.723 419.451H396.5v9.524c0 3.506 4.975 6.349 11.112 6.349s11.112-2.842 11.112-6.349l-.001-.047z"/><path fill="url(#aK)" d="M380.626 441.547h-22.223v9.477l-.001.047c0 3.507 4.975 6.349 11.112 6.349s11.112-2.842 11.112-6.349z"/><path fill="url(#aL)" d="M533.014 397.354H510.79v9.525c.001 3.506 4.975 6.349 11.112 6.349s11.112-2.843 11.112-6.349v-9.525"/><path fill="url(#aM)" d="M494.917 419.451h-22.224v9.524c0 3.506 4.975 6.349 11.112 6.349s11.112-2.842 11.112-6.349v-9.524"/><path fill="url(#aN)" d="M456.819 441.547h-22.223v9.524c0 3.507 4.975 6.349 11.112 6.349 6.136 0 11.111-2.842 11.111-6.349v-9.524"/><path fill="#1884CF" d="M266.336 331.066h-22.224v9.524000000000001c0 3.507 4.975 6.349 11.112 6.349s11.112-2.842 11.112-6.349zM304.432 353.162h-22.223v9.524c0 3.507 4.975 6.35 11.111 6.35s11.112-2.843 11.112-6.35zM380.627 353.162h-22.223v9.477l-.001.047c0 3.507 4.975 6.35 11.112 6.35s11.112-2.843 11.112-6.35zM342.53 375.258h-22.223v9.485l-.001.039c0 3.507 4.975 6.35 11.112 6.35s11.112-2.843 11.112-6.35zM494.917 331.066h-22.223v9.524c0 3.507 4.975 6.349 11.111 6.349s11.112-2.842 11.112-6.349v-9.524000000000001M456.82 353.162h-22.223v9.524c0 3.507 4.975 6.35 11.111 6.35s11.112-2.843 11.112-6.35v-9.524000000000001M418.723 375.258H396.5v9.524c0 3.507 4.975 6.35 11.112 6.35 6.136 0 11.111-2.843 11.111-6.35v-9.524"/><g fill="#EFF8FF" fill-opacity=".6" filter="url(#aO)"><path d="M266.335 331.065c0 3.507-4.975 6.35-11.112 6.35s-11.112-2.843-11.112-6.35 4.975-6.349 11.112-6.349 11.112 2.843 11.112 6.349M304.431 353.162c0 3.506-4.975 6.349-11.112 6.349-6.136 0-11.111-2.843-11.111-6.349s4.975-6.35 11.111-6.35 11.112 2.843 11.112 6.35M380.626 353.162c0 3.506-4.975 6.349-11.112 6.349s-11.112-2.843-11.112-6.349 4.975-6.35 11.112-6.35 11.112 2.843 11.112 6.35M342.529 375.258c0 3.507-4.975 6.35-11.112 6.35s-11.112-2.843-11.112-6.35 4.975-6.349 11.112-6.349 11.112 2.842 11.112 6.349M494.916 331.065c0 3.507-4.975 6.35-11.112 6.35-6.136 0-11.111-2.843-11.111-6.35s4.975-6.349 11.111-6.349 11.112 2.843 11.112 6.349M456.819 353.162c0 3.506-4.975 6.349-11.112 6.349-6.136 0-11.111-2.843-11.111-6.349s4.975-6.35 11.111-6.35 11.112 2.843 11.112 6.35M418.722 375.258c0 3.507-4.975 6.35-11.112 6.35-6.136 0-11.111-2.843-11.111-6.35s4.975-6.349 11.111-6.349 11.112 2.842 11.112 6.349M380.626 397.354c0 3.507-4.975 6.35-11.112 6.35s-11.112-2.843-11.112-6.35 4.975-6.349 11.112-6.349 11.112 2.843 11.112 6.349M228.238 353.162c0 3.506-4.974 6.349-11.111 6.349s-11.112-2.843-11.112-6.349 4.975-6.35 11.112-6.35 11.111 2.843 11.111 6.35M533.014 353.162c0 3.506-4.975 6.349-11.112 6.349s-11.112-2.843-11.112-6.349 4.975-6.35 11.112-6.35 11.112 2.843 11.112 6.35M266.335 375.258c0 3.507-4.975 6.35-11.112 6.35s-11.112-2.843-11.112-6.35 4.975-6.349 11.112-6.349 11.112 2.842 11.112 6.349M228.238 397.354c0 3.507-4.974 6.35-11.111 6.35s-11.112-2.843-11.112-6.35 4.975-6.349 11.112-6.349 11.111 2.842 11.111 6.349M304.432 397.354c0 3.507-4.975 6.35-11.111 6.35s-11.112-2.843-11.112-6.35 4.975-6.349 11.112-6.349c6.136 0 11.111 2.842 11.111 6.349M266.335 419.45c0 3.507-4.975 6.35-11.112 6.35s-11.112-2.843-11.112-6.35 4.975-6.349 11.112-6.349 11.112 2.843 11.112 6.349M342.529 419.45c0 3.507-4.975 6.35-11.112 6.35s-11.112-2.843-11.112-6.35 4.975-6.349 11.112-6.349 11.112 2.843 11.112 6.349M304.432 441.546c0 3.507-4.975 6.35-11.111 6.35s-11.112-2.843-11.112-6.35 4.975-6.349 11.112-6.349c6.136 0 11.111 2.843 11.111 6.349M494.917 375.258c0 3.507-4.975 6.35-11.112 6.35s-11.112-2.843-11.112-6.35 4.975-6.349 11.112-6.349 11.112 2.842 11.112 6.349M456.819 397.354c0 3.507-4.975 6.35-11.112 6.35-6.136 0-11.111-2.843-11.111-6.35s4.975-6.349 11.111-6.349 11.112 2.842 11.112 6.349M418.723 419.45c0 3.507-4.975 6.35-11.111 6.35s-11.112-2.843-11.112-6.35 4.975-6.349 11.112-6.349c6.136 0 11.111 2.843 11.111 6.349M380.626 441.546c0 3.507-4.975 6.35-11.112 6.35s-11.112-2.843-11.112-6.35 4.975-6.349 11.112-6.349 11.112 2.843 11.112 6.349M533.014 397.354c0 3.507-4.975 6.35-11.112 6.35s-11.112-2.843-11.112-6.35 4.975-6.349 11.112-6.349 11.112 2.842 11.112 6.349M494.917 419.45c0 3.507-4.975 6.35-11.112 6.35s-11.112-2.843-11.112-6.35 4.975-6.349 11.112-6.349 11.112 2.843 11.112 6.349M456.819 441.546c0 3.507-4.975 6.35-11.112 6.35-6.136 0-11.111-2.843-11.111-6.35s4.975-6.349 11.111-6.349 11.112 2.843 11.112 6.349"/></g><path fill="#79C2F7" d="M266.336 331.065c0 3.507-4.975 6.35-11.112 6.35s-11.112-2.843-11.112-6.35 4.975-6.349 11.112-6.349 11.112 2.843 11.112 6.349M304.432 353.162c0 3.506-4.975 6.349-11.112 6.349-6.136 0-11.111-2.843-11.111-6.349s4.975-6.35 11.111-6.35 11.112 2.843 11.112 6.35M380.627 353.162c0 3.506-4.975 6.349-11.112 6.349s-11.112-2.843-11.112-6.349 4.975-6.35 11.112-6.35 11.112 2.843 11.112 6.35M342.53 375.258c0 3.507-4.975 6.35-11.112 6.35s-11.112-2.843-11.112-6.35 4.975-6.349 11.112-6.349 11.112 2.842 11.112 6.349M494.917 331.065c0 3.507-4.975 6.35-11.112 6.35-6.136 0-11.111-2.843-11.111-6.35s4.975-6.349 11.111-6.349 11.112 2.843 11.112 6.349M456.82 353.162c0 3.506-4.975 6.349-11.112 6.349-6.136 0-11.111-2.843-11.111-6.349s4.975-6.35 11.111-6.35 11.112 2.843 11.112 6.35M418.723 375.258c0 3.507-4.975 6.35-11.112 6.35-6.136 0-11.111-2.843-11.111-6.35s4.975-6.349 11.111-6.349 11.112 2.842 11.112 6.349"/><path fill="url(#aP)" d="M179.59 405.941v36.51l38.096 22.223v-36.51z"/><g filter="url(#aQ)"><ellipse cx="362.955" cy="343.794" fill="#0029FF" rx="102.373" ry="46.721"/></g><path fill="#71C3FF" d="m445.707 226.268 38.097-22.223 38.097 22.223-38.097 22.224z"/><path fill="#2FA9FF" fill-rule="evenodd" d="M494.913 217.538H472.69v9.524c0 3.507 4.975 6.349 11.111 6.349s11.112-2.842 11.112-6.349z" clip-rule="evenodd"/><ellipse cx="483.804" cy="217.538" fill="#EFF8FF" rx="11.112" ry="6.349"/><path fill="url(#aR)" fill-rule="evenodd" d="m445.708 270.524 38.096-22.223v-36.51l-38.097 22.223v36.447l-38.096 22.223v36.51l38.096-22.223v.063l-38.096 22.223v36.51l38.096-22.223v.126l38.095-22.222v.127l38.097-22.224v-36.509l-38.095 22.222V285l38.095-22.222v-36.51l-38.095 22.223v-.127l-38.096 22.223zm0 36.636v-.063l38.094-22.222v.064z" clip-rule="evenodd"/><path fill="url(#aS)" fill-rule="evenodd" d="M369.511 306.97v-36.509l38.097 22.223v36.51zm0 36.574v-36.51l38.097 22.223v36.51z" clip-rule="evenodd"/><path fill="#F88887" fill-rule="evenodd" d="M456.817 166.488h-22.223v9.524c0 3.507 4.975 6.349 11.112 6.349 6.136 0 11.111-2.842 11.111-6.349z" clip-rule="evenodd"/><ellipse cx="445.705" cy="166.487" fill="#FFEDEF" rx="11.112" ry="6.349"/><path fill="url(#aT)" fill-rule="evenodd" d="m407.608 101.945-38.097 22.223 38.097 22.223 38.097-22.223zm38.096 51.05-38.097 22.223 38.097 22.223 38.097-22.223z" clip-rule="evenodd"/><g filter="url(#aU)"><path fill="url(#aV)" fill-rule="evenodd" d="m445.708 160.678-38.097 22.223v-36.51l38.097-22.223zm0 36.573-38.097 22.223v-36.51l38.097-22.223zm38.096 14.477-38.096 22.222v36.447l-38.097 22.223v-36.509l38.096-22.223v-.063l-38.096 22.222v-36.509l38.097-22.223v.126l38.096-22.223z" clip-rule="evenodd"/></g><path fill="url(#aW)" fill-rule="evenodd" d="M369.511 160.678v-36.51l38.097 22.223v36.51zm0 .063v36.51l38.097 22.223v-36.51zm0 73.083v-36.51l38.097 22.224v36.509zm0 36.573v-36.509l38.097 22.223v36.509z" clip-rule="evenodd"/><path fill="#F88887" fill-rule="evenodd" d="M418.722 115.438h-22.223v9.524c0 3.507 4.974 6.349 11.111 6.349s11.112-2.842 11.112-6.349z" clip-rule="evenodd"/><ellipse cx="407.61" cy="115.438" fill="#FFEDEF" rx="11.112" ry="6.349"/><path fill="#6EFAA6" d="m217.125 226.268 38.097-22.223 38.097 22.223-38.097 22.224z"/><path fill="#35C16D" fill-rule="evenodd" d="M266.333 217.538h-22.224v9.524c.001 3.507 4.975 6.349 11.112 6.349s11.112-2.842 11.112-6.349z" clip-rule="evenodd"/><ellipse cx="255.222" cy="217.538" fill="#E7FFF0" rx="11.112" ry="6.349"/><path fill="url(#aX)" fill-rule="evenodd" d="m369.512 306.97-38.097 22.224v-36.51l38.097-22.223zm0 36.574-38.097 22.223v-36.51l38.097-22.223z" clip-rule="evenodd"/><g filter="url(#aY)"><path fill="url(#aZ)" fill-rule="evenodd" d="M255.219 248.301v-36.509l38.097 22.223v36.509zm-38.096-22.032v36.509l38.096 22.223v.063l-38.096-22.222v36.509l38.097 22.223v-.126l38.096 22.223v-36.51l-38.096-22.223v-.064l38.096 22.223v-36.509l-38.097-22.224v.127zm76.194 80.765v36.51l38.097 22.223v-36.51zm0-.063v-36.51l38.097 22.223v36.51z" clip-rule="evenodd"/></g><path fill="#FFEE92" d="m255.22 175.218 38.097-22.223 38.097 22.223-38.097 22.224z"/><path fill="#FFDE2E" fill-rule="evenodd" d="M304.43 166.488h-22.223v9.524c0 3.507 4.974 6.349 11.111 6.349s11.112-2.842 11.112-6.349z" clip-rule="evenodd"/><ellipse cx="293.318" cy="166.487" fill="#FFF6DF" rx="11.112" ry="6.349"/><path fill="#FFEE92" d="m293.32 124.168 38.097-22.223 38.097 22.223-38.097 22.223z"/><path fill="url(#ba)" fill-rule="evenodd" d="m369.512 160.678-38.097 22.223v-36.509l38.097-22.224zm-38.097 58.796 38.097-22.223v-36.51l-38.097 22.224zm38.097 14.35-38.097 22.224v-36.51l38.097-22.223zm0 36.573-38.097 22.223v-36.509l38.097-22.223z" clip-rule="evenodd"/><g filter="url(#bb)"><path fill="url(#bc)" fill-rule="evenodd" d="M293.319 160.678v-36.51l38.097 22.223v36.51zm0 .063v36.509l38.097 22.224v-36.51zm-38.096 14.477v36.509l38.096 22.223v36.447l38.097 22.223v-36.51l-38.096-22.222v-.064l38.096 22.223v-36.509l-38.097-22.224v.126z" clip-rule="evenodd"/></g><path fill="#FFDE2E" fill-rule="evenodd" d="M342.526 115.437h-22.223v9.524c0 3.507 4.975 6.35 11.112 6.35 6.136 0 11.111-2.843 11.111-6.35z" clip-rule="evenodd"/><ellipse cx="331.417" cy="115.438" fill="#FFF6DF" rx="11.112" ry="6.349"/><defs><linearGradient id="b" x1="293.171" x2="296.817" y1="594.963" y2="634.099" gradientUnits="userSpaceOnUse"><stop stop-color="#23CFCF"/><stop offset="1" stop-color="#29E9E9" stop-opacity="0"/></linearGradient><linearGradient id="c" x1="218.821" x2="222.466" y1="594.965" y2="634.1" gradientUnits="userSpaceOnUse"><stop stop-color="#23CFCF"/><stop offset="1" stop-color="#29E9E9" stop-opacity="0"/></linearGradient><linearGradient id="d" x1="441.864" x2="445.51" y1="444.782" y2="483.917" gradientUnits="userSpaceOnUse"><stop stop-color="#23CFCF"/><stop offset="1" stop-color="#29E9E9" stop-opacity="0"/></linearGradient><linearGradient id="e" x1="408.075" x2="416.808" y1="473.769" y2="576.116" gradientUnits="userSpaceOnUse"><stop stop-color="#23CFCF"/><stop offset="1" stop-color="#29E9E9" stop-opacity="0"/></linearGradient><linearGradient id="f" x1="367.518" x2="376.985" y1="570.689" y2="633.314" gradientUnits="userSpaceOnUse"><stop stop-color="#23CFCF"/><stop offset="1" stop-color="#29E9E9" stop-opacity="0"/></linearGradient><linearGradient id="g" x1="187.083" x2="193.954" y1="492.81" y2="635.4" gradientUnits="userSpaceOnUse"><stop stop-color="#23CFCF"/><stop offset="1" stop-color="#29E9E9" stop-opacity="0"/></linearGradient><linearGradient id="h" x1="219.364" x2="322.229" y1="466.232" y2="490.23" gradientUnits="userSpaceOnUse"><stop stop-color="#0067FF"/><stop offset="1" stop-color="#2F83FF" stop-opacity="0"/></linearGradient><linearGradient id="i" x1="236.797" x2="200.116" y1="440.361" y2="576.174" gradientUnits="userSpaceOnUse"><stop stop-color="#2F76FF"/><stop offset="1" stop-color="#9BBDFF" stop-opacity=".75"/></linearGradient><linearGradient id="j" x1="293.715" x2="375.073" y1="475.2" y2="609.587" gradientUnits="userSpaceOnUse"><stop stop-color="#0067FF"/><stop offset="1" stop-color="#2F83FF" stop-opacity="0"/></linearGradient><linearGradient id="k" x1="290.295" x2="222.789" y1="481.336" y2="568.421" gradientUnits="userSpaceOnUse"><stop stop-color="#2F76FF"/><stop offset="1" stop-color="#9BBDFF" stop-opacity=".75"/></linearGradient><linearGradient id="o" x1="381.904" x2="463.205" y1="450.089" y2="488.065" gradientUnits="userSpaceOnUse"><stop stop-color="#0067FF"/><stop offset="1" stop-color="#2F83FF" stop-opacity="0"/></linearGradient><linearGradient id="p" x1="364.643" x2="316.235" y1="471.034" y2="550.801" gradientUnits="userSpaceOnUse"><stop stop-color="#2F76FF"/><stop offset="1" stop-color="#9BBDFF" stop-opacity=".75"/></linearGradient><linearGradient id="q" x1="279.869" x2="283.043" y1="317.569" y2="499.157" gradientUnits="userSpaceOnUse"><stop stop-color="#2FA9FF"/><stop offset="1" stop-color="#2FA9FF" stop-opacity="0"/></linearGradient><linearGradient id="r" x1="279.869" x2="283.043" y1="317.569" y2="499.157" gradientUnits="userSpaceOnUse"><stop stop-color="#2FA9FF"/><stop offset="1" stop-color="#2FA9FF" stop-opacity="0"/></linearGradient><linearGradient id="s" x1="279.869" x2="283.043" y1="317.569" y2="499.157" gradientUnits="userSpaceOnUse"><stop stop-color="#2FA9FF"/><stop offset="1" stop-color="#2FA9FF" stop-opacity="0"/></linearGradient><linearGradient id="t" x1="279.869" x2="283.043" y1="317.569" y2="499.157" gradientUnits="userSpaceOnUse"><stop stop-color="#2FA9FF"/><stop offset="1" stop-color="#2FA9FF" stop-opacity="0"/></linearGradient><linearGradient id="u" x1="279.869" x2="283.043" y1="317.569" y2="499.157" gradientUnits="userSpaceOnUse"><stop stop-color="#2FA9FF"/><stop offset="1" stop-color="#2FA9FF" stop-opacity="0"/></linearGradient><linearGradient id="v" x1="279.869" x2="283.043" y1="317.569" y2="499.157" gradientUnits="userSpaceOnUse"><stop stop-color="#2FA9FF"/><stop offset="1" stop-color="#2FA9FF" stop-opacity="0"/></linearGradient><linearGradient id="w" x1="279.869" x2="283.043" y1="317.569" y2="499.157" gradientUnits="userSpaceOnUse"><stop stop-color="#2FA9FF"/><stop offset="1" stop-color="#2FA9FF" stop-opacity="0"/></linearGradient><linearGradient id="x" x1="279.869" x2="283.043" y1="317.569" y2="499.157" gradientUnits="userSpaceOnUse"><stop stop-color="#2FA9FF"/><stop offset="1" stop-color="#2FA9FF" stop-opacity="0"/></linearGradient><linearGradient id="y" x1="279.869" x2="283.043" y1="317.569" y2="499.157" gradientUnits="userSpaceOnUse"><stop stop-color="#2FA9FF"/><stop offset="1" stop-color="#2FA9FF" stop-opacity="0"/></linearGradient><linearGradient id="z" x1="279.869" x2="283.043" y1="317.569" y2="499.157" gradientUnits="userSpaceOnUse"><stop stop-color="#2FA9FF"/><stop offset="1" stop-color="#2FA9FF" stop-opacity="0"/></linearGradient><linearGradient id="A" x1="279.869" x2="283.043" y1="317.569" y2="499.157" gradientUnits="userSpaceOnUse"><stop stop-color="#2FA9FF"/><stop offset="1" stop-color="#2FA9FF" stop-opacity="0"/></linearGradient><linearGradient id="B" x1="279.869" x2="283.043" y1="317.569" y2="499.157" gradientUnits="userSpaceOnUse"><stop stop-color="#2FA9FF"/><stop offset="1" stop-color="#2FA9FF" stop-opacity="0"/></linearGradient><linearGradient id="C" x1="279.869" x2="283.043" y1="317.569" y2="499.157" gradientUnits="userSpaceOnUse"><stop stop-color="#2FA9FF"/><stop offset="1" stop-color="#2FA9FF" stop-opacity="0"/></linearGradient><linearGradient id="D" x1="279.869" x2="283.043" y1="317.569" y2="499.157" gradientUnits="userSpaceOnUse"><stop stop-color="#2FA9FF"/><stop offset="1" stop-color="#2FA9FF" stop-opacity="0"/></linearGradient><linearGradient id="E" x1="279.869" x2="283.043" y1="317.569" y2="499.157" gradientUnits="userSpaceOnUse"><stop stop-color="#2FA9FF"/><stop offset="1" stop-color="#2FA9FF" stop-opacity="0"/></linearGradient><linearGradient id="F" x1="279.869" x2="283.043" y1="317.569" y2="499.157" gradientUnits="userSpaceOnUse"><stop stop-color="#2FA9FF"/><stop offset="1" stop-color="#2FA9FF" stop-opacity="0"/></linearGradient><linearGradient id="G" x1="279.869" x2="283.043" y1="317.569" y2="499.157" gradientUnits="userSpaceOnUse"><stop stop-color="#2FA9FF"/><stop offset="1" stop-color="#2FA9FF" stop-opacity="0"/></linearGradient><linearGradient id="H" x1="279.869" x2="283.043" y1="317.569" y2="499.157" gradientUnits="userSpaceOnUse"><stop stop-color="#2FA9FF"/><stop offset="1" stop-color="#2FA9FF" stop-opacity="0"/></linearGradient><linearGradient id="I" x1="279.869" x2="283.043" y1="317.569" y2="499.157" gradientUnits="userSpaceOnUse"><stop stop-color="#2FA9FF"/><stop offset="1" stop-color="#2FA9FF" stop-opacity="0"/></linearGradient><linearGradient id="J" x1="279.869" x2="283.043" y1="317.569" y2="499.157" gradientUnits="userSpaceOnUse"><stop stop-color="#2FA9FF"/><stop offset="1" stop-color="#2FA9FF" stop-opacity="0"/></linearGradient><linearGradient id="K" x1="279.869" x2="283.043" y1="317.569" y2="499.157" gradientUnits="userSpaceOnUse"><stop stop-color="#2FA9FF"/><stop offset="1" stop-color="#2FA9FF" stop-opacity="0"/></linearGradient><linearGradient id="L" x1="279.869" x2="283.043" y1="317.569" y2="499.157" gradientUnits="userSpaceOnUse"><stop stop-color="#2FA9FF"/><stop offset="1" stop-color="#2FA9FF" stop-opacity="0"/></linearGradient><linearGradient id="M" x1="279.869" x2="283.043" y1="317.569" y2="499.157" gradientUnits="userSpaceOnUse"><stop stop-color="#2FA9FF"/><stop offset="1" stop-color="#2FA9FF" stop-opacity="0"/></linearGradient><linearGradient id="O" x1="108.39" x2="144.407" y1="405.033" y2="427.085" gradientUnits="userSpaceOnUse"><stop stop-color="#0067FF"/><stop offset="1" stop-color="#2F83FF" stop-opacity="0"/></linearGradient><linearGradient id="Q" x1="358.569" x2="458.211" y1="238.945" y2="308.757" gradientUnits="userSpaceOnUse"><stop stop-color="#0067FF"/><stop offset="1" stop-color="#C8DEFF"/></linearGradient><linearGradient id="R" x1="327.472" x2="298.459" y1="285.275" y2="351.428" gradientUnits="userSpaceOnUse"><stop stop-color="#2F76FF"/><stop offset="1" stop-color="#A8C5FF"/></linearGradient><linearGradient id="S" x1="323.663" x2="424.574" y1="138.033" y2="176.113" gradientUnits="userSpaceOnUse"><stop offset=".068" stop-color="#FFB8B4"/><stop offset="1" stop-color="#FFB8B4" stop-opacity="0"/></linearGradient><linearGradient id="U" x1="322.393" x2="402.361" y1="167.228" y2="223.712" gradientUnits="userSpaceOnUse"><stop stop-color="#D24544"/><stop offset="1" stop-color="#FB9190" stop-opacity=".24"/></linearGradient><linearGradient id="V" x1="298.459" x2="276.064" y1="115.685" y2="231.329" gradientUnits="userSpaceOnUse"><stop stop-color="#F79998"/><stop offset="1" stop-color="#F88887"/></linearGradient><linearGradient id="W" x1="256.387" x2="223.385" y1="275.121" y2="414.112" gradientUnits="userSpaceOnUse"><stop stop-color="#1DAC56"/><stop offset="1" stop-color="#0E9F48" stop-opacity="0"/></linearGradient><linearGradient id="Y" x1="221.483" x2="65.355" y1="308.757" y2="261.157" gradientUnits="userSpaceOnUse"><stop stop-color="#20C375"/><stop offset="1" stop-color="#A4FFC8" stop-opacity=".37"/></linearGradient><linearGradient id="Z" x1="261.283" x2="261.283" y1="115.685" y2="280.055" gradientUnits="userSpaceOnUse"><stop stop-color="#DBA10E"/><stop offset="1" stop-color="#F9C594"/></linearGradient><linearGradient id="ab" x1="235.444" x2="137.705" y1="180.555" y2="176.113" gradientUnits="userSpaceOnUse"><stop stop-color="#FFDE2E"/><stop offset="1" stop-color="#fff" stop-opacity="0"/></linearGradient><linearGradient id="ac" x1="383.142" x2="386.879" y1="615.352" y2="655.459" gradientUnits="userSpaceOnUse"><stop stop-color="#23CFCF"/><stop offset="1" stop-color="#29E9E9" stop-opacity="0"/></linearGradient><linearGradient id="ad" x1="306.949" x2="310.685" y1="615.352" y2="655.459" gradientUnits="userSpaceOnUse"><stop stop-color="#23CFCF"/><stop offset="1" stop-color="#29E9E9" stop-opacity="0"/></linearGradient><linearGradient id="ae" x1="535.53" x2="539.267" y1="461.44" y2="501.548" gradientUnits="userSpaceOnUse"><stop stop-color="#23CFCF"/><stop offset="1" stop-color="#29E9E9" stop-opacity="0"/></linearGradient><linearGradient id="af" x1="500.899" x2="509.849" y1="491.147" y2="596.036" gradientUnits="userSpaceOnUse"><stop stop-color="#23CFCF"/><stop offset="1" stop-color="#29E9E9" stop-opacity="0"/></linearGradient><linearGradient id="ag" x1="459.335" x2="469.038" y1="590.474" y2="654.655" gradientUnits="userSpaceOnUse"><stop stop-color="#23CFCF"/><stop offset="1" stop-color="#29E9E9" stop-opacity="0"/></linearGradient><linearGradient id="ah" x1="274.424" x2="281.465" y1="510.66" y2="656.791" gradientUnits="userSpaceOnUse"><stop stop-color="#23CFCF"/><stop offset="1" stop-color="#29E9E9" stop-opacity="0"/></linearGradient><linearGradient id="ai" x1="307.506" x2="412.926" y1="483.422" y2="508.016" gradientUnits="userSpaceOnUse"><stop stop-color="#0067FF"/><stop offset="1" stop-color="#2F83FF" stop-opacity="0"/></linearGradient><linearGradient id="aj" x1="325.375" x2="287.783" y1="456.908" y2="596.095" gradientUnits="userSpaceOnUse"><stop stop-color="#2F76FF"/><stop offset="1" stop-color="#9BBDFF" stop-opacity=".75"/></linearGradient><linearGradient id="ak" x1="383.7" x2="467.079" y1="492.614" y2="630.339" gradientUnits="userSpaceOnUse"><stop stop-color="#0067FF"/><stop offset="1" stop-color="#2F83FF" stop-opacity="0"/></linearGradient><linearGradient id="al" x1="380.197" x2="311.014" y1="498.901" y2="588.149" gradientUnits="userSpaceOnUse"><stop stop-color="#2F76FF"/><stop offset="1" stop-color="#9BBDFF" stop-opacity=".75"/></linearGradient><linearGradient id="ap" x1="474.077" x2="557.395" y1="466.879" y2="505.797" gradientUnits="userSpaceOnUse"><stop stop-color="#0067FF"/><stop offset="1" stop-color="#2F83FF" stop-opacity="0"/></linearGradient><linearGradient id="aq" x1="456.394" x2="406.783" y1="488.344" y2="570.093" gradientUnits="userSpaceOnUse"><stop stop-color="#2F76FF"/><stop offset="1" stop-color="#9BBDFF" stop-opacity=".75"/></linearGradient><linearGradient id="ar" x1="369.514" x2="372.767" y1="331.066" y2="517.164" gradientUnits="userSpaceOnUse"><stop stop-color="#2FA9FF"/><stop offset="1" stop-color="#2FA9FF" stop-opacity="0"/></linearGradient><linearGradient id="as" x1="369.514" x2="372.767" y1="331.066" y2="517.164" gradientUnits="userSpaceOnUse"><stop stop-color="#2FA9FF"/><stop offset="1" stop-color="#2FA9FF" stop-opacity="0"/></linearGradient><linearGradient id="at" x1="369.514" x2="372.767" y1="331.066" y2="517.164" gradientUnits="userSpaceOnUse"><stop stop-color="#2FA9FF"/><stop offset="1" stop-color="#2FA9FF" stop-opacity="0"/></linearGradient><linearGradient id="au" x1="369.514" x2="372.767" y1="331.066" y2="517.164" gradientUnits="userSpaceOnUse"><stop stop-color="#2FA9FF"/><stop offset="1" stop-color="#2FA9FF" stop-opacity="0"/></linearGradient><linearGradient id="av" x1="369.514" x2="372.767" y1="331.066" y2="517.164" gradientUnits="userSpaceOnUse"><stop stop-color="#2FA9FF"/><stop offset="1" stop-color="#2FA9FF" stop-opacity="0"/></linearGradient><linearGradient id="aw" x1="369.514" x2="372.767" y1="331.066" y2="517.164" gradientUnits="userSpaceOnUse"><stop stop-color="#2FA9FF"/><stop offset="1" stop-color="#2FA9FF" stop-opacity="0"/></linearGradient><linearGradient id="ax" x1="369.514" x2="372.767" y1="331.066" y2="517.164" gradientUnits="userSpaceOnUse"><stop stop-color="#2FA9FF"/><stop offset="1" stop-color="#2FA9FF" stop-opacity="0"/></linearGradient><linearGradient id="ay" x1="369.514" x2="372.767" y1="331.066" y2="517.164" gradientUnits="userSpaceOnUse"><stop stop-color="#2FA9FF"/><stop offset="1" stop-color="#2FA9FF" stop-opacity="0"/></linearGradient><linearGradient id="az" x1="369.514" x2="372.767" y1="331.066" y2="517.164" gradientUnits="userSpaceOnUse"><stop stop-color="#2FA9FF"/><stop offset="1" stop-color="#2FA9FF" stop-opacity="0"/></linearGradient><linearGradient id="aA" x1="369.514" x2="372.767" y1="331.066" y2="517.164" gradientUnits="userSpaceOnUse"><stop stop-color="#2FA9FF"/><stop offset="1" stop-color="#2FA9FF" stop-opacity="0"/></linearGradient><linearGradient id="aB" x1="369.514" x2="372.767" y1="331.066" y2="517.164" gradientUnits="userSpaceOnUse"><stop stop-color="#2FA9FF"/><stop offset="1" stop-color="#2FA9FF" stop-opacity="0"/></linearGradient><linearGradient id="aC" x1="369.514" x2="372.767" y1="331.066" y2="517.164" gradientUnits="userSpaceOnUse"><stop stop-color="#2FA9FF"/><stop offset="1" stop-color="#2FA9FF" stop-opacity="0"/></linearGradient><linearGradient id="aD" x1="369.514" x2="372.767" y1="331.066" y2="517.164" gradientUnits="userSpaceOnUse"><stop stop-color="#2FA9FF"/><stop offset="1" stop-color="#2FA9FF" stop-opacity="0"/></linearGradient><linearGradient id="aE" x1="369.514" x2="372.767" y1="331.066" y2="517.164" gradientUnits="userSpaceOnUse"><stop stop-color="#2FA9FF"/><stop offset="1" stop-color="#2FA9FF" stop-opacity="0"/></linearGradient><linearGradient id="aF" x1="369.514" x2="372.767" y1="331.066" y2="517.164" gradientUnits="userSpaceOnUse"><stop stop-color="#2FA9FF"/><stop offset="1" stop-color="#2FA9FF" stop-opacity="0"/></linearGradient><linearGradient id="aG" x1="369.514" x2="372.767" y1="331.066" y2="517.164" gradientUnits="userSpaceOnUse"><stop stop-color="#2FA9FF"/><stop offset="1" stop-color="#2FA9FF" stop-opacity="0"/></linearGradient><linearGradient id="aH" x1="369.514" x2="372.767" y1="331.066" y2="517.164" gradientUnits="userSpaceOnUse"><stop stop-color="#2FA9FF"/><stop offset="1" stop-color="#2FA9FF" stop-opacity="0"/></linearGradient><linearGradient id="aI" x1="369.514" x2="372.767" y1="331.066" y2="517.164" gradientUnits="userSpaceOnUse"><stop stop-color="#2FA9FF"/><stop offset="1" stop-color="#2FA9FF" stop-opacity="0"/></linearGradient><linearGradient id="aJ" x1="369.514" x2="372.767" y1="331.066" y2="517.164" gradientUnits="userSpaceOnUse"><stop stop-color="#2FA9FF"/><stop offset="1" stop-color="#2FA9FF" stop-opacity="0"/></linearGradient><linearGradient id="aK" x1="369.514" x2="372.767" y1="331.066" y2="517.164" gradientUnits="userSpaceOnUse"><stop stop-color="#2FA9FF"/><stop offset="1" stop-color="#2FA9FF" stop-opacity="0"/></linearGradient><linearGradient id="aL" x1="369.514" x2="372.767" y1="331.066" y2="517.164" gradientUnits="userSpaceOnUse"><stop stop-color="#2FA9FF"/><stop offset="1" stop-color="#2FA9FF" stop-opacity="0"/></linearGradient><linearGradient id="aM" x1="369.514" x2="372.767" y1="331.066" y2="517.164" gradientUnits="userSpaceOnUse"><stop stop-color="#2FA9FF"/><stop offset="1" stop-color="#2FA9FF" stop-opacity="0"/></linearGradient><linearGradient id="aN" x1="369.514" x2="372.767" y1="331.066" y2="517.164" gradientUnits="userSpaceOnUse"><stop stop-color="#2FA9FF"/><stop offset="1" stop-color="#2FA9FF" stop-opacity="0"/></linearGradient><linearGradient id="aP" x1="193.775" x2="230.687" y1="420.702" y2="443.302" gradientUnits="userSpaceOnUse"><stop stop-color="#0067FF"/><stop offset="1" stop-color="#2F83FF" stop-opacity="0"/></linearGradient><linearGradient id="aR" x1="450.166" x2="552.283" y1="250.49" y2="322.036" gradientUnits="userSpaceOnUse"><stop stop-color="#0067FF"/><stop offset="1" stop-color="#C8DEFF"/></linearGradient><linearGradient id="aS" x1="418.293" x2="388.56" y1="297.971" y2="365.767" gradientUnits="userSpaceOnUse"><stop stop-color="#2F76FF"/><stop offset="1" stop-color="#A8C5FF"/></linearGradient><linearGradient id="aT" x1="414.391" x2="517.809" y1="147.071" y2="186.097" gradientUnits="userSpaceOnUse"><stop offset=".068" stop-color="#FFB8B4"/><stop offset="1" stop-color="#FFB8B4" stop-opacity="0"/></linearGradient><linearGradient id="aV" x1="413.092" x2="495.046" y1="176.991" y2="234.88" gradientUnits="userSpaceOnUse"><stop stop-color="#D24544"/><stop offset="1" stop-color="#FB9190" stop-opacity=".24"/></linearGradient><linearGradient id="aW" x1="388.56" x2="365.608" y1="124.168" y2="242.684" gradientUnits="userSpaceOnUse"><stop stop-color="#F79998"/><stop offset="1" stop-color="#F88887"/></linearGradient><linearGradient id="aX" x1="345.447" x2="311.624" y1="287.564" y2="430.008" gradientUnits="userSpaceOnUse"><stop stop-color="#1DAC56"/><stop offset="1" stop-color="#0E9F48" stop-opacity="0"/></linearGradient><linearGradient id="aZ" x1="309.671" x2="149.667" y1="322.037" y2="273.255" gradientUnits="userSpaceOnUse"><stop stop-color="#20C375"/><stop offset="1" stop-color="#A4FFC8" stop-opacity=".37"/></linearGradient><linearGradient id="ba" x1="350.464" x2="350.464" y1="124.168" y2="292.62" gradientUnits="userSpaceOnUse"><stop stop-color="#DBA10E"/><stop offset="1" stop-color="#F9C594"/></linearGradient><linearGradient id="bc" x1="323.983" x2="223.819" y1="190.65" y2="186.097" gradientUnits="userSpaceOnUse"><stop stop-color="#FFDE2E"/><stop offset="1" stop-color="#fff" stop-opacity="0"/></linearGradient><filter id="a" width="559.74" height="727.947" x="0" y="0" color-interpolation-filters="sRGB" filterUnits="userSpaceOnUse"><feFlood flood-opacity="0" result="BackgroundImageFix"/><feBlend in="SourceGraphic" in2="BackgroundImageFix" result="shape"/><feGaussianBlur result="effect1_foregroundBlur_10626_26432" stdDeviation="47"/></filter><filter id="l" width="419.739" height="177.612" x="70" y="301.964" color-interpolation-filters="sRGB" filterUnits="userSpaceOnUse"><feFlood flood-opacity="0" result="BackgroundImageFix"/><feGaussianBlur in="BackgroundImageFix" stdDeviation="12"/><feComposite in2="SourceAlpha" operator="in" result="effect1_backgroundBlur_10626_26432"/><feBlend in="SourceGraphic" in2="effect1_backgroundBlur_10626_26432" result="shape"/></filter><filter id="N" width="327.074" height="128.195" x="116.333" y="307.372" color-interpolation-filters="sRGB" filterUnits="userSpaceOnUse"><feFlood flood-opacity="0" result="BackgroundImageFix"/><feGaussianBlur in="BackgroundImageFix" stdDeviation="2"/><feComposite in2="SourceAlpha" operator="in" result="effect1_backgroundBlur_10626_26432"/><feBlend in="SourceGraphic" in2="effect1_backgroundBlur_10626_26432" result="shape"/></filter><filter id="P" width="384.404" height="244.778" x="81.323" y="207.313" color-interpolation-filters="sRGB" filterUnits="userSpaceOnUse"><feFlood flood-opacity="0" result="BackgroundImageFix"/><feBlend in="SourceGraphic" in2="BackgroundImageFix" result="shape"/><feGaussianBlur result="effect1_foregroundBlur_10626_26432" stdDeviation="32"/></filter><filter id="T" width="182.345" height="272.37" x="263.045" y="61.685" color-interpolation-filters="sRGB" filterUnits="userSpaceOnUse"><feFlood flood-opacity="0" result="BackgroundImageFix"/><feGaussianBlur in="BackgroundImageFix" stdDeviation="27"/><feComposite in2="SourceAlpha" operator="in" result="effect1_backgroundBlur_10626_26432"/><feBlend in="SourceGraphic" in2="effect1_backgroundBlur_10626_26432" result="shape"/></filter><filter id="X" width="119.522" height="158.244" x="127.177" y="197.184" color-interpolation-filters="sRGB" filterUnits="userSpaceOnUse"><feFlood flood-opacity="0" result="BackgroundImageFix"/><feGaussianBlur in="BackgroundImageFix" stdDeviation="2"/><feComposite in2="SourceAlpha" operator="in" result="effect1_backgroundBlur_10626_26432"/><feBlend in="SourceGraphic" in2="effect1_backgroundBlur_10626_26432" result="shape"/></filter><filter id="aa" width="142.348" height="232.37" x="134.349" y="81.685" color-interpolation-filters="sRGB" filterUnits="userSpaceOnUse"><feFlood flood-opacity="0" result="BackgroundImageFix"/><feGaussianBlur in="BackgroundImageFix" stdDeviation="17"/><feComposite in2="SourceAlpha" operator="in" result="effect1_backgroundBlur_10626_26432"/><feBlend in="SourceGraphic" in2="effect1_backgroundBlur_10626_26432" result="shape"/></filter><filter id="am" width="428.969" height="180.831" x="155.029" y="315.67" color-interpolation-filters="sRGB" filterUnits="userSpaceOnUse"><feFlood flood-opacity="0" result="BackgroundImageFix"/><feGaussianBlur in="BackgroundImageFix" stdDeviation="12"/><feComposite in2="SourceAlpha" operator="in" result="effect1_backgroundBlur_10626_26432"/><feBlend in="SourceGraphic" in2="effect1_backgroundBlur_10626_26432" result="shape"/></filter><filter id="aO" width="334.999" height="131.18" x="202.015" y="320.716" color-interpolation-filters="sRGB" filterUnits="userSpaceOnUse"><feFlood flood-opacity="0" result="BackgroundImageFix"/><feGaussianBlur in="BackgroundImageFix" stdDeviation="2"/><feComposite in2="SourceAlpha" operator="in" result="effect1_backgroundBlur_10626_26432"/><feBlend in="SourceGraphic" in2="effect1_backgroundBlur_10626_26432" result="shape"/></filter><filter id="aQ" width="332.747" height="221.442" x="196.581" y="233.073" color-interpolation-filters="sRGB" filterUnits="userSpaceOnUse"><feFlood flood-opacity="0" result="BackgroundImageFix"/><feBlend in="SourceGraphic" in2="BackgroundImageFix" result="shape"/><feGaussianBlur result="effect1_foregroundBlur_10626_26432" stdDeviation="32"/></filter><filter id="aU" width="184.193" height="276.452" x="353.611" y="70.168" color-interpolation-filters="sRGB" filterUnits="userSpaceOnUse"><feFlood flood-opacity="0" result="BackgroundImageFix"/><feGaussianBlur in="BackgroundImageFix" stdDeviation="27"/><feComposite in2="SourceAlpha" operator="in" result="effect1_backgroundBlur_10626_26432"/><feBlend in="SourceGraphic" in2="effect1_backgroundBlur_10626_26432" result="shape"/></filter><filter id="aY" width="122.29" height="161.975" x="213.123" y="207.792" color-interpolation-filters="sRGB" filterUnits="userSpaceOnUse"><feFlood flood-opacity="0" result="BackgroundImageFix"/><feGaussianBlur in="BackgroundImageFix" stdDeviation="2"/><feComposite in2="SourceAlpha" operator="in" result="effect1_backgroundBlur_10626_26432"/><feBlend in="SourceGraphic" in2="effect1_backgroundBlur_10626_26432" result="shape"/></filter><filter id="bb" width="144.193" height="236.452" x="221.223" y="90.168" color-interpolation-filters="sRGB" filterUnits="userSpaceOnUse"><feFlood flood-opacity="0" result="BackgroundImageFix"/><feGaussianBlur in="BackgroundImageFix" stdDeviation="17"/><feComposite in2="SourceAlpha" operator="in" result="effect1_backgroundBlur_10626_26432"/><feBlend in="SourceGraphic" in2="effect1_backgroundBlur_10626_26432" result="shape"/></filter><radialGradient id="m" cx="0" cy="0" r="1" gradientTransform="matrix(0 142.025 -407.339 0 279.87 390.77)" gradientUnits="userSpaceOnUse"><stop stop-color="#71C3FF"/><stop offset="1" stop-color="#71C3FF" stop-opacity="0"/></radialGradient><radialGradient id="n" cx="0" cy="0" r="1" gradientTransform="rotate(89.999 -33.891 313.76)scale(71.5409 245.985)" gradientUnits="userSpaceOnUse"><stop stop-color="#5BA7DF"/><stop offset="1" stop-color="#83CAFE"/></radialGradient><radialGradient id="an" cx="0" cy="0" r="1" gradientTransform="matrix(0 145.552 -417.453 0 369.513 406.085)" gradientUnits="userSpaceOnUse"><stop stop-color="#71C3FF"/><stop offset="1" stop-color="#71C3FF" stop-opacity="0"/></radialGradient><radialGradient id="ao" cx="0" cy="0" r="1" gradientTransform="rotate(89.999 3.807 365.704)scale(73.318 252.094)" gradientUnits="userSpaceOnUse"><stop stop-color="#5BA7DF"/><stop offset="1" stop-color="#83CAFE"/></radialGradient></defs></svg>