<svg xmlns="http://www.w3.org/2000/svg" width="121" height="120" fill="none" opt="1"><g filter="url(#a)" opacity=".8"><path fill="#CDBEFF" d="M35.482 40.094 59.2 26.26l23.718 13.835L59.2 53.93z"/><path fill="#936DFF" d="m59.2 76.659 23.718-13.836V40.094L59.2 53.929z"/><path fill="#A080FF" d="M35.482 40.094v22.73L59.2 76.658v-22.73z"/><path fill="#9573FD" fill-rule="evenodd" d="M66.118 34.659H52.282v5.929c0 2.183 3.097 3.953 6.918 3.953 3.82 0 6.917-1.77 6.918-3.953z" clip-rule="evenodd"/><ellipse cx="59.2" cy="34.659" fill="#F7EEFF" rx="6.918" ry="3.953"/><path fill="#CDBEFF" d="m59.2 53.93 23.718-13.836 23.717 13.835-23.717 13.836z"/><path fill="url(#b)" d="m82.918 90.494 23.718-13.835v-22.73L82.918 67.765z"/><path fill="#A080FF" d="M59.2 53.93v22.729l23.718 13.835v-22.73z"/><path fill="#9573FD" fill-rule="evenodd" d="M89.835 48.494H76v5.93c0 2.183 3.097 3.952 6.918 3.952 3.82 0 6.917-1.77 6.917-3.953v-5.929" clip-rule="evenodd"/><ellipse cx="82.918" cy="48.494" fill="#F7EEFF" rx="6.918" ry="3.953"/><path fill="#FFB8B4" d="m11.765 53.93 23.717-13.836L59.2 53.929 35.482 67.765z"/><path fill="#EA6463" d="M35.482 90.494 59.2 76.66v-22.73L35.482 67.766z"/><path fill="#F88887" fill-rule="evenodd" d="M42.4 48.494H28.565v5.93c0 2.183 3.097 3.952 6.918 3.952 3.82 0 6.917-1.77 6.917-3.953v-5.929" clip-rule="evenodd"/><ellipse cx="35.482" cy="48.494" fill="#FFEDEF" rx="6.918" ry="3.953"/><path fill="#FFB8B4" d="M35.482 67.765 59.2 53.929l23.718 13.836L59.2 81.6z"/><g filter="url(#c)"><path fill="url(#d)" d="m59.2 104.329 23.717-13.835v-22.73L59.199 81.6z"/></g><path fill="url(#e)" fill-rule="evenodd" d="M11.765 76.659v-22.73l23.717 13.836L59.2 81.6v22.729L35.482 90.494z" clip-rule="evenodd"/><path fill="#F88887" fill-rule="evenodd" d="M66.117 62.33H52.28v5.929c0 2.183 3.097 3.953 6.918 3.953 3.82 0 6.918-1.77 6.918-3.953z" clip-rule="evenodd"/><ellipse cx="59.199" cy="62.329" fill="#FFEDEF" rx="6.918" ry="3.953"/></g><path fill="#CDBEFF" d="M39.082 40.094 62.8 26.26l23.717 13.835L62.8 53.93z"/><path fill="#936DFF" d="m62.8 76.659 23.717-13.836V40.094L62.8 53.929z"/><path fill="#A080FF" d="M39.082 40.094v22.73L62.8 76.658v-22.73z"/><path fill="#9573FD" fill-rule="evenodd" d="M69.717 34.659H55.882v5.929c0 2.183 3.097 3.953 6.918 3.953 3.82 0 6.917-1.77 6.917-3.953z" clip-rule="evenodd"/><ellipse cx="62.8" cy="34.659" fill="#F7EEFF" rx="6.918" ry="3.953"/><path fill="#CDBEFF" d="m62.8 53.93 23.718-13.836 23.717 13.835-23.717 13.836z"/><path fill="url(#f)" d="m86.518 90.494 23.717-13.835v-22.73L86.518 67.765z"/><path fill="#A080FF" d="M62.8 53.93v22.729l23.718 13.835v-22.73z"/><path fill="#9573FD" fill-rule="evenodd" d="M93.435 48.494H79.6v5.93c0 2.183 3.097 3.952 6.917 3.952s6.918-1.77 6.918-3.953v-5.929" clip-rule="evenodd"/><ellipse cx="86.517" cy="48.494" fill="#F7EEFF" rx="6.918" ry="3.953"/><path fill="#FFB8B4" d="m15.364 53.93 23.718-13.836L62.8 53.929 39.082 67.765z"/><path fill="#EA6463" d="M39.082 90.494 62.8 76.66v-22.73L39.082 67.766z"/><path fill="#F88887" fill-rule="evenodd" d="M46 48.494H32.163v5.93c0 2.183 3.098 3.952 6.918 3.952S46 56.606 46 54.423v-5.929" clip-rule="evenodd"/><ellipse cx="39.082" cy="48.494" fill="#FFEDEF" rx="6.918" ry="3.953"/><path fill="#FFB8B4" d="M39.082 67.765 62.8 53.929l23.717 13.836L62.8 81.6z"/><g filter="url(#g)"><path fill="url(#h)" d="m62.799 104.329 23.717-13.835v-22.73L62.8 81.6z"/></g><path fill="url(#i)" fill-rule="evenodd" d="M15.364 76.659v-22.73l23.718 13.836L62.799 81.6v22.729L39.082 90.494z" clip-rule="evenodd"/><path fill="#F88887" fill-rule="evenodd" d="M69.716 62.33H55.881v5.929c0 2.183 3.097 3.953 6.917 3.953 3.821 0 6.918-1.77 6.918-3.953z" clip-rule="evenodd"/><ellipse cx="62.798" cy="62.329" fill="#FFEDEF" rx="6.918" ry="3.953"/><defs><linearGradient id="b" x1="94.777" x2="94.777" y1="53.929" y2="90.494" gradientUnits="userSpaceOnUse"><stop stop-color="#632DFF"/><stop offset="1" stop-color="#AF93FF" stop-opacity=".78"/></linearGradient><linearGradient id="d" x1="60.906" x2="92.806" y1="79.231" y2="132.722" gradientUnits="userSpaceOnUse"><stop stop-color="#D24544"/><stop offset="1" stop-color="#FB9190" stop-opacity=".24"/></linearGradient><linearGradient id="e" x1="35.482" x2="33.774" y1="53.929" y2="90.639" gradientUnits="userSpaceOnUse"><stop stop-color="#F79998"/><stop offset="1" stop-color="#F88887"/></linearGradient><linearGradient id="f" x1="98.376" x2="98.376" y1="53.929" y2="90.494" gradientUnits="userSpaceOnUse"><stop stop-color="#632DFF"/><stop offset="1" stop-color="#AF93FF" stop-opacity=".78"/></linearGradient><linearGradient id="h" x1="64.505" x2="96.406" y1="79.231" y2="132.722" gradientUnits="userSpaceOnUse"><stop stop-color="#D24544"/><stop offset="1" stop-color="#FB9190" stop-opacity=".24"/></linearGradient><linearGradient id="i" x1="39.082" x2="37.373" y1="53.929" y2="90.639" gradientUnits="userSpaceOnUse"><stop stop-color="#F79998"/><stop offset="1" stop-color="#F88887"/></linearGradient><filter id="a" width="116.871" height="100.071" x=".765" y="15.259" color-interpolation-filters="sRGB" filterUnits="userSpaceOnUse"><feFlood flood-opacity="0" result="BackgroundImageFix"/><feBlend in="SourceGraphic" in2="BackgroundImageFix" result="shape"/><feGaussianBlur result="effect1_foregroundBlur_3528_121869" stdDeviation="5.5"/></filter><filter id="c" width="131.718" height="144.565" x="5.199" y="13.765" color-interpolation-filters="sRGB" filterUnits="userSpaceOnUse"><feFlood flood-opacity="0" result="BackgroundImageFix"/><feGaussianBlur in="BackgroundImageFix" stdDeviation="27"/><feComposite in2="SourceAlpha" operator="in" result="effect1_backgroundBlur_3528_121869"/><feBlend in="SourceGraphic" in2="effect1_backgroundBlur_3528_121869" result="shape"/></filter><filter id="g" width="131.718" height="144.565" x="8.799" y="13.765" color-interpolation-filters="sRGB" filterUnits="userSpaceOnUse"><feFlood flood-opacity="0" result="BackgroundImageFix"/><feGaussianBlur in="BackgroundImageFix" stdDeviation="27"/><feComposite in2="SourceAlpha" operator="in" result="effect1_backgroundBlur_3528_121869"/><feBlend in="SourceGraphic" in2="effect1_backgroundBlur_3528_121869" result="shape"/></filter></defs></svg>