<svg xmlns="http://www.w3.org/2000/svg" width="122" height="127" fill="none" opt="1"><g filter="url(#a)" opacity=".6"><path fill="#CDBEFF" d="M37.554 47.706 62.4 33.212l24.847 14.494L62.4 62.2z"/><path fill="#936DFF" d="m62.4 86.012 24.847-14.495V47.707L62.4 62.2z"/><path fill="#A080FF" d="M37.553 47.706v23.811L62.4 86.013V62.2z"/><path fill="#BCAAFC" d="m60.33 45.635 8.516-4.866a4 4 0 0 1 4.473.342c2.208 1.755 1.953 5.183-.49 6.593l-6.392 3.691z"/><path fill="#9573FD" fill-rule="evenodd" d="M69.647 42.011H55.152v6.213c0 2.286 3.245 4.14 7.247 4.14 4.003 0 7.248-1.854 7.248-4.14z" clip-rule="evenodd"/><ellipse cx="62.399" cy="42.012" fill="#F7EEFF" rx="7.247" ry="4.141"/><path fill="#CDBEFF" d="m62.4 62.2 24.847-14.494L112.095 62.2 87.247 76.694z"/><path fill="url(#b)" d="m87.247 100.506 24.847-14.494V62.2L87.247 76.694z"/><path fill="#A080FF" d="M62.4 62.2v23.812l24.848 14.494V76.694z"/><path fill="#9573FD" fill-rule="evenodd" d="M94.494 56.506H80v6.211c0 2.288 3.245 4.142 7.247 4.142 4.003 0 7.247-1.854 7.247-4.141v-6.212" clip-rule="evenodd"/><ellipse cx="87.247" cy="56.506" fill="#F7EEFF" rx="7.247" ry="4.141"/><path fill="#FFB8B4" d="m12.706 62.2 24.847-14.494L62.4 62.2 37.553 76.694z"/><path fill="#EA6463" d="M37.554 100.506 62.4 86.012V62.2L37.554 76.694z"/><path fill="#F88887" fill-rule="evenodd" d="M44.802 56.506H30.308v6.211c0 2.288 3.245 4.142 7.247 4.142s7.247-1.854 7.247-4.141v-6.212" clip-rule="evenodd"/><ellipse cx="37.554" cy="56.506" fill="#FFEDEF" rx="7.247" ry="4.141"/><path fill="#FFB8B4" d="M37.554 76.694 62.4 62.2l24.847 14.494L62.4 91.188z"/><g filter="url(#c)"><path fill="url(#d)" d="m62.4 115 24.847-14.494V76.694L62.4 91.188z"/></g><path fill="url(#e)" fill-rule="evenodd" d="M12.706 86.012V62.2l24.847 14.494L62.4 91.188V115l-24.847-14.494z" clip-rule="evenodd"/><path fill="#F88887" fill-rule="evenodd" d="M69.647 71H55.152v6.211c0 2.288 3.245 4.142 7.247 4.142 4.003 0 7.247-1.854 7.248-4.141z" clip-rule="evenodd"/><ellipse cx="62.399" cy="71" fill="#FFEDEF" rx="7.247" ry="4.141"/><path fill="#99D4FF" d="M37.554 23.894 62.4 9.4l24.847 14.494L62.4 38.388z"/><path fill="url(#f)" d="m62.4 62.2 24.847-14.494V23.894L62.4 38.388z"/><path fill="url(#g)" d="M37.553 23.894v23.812L62.4 62.2V38.388z"/><path fill="#2FA9FF" fill-rule="evenodd" d="M69.647 18.2H55.152v6.212c0 2.287 3.245 4.14 7.247 4.14 4.003 0 7.247-1.853 7.248-4.14z" clip-rule="evenodd"/><ellipse cx="62.399" cy="18.2" fill="#EFF8FF" rx="7.247" ry="4.141"/></g><path fill="#CDBEFF" d="M36.354 52.506 61.2 38.012l24.847 14.494L61.2 67z"/><path fill="#936DFF" d="m61.2 90.812 24.847-14.495V52.506L61.2 67z"/><path fill="#A080FF" d="M36.353 52.506v23.811L61.2 90.813V67z"/><path fill="#BCAAFC" d="m59.129 50.435 8.516-4.866a4 4 0 0 1 4.474.341c2.207 1.756 1.953 5.184-.49 6.594l-6.392 3.691z"/><path fill="#9573FD" fill-rule="evenodd" d="M68.446 46.811H53.952v6.212c0 2.287 3.245 4.141 7.247 4.141 4.003 0 7.247-1.854 7.247-4.14z" clip-rule="evenodd"/><ellipse cx="61.199" cy="46.812" fill="#F7EEFF" rx="7.247" ry="4.141"/><path fill="#CDBEFF" d="m61.2 67 24.847-14.494L110.894 67 86.047 81.494z"/><path fill="url(#h)" d="m86.047 105.306 24.847-14.494V67L86.047 81.494z"/><path fill="#A080FF" d="M61.2 67v23.812l24.847 14.494V81.494z"/><path fill="#9573FD" fill-rule="evenodd" d="M93.294 61.306H78.8v6.211c0 2.288 3.245 4.142 7.247 4.142s7.247-1.854 7.247-4.142v-6.211" clip-rule="evenodd"/><ellipse cx="86.047" cy="61.306" fill="#F7EEFF" rx="7.247" ry="4.141"/><path fill="#FFB8B4" d="m11.506 67 24.847-14.494L61.2 67 36.353 81.494z"/><path fill="#EA6463" d="M36.354 105.306 61.2 90.812V67L36.353 81.494z"/><path fill="#F88887" fill-rule="evenodd" d="M43.602 61.306H29.107v6.211c0 2.288 3.245 4.142 7.248 4.142 4.002 0 7.247-1.854 7.247-4.142v-6.211" clip-rule="evenodd"/><ellipse cx="36.353" cy="61.306" fill="#FFEDEF" rx="7.247" ry="4.141"/><path fill="#FFB8B4" d="M36.354 81.494 61.2 67l24.847 14.494L61.2 95.988z"/><g filter="url(#i)"><path fill="url(#j)" d="m61.2 119.8 24.847-14.494V81.494L61.2 95.988z"/></g><path fill="url(#k)" fill-rule="evenodd" d="M11.506 90.812V67l24.847 14.494L61.2 95.988V119.8l-24.848-14.494z" clip-rule="evenodd"/><path fill="#F88887" fill-rule="evenodd" d="M68.446 75.8H53.952v6.211c0 2.288 3.245 4.142 7.247 4.142 4.003 0 7.247-1.854 7.247-4.141z" clip-rule="evenodd"/><ellipse cx="61.199" cy="75.8" fill="#FFEDEF" rx="7.247" ry="4.141"/><path fill="#99D4FF" d="M36.354 28.694 61.2 14.2l24.847 14.494L61.2 43.188z"/><path fill="url(#l)" d="m61.2 67 24.847-14.494V28.694L61.2 43.188z"/><path fill="url(#m)" d="M36.353 28.694v23.812L61.2 67V43.188z"/><path fill="#2FA9FF" fill-rule="evenodd" d="M68.446 23H53.952v6.212c0 2.287 3.245 4.14 7.247 4.14 4.003 0 7.247-1.853 7.247-4.14z" clip-rule="evenodd"/><ellipse cx="61.199" cy="23" fill="#EFF8FF" rx="7.247" ry="4.141"/><defs><linearGradient id="b" x1="99.671" x2="99.671" y1="62.2" y2="100.506" gradientUnits="userSpaceOnUse"><stop stop-color="#632DFF"/><stop offset="1" stop-color="#AF93FF" stop-opacity=".78"/></linearGradient><linearGradient id="d" x1="64.188" x2="97.608" y1="88.706" y2="144.745" gradientUnits="userSpaceOnUse"><stop stop-color="#D24544"/><stop offset="1" stop-color="#FB9190" stop-opacity=".24"/></linearGradient><linearGradient id="e" x1="37.553" x2="35.763" y1="62.2" y2="100.658" gradientUnits="userSpaceOnUse"><stop stop-color="#F79998"/><stop offset="1" stop-color="#F88887"/></linearGradient><linearGradient id="f" x1="71.652" x2="95.726" y1="33.522" y2="48.261" gradientUnits="userSpaceOnUse"><stop stop-color="#0067FF"/><stop offset="1" stop-color="#7CB1FF"/></linearGradient><linearGradient id="g" x1="24" x2="73.383" y1="10.6" y2="45.045" gradientUnits="userSpaceOnUse"><stop stop-color="#0067FF"/><stop offset="1" stop-color="#7CB1FF"/></linearGradient><linearGradient id="h" x1="98.47" x2="98.47" y1="67" y2="105.306" gradientUnits="userSpaceOnUse"><stop stop-color="#632DFF"/><stop offset="1" stop-color="#AF93FF" stop-opacity=".78"/></linearGradient><linearGradient id="j" x1="62.988" x2="96.408" y1="93.506" y2="149.545" gradientUnits="userSpaceOnUse"><stop stop-color="#D24544"/><stop offset="1" stop-color="#FB9190" stop-opacity=".24"/></linearGradient><linearGradient id="k" x1="36.353" x2="34.563" y1="67" y2="105.458" gradientUnits="userSpaceOnUse"><stop stop-color="#F79998"/><stop offset="1" stop-color="#F88887"/></linearGradient><linearGradient id="l" x1="70.452" x2="94.526" y1="38.322" y2="53.061" gradientUnits="userSpaceOnUse"><stop stop-color="#0067FF"/><stop offset="1" stop-color="#7CB1FF"/></linearGradient><linearGradient id="m" x1="22.8" x2="72.183" y1="15.4" y2="49.845" gradientUnits="userSpaceOnUse"><stop stop-color="#0067FF"/><stop offset="1" stop-color="#7CB1FF"/></linearGradient><filter id="a" width="117.389" height="123.6" x="3.706" y=".4" color-interpolation-filters="sRGB" filterUnits="userSpaceOnUse"><feFlood flood-opacity="0" result="BackgroundImageFix"/><feBlend in="SourceGraphic" in2="BackgroundImageFix" result="shape"/><feGaussianBlur result="effect1_foregroundBlur_3528_121885" stdDeviation="4.5"/></filter><filter id="c" width="132.847" height="146.306" x="8.4" y="22.694" color-interpolation-filters="sRGB" filterUnits="userSpaceOnUse"><feFlood flood-opacity="0" result="BackgroundImageFix"/><feGaussianBlur in="BackgroundImageFix" stdDeviation="27"/><feComposite in2="SourceAlpha" operator="in" result="effect1_backgroundBlur_3528_121885"/><feBlend in="SourceGraphic" in2="effect1_backgroundBlur_3528_121885" result="shape"/></filter><filter id="i" width="132.847" height="146.306" x="7.2" y="27.494" color-interpolation-filters="sRGB" filterUnits="userSpaceOnUse"><feFlood flood-opacity="0" result="BackgroundImageFix"/><feGaussianBlur in="BackgroundImageFix" stdDeviation="27"/><feComposite in2="SourceAlpha" operator="in" result="effect1_backgroundBlur_3528_121885"/><feBlend in="SourceGraphic" in2="effect1_backgroundBlur_3528_121885" result="shape"/></filter></defs></svg>