<svg xmlns="http://www.w3.org/2000/svg" width="123" height="121" fill="none" opt="1"><g filter="url(#a)"><path fill="#EA6463" d="m39.667 91.216 24.666-14.389V53.189L39.667 67.577z"/><g filter="url(#b)"><path fill="url(#c)" fill-rule="evenodd" d="M39.668 38.8 15.002 53.189l24.666 14.388 24.666 14.389L89 67.576 64.334 53.19z" clip-rule="evenodd"/></g><path fill="#F88887" fill-rule="evenodd" d="M46.864 47.536H32.476v6.167c0 2.27 3.22 4.11 7.194 4.11s7.194-1.84 7.194-4.11z" clip-rule="evenodd"/><ellipse cx="39.669" cy="47.536" fill="#FFEDEF" rx="7.194" ry="4.111"/><g filter="url(#d)"><path fill="url(#e)" d="m64.333 105.604 24.666-14.389V67.577L64.333 81.966z"/></g><path fill="url(#f)" fill-rule="evenodd" d="M15.002 76.827V53.188l24.666 14.389 24.666 14.388v23.639L39.668 91.215z" clip-rule="evenodd"/><path fill="#F88887" fill-rule="evenodd" d="M71.53 61.924H57.142v6.166c0 2.27 3.22 4.111 7.194 4.111s7.194-1.84 7.194-4.11z" clip-rule="evenodd"/><ellipse cx="64.335" cy="61.924" fill="#FFEDEF" rx="7.194" ry="4.111"/></g><path fill="#EA6463" d="M51.999 82.867 76.665 68.48V44.84L52 59.23z"/><g filter="url(#g)"><path fill="url(#h)" fill-rule="evenodd" d="M51.997 30.451 27.331 44.84l24.666 14.388 24.666 14.389 24.666-14.389L76.663 44.84z" clip-rule="evenodd"/></g><path fill="#F88887" fill-rule="evenodd" d="M59.192 39.187H44.804v6.167c0 2.27 3.22 4.11 7.194 4.11s7.194-1.84 7.194-4.11z" clip-rule="evenodd"/><ellipse cx="51.998" cy="39.187" fill="#FFEDEF" rx="7.194" ry="4.111"/><g filter="url(#i)"><path fill="url(#j)" d="m76.665 97.256 24.666-14.389V59.23L76.665 73.617z"/></g><path fill="url(#k)" fill-rule="evenodd" d="M27.331 68.479V44.84L51.997 59.23l24.666 14.389v23.638L51.997 82.867z" clip-rule="evenodd"/><path fill="#F88887" fill-rule="evenodd" d="M83.858 53.575H69.47v6.167c0 2.27 3.221 4.11 7.194 4.11 3.974 0 7.195-1.84 7.195-4.11v-6.167" clip-rule="evenodd"/><ellipse cx="76.664" cy="53.576" fill="#FFEDEF" rx="7.194" ry="4.111"/><defs><linearGradient id="c" x1="44.06" x2="103.258" y1="59.198" y2="91.196" gradientUnits="userSpaceOnUse"><stop offset=".068" stop-color="#FFB8B4"/><stop offset="1" stop-color="#FFB8B4" stop-opacity="0"/></linearGradient><linearGradient id="e" x1="66.108" x2="99.284" y1="79.501" y2="135.132" gradientUnits="userSpaceOnUse"><stop stop-color="#D24544"/><stop offset="1" stop-color="#FB9190" stop-opacity=".24"/></linearGradient><linearGradient id="f" x1="39.668" x2="37.891" y1="53.188" y2="91.366" gradientUnits="userSpaceOnUse"><stop stop-color="#F79998"/><stop offset="1" stop-color="#F88887"/></linearGradient><linearGradient id="h" x1="56.389" x2="115.587" y1="50.849" y2="82.847" gradientUnits="userSpaceOnUse"><stop offset=".068" stop-color="#FFB8B4"/><stop offset="1" stop-color="#FFB8B4" stop-opacity="0"/></linearGradient><linearGradient id="j" x1="78.44" x2="111.616" y1="71.153" y2="126.784" gradientUnits="userSpaceOnUse"><stop stop-color="#D24544"/><stop offset="1" stop-color="#FB9190" stop-opacity=".24"/></linearGradient><linearGradient id="k" x1="51.997" x2="50.221" y1="44.84" y2="83.018" gradientUnits="userSpaceOnUse"><stop stop-color="#F79998"/><stop offset="1" stop-color="#F88887"/></linearGradient><filter id="a" width="103.998" height="96.804" x=".002" y="23.8" color-interpolation-filters="sRGB" filterUnits="userSpaceOnUse"><feFlood flood-opacity="0" result="BackgroundImageFix"/><feBlend in="SourceGraphic" in2="BackgroundImageFix" result="shape"/><feGaussianBlur result="effect1_foregroundBlur_3528_121853" stdDeviation="7.5"/></filter><filter id="b" width="81.998" height="51.166" x="11.002" y="34.8" color-interpolation-filters="sRGB" filterUnits="userSpaceOnUse"><feFlood flood-opacity="0" result="BackgroundImageFix"/><feGaussianBlur in="BackgroundImageFix" stdDeviation="2"/><feComposite in2="SourceAlpha" operator="in" result="effect1_backgroundBlur_3528_121853"/><feBlend in="SourceGraphic" in2="effect1_backgroundBlur_3528_121853" result="shape"/></filter><filter id="d" width="132.666" height="146.027" x="10.333" y="13.577" color-interpolation-filters="sRGB" filterUnits="userSpaceOnUse"><feFlood flood-opacity="0" result="BackgroundImageFix"/><feGaussianBlur in="BackgroundImageFix" stdDeviation="27"/><feComposite in2="SourceAlpha" operator="in" result="effect1_backgroundBlur_3528_121853"/><feBlend in="SourceGraphic" in2="effect1_backgroundBlur_3528_121853" result="shape"/></filter><filter id="g" width="81.998" height="51.166" x="23.331" y="26.451" color-interpolation-filters="sRGB" filterUnits="userSpaceOnUse"><feFlood flood-opacity="0" result="BackgroundImageFix"/><feGaussianBlur in="BackgroundImageFix" stdDeviation="2"/><feComposite in2="SourceAlpha" operator="in" result="effect1_backgroundBlur_3528_121853"/><feBlend in="SourceGraphic" in2="effect1_backgroundBlur_3528_121853" result="shape"/></filter><filter id="i" width="132.666" height="146.027" x="22.665" y="5.229" color-interpolation-filters="sRGB" filterUnits="userSpaceOnUse"><feFlood flood-opacity="0" result="BackgroundImageFix"/><feGaussianBlur in="BackgroundImageFix" stdDeviation="27"/><feComposite in2="SourceAlpha" operator="in" result="effect1_backgroundBlur_3528_121853"/><feBlend in="SourceGraphic" in2="effect1_backgroundBlur_3528_121853" result="shape"/></filter></defs></svg>