<svg xmlns="http://www.w3.org/2000/svg" width="120" height="120" fill="none" opt="1"><g filter="url(#a)"><path fill="#71C3FF" d="m31.2 51.277 24-14 24 14-24 14z"/><path fill="url(#b)" d="m55.2 88.277 24-14v-23l-24 14z"/><path fill="url(#c)" d="M31.2 51.277v23l24 14v-23z"/><path fill="#83C0FF" d="m53.2 49.277 8.226-4.701a3.86 3.86 0 0 1 4.321.33c2.133 1.696 1.887 5.007-.473 6.37L59.1 54.84z"/><path fill="#2FA9FF" fill-rule="evenodd" d="M62.2 45.777h-14v6c0 2.209 3.134 4 7 4s7-1.791 7-4z" clip-rule="evenodd"/><g filter="url(#d)"><ellipse cx="55.2" cy="45.776" fill="#EFF8FF" fill-opacity=".6" rx="7" ry="4"/></g></g><path fill="#71C3FF" d="m38.4 48.5 24-14 24 14-24 14z"/><path fill="url(#e)" d="m62.4 85.5 24-14v-23l-24 14z"/><path fill="url(#f)" d="M38.4 48.5v23l24 14v-23z"/><path fill="#83C0FF" d="m60.4 46.5 8.226-4.7a3.86 3.86 0 0 1 4.32.33c2.133 1.695 1.887 5.006-.472 6.369l-6.175 3.564z"/><path fill="#2FA9FF" fill-rule="evenodd" d="M69.4 43h-14v6c0 2.21 3.133 4 7 4 3.865 0 7-1.79 7-4z" clip-rule="evenodd"/><g filter="url(#g)"><ellipse cx="62.399" cy="43" fill="#EFF8FF" fill-opacity=".6" rx="7" ry="4"/></g><defs><linearGradient id="b" x1="64.137" x2="87.39" y1="60.576" y2="74.813" gradientUnits="userSpaceOnUse"><stop stop-color="#0067FF"/><stop offset="1" stop-color="#2F83FF" stop-opacity="0"/></linearGradient><linearGradient id="c" x1="40.137" x2="86.422" y1="60.576" y2="98.518" gradientUnits="userSpaceOnUse"><stop stop-color="#0067FF"/><stop offset="1" stop-color="#2F83FF" stop-opacity="0"/></linearGradient><linearGradient id="e" x1="71.336" x2="94.589" y1="57.799" y2="72.037" gradientUnits="userSpaceOnUse"><stop stop-color="#0067FF"/><stop offset="1" stop-color="#2F83FF" stop-opacity="0"/></linearGradient><linearGradient id="f" x1="47.336" x2="93.621" y1="57.799" y2="95.741" gradientUnits="userSpaceOnUse"><stop stop-color="#0067FF"/><stop offset="1" stop-color="#2F83FF" stop-opacity="0"/></linearGradient><filter id="a" width="72" height="75" x="19.2" y="25.276" color-interpolation-filters="sRGB" filterUnits="userSpaceOnUse"><feFlood flood-opacity="0" result="BackgroundImageFix"/><feBlend in="SourceGraphic" in2="BackgroundImageFix" result="shape"/><feGaussianBlur result="effect1_foregroundBlur_3528_121837" stdDeviation="6"/></filter><filter id="d" width="22" height="16" x="44.2" y="37.776" color-interpolation-filters="sRGB" filterUnits="userSpaceOnUse"><feFlood flood-opacity="0" result="BackgroundImageFix"/><feGaussianBlur in="BackgroundImageFix" stdDeviation="2"/><feComposite in2="SourceAlpha" operator="in" result="effect1_backgroundBlur_3528_121837"/><feBlend in="SourceGraphic" in2="effect1_backgroundBlur_3528_121837" result="shape"/></filter><filter id="g" width="22" height="16" x="51.399" y="35" color-interpolation-filters="sRGB" filterUnits="userSpaceOnUse"><feFlood flood-opacity="0" result="BackgroundImageFix"/><feGaussianBlur in="BackgroundImageFix" stdDeviation="2"/><feComposite in2="SourceAlpha" operator="in" result="effect1_backgroundBlur_3528_121837"/><feBlend in="SourceGraphic" in2="effect1_backgroundBlur_3528_121837" result="shape"/></filter></defs></svg>